<svg id="svg" version="1.1" xmlns="http://www.w3.org/2000/svg" xmlns:xlink="http://www.w3.org/1999/xlink" width="400" height="387.14859437751" viewBox="0, 0, 400,387.14859437751"><g id="svgg"><path id="path0" d="M190.126 0.539 C 190.126 1.142,189.309 1.549,188.099 1.549 C 187.086 1.549,180.853 4.385,178.316 6.001 C 174.603 8.366,168.441 14.086,167.320 16.208 C 167.023 16.771,166.642 17.322,166.472 17.433 C 165.279 18.217,161.164 26.278,160.819 28.508 C 160.691 29.334,160.263 30.656,159.867 31.446 C 159.229 32.722,159.148 33.885,159.148 41.820 C 159.148 49.754,159.229 50.918,159.867 52.194 C 160.263 52.984,160.691 54.306,160.819 55.132 C 161.760 61.209,171.172 73.491,177.763 77.241 C 178.146 77.459,179.427 78.204,180.608 78.896 C 181.790 79.589,182.890 80.160,183.053 80.167 C 183.216 80.174,184.221 80.608,185.286 81.132 C 186.350 81.655,187.595 82.086,188.051 82.087 C 188.507 82.089,189.639 82.436,190.568 82.857 C 193.143 84.025,208.960 84.032,211.137 82.865 C 211.932 82.439,212.953 82.091,213.406 82.091 C 214.179 82.091,218.272 80.516,219.555 79.724 C 219.874 79.527,220.574 79.151,221.110 78.889 C 226.826 76.093,233.326 69.804,237.015 63.504 C 237.700 62.333,238.476 61.113,238.739 60.794 C 239.002 60.474,239.335 59.659,239.478 58.981 C 239.622 58.304,239.971 57.558,240.254 57.323 C 240.536 57.089,240.891 56.077,241.041 55.075 C 241.191 54.073,241.585 52.730,241.916 52.090 C 242.993 50.006,242.847 34.208,241.721 31.073 C 241.243 29.741,240.852 28.308,240.852 27.888 C 240.852 27.468,240.504 26.554,240.079 25.856 C 239.654 25.159,239.305 24.311,239.304 23.971 C 239.304 23.631,238.955 23.038,238.529 22.652 C 238.103 22.267,237.751 21.761,237.747 21.528 C 237.740 21.134,237.358 20.511,234.615 16.416 C 232.135 12.714,224.777 6.399,221.060 4.782 C 220.496 4.537,219.917 4.144,219.772 3.910 C 219.627 3.676,219.214 3.480,218.854 3.473 C 218.494 3.466,217.328 3.032,216.263 2.508 C 215.198 1.985,213.935 1.554,213.456 1.552 C 212.977 1.550,212.236 1.200,211.810 0.774 C 210.802 -0.234,190.126 -0.458,190.126 0.539 M0.000 126.041 L 0.000 141.336 200.000 141.336 L 400.000 141.336 400.000 126.041 L 400.000 110.745 200.000 110.745 L 0.000 110.745 0.000 126.041 M0.000 184.124 L 0.000 199.419 59.959 199.419 C 118.847 199.419,119.931 199.433,120.600 200.172 C 120.974 200.586,121.730 200.978,122.280 201.043 C 123.008 201.129,123.359 201.465,123.575 202.277 C 123.738 202.891,124.253 203.799,124.720 204.296 C 125.719 205.360,125.560 208.125,124.399 209.849 C 124.032 210.395,123.539 211.191,123.306 211.617 C 122.383 213.298,118.532 219.856,117.394 221.684 C 116.731 222.749,115.639 224.666,114.967 225.944 C 114.294 227.222,112.986 229.443,112.059 230.880 C 111.133 232.318,110.001 234.226,109.545 235.120 C 109.088 236.014,108.145 237.626,107.447 238.702 C 106.750 239.778,105.160 242.384,103.913 244.494 C 99.940 251.216,97.443 255.458,95.293 259.143 C 94.142 261.116,92.606 263.710,91.880 264.908 C 91.154 266.106,90.266 267.627,89.907 268.288 C 89.548 268.950,88.751 270.322,88.135 271.338 C 85.733 275.303,81.056 283.206,79.759 285.494 C 77.867 288.830,77.087 290.134,75.411 292.757 C 74.613 294.007,73.959 295.098,73.959 295.182 C 73.959 295.267,73.002 296.886,71.832 298.781 C 70.661 300.676,69.179 303.185,68.538 304.356 C 67.896 305.528,66.161 308.490,64.682 310.939 C 63.202 313.388,61.571 316.176,61.056 317.135 C 60.542 318.093,59.408 320.010,58.537 321.394 C 53.857 328.831,52.663 331.042,52.663 332.276 C 52.662 333.276,65.496 346.533,69.506 349.675 C 70.358 350.342,71.601 351.483,72.269 352.211 C 73.707 353.778,76.670 354.060,76.670 352.630 C 76.670 352.392,77.672 350.567,78.896 348.576 C 81.740 343.952,82.372 342.888,83.542 340.755 C 84.068 339.797,84.887 338.403,85.362 337.657 C 87.026 335.048,87.682 333.969,88.306 332.817 C 89.880 329.910,91.882 326.567,92.383 326.010 C 92.686 325.674,92.933 325.256,92.933 325.082 C 92.933 324.908,94.160 322.744,95.658 320.272 C 97.157 317.801,98.540 315.518,98.731 315.198 C 98.922 314.879,100.069 312.974,101.280 310.965 C 102.491 308.955,103.789 306.777,104.165 306.124 C 104.541 305.471,106.028 302.933,107.470 300.484 C 108.912 298.035,110.651 295.073,111.335 293.901 C 114.199 289.000,116.365 285.342,118.673 281.510 C 121.887 276.174,126.774 267.873,128.894 264.152 C 129.825 262.518,131.147 260.310,131.833 259.245 C 132.518 258.180,134.565 254.782,136.381 251.694 C 138.196 248.606,140.969 243.926,142.542 241.293 C 144.115 238.661,146.099 235.303,146.951 233.831 C 147.803 232.358,149.567 229.372,150.872 227.194 C 152.177 225.015,154.511 221.055,156.060 218.393 C 157.608 215.731,159.329 212.823,159.883 211.930 C 162.184 208.224,169.990 195.104,169.990 194.941 C 169.990 194.782,172.169 191.160,173.747 188.698 C 174.454 187.593,175.749 185.328,176.623 183.664 C 177.498 182.000,178.470 180.346,178.784 179.988 C 179.381 179.308,179.814 178.570,181.897 174.683 C 183.414 171.854,183.416 171.828,182.142 170.158 L 181.128 168.829 90.564 168.829 L 0.000 168.829 0.000 184.124 M216.336 169.915 C 214.779 171.540,214.771 171.509,218.308 177.735 C 218.853 178.693,219.511 179.739,219.770 180.058 C 220.030 180.378,220.711 181.510,221.284 182.575 C 221.857 183.640,223.438 186.341,224.799 188.577 C 226.160 190.813,227.697 193.427,228.215 194.385 C 228.733 195.344,229.863 197.260,230.726 198.645 C 231.589 200.029,233.271 202.817,234.464 204.840 C 235.657 206.864,238.086 210.958,239.862 213.940 C 241.638 216.922,244.253 221.365,245.673 223.814 C 247.093 226.263,249.370 230.097,250.733 232.333 C 252.096 234.569,254.621 238.838,256.344 241.820 C 258.067 244.802,260.259 248.461,261.214 249.952 C 262.170 251.442,263.223 253.261,263.554 253.993 C 263.885 254.725,264.550 255.857,265.032 256.510 C 265.514 257.162,266.636 259.003,267.525 260.600 C 268.414 262.197,270.095 265.055,271.260 266.950 C 272.425 268.845,273.379 270.470,273.379 270.562 C 273.379 270.653,274.623 272.762,276.145 275.248 C 277.666 277.734,279.298 280.465,279.770 281.317 C 280.593 282.801,282.255 285.597,284.029 288.480 C 284.487 289.226,285.514 290.968,286.309 292.352 C 287.105 293.737,287.917 295.131,288.113 295.450 C 288.309 295.770,289.716 298.122,291.240 300.678 C 292.764 303.233,295.010 306.980,296.232 309.003 C 297.453 311.026,298.827 313.379,299.285 314.230 C 299.744 315.082,300.458 316.302,300.873 316.941 C 301.287 317.580,301.936 318.651,302.314 319.321 C 304.577 323.334,306.167 326.035,307.068 327.396 C 307.633 328.248,309.024 330.600,310.160 332.623 C 311.297 334.647,312.808 337.110,313.519 338.096 C 314.230 339.083,314.812 340.042,314.814 340.226 C 314.818 340.767,321.612 352.093,322.520 353.072 C 323.662 354.304,324.613 353.943,327.202 351.293 C 328.374 350.095,330.290 348.260,331.462 347.217 C 332.633 346.173,336.249 342.701,339.497 339.501 L 345.402 333.682 345.402 331.876 C 345.402 330.407,345.070 329.534,343.620 327.185 C 342.640 325.597,341.508 323.688,341.106 322.943 C 340.703 322.197,339.893 320.786,339.306 319.807 C 337.649 317.043,331.732 306.783,330.998 305.400 C 330.637 304.720,330.157 303.951,329.932 303.693 C 329.707 303.435,329.311 302.738,329.053 302.144 C 328.795 301.551,327.740 299.701,326.710 298.034 C 325.679 296.367,324.216 293.855,323.459 292.452 C 322.701 291.049,320.813 287.795,319.263 285.222 C 317.713 282.648,315.894 279.458,315.221 278.133 C 314.549 276.808,313.844 275.628,313.655 275.511 C 313.466 275.395,313.067 274.823,312.769 274.242 C 312.471 273.661,311.880 272.575,311.457 271.830 C 311.033 271.084,310.009 269.255,309.181 267.764 C 308.353 266.273,307.291 264.482,306.820 263.784 C 306.349 263.086,305.589 261.779,305.131 260.880 C 304.673 259.981,303.920 258.595,303.456 257.802 C 299.078 250.303,294.060 241.628,292.130 238.224 C 290.836 235.942,289.442 233.523,289.032 232.849 C 287.343 230.069,283.572 223.654,282.629 221.956 C 282.072 220.955,281.045 219.104,280.346 217.843 C 279.646 216.582,278.707 215.009,278.259 214.347 C 277.811 213.685,277.026 212.352,276.514 211.385 C 276.002 210.418,275.088 209.342,274.481 208.994 C 273.073 208.186,272.897 205.382,274.153 203.784 C 274.579 203.243,274.927 202.507,274.927 202.150 C 274.927 201.793,275.416 201.032,276.013 200.460 L 277.099 199.419 338.550 199.419 L 400.000 199.419 400.000 184.124 L 400.000 168.829 308.688 168.829 L 217.376 168.829 216.336 169.915 M197.199 203.951 C 195.932 204.196,194.541 206.083,190.911 212.480 C 189.127 215.626,187.306 218.722,186.864 219.361 C 186.423 220.000,185.626 221.337,185.093 222.333 C 183.623 225.077,179.992 231.296,179.513 231.888 C 179.280 232.176,178.393 233.684,177.541 235.239 C 175.954 238.136,170.479 247.587,168.934 250.098 C 168.459 250.869,167.525 252.535,166.858 253.800 C 166.191 255.065,165.344 256.546,164.976 257.092 C 164.033 258.486,161.838 262.122,161.105 263.504 C 160.765 264.143,159.838 265.734,159.044 267.040 C 158.249 268.346,157.599 269.534,157.599 269.680 C 157.599 269.826,157.191 270.500,156.692 271.178 C 156.192 271.856,155.126 273.630,154.322 275.121 C 153.518 276.612,152.210 278.877,151.416 280.155 C 150.162 282.174,142.995 294.492,141.341 297.473 C 140.268 299.404,137.741 303.731,135.397 307.648 C 134.122 309.777,131.815 313.729,130.270 316.429 C 128.725 319.130,127.011 322.002,126.461 322.812 C 125.910 323.622,125.460 324.444,125.460 324.638 C 125.460 324.833,124.877 325.882,124.165 326.969 C 123.452 328.056,121.143 331.953,119.034 335.629 C 113.850 344.662,109.139 352.746,108.373 353.922 C 108.026 354.453,107.219 355.847,106.580 357.018 C 104.696 360.471,100.252 368.023,99.869 368.422 C 99.265 369.051,99.474 371.308,100.194 371.941 C 101.736 373.295,103.329 374.443,103.665 374.443 C 103.862 374.443,105.480 375.402,107.260 376.573 C 109.041 377.744,110.559 378.703,110.634 378.703 C 110.709 378.703,111.941 379.459,113.372 380.384 C 120.521 385.005,121.030 385.286,122.262 385.286 C 123.264 385.286,123.524 385.127,123.524 384.515 C 123.524 384.069,124.066 383.388,124.809 382.902 C 125.515 382.438,126.706 380.999,127.455 379.703 C 128.204 378.408,130.185 374.995,131.858 372.120 C 133.531 369.245,136.185 364.627,137.755 361.859 C 139.325 359.090,141.147 355.954,141.803 354.889 C 142.459 353.824,143.557 351.907,144.243 350.629 C 144.929 349.351,147.632 344.647,150.249 340.174 C 156.315 329.806,156.633 329.256,157.638 327.396 C 158.098 326.544,158.796 325.391,159.189 324.833 C 159.581 324.276,160.494 322.708,161.218 321.348 C 161.941 319.989,163.069 318.006,163.725 316.941 C 164.380 315.876,165.591 313.785,166.416 312.294 C 167.241 310.803,168.929 307.841,170.167 305.712 C 171.405 303.582,173.208 300.445,174.172 298.742 C 175.137 297.038,176.398 294.947,176.975 294.095 C 177.553 293.243,178.665 291.326,179.448 289.835 C 180.231 288.345,181.669 285.818,182.645 284.221 C 183.620 282.623,184.828 280.574,185.328 279.667 C 191.437 268.591,192.723 266.796,194.546 266.796 C 195.121 266.796,195.744 266.469,196.024 266.021 C 196.710 264.923,200.180 264.903,200.861 265.994 C 201.118 266.405,201.796 266.797,202.367 266.866 C 202.939 266.934,203.537 267.251,203.695 267.570 C 203.853 267.890,204.185 268.587,204.432 269.119 C 204.950 270.235,206.009 272.130,207.357 274.347 C 207.874 275.198,208.586 276.505,208.937 277.251 C 209.289 277.996,210.136 279.477,210.819 280.542 C 212.993 283.927,213.487 284.753,214.642 286.931 C 215.262 288.103,216.000 289.323,216.280 289.643 C 216.561 289.962,216.980 290.659,217.212 291.191 C 217.444 291.723,218.147 292.943,218.774 293.901 C 219.400 294.860,220.179 296.167,220.505 296.805 C 220.830 297.444,221.624 298.838,222.269 299.903 C 222.913 300.968,223.545 302.144,223.673 302.517 C 223.800 302.890,224.056 303.195,224.241 303.195 C 224.427 303.195,224.820 303.773,225.115 304.480 C 225.411 305.187,226.145 306.537,226.747 307.481 C 227.349 308.425,228.199 309.851,228.635 310.652 C 229.072 311.452,230.807 314.414,232.490 317.234 C 234.174 320.055,236.701 324.335,238.105 326.747 C 239.509 329.159,241.050 331.772,241.528 332.555 C 242.006 333.338,243.029 335.111,243.801 336.496 C 244.573 337.880,245.540 339.496,245.950 340.086 C 246.361 340.676,248.199 343.726,250.036 346.862 C 251.873 349.999,254.522 354.510,255.923 356.886 C 257.324 359.262,259.654 363.270,261.100 365.792 C 262.546 368.314,263.853 370.569,264.004 370.804 C 264.155 371.038,264.755 371.945,265.337 372.819 C 265.920 373.693,266.965 375.505,267.661 376.846 C 268.356 378.187,269.622 380.350,270.474 381.654 C 271.326 382.957,272.199 384.324,272.414 384.691 C 272.711 385.197,273.462 385.391,275.523 385.497 C 278.772 385.664,278.405 385.847,286.350 380.109 C 288.267 378.724,291.778 376.274,294.151 374.663 C 300.951 370.048,301.507 369.121,299.452 365.835 C 298.955 365.041,298.548 364.268,298.548 364.118 C 298.548 363.968,298.220 363.485,297.819 363.045 C 297.418 362.606,296.674 361.462,296.165 360.503 C 295.656 359.545,294.622 357.803,293.868 356.631 C 293.114 355.460,291.300 352.498,289.837 350.048 C 288.373 347.599,286.936 345.334,286.643 345.015 C 286.134 344.459,280.882 335.864,279.488 333.304 C 279.121 332.631,278.246 331.200,277.544 330.125 C 276.842 329.050,276.068 327.822,275.823 327.396 C 275.438 326.726,269.862 317.629,267.397 313.650 C 266.936 312.904,265.765 311.075,264.796 309.584 C 263.827 308.093,262.921 306.612,262.783 306.292 C 262.645 305.973,261.501 304.056,260.241 302.033 C 258.980 300.010,257.149 297.047,256.172 295.450 C 255.195 293.853,253.707 291.500,252.866 290.223 C 252.024 288.945,251.146 287.472,250.914 286.949 C 250.681 286.426,249.923 285.207,249.229 284.238 C 248.534 283.270,247.436 281.512,246.789 280.331 C 245.668 278.286,244.825 276.928,241.392 271.636 C 240.563 270.358,239.694 268.964,239.461 268.538 C 239.228 268.112,238.633 267.067,238.139 266.215 C 237.645 265.363,236.979 264.143,236.659 263.504 C 236.339 262.865,235.662 261.840,235.155 261.226 C 234.647 260.612,233.869 259.392,233.424 258.516 C 232.980 257.639,232.490 256.834,232.335 256.728 C 232.180 256.621,231.763 256.012,231.407 255.373 C 231.052 254.734,230.417 253.688,229.997 253.049 C 229.577 252.410,228.956 251.278,228.616 250.532 C 228.277 249.787,227.684 248.829,227.298 248.403 C 226.432 247.446,224.405 244.193,223.609 242.482 C 223.283 241.782,222.412 240.367,221.673 239.338 C 220.934 238.310,220.329 237.292,220.329 237.078 C 220.329 236.863,220.073 236.475,219.761 236.216 C 219.449 235.956,218.574 234.672,217.817 233.361 C 215.882 230.011,215.686 229.693,214.056 227.249 C 213.256 226.051,212.414 224.657,212.186 224.152 C 211.628 222.919,210.338 220.802,208.809 218.610 C 208.117 217.617,207.551 216.663,207.551 216.490 C 207.551 216.316,207.213 215.745,206.800 215.220 C 206.388 214.695,205.933 213.798,205.789 213.227 C 205.646 212.655,205.301 212.059,205.024 211.902 C 204.505 211.608,201.636 207.231,200.992 205.751 C 200.597 204.844,199.098 203.647,198.462 203.731 C 198.243 203.760,197.675 203.859,197.199 203.951 " stroke="none" fill="#f96e09" fill-rule="evenodd"></path></g></svg>