<?xml version="1.0" encoding="utf-8"?>
<!-- Generator: Adobe Illustrator 24.3.0, SVG Export Plug-In . SVG Version: 6.00 Build 0)  -->
<svg version="1.1" id="Capa_1" xmlns="http://www.w3.org/2000/svg" xmlns:xlink="http://www.w3.org/1999/xlink" x="0px" y="0px"
	 viewBox="0 0 42 42" style="enable-background:new 0 0 42 42;" xml:space="preserve">
<style type="text/css">
	.st0{fill:url(#SVGID_1_);}
	.st1{fill-rule:evenodd;clip-rule:evenodd;fill:#FFFFFF;}
</style>
<linearGradient id="SVGID_1_" gradientUnits="userSpaceOnUse" x1="810.4478" y1="-399.3513" x2="834.8748" y2="-429.5303" gradientTransform="matrix(1.3456 0 0 -1.3456 -1085.8672 -536.5286)">
	<stop  offset="0" style="stop-color:#FFD800"/>
	<stop  offset="1" style="stop-color:#FF6100"/>
</linearGradient>
<path class="st0" d="M8.9,0h24.2C38,0,42,4,42,8.9v24.2c0,4.9-4,8.9-8.9,8.9H8.9C4,42,0,38,0,33.1V8.9C0,4,4,0,8.9,0z"/>
<path class="st1" d="M21,6.5c-1.5,0-2.7,1.2-2.7,2.8c0,0.7,0.3,1.3,0.7,1.8c-1.7,0.3-3,1.7-3,3.5v1.9c0,0.3,0.2,0.5,0.5,0.5h1.9
	c0.1,0,0.2,0,0.2,0h4.8c0.1,0,0.2,0,0.2,0h1.9c0.3,0,0.5-0.2,0.5-0.5v-1.9c0-1.7-1.3-3.2-3-3.5c0.4-0.5,0.7-1.1,0.7-1.8
	C23.7,7.7,22.5,6.5,21,6.5L21,6.5z M21,7.5c1,0,1.7,0.8,1.7,1.8c0,1-0.8,1.8-1.7,1.8s-1.7-0.8-1.7-1.8C19.2,8.2,20,7.5,21,7.5z
	 M24.4,8.5l-0.2,1l0.4,0.1l1.1,0.4l0.3,0.1l0.4-0.9L26.1,9l0,0l-1.1-0.4l0,0L24.4,8.5L24.4,8.5z M17.2,8.6l-0.5,0.2l0,0l-0.9,0.4
	l0,0l-0.4,0.2l0.4,0.9l0.4-0.2L17,9.7h0l0.5-0.2L17.2,8.6L17.2,8.6z M27.3,9.6l-0.5,0.9l0.9,0.6l0.7,0.5l0.6-0.8l-0.7-0.5l0,0
	L27.3,9.6L27.3,9.6z M14.4,9.8L14,10l0,0l-0.8,0.5l0,0L12.7,11l0.6,0.8l0.5-0.4l0.7-0.5l0,0l0.3-0.2L14.4,9.8L14.4,9.8z M29.8,11.5
	l-0.7,0.7l0.4,0.3l0.8,0.9l0.2,0.2l0.8-0.6L31,12.7l0,0l-0.8-0.9l0,0L29.8,11.5L29.8,11.5z M11.9,11.7l-0.2,0.2l0,0l-0.6,0.7l0,0
	l-0.5,0.6l0.8,0.6l0.5-0.6h0l0.6-0.7l0,0l0.2-0.1L11.9,11.7L11.9,11.7z M19.7,12h2.7c1.5,0,2.7,1.1,2.7,2.5V16h-1v-1.6
	c0-0.3-0.2-0.5-0.5-0.5c0,0,0,0,0,0c-0.3,0-0.5,0.2-0.5,0.5c0,0,0,0,0,0V16h-4v-1.6c0-0.3-0.2-0.5-0.5-0.5c0,0,0,0,0,0
	c-0.3,0-0.5,0.2-0.5,0.5c0,0,0,0,0,0V16h-1v-1.4C17,13.1,18.2,12,19.7,12L19.7,12z M31.8,13.8L31,14.3l0.6,0.9l0.4,0.8l0.9-0.4
	l-0.4-0.8l0,0C32.4,14.8,31.8,13.8,31.8,13.8z M10,14.1L10,14.1l-0.1,0.1l-0.5,0.8l0,0L9,16l0.9,0.4l0.4-0.8l0,0l0.4-0.8l0,0
	l0.1-0.1L10,14.1L10,14.1z M33.2,16.6l-0.9,0.3l0.2,0.5l0.3,1.2l0,0.2l1-0.2l0-0.2l0,0l-0.3-1.2l0,0L33.2,16.6L33.2,16.6z M8.6,17
	l-0.3,0.9l0,0l-0.2,1l0,0l0,0.1l1,0.1l0-0.1l0.2-0.9l0.3-0.9C9.6,17.3,8.6,17,8.6,17z M21,18c-0.3,0-0.5,0.2-0.5,0.5l0,0v3.8
	l-4.3,2.9c-0.2,0.1-0.3,0.4-0.2,0.7s0.4,0.3,0.7,0.2c0,0,0,0,0.1,0l4.2-2.8l4.2,2.8c0.2,0.2,0.5,0.1,0.7-0.1
	c0.1-0.2,0.1-0.5-0.1-0.7l-4.3-2.9v-3.7C21.5,18.2,21.3,18,21,18C21,18,21,18,21,18L21,18z M33.9,19.6L33,19.7h-0.1v0L33,21
	l-0.1,1.2l1,0.1L34,21l-0.5,0l0.5,0L33.9,19.6L33.9,19.6L33.9,19.6L33.9,19.6z M8,20L8,21v0l0.1,1.1l1-0.1L9,21l0-0.9L8,20L8,20z
	 M9.2,23l-1,0.1l0.1,0.5l0,0.1l0.3,1.2l0,0.1l0.1,0.3l0.9-0.3l-0.1-0.2l-0.3-1.2L9.2,23L9.2,23z M32.8,23.1l0,0.3l-0.3,1.2l-0.1,0.4
	l0.9,0.3l0.1-0.4l0,0l0.3-1.2l0,0l0.1-0.3L32.8,23.1L32.8,23.1z M12,24.5c-1.5,0-2.7,1.2-2.7,2.8c0,0.7,0.3,1.3,0.7,1.8
	c-1.7,0.3-3,1.7-3,3.5v1.9C7,34.8,7.2,35,7.5,35h1.9c0.1,0,0.2,0,0.2,0h4.8c0.1,0,0.2,0,0.2,0h1.9c0.3,0,0.5-0.2,0.5-0.5v-1.9
	c0-1.7-1.3-3.2-3-3.5c0.4-0.5,0.7-1.1,0.7-1.8C14.7,25.7,13.5,24.5,12,24.5L12,24.5z M30,24.5c-1.5,0-2.7,1.2-2.7,2.8
	c0,0.7,0.3,1.3,0.7,1.8c-1.7,0.3-3,1.7-3,3.5v1.9c0,0.3,0.2,0.5,0.5,0.5h1.9c0.1,0,0.2,0,0.2,0h4.8c0.1,0,0.2,0,0.2,0h1.9
	c0.3,0,0.5-0.2,0.5-0.5v-1.9c0-1.7-1.3-3.2-3-3.5c0.4-0.5,0.7-1.1,0.7-1.8C32.7,25.7,31.5,24.5,30,24.5z M12,25.5
	c1,0,1.7,0.8,1.7,1.8c0,1-0.8,1.8-1.7,1.8s-1.7-0.8-1.7-1.8C10.2,26.2,11,25.5,12,25.5z M30,25.5c1,0,1.7,0.8,1.7,1.8
	c0,1-0.8,1.8-1.7,1.8s-1.7-0.8-1.7-1.8C28.2,26.2,29,25.5,30,25.5z M10.7,30h2.7c1.5,0,2.7,1.1,2.7,2.5V34h-1v-1.6
	c0-0.3-0.2-0.5-0.5-0.5c0,0,0,0,0,0c-0.3,0-0.5,0.2-0.5,0.5V34h-4v-1.6c0-0.3-0.2-0.5-0.5-0.5c0,0,0,0,0,0c-0.3,0-0.5,0.2-0.5,0.5
	V34H8v-1.4C8,31.1,9.2,30,10.7,30z M28.6,30h2.7c1.5,0,2.7,1.1,2.7,2.5V34h-1v-1.6c0-0.3-0.2-0.5-0.5-0.5c0,0,0,0,0,0
	c-0.3,0-0.5,0.2-0.5,0.5l0,0V34h-4v-1.6c0-0.3-0.2-0.5-0.5-0.5c0,0,0,0,0,0c-0.3,0-0.5,0.2-0.5,0.5l0,0V34h-1v-1.4
	C26,31.1,27.2,30,28.6,30z M17.4,31.9l-0.2,1l0.6,0.2l0,0l1,0.2l0,0l0.1,0l0.1-1l-0.1,0l-0.9-0.2L17.4,31.9L17.4,31.9z M24.6,31.9
	l-1.2,0.3l-0.4,0.1l0.1,1l0.5-0.1l0,0l1.2-0.3l0,0L24.6,31.9L24.6,31.9z M22,32.4l-1,0l-0.9,0l0,1l0.9,0h0l1.1-0.1L22,32.4L22,32.4z
	"/>
</svg>
