<?xml version="1.0" encoding="utf-8"?>
<!-- Generator: Adobe Illustrator 24.3.0, SVG Export Plug-In . SVG Version: 6.00 Build 0)  -->
<svg version="1.1" id="Capa_1" xmlns="http://www.w3.org/2000/svg" xmlns:xlink="http://www.w3.org/1999/xlink" x="0px" y="0px"
	 viewBox="0 0 42 42" style="enable-background:new 0 0 42 42;" xml:space="preserve">
<style type="text/css">
	.st0{fill:url(#SVGID_1_);}
	.st1{fill-rule:evenodd;clip-rule:evenodd;fill:#FFFFFF;}
</style>
<linearGradient id="SVGID_1_" gradientUnits="userSpaceOnUse" x1="810.4478" y1="-399.3513" x2="834.8748" y2="-429.5303" gradientTransform="matrix(1.3456 0 0 -1.3456 -1085.8672 -536.5286)">
	<stop  offset="0" style="stop-color:#FFD800"/>
	<stop  offset="1" style="stop-color:#FF6100"/>
</linearGradient>
<path class="st0" d="M8.9,0h24.2C38,0,42,4,42,8.9v24.2c0,4.9-4,8.9-8.9,8.9H8.9C4,42,0,38,0,33.1V8.9C0,4,4,0,8.9,0z"/>
<path class="st1" d="M17,8c-2,0-3.6,1.3-4.2,3c-1.7,0.1-3.3,1.1-3.9,2.8c-0.3,0.8-0.4,1.6-0.3,2.4c-1.6,1.3-2.4,3.3-2,5.3
	c0.3,1.3,1,2.4,2,3.2c-0.2,1.4,0.3,2.9,1.3,4c0.8,0.8,1.8,1.2,2.9,1.2c0.7,2,2.7,3.3,4.8,3c1.5-0.2,2.8-1.2,3.4-2.4
	c0.7,1.3,1.9,2.2,3.4,2.4c2.1,0.3,4.1-1,4.8-3c1.1-0.1,2.1-0.5,2.9-1.2c1.1-1,1.5-2.5,1.3-4c1-0.8,1.7-1.9,2-3.2
	c0.4-2-0.4-4.1-2-5.3c0.1-0.8,0-1.7-0.3-2.4c-0.7-1.6-2.2-2.7-3.9-2.8C28.6,9.3,27,8,25,8c-1.8,0-3.3,1-4,2.5C20.3,9,18.8,8,17,8z
	 M17,9c1.9,0,3.5,1.6,3.5,3.5c0,0,0,0,0,0v16c0,1.8-1.3,3.2-3,3.5c-1.6,0.2-3-0.7-3.6-2.1c0.1,0,0.2,0,0.4-0.1
	c0.3-0.1,0.4-0.3,0.4-0.6c-0.1-0.3-0.3-0.4-0.6-0.4l0,0c-1.2,0.3-2.4,0-3.3-0.9c-0.7-0.7-1.1-1.7-1.1-2.6c0.3,0.2,0.7,0.3,1.1,0.4
	c0.3,0.1,0.5-0.1,0.6-0.4c0.1-0.3-0.1-0.5-0.4-0.6c-1.7-0.4-2.9-1.8-3.3-3.5c-0.3-1.5,0.2-3,1.3-4.1c0.2,0.5,0.5,1,0.9,1.4
	c0.2,0.2,0.5,0.2,0.7,0s0.2-0.5,0-0.7c0,0,0,0,0,0c-1-1-1.3-2.5-0.8-3.8c0.5-1.2,1.6-2,2.8-2.1c0,0.2,0,0.3,0,0.5
	c0,0.3,0.2,0.5,0.5,0.5c0.3,0,0.5-0.2,0.5-0.5c0,0,0,0,0,0C13.5,10.6,15.1,9,17,9L17,9z M25,9c1.9,0,3.5,1.6,3.5,3.5
	c0,0.3,0.2,0.5,0.5,0.5c0.3,0,0.5-0.2,0.5-0.5c0,0,0,0,0,0c0-0.2,0-0.3,0-0.5c1.2,0.2,2.3,1,2.8,2.1c0.5,1.3,0.2,2.8-0.8,3.8
	c-0.2,0.2-0.2,0.5,0,0.7s0.5,0.2,0.7,0c0,0,0,0,0,0c0.4-0.4,0.7-0.9,0.9-1.4c1.1,1.1,1.6,2.6,1.3,4.1c-0.3,1.7-1.6,3-3.3,3.5
	c-0.3,0.1-0.4,0.3-0.4,0.6c0.1,0.3,0.3,0.4,0.6,0.4c0.4-0.1,0.7-0.3,1.1-0.4c0,1-0.3,1.9-1.1,2.6c-0.9,0.8-2.1,1.2-3.3,0.9
	c-0.3-0.1-0.5,0.1-0.6,0.4s0.1,0.5,0.4,0.6c0,0,0,0,0,0c0.1,0,0.2,0,0.4,0.1c-0.6,1.4-2.1,2.3-3.6,2.1c-1.7-0.2-3-1.7-3-3.5v-16
	C21.5,10.6,23.1,9,25,9L25,9z M16.9,10c-0.3,0-0.5,0.2-0.5,0.5c0,0.3,0.2,0.5,0.5,0.5c0.8,0,1.5,0.7,1.5,1.5c0,0.3,0.2,0.5,0.5,0.5
	c0.3,0,0.5-0.2,0.5-0.5c0,0,0,0,0,0C19.5,11.1,18.4,10,16.9,10C17,10,17,10,16.9,10z M25,10c-1.4,0-2.5,1.1-2.5,2.5
	c0,0.3,0.2,0.5,0.5,0.5c0.3,0,0.5-0.2,0.5-0.5c0,0,0,0,0,0c0-0.8,0.7-1.5,1.5-1.5c0.3,0,0.5-0.2,0.5-0.5C25.5,10.2,25.3,10,25,10
	C25,10,25,10,25,10z M13.3,13.8c-0.3,0-0.5,0.2-0.5,0.5c0,0.1,0,0.1,0,0.2c0.1,0.3,0.3,0.6,0.4,0.9c-0.6-0.1-1.2-0.1-1.7,0
	c-0.3,0.1-0.4,0.3-0.4,0.6c0.1,0.3,0.3,0.4,0.6,0.4c1.1-0.2,2.1,0,3.1,0.5c0,0,0,0,0,0c0,0,0,0,0,0c0,0,0,0,0,0c0,0,0,0,0,0
	c0,0,0,0,0,0c0,0,0,0,0,0c0,0,0,0,0,0c0,0,0,0,0.1,0c0.1,0,0.1,0,0.2,0c0,0,0,0,0,0c0,0,0.1,0,0.1,0c0,0,0,0,0,0c0,0,0,0,0.1-0.1
	c0,0,0,0,0,0c0,0,0,0,0,0c0,0,0,0,0,0c0,0,0,0,0.1-0.1c0,0,0,0,0,0c0,0,0,0,0,0c0,0,0,0,0,0c0,0,0-0.1,0-0.1c0,0,0,0,0,0
	c0,0,0,0,0,0c0,0,0,0,0,0c0,0,0-0.1,0-0.1c0,0,0,0,0,0c0,0,0,0,0,0c0,0,0,0,0,0c0,0,0-0.1,0-0.1c0,0,0,0,0,0c0,0,0,0,0,0
	c0,0,0,0,0,0c0,0,0,0,0,0c0,0,0,0,0,0c0,0,0,0,0,0c0,0,0,0,0,0c0,0,0,0,0,0c0,0,0,0,0,0c0,0,0,0,0,0c0,0,0,0,0,0c0,0,0,0,0,0
	c-0.7-0.4-1.2-1.1-1.5-1.9C13.7,14,13.5,13.8,13.3,13.8L13.3,13.8z M28.7,13.8c-0.2,0-0.4,0.1-0.5,0.3c-0.3,0.8-0.8,1.4-1.5,1.9
	c0,0,0,0,0,0c0,0,0,0,0,0c0,0,0,0,0,0c0,0,0,0,0,0c0,0,0,0,0,0c0,0,0,0,0,0c0,0,0,0,0,0c0,0,0,0,0,0c0,0,0,0,0,0c0,0,0,0,0,0
	c0,0,0,0,0,0c0,0,0,0,0,0c0,0,0,0,0,0c0,0,0,0.1,0,0.1c0,0,0,0,0,0c0,0,0,0,0,0c0,0,0,0,0,0c0,0,0,0.1,0,0.1c0,0,0,0,0,0
	c0,0,0,0,0,0c0,0,0,0,0,0c0,0,0,0.1,0,0.1c0,0,0,0,0,0c0,0,0,0,0,0c0,0,0,0,0,0c0,0,0,0,0.1,0.1c0,0,0,0,0,0c0,0,0,0,0,0
	c0,0,0,0,0,0c0,0,0,0,0.1,0.1c0,0,0,0,0,0c0,0,0.1,0,0.1,0c0.1,0,0.1,0,0.2,0c0,0,0,0,0.1,0c0,0,0,0,0,0c0,0,0,0,0,0c0,0,0,0,0,0
	c0,0,0,0,0,0c0,0,0,0,0,0c0,0,0,0,0,0c0,0,0,0,0,0c0,0,0,0,0,0c0,0,0,0,0,0c0.9-0.5,2-0.7,3.1-0.5c0.3,0.1,0.5-0.1,0.6-0.4
	s-0.1-0.5-0.4-0.6c0,0,0,0,0,0c-0.6-0.1-1.2-0.1-1.7,0c0.2-0.3,0.3-0.6,0.4-0.9c0.1-0.3-0.1-0.5-0.3-0.6
	C28.8,13.9,28.8,13.8,28.7,13.8L28.7,13.8z M17.5,15.7c-0.3,0-0.5,0.2-0.5,0.5c0,0.1,0,0.2,0.1,0.2c0.7,1.2,0.5,2.7-0.5,3.6
	c-0.2,0.2-0.2,0.5,0,0.7s0.5,0.2,0.7,0c0,0,0,0,0,0c1.3-1.3,1.5-3.3,0.6-4.8C17.9,15.8,17.7,15.7,17.5,15.7L17.5,15.7z M24.4,15.7
	c-0.2,0-0.3,0.1-0.4,0.3c-0.9,1.6-0.6,3.6,0.6,4.8c0.2,0.2,0.5,0.2,0.7,0s0.2-0.5,0-0.7c0,0,0,0,0,0c-1-1-1.2-2.4-0.5-3.6
	c0.1-0.2,0.1-0.5-0.2-0.7C24.7,15.8,24.6,15.7,24.4,15.7C24.5,15.7,24.5,15.7,24.4,15.7L24.4,15.7z M9.1,20.4
	C9.1,20.4,9.1,20.4,9.1,20.4c-0.3,0-0.5,0.3-0.5,0.5c0,0,0,0.1,0,0.1c0.2,0.7,0.5,1.3,1,1.8c0.2,0.2,0.5,0.2,0.7,0
	c0.2-0.2,0.2-0.5,0-0.7c0,0,0,0,0,0c-0.4-0.4-0.6-0.8-0.8-1.3C9.5,20.6,9.4,20.4,9.1,20.4L9.1,20.4z M32.9,20.4
	c-0.2,0-0.4,0.2-0.5,0.4c-0.1,0.5-0.4,1-0.8,1.3c-0.2,0.2-0.2,0.5,0,0.7s0.5,0.2,0.7,0c0,0,0,0,0,0c0.5-0.5,0.9-1.1,1-1.8
	c0.1-0.3-0.1-0.5-0.3-0.6C33,20.4,33,20.4,32.9,20.4C32.9,20.4,32.9,20.4,32.9,20.4L32.9,20.4z M16,25c0,0-0.1,0-0.1,0c0,0,0,0,0,0
	c0,0,0,0,0,0c0,0,0,0,0,0c0,0,0,0-0.1,0c0,0,0,0,0,0c-0.9,0.5-2,0.7-3.1,0.5c-0.3,0-0.5,0.1-0.6,0.4c0,0.3,0.1,0.5,0.4,0.6
	c0.6,0.1,1.2,0.1,1.7,0c-0.2,0.3-0.3,0.6-0.4,0.9c-0.1,0.3,0.1,0.5,0.3,0.6s0.5-0.1,0.6-0.3l0,0c0.3-0.8,0.8-1.4,1.5-1.9
	c0,0,0,0,0,0c0,0,0,0,0,0c0,0,0,0,0,0c0,0,0,0,0,0c0,0,0,0,0,0c0,0,0,0,0,0c0,0,0,0,0,0c0,0,0,0,0,0c0.2-0.2,0.2-0.5,0-0.7
	C16.3,25,16.1,25,16,25L16,25z M26,25c-0.3,0-0.5,0.2-0.5,0.5c0,0.1,0.1,0.2,0.1,0.3c0,0,0,0,0,0c0,0,0,0,0,0c0,0,0,0,0.1,0
	c0,0,0,0,0,0c0.7,0.4,1.2,1.1,1.5,1.9c0.1,0.3,0.4,0.4,0.6,0.3c0.3-0.1,0.4-0.4,0.3-0.6c0,0,0,0,0,0c-0.1-0.3-0.3-0.6-0.4-0.9
	c0.6,0.1,1.2,0.1,1.7,0c0.3,0,0.5-0.3,0.4-0.6c0-0.3-0.3-0.5-0.6-0.4c-1.1,0.2-2.1,0-3.1-0.5c0,0,0,0,0,0c0,0,0,0-0.1,0c0,0,0,0,0,0
	c0,0,0,0,0,0c0,0,0,0,0,0C26.1,25,26.1,25,26,25C26,25,26,25,26,25L26,25z M19,28c-0.3,0-0.5,0.2-0.5,0.5c0,0.8-0.7,1.5-1.5,1.5
	c-0.3,0-0.5,0.2-0.5,0.5c0,0.3,0.2,0.5,0.5,0.5c0,0,0,0,0,0c1.4,0,2.5-1.1,2.5-2.5C19.5,28.2,19.3,28,19,28C19,28,19,28,19,28z
	 M23,28c-0.3,0-0.5,0.2-0.5,0.5c0,1.4,1.1,2.5,2.5,2.5c0.3,0,0.5-0.2,0.5-0.5c0-0.3-0.2-0.5-0.5-0.5c0,0,0,0,0,0
	c-0.8,0-1.5-0.7-1.5-1.5C23.5,28.2,23.3,28,23,28C23,28,23,28,23,28z"/>
</svg>
