<?xml version="1.0" encoding="utf-8"?>
<!-- Generator: Adobe Illustrator 24.3.0, SVG Export Plug-In . SVG Version: 6.00 Build 0)  -->
<svg version="1.1" id="Capa_1" xmlns="http://www.w3.org/2000/svg" xmlns:xlink="http://www.w3.org/1999/xlink" x="0px" y="0px"
	 viewBox="0 0 42 42" style="enable-background:new 0 0 42 42;" xml:space="preserve">
<style type="text/css">
	.st0{fill:url(#SVGID_1_);}
	.st1{fill:#FFFFFF;}
</style>
<linearGradient id="SVGID_1_" gradientUnits="userSpaceOnUse" x1="896.0048" y1="-399.2422" x2="923.1198" y2="-429.1202" gradientTransform="matrix(1.3456 0 0 -1.3456 -1203.1051 -536.5286)">
	<stop  offset="0" style="stop-color:#FF1679"/>
	<stop  offset="1" style="stop-color:#FF770B"/>
</linearGradient>
<path class="st0" d="M8.9,0h24.2C38,0,42,4,42,8.9v24.2c0,4.9-4,8.9-8.9,8.9H8.9C4,42,0,38,0,33.1V8.9C0,4,4,0,8.9,0z"/>
<path class="st1" d="M22.5,5C22.3,5,22,5.2,22,5.5v3.9c-0.3-0.1-0.5-0.4-0.9-0.4c-1.3,0-2.4,1.1-2.4,2.4c0,1.3,1.1,2.4,2.4,2.4
	c0.3,0,0.6-0.2,0.9-0.4v3.9c0,0.3,0.2,0.5,0.5,0.5h4.7c0.3,0,0.5-0.2,0.5-0.5c0-0.1-0.1-0.3-0.2-0.4c0,0,0,0,0,0
	c0,0-0.1-0.1-0.1-0.1h0c0,0-0.1-0.1-0.1-0.1c0,0,0,0,0,0c0,0,0-0.1-0.1-0.1c0,0,0-0.1-0.1-0.1c0,0,0,0,0,0c0,0,0-0.1,0-0.1
	c0,0,0-0.1,0-0.1c0,0,0-0.1,0-0.1c0,0,0-0.1,0-0.1c0,0,0-0.1,0-0.1c0,0,0-0.1,0-0.1c0,0,0-0.1,0-0.1c0,0,0-0.1,0-0.1
	c0,0,0-0.1,0.1-0.1c0,0,0-0.1,0.1-0.1c0,0,0.1-0.1,0.1-0.1c0,0,0.1-0.1,0.1-0.1c0,0,0.1-0.1,0.1-0.1h0c0,0,0.1-0.1,0.1-0.1h0
	c0,0,0.1,0,0.1-0.1h0c0,0,0.1,0,0.1-0.1c0,0,0,0,0,0c0,0,0.1,0,0.1,0c0,0,0.1,0,0.1,0c0,0,0,0,0,0c0,0,0.1,0,0.1,0
	c0.1,0,0.1,0,0.1,0c0.1,0,0.1,0,0.1,0c0.1,0,0.1,0,0.2,0c0.1,0,0.1,0,0.1,0c0,0,0.1,0,0.1,0c0,0,0.1,0,0.1,0.1c0,0,0.1,0,0.1,0.1
	c0,0,0.1,0.1,0.1,0.1c0,0,0,0,0,0c0,0,0.1,0.1,0.1,0.1c0,0,0.1,0.1,0.1,0.1c0,0,0.1,0.1,0.1,0.1c0,0,0,0,0,0c0,0,0,0.1,0.1,0.1
	c0,0,0,0.1,0.1,0.1c0,0,0,0,0,0c0,0,0,0.1,0,0.1c0,0,0,0.1,0,0.1c0,0,0,0.1,0,0.1c0,0,0,0.1,0,0.1c0,0,0,0.1,0,0.1c0,0,0,0.1,0,0.1
	c0,0,0,0.1,0,0.1c0,0,0,0.1,0,0.1c0,0,0,0.1-0.1,0.1c0,0,0,0.1-0.1,0.1c0,0-0.1,0.1-0.1,0.1c0,0-0.1,0.1-0.1,0.1
	c-0.2,0.2-0.2,0.5,0,0.7c0.1,0.1,0.2,0.1,0.4,0.1h4.6c0.3,0,0.5-0.2,0.5-0.5v-4.7v-2.7V5.5C35,5.2,34.8,5,34.5,5h-4.6c0,0,0,0,0,0v0
	h-2.7L22.5,5L22.5,5z M29.8,6H34v4.2v2.7V17h-3.2c0-0.1,0-0.1,0.1-0.2c0-0.1,0-0.2,0.1-0.2c0-0.1,0-0.2,0-0.2c0-0.1,0-0.2,0-0.2
	c0-0.1,0-0.1,0-0.2c0-0.1,0-0.2,0-0.2c0-0.1,0-0.2-0.1-0.2c0-0.1,0-0.2-0.1-0.2c0-0.1-0.1-0.1-0.1-0.2c0-0.1-0.1-0.1-0.1-0.2h0
	c0-0.1-0.1-0.1-0.1-0.2c0,0,0,0,0,0c0-0.1-0.1-0.1-0.2-0.2c0,0,0,0,0,0c-0.1-0.1-0.1-0.1-0.2-0.2h0c-0.1-0.1-0.1-0.1-0.2-0.1
	c0,0,0,0,0,0c-0.1,0-0.1-0.1-0.2-0.1c0,0,0,0,0,0c-0.1,0-0.1-0.1-0.2-0.1c-0.1,0-0.2-0.1-0.2-0.1c-0.1,0-0.2,0-0.2-0.1
	c-0.1,0-0.2,0-0.2,0c-0.1,0-0.2,0-0.3,0c0,0,0,0,0,0c-0.1,0-0.2,0-0.1,0c0,0,0,0,0,0c-0.1,0-0.2,0-0.2,0c-0.1,0-0.2,0-0.2,0.1
	c0,0,0,0,0,0c-0.1,0-0.1,0-0.2,0.1c-0.1,0-0.1,0.1-0.2,0.1c0,0,0,0,0,0c-0.1,0-0.1,0.1-0.2,0.1c0,0,0,0,0,0c-0.1,0-0.1,0.1-0.2,0.1
	c0,0,0,0,0,0c-0.1,0.1-0.1,0.1-0.2,0.2c-0.1,0.1-0.1,0.1-0.2,0.2c-0.1,0.1-0.1,0.1-0.1,0.2c0,0.1-0.1,0.1-0.1,0.2
	c0,0.1-0.1,0.1-0.1,0.2c0,0,0,0,0,0c0,0.1-0.1,0.1-0.1,0.2c0,0.1,0,0.2-0.1,0.2c0,0.1,0,0.2,0,0.2c0,0.1,0,0.2,0,0.2
	c0,0.1,0,0.1,0,0.2c0,0.1,0,0.2,0,0.2c0,0.1,0,0.2,0.1,0.2c0,0.1,0,0.1,0.1,0.2H23v-4.2c0-0.3-0.2-0.5-0.5-0.5
	c-0.1,0-0.3,0.1-0.4,0.1c-0.3,0.3-0.6,0.4-1,0.4c-0.8,0-1.4-0.6-1.4-1.4c0-0.8,0.6-1.4,1.4-1.4c0,0,0,0,0,0c0.4,0,0.7,0.2,1,0.4
	c0.2,0.2,0.5,0.2,0.7,0c0.1-0.1,0.2-0.2,0.2-0.4V6h4.2L29.8,6L29.8,6L29.8,6z M16.4,20.7c-1.1,0.1-2.2,0.9-2.3,2.2
	c-0.1,0.4,0,0.8,0.1,1.1h-3.7c-0.3,0-0.5,0.2-0.5,0.5v3.8c-1.1-0.4-2.5,0-3,1.2c-0.7,1.4,0.2,3.2,1.8,3.4c0.4,0.1,0.8,0,1.2-0.2v3.8
	c0,0.3,0.2,0.5,0.5,0.5h4.7c0.3,0,0.5-0.2,0.5-0.5c0-0.1-0.1-0.3-0.2-0.4c-0.6-0.6-0.5-1.9,0.3-2.2c0,0,0,0,0,0
	c0.7-0.4,1.8,0.1,2,0.9c0,0,0,0,0,0c0.1,0.5-0.1,1-0.4,1.3c-0.2,0.2-0.2,0.5,0,0.7c0.1,0.1,0.2,0.2,0.4,0.2h4.6c0,0,0.1,0,0.1,0h4.7
	c0.3,0,0.5-0.2,0.5-0.5c0-0.1-0.1-0.3-0.2-0.4c-0.6-0.6-0.5-1.9,0.3-2.2c0,0,0,0,0,0c0.7-0.4,1.8,0.1,2,0.9c0,0,0,0,0,0
	c0.1,0.5-0.1,1-0.4,1.3c-0.2,0.2-0.2,0.5,0,0.7c0.1,0.1,0.2,0.2,0.4,0.2h4.6c0.1,0,0.2,0,0.3,0l0,0c0.2-0.1,0.3-0.3,0.3-0.6v-4.6
	c0-0.3-0.2-0.5-0.5-0.5c-0.1,0-0.3,0.1-0.4,0.2c-0.3,0.3-0.8,0.5-1.2,0.4c0,0,0,0,0,0c-0.9-0.1-1.4-1.2-1-2c0,0,0,0,0,0
	c0.4-0.8,1.6-1,2.2-0.4c0.2,0.2,0.5,0.2,0.7,0c0.1-0.1,0.2-0.2,0.2-0.4v-4.4l-0.1,0.1c0.2-0.2,0.2-0.5,0-0.7
	c-0.1-0.1-0.2-0.1-0.4-0.1h-3.8c0.4-1.1,0-2.5-1.2-3c-0.4-0.2-0.7-0.3-1.1-0.2c-1.1,0.1-2.2,0.9-2.3,2.2c-0.1,0.4,0,0.8,0.1,1.1
	h-3.7c0,0-0.1,0-0.1,0h-3.8c0.4-1.1,0-2.5-1.2-3C17.2,20.8,16.8,20.7,16.4,20.7L16.4,20.7L16.4,20.7z M16.5,21.7
	c0.2,0,0.4,0,0.6,0.1c0,0,0,0,0,0c0.8,0.4,1,1.7,0.4,2.3c-0.2,0.2-0.2,0.5,0,0.7c0.1,0.1,0.2,0.2,0.4,0.2H22v3.3
	c-1.1-0.4-2.5,0-3,1.2c-0.7,1.4,0.2,3.2,1.8,3.4c0.4,0.1,0.8,0,1.2-0.2V36h-3.3c0.2-0.4,0.3-0.9,0.1-1.4c-0.3-1.5-2.1-2.4-3.4-1.6
	c-1.1,0.5-1.6,1.9-1.1,3H11v-4.2c0-0.3-0.2-0.5-0.5-0.5c-0.1,0-0.3,0.1-0.4,0.2C9.9,31.8,9.4,32,9,31.9c0,0,0,0,0,0
	c-0.9-0.1-1.4-1.2-1-2c0,0,0,0,0,0c0.4-0.8,1.7-1,2.2-0.4c0.2,0.2,0.5,0.2,0.7,0c0.1-0.1,0.2-0.2,0.2-0.4V25h4.1
	c0.3,0,0.5-0.2,0.5-0.5c0-0.1,0-0.2-0.1-0.3c-0.2-0.3-0.5-0.9-0.4-1.2c0,0,0,0,0-0.1C15.2,22.3,15.8,21.8,16.5,21.7L16.5,21.7z
	 M28.5,21.7c0.2,0,0.4,0,0.6,0.1l0,0c0,0,0,0,0,0c0.8,0.4,1,1.7,0.4,2.3c-0.2,0.2-0.2,0.5,0,0.7c0.1,0.1,0.2,0.2,0.4,0.2H34v3.3
	c-1.1-0.4-2.5,0-3,1.2c-0.7,1.4,0.2,3.2,1.8,3.4c0.4,0.1,0.8,0,1.2-0.2V36h-3.3c0.2-0.4,0.3-0.9,0.1-1.4c-0.3-1.5-2.1-2.4-3.4-1.6
	c-1.1,0.5-1.6,1.9-1.1,3H23v-4.2c0-0.3-0.2-0.5-0.5-0.5c-0.1,0-0.3,0.1-0.4,0.2c-0.3,0.3-0.8,0.5-1.2,0.4c0,0,0,0,0,0
	c-0.9-0.1-1.4-1.2-1-2c0,0,0,0,0,0c0.4-0.8,1.7-1,2.2-0.4c0.2,0.2,0.5,0.2,0.7,0c0.1-0.1,0.2-0.2,0.2-0.4V25h4.1
	c0.3,0,0.5-0.2,0.5-0.5c0-0.1,0-0.2-0.1-0.3c-0.2-0.3-0.5-0.9-0.4-1.2c0,0,0,0,0-0.1C27.2,22.3,27.8,21.8,28.5,21.7L28.5,21.7z"/>
</svg>
