<?xml version="1.0" encoding="utf-8"?>
<!-- Generator: Adobe Illustrator 25.2.1, SVG Export Plug-In . SVG Version: 6.00 Build 0)  -->
<svg version="1.1" id="Capa_1" xmlns="http://www.w3.org/2000/svg" xmlns:xlink="http://www.w3.org/1999/xlink" x="0px" y="0px"
	 viewBox="0 0 300 300" style="enable-background:new 0 0 300 300;" xml:space="preserve">
<style type="text/css">
	.st0{fill:url(#Rectángulo_10495_1_);}
	.st1{fill:#FFFFFF;}
</style>
<linearGradient id="Rectángulo_10495_1_" gradientUnits="userSpaceOnUse" x1="2.9594" y1="299.1147" x2="2.2534" y2="298.2128" gradientTransform="matrix(183 0 0 -182 -329.6 54512.0117)">
	<stop  offset="0" style="stop-color:#584696"/>
	<stop  offset="1" style="stop-color:#612577"/>
</linearGradient>
<path id="Rectángulo_10495" class="st0" d="M150.11,60.09h1c50.26,0,91,40.74,91,91l0,0c0,50.26-40.74,91-91,91h-1
	c-50.26,0-91-40.74-91-91l0,0C59.11,100.83,99.85,60.09,150.11,60.09z"/>
<g id="Grupo_23953" transform="translate(43.095 34.073)">
	<g id="Grupo_23946" transform="translate(26.002 12.93)">
		<g id="Grupo_23945">
			<path id="Trazado_45932" class="st1" d="M81.86,60.09c-12.48-0.08-22.67,9.97-22.75,22.45c-0.05,7.8,3.92,15.07,10.51,19.24
				c6.82,4.29,15.38,4.76,22.63,1.23c1.62-0.74,2.34-2.65,1.6-4.27c0-0.01-0.01-0.01-0.01-0.02c-0.76-1.62-2.68-2.33-4.31-1.59
				c-5.24,2.58-11.44,2.28-16.4-0.8c-7.51-4.86-9.66-14.88-4.8-22.39s14.88-9.66,22.39-4.8c4.61,2.98,7.39,8.09,7.4,13.57
				c0.01,1.79-1.43,3.26-3.23,3.27c-1.79,0.01-3.26-1.43-3.27-3.23c0-0.02,0-0.03,0-0.05c0.02-5.38-4.32-9.76-9.7-9.78
				c-5.38-0.02-9.76,4.32-9.78,9.7c-0.02,5.38,4.32,9.76,9.7,9.78c2.41,0.01,4.74-0.87,6.53-2.48c4.02,3.59,10.19,3.24,13.77-0.78
				c1.58-1.77,2.46-4.06,2.48-6.44C104.56,70.19,94.38,60.07,81.86,60.09z M85.06,83.24c-0.29,1.76-1.95,2.94-3.71,2.65
				c-1.76-0.29-2.94-1.95-2.65-3.71c0.29-1.76,1.95-2.94,3.71-2.65c1.42,0.24,2.52,1.39,2.68,2.82
				C85.03,82.64,85.03,82.94,85.06,83.24L85.06,83.24z"/>
		</g>
	</g>
	<g id="Grupo_23948" transform="translate(0)">
		<g id="Grupo_23947">
			<path id="Trazado_45933" class="st1" d="M156.61,102.54c0-0.86-0.35-1.68-0.95-2.28l-12.05-11.98V63.32
				c0-1.79-1.46-3.24-3.25-3.23c0,0,0,0,0,0h-65c-1.79-0.01-3.25,1.44-3.25,3.23c0,0,0,0,0,0.01v24.95l-12.05,11.98
				c-0.01,0.01-0.02,0.02-0.03,0.03c-0.59,0.6-0.92,1.41-0.92,2.25v58.19c0.02,5.37,4.38,9.71,9.75,9.7h78
				c5.37,0.01,9.73-4.33,9.75-9.7L156.61,102.54L156.61,102.54z M143.61,97.42l5.15,5.13l-5.15,5.13V97.42z M78.61,89.62V66.55
				h58.49v47.58l-17.6,17.5h-23.3l-17.6-17.5L78.61,89.62z M72.11,97.42v10.25l-5.15-5.13L72.11,97.42z M65.61,159.39v-49.04
				l24.66,24.52L65.61,159.39z M70.21,163.96l26-25.86h23.31l26,25.86H70.21z M150.11,159.39l-24.66-24.52l24.65-24.52
				L150.11,159.39z"/>
		</g>
	</g>
</g>
</svg>
