<?xml version="1.0" encoding="utf-8"?>
<!-- Generator: Adobe Illustrator 24.3.0, SVG Export Plug-In . SVG Version: 6.00 Build 0)  -->
<svg version="1.1" id="Capa_1" xmlns="http://www.w3.org/2000/svg" xmlns:xlink="http://www.w3.org/1999/xlink" x="0px" y="0px"
	 viewBox="0 0 42 42" style="enable-background:new 0 0 42 42;" xml:space="preserve">
<style type="text/css">
	.st0{fill:url(#SVGID_1_);}
	.st1{fill:#FFFFFF;}
</style>
<linearGradient id="SVGID_1_" gradientUnits="userSpaceOnUse" x1="896.0048" y1="-399.2422" x2="923.1198" y2="-429.1202" gradientTransform="matrix(1.3456 0 0 -1.3456 -1203.1051 -536.5286)">
	<stop  offset="0" style="stop-color:#FF1679"/>
	<stop  offset="1" style="stop-color:#FF770B"/>
</linearGradient>
<path class="st0" d="M8.9,0h24.2C38,0,42,4,42,8.9v24.2c0,4.9-4,8.9-8.9,8.9H8.9C4,42,0,38,0,33.1V8.9C0,4,4,0,8.9,0z"/>
<path class="st1" d="M11.5,7C11.2,7,11,7.2,11,7.5v4c0,0.7,1,0.7,1,0V8h14v3.5c0,0.3,0.2,0.5,0.5,0.5H30v2.5v0.1c0,0.7,1,0.7,1,0
	v-0.1v-3c0,0,0,0,0,0c0-0.1,0-0.3-0.1-0.4l-4-4C26.8,7,26.6,7,26.5,7c0,0-0.1,0-0.1,0c0,0,0,0-0.1,0L11.5,7L11.5,7z M27,8.7l2.3,2.3
	H27V8.7z M14.4,10c-0.3,0-0.5,0.2-0.5,0.5s0.2,0.5,0.5,0.5h1c0.3,0,0.5-0.2,0.5-0.5c0-0.3-0.2-0.5-0.5-0.5c0,0,0,0,0,0H14.4
	C14.5,10,14.5,10,14.4,10z M17.5,10c-0.3,0-0.5,0.2-0.5,0.5c0,0.3,0.2,0.5,0.5,0.5c0,0,0,0,0,0h4c0.3,0,0.5-0.2,0.5-0.5
	c0-0.3-0.2-0.5-0.5-0.5c0,0,0,0,0,0H17.5C17.5,10,17.5,10,17.5,10z M14.4,12c-0.3,0-0.5,0.2-0.5,0.5s0.2,0.5,0.5,0.5h1
	c0.3,0,0.5-0.2,0.5-0.5c0-0.3-0.2-0.5-0.5-0.5c0,0,0,0,0,0H14.4C14.5,12,14.5,12,14.4,12z M17.5,12c-0.3,0-0.5,0.2-0.5,0.5
	c0,0.3,0.2,0.5,0.5,0.5h4c0.3,0,0.5-0.2,0.5-0.5c0-0.3-0.2-0.5-0.5-0.5c0,0,0,0,0,0H17.5C17.5,12,17.5,12,17.5,12z M11.5,13
	c-2.2,0-3.9,1.8-3.9,3.9v6.6l-0.1,0.1c-0.2,0.1-0.5,0.3-0.8,0.6c-0.4,0.4-0.6,0.9-0.7,1.5c0,0.2,0,0.5,0,0.6V29h11v-3c0,0,0,0,0-0.1
	c0-0.7-0.3-1.4-0.8-1.9c-0.2-0.2-0.4-0.3-0.5-0.3l-0.2-0.1v-6.6c0-1.5-0.8-2.7-2-3.4h0c-0.1,0-0.2-0.1-0.3-0.1h0
	c-0.1,0-0.2-0.1-0.2-0.1C12.5,13.1,12.1,13,11.5,13L11.5,13z M32.5,13.4c-0.3,0-0.5,0.2-0.5,0.5c0,0.3,0.2,0.5,0.5,0.5h0.3l-3.4,3.5
	l-3.7-1.4c-0.2-0.1-0.3,0-0.5,0.1l-5,3.6c-0.2,0.2-0.3,0.5-0.1,0.7c0.2,0.2,0.5,0.3,0.7,0.1c0,0,0,0,0,0l4.8-3.4l3.8,1.5
	c0.2,0.1,0.4,0,0.5-0.1l3.6-3.8v0.3c0,0.3,0.2,0.5,0.5,0.5s0.5-0.2,0.5-0.5c0,0,0,0,0,0v-1.5c0-0.3-0.2-0.5-0.5-0.5L32.5,13.4
	C32.5,13.4,32.5,13.4,32.5,13.4L32.5,13.4z M18.5,14c-0.3,0-0.5,0.2-0.5,0.5v13c0,0.2,0.1,0.4,0.3,0.5c0,0,0,0,0,0c0,0,0.1,0,0.1,0
	c0,0,0,0,0,0h17c0.3,0,0.5-0.2,0.5-0.5c0-0.3-0.2-0.5-0.5-0.5c0,0,0,0,0,0H35v-9.5c0-0.3-0.2-0.5-0.5-0.5h-2c-0.3,0-0.5,0.2-0.5,0.5
	V27h-1v-6.5c0-0.3-0.2-0.5-0.5-0.5h-2c-0.3,0-0.5,0.2-0.5,0.5V27h-1v-7.5c0-0.3-0.2-0.5-0.5-0.5h-2c-0.3,0-0.5,0.2-0.5,0.5V27h-1
	v-4.5c0-0.3-0.2-0.5-0.5-0.5h-2c-0.3,0-0.5,0.2-0.5,0.5V27h-1V14.5C19,14.2,18.8,14,18.5,14C18.5,14,18.5,14,18.5,14L18.5,14z
	 M11.5,14c0.4,0,0.7,0.1,1.1,0.2h0h0c0.1,0,0.1,0,0.2,0.1c0.1,0,0.1,0.1,0.2,0.1c0.9,0.5,1.5,1.4,1.5,2.5v6l-0.9-0.5
	c-0.2-0.1-0.3-0.4-0.3-0.6v-0.8c0,0,0,0,0,0c0.4-0.6,0.6-1.3,0.6-2v-1.4c0,0,0,0,0,0c0,0,0,0,0,0l0-0.6c0-0.2-0.2-0.4-0.4-0.5
	c-0.4-0.1-0.6-0.2-0.8-0.4l0,0c-0.1,0-0.1-0.1-0.2-0.1c-0.3-0.2-0.7-0.1-1,0.1c0,0-0.3,0.1-0.7,0.1c-0.4,0-0.8,0-1.2,0
	c-0.3,0-0.5,0.2-0.5,0.5l0,0.2c0,0,0,0,0,0v0.7c0,0,0,0.1,0,0c0,0,0,0,0,0v1.4c0,0.7,0.2,1.3,0.6,1.9v0.6c0,0.4-0.2,0.8-0.6,1.1
	l-0.5,0.3v-6C8.6,15.3,9.9,14,11.5,14L11.5,14z M12.1,16.9L12.1,16.9c0.1,0,0.1,0.1,0.2,0.1c0.2,0.1,0.4,0.2,0.6,0.3l0,0.3
	c0,0,0,0,0,0v0v1.4c0,0.5-0.2,1-0.5,1.4c-0.3,0.4-0.6,0.6-0.9,0.6c-0.3,0-0.6-0.2-0.9-0.6c-0.3-0.4-0.5-0.9-0.5-1.4v-1.4
	c0,0.1,0,0,0,0c0-0.1,0,0,0,0v-0.4c0.2,0,0.4,0,0.7,0C11.3,17.3,11.7,17.2,12.1,16.9L12.1,16.9z M33,18h1v9h-1V18z M25,20h1v7h-1V20
	z M29,21h1v6h-1V21z M10.7,21.8C11,22,11.2,22,11.5,22c0.3,0,0.5-0.1,0.7-0.2c0,0.6,0.3,1.1,0.8,1.4l0.4,0.3c0,0.7-0.4,1.3-1,1.6
	c-0.6,0.4-1.4,0.3-2,0c-0.6-0.4-0.9-1-0.9-1.7l0.1-0.1C10.3,23.1,10.6,22.5,10.7,21.8L10.7,21.8z M21,23h1v4h-1V23z M8.6,24.1
	c0.2,0.8,0.7,1.5,1.4,1.9c0.9,0.6,2.1,0.6,3,0.1c0.7-0.4,1.3-1.1,1.4-2l0.7,0.4c0.1,0.1,0.3,0.2,0.3,0.2h0c0.3,0.3,0.5,0.7,0.5,1.2
	c0,0,0,0,0,0v2H7v-1.7c0-0.2,0-0.4,0-0.5h0c0-0.4,0.2-0.7,0.4-0.9c0.1-0.1,0.4-0.3,0.6-0.4L8.6,24.1L8.6,24.1z M21.4,29
	c-0.3,0-0.5,0.2-0.5,0.5c0,0.3,0.2,0.5,0.5,0.5h11c0.3,0,0.5-0.2,0.5-0.5S32.8,29,32.5,29c0,0,0,0,0,0H21.4C21.5,29,21.5,29,21.4,29
	z M11.5,30c-0.3,0-0.5,0.2-0.5,0.5v4c0,0.3,0.2,0.5,0.5,0.5h4.2H21h9.5c0.3,0,0.5-0.2,0.5-0.5v-3c0-0.7-1-0.7-1,0V34h-9h-5.3H12
	v-3.5C12,30.2,11.8,30,11.5,30z"/>
</svg>
