<?xml version="1.0" encoding="utf-8"?>
<!-- Generator: Adobe Illustrator 25.2.1, SVG Export Plug-In . SVG Version: 6.00 Build 0)  -->
<svg version="1.1" id="Capa_1" xmlns="http://www.w3.org/2000/svg" xmlns:xlink="http://www.w3.org/1999/xlink" x="0px" y="0px"
	 viewBox="0 0 300 300" style="enable-background:new 0 0 300 300;" xml:space="preserve">
<style type="text/css">
	.st0{fill:url(#Rectángulo_11635_1_);}
	.st1{fill:url(#Rectángulo_10495_1_);}
	.st2{fill:#FFFFFF;}
</style>
<linearGradient id="Rectángulo_11635_1_" gradientUnits="userSpaceOnUse" x1="2.9683" y1="299.1147" x2="2.2623" y2="298.2128" gradientTransform="matrix(182 0 0 -182 -328.6 54512.0117)">
	<stop  offset="0" style="stop-color:#584696"/>
	<stop  offset="1" style="stop-color:#612577"/>
</linearGradient>
<path id="Rectángulo_11635" class="st0" d="M150.61,60.09L150.61,60.09c50.26,0,91,40.74,91,91l0,0c0,50.26-40.74,91-91,91l0,0
	c-50.26,0-91-40.74-91-91l0,0C59.61,100.83,100.35,60.09,150.61,60.09z"/>
<linearGradient id="Rectángulo_10495_1_" gradientUnits="userSpaceOnUse" x1="2.9683" y1="299.1147" x2="2.2623" y2="298.2128" gradientTransform="matrix(182 0 0 -182 -328.6 54512.0117)">
	<stop  offset="0" style="stop-color:#584696"/>
	<stop  offset="1" style="stop-color:#612577"/>
</linearGradient>
<path id="Rectángulo_10495" class="st1" d="M150.61,60.09L150.61,60.09c50.26,0,91,40.74,91,91l0,0c0,50.26-40.74,91-91,91l0,0
	c-50.26,0-91-40.74-91-91l0,0C59.61,100.83,100.35,60.09,150.61,60.09z"/>
<g id="Grupo_24125" transform="translate(-171.673 -17.058)">
	<g id="Grupo_24122" transform="translate(223.487 49.937)">
		<path id="Trazado_46097" class="st2" d="M130.51,143.15l-7.16-3.23c8.22-7.1,12.94-17.43,12.94-28.29V97.55
			c0-20.68-16.76-37.44-37.44-37.44c-20.68,0-37.44,16.76-37.44,37.44v14.08c-0.01,5.63,4.53,10.2,10.16,10.22c0,0,0.01,0,0.01,0
			h5.71c1.15,2.39,2.69,4.56,4.55,6.45c0,2.03,0,5.78,0,8.22l-14.76,6.64c-5.39,1.93-8.48,7.6-7.16,13.17l3.36,17.25
			c0.31,1.6,1.71,2.75,3.34,2.75h64.34c1.63,0,3.03-1.15,3.34-2.75l3.36-17.25C138.99,150.75,135.9,145.08,130.51,143.15z
			 M116.34,136.76l-0.49-0.22c0-2.44,0-6.21,0-8.24c1.85-1.89,3.37-4.07,4.51-6.45h5.71c0.57,0,1.14-0.05,1.7-0.14
			C125.63,127.79,121.63,133.06,116.34,136.76L116.34,136.76z M129.52,97.55v14.08c-0.02,1.89-1.56,3.41-3.45,3.4h-3.41V94.14h3.41
			C127.95,94.14,129.49,95.66,129.52,97.55z M75.03,115.03h-3.45c-1.88,0-3.4-1.52-3.41-3.4V97.55c0-1.89,1.52-3.43,3.41-3.45h3.45
			C74.94,100.62,75.03,106.18,75.03,115.03L75.03,115.03z M77.29,87.38c-6.24,0-6.3-0.09-7.41,0.1
			c5.56-15.99,23.03-24.44,39.02-18.88c8.85,3.08,15.8,10.03,18.88,18.88c-1.11-0.19-1.18-0.1-7.41-0.1
			c-5.6-11.89-19.77-17-31.67-11.4C83.68,78.34,79.64,82.37,77.29,87.38L77.29,87.38z M112.44,87.34c-3.22,4.27-8.26,6.79-13.62,6.8
			H82.14c1.88-9.21,10.87-15.16,20.08-13.28C106.3,81.7,109.94,84,112.44,87.34L112.44,87.34z M81.79,111.63v-10.68h17.03
			c6.24-0.01,12.22-2.46,16.68-6.82c0.24,1.12,0.38,2.27,0.39,3.42v14.08c0,9.42-7.63,17.05-17.05,17.05
			C89.43,128.67,81.79,121.04,81.79,111.63L81.79,111.63z M131.04,154.77c-0.01,0.06-0.03,0.12-0.04,0.17l-2.84,14.58H69.43
			l-2.84-14.58c-0.01-0.06-0.02-0.12-0.04-0.17c-0.54-2.22,0.7-4.48,2.86-5.22c0.24-0.08-0.85,0.4,17.19-7.74
			c1.22-0.55,2-1.76,2-3.1c0-0.63,0-3.05,0-5.55c6.48,3.07,14,3.07,20.48,0c0,2.53,0,4.99,0,5.58c-0.02,0.57,0.11,1.13,0.37,1.63
			c-3.4,1.26-7.01,1.9-10.64,1.9c-1.88,0-3.41,1.52-3.41,3.41s1.52,3.41,3.41,3.41c6.3,0.01,12.5-1.59,18.02-4.63
			c11.93,5.38,11.1,5.02,11.33,5.09C130.34,150.28,131.58,152.55,131.04,154.77L131.04,154.77z"/>
	</g>
</g>
</svg>
