<svg id="svg" version="1.1" xmlns="http://www.w3.org/2000/svg" xmlns:xlink="http://www.w3.org/1999/xlink" width="400" height="63.94633873672443" viewBox="0, 0, 400,63.94633873672443"><g id="svgg"><path id="path0" d="M99.958 0.125 C 154.981 0.148,245.019 0.148,300.042 0.125 C 355.065 0.102,310.046 0.083,200.000 0.083 C 89.954 0.083,44.935 0.102,99.958 0.125 M329.381 3.556 C 329.087 3.754,328.489 4.139,328.054 4.411 C 326.315 5.498,325.647 6.477,325.406 8.296 C 325.343 8.771,325.188 9.246,325.062 9.351 C 324.729 9.628,324.756 11.101,325.097 11.232 C 325.529 11.398,326.518 11.337,327.583 11.080 C 328.901 10.762,331.400 10.769,332.831 11.094 C 334.785 11.539,335.239 11.418,335.302 10.441 C 335.335 9.914,335.270 9.536,335.115 9.357 C 334.985 9.207,334.831 8.783,334.774 8.417 C 334.716 8.050,334.590 7.467,334.493 7.122 C 334.254 6.273,332.469 4.378,331.506 3.950 C 331.097 3.768,330.661 3.518,330.536 3.393 C 330.237 3.094,330.023 3.124,329.381 3.556 M350.506 4.692 C 349.304 4.929,348.356 6.166,347.743 8.296 C 347.426 9.396,347.315 9.591,346.978 9.636 C 346.043 9.761,345.333 10.027,345.333 10.253 C 345.333 10.705,346.207 10.723,348.407 10.318 C 350.978 9.844,353.473 9.813,355.750 10.227 C 357.681 10.577,358.645 10.582,358.776 10.243 C 358.919 9.869,358.747 9.768,357.799 9.670 C 356.847 9.573,356.855 9.582,356.355 7.911 C 355.436 4.840,353.937 4.015,350.506 4.692 M371.879 5.276 C 369.295 6.191,367.502 10.087,367.501 14.792 L 367.500 16.167 368.917 16.167 C 369.696 16.167,370.333 16.120,370.333 16.062 C 370.333 16.005,370.100 15.484,369.815 14.904 C 368.953 13.153,369.107 11.043,370.167 10.083 C 370.511 9.771,370.770 9.750,374.197 9.750 L 377.859 9.750 378.415 10.357 C 379.376 11.406,379.374 13.631,378.410 15.276 C 378.185 15.661,378.000 16.019,378.000 16.071 C 378.000 16.331,380.846 16.161,380.948 15.895 C 381.288 15.009,380.358 9.850,379.575 8.278 C 378.208 5.536,374.847 4.225,371.879 5.276 M362.647 7.146 C 362.429 7.318,360.975 9.245,359.417 11.428 C 355.123 17.443,353.915 18.274,350.720 17.414 C 345.030 15.883,342.335 19.217,342.333 27.786 L 342.333 28.821 343.958 28.869 L 345.583 28.917 345.629 32.208 L 345.674 35.500 352.170 35.500 L 358.667 35.500 358.667 28.281 C 358.667 18.435,358.507 19.030,362.708 13.184 C 365.313 9.560,365.416 9.386,365.416 8.611 C 365.417 7.154,363.755 6.275,362.647 7.146 M371.050 10.669 C 368.485 11.702,371.158 16.561,374.283 16.547 C 377.120 16.534,379.474 12.501,377.590 10.880 C 377.117 10.473,371.952 10.306,371.050 10.669 M351.333 10.940 C 351.104 10.974,350.139 11.127,349.188 11.281 L 347.460 11.561 347.551 12.443 C 347.998 16.780,353.876 18.014,356.098 14.237 C 356.626 13.340,356.918 11.847,356.624 11.553 C 356.446 11.374,352.455 10.783,351.918 10.856 C 351.825 10.869,351.563 10.906,351.333 10.940 M328.250 12.032 C 327.883 12.122,327.208 12.247,326.750 12.310 L 325.917 12.423 325.969 13.087 C 326.168 15.608,329.288 17.246,331.818 16.158 C 333.684 15.354,335.140 12.501,333.750 12.369 C 333.475 12.343,332.748 12.212,332.134 12.078 C 330.882 11.804,329.251 11.784,328.250 12.032 M325.564 17.325 C 322.472 18.063,320.699 21.633,320.303 27.917 L 320.250 28.750 321.875 28.798 L 323.500 28.845 323.500 32.173 L 323.500 35.500 330.080 35.500 L 336.660 35.500 336.705 32.208 L 336.750 28.917 338.249 28.868 C 340.118 28.807,340.023 28.945,339.754 26.667 C 338.811 18.691,336.579 16.351,330.994 17.483 C 330.046 17.675,329.768 17.669,328.855 17.435 C 327.764 17.156,326.456 17.112,325.564 17.325 M369.488 17.395 C 366.556 18.185,365.340 20.337,364.590 26.059 C 364.190 29.110,364.060 28.833,365.899 28.833 C 367.813 28.833,367.667 28.535,367.667 32.430 L 367.667 35.500 374.163 35.500 L 380.660 35.500 380.705 32.208 L 380.750 28.917 382.375 28.869 C 383.794 28.827,384.000 28.784,384.000 28.529 C 384.000 27.020,383.257 22.915,382.645 21.038 C 381.637 17.950,378.925 16.690,374.994 17.484 C 374.047 17.675,373.767 17.669,372.855 17.435 C 371.628 17.121,370.551 17.108,369.488 17.395 M15.822 24.125 C 12.703 25.706,13.594 30.509,17.059 30.797 C 19.257 30.979,20.993 29.414,20.993 27.250 C 20.993 24.537,18.263 22.888,15.822 24.125 M193.408 24.240 C 176.886 28.512,177.250 54.061,193.858 55.915 C 194.791 56.019,194.834 56.049,198.192 58.920 C 200.057 60.516,201.674 61.824,201.785 61.827 C 202.013 61.834,201.962 62.011,203.344 56.500 L 204.369 52.417 205.510 51.250 C 216.795 39.718,208.152 20.428,193.408 24.240 M197.083 29.727 C 204.360 31.674,205.882 42.148,199.642 47.341 C 193.218 52.687,184.837 48.278,185.213 39.750 C 185.502 33.188,191.401 28.207,197.083 29.727 M192.124 31.514 C 189.836 32.054,188.070 33.828,186.994 36.667 C 186.387 38.269,186.385 42.056,186.991 43.667 C 188.865 48.650,196.287 48.756,198.805 43.837 C 199.350 42.772,199.308 42.667,198.332 42.667 C 198.072 42.667,197.481 42.579,197.019 42.473 L 196.179 42.279 195.431 43.004 C 193.293 45.077,190.792 44.347,190.418 41.542 L 190.302 40.667 190.859 40.689 C 191.268 40.706,191.314 40.732,191.031 40.786 C 189.877 41.006,191.483 44.000,192.756 44.000 C 193.244 44.000,193.244 44.001,192.833 42.833 C 192.290 41.288,192.335 41.167,193.458 41.164 C 193.985 41.163,195.901 41.053,197.714 40.920 C 201.823 40.618,201.762 40.649,201.688 38.891 C 201.516 34.751,199.347 31.897,196.250 31.734 C 195.700 31.705,194.950 31.605,194.583 31.511 C 193.795 31.310,192.986 31.311,192.124 31.514 M3.801 32.222 C 1.704 32.816,2.039 34.363,4.366 34.827 C 6.220 35.197,6.667 35.341,6.667 35.570 C 6.667 36.072,5.223 36.140,4.621 35.667 C 4.155 35.300,2.333 35.176,2.333 35.511 C 2.333 37.040,7.147 37.511,8.625 36.127 C 9.644 35.172,8.703 34.266,6.253 33.844 C 5.075 33.641,4.595 33.417,4.762 33.148 C 4.910 32.908,6.242 32.979,6.593 33.245 C 7.156 33.670,8.702 33.586,8.637 33.133 C 8.505 32.226,5.675 31.693,3.801 32.222 M9.870 34.458 L 9.917 36.750 12.803 36.796 L 15.690 36.841 15.636 36.379 L 15.583 35.917 13.833 35.833 C 12.100 35.751,12.083 35.746,12.083 35.333 C 12.083 34.924,12.111 34.915,13.667 34.833 C 15.222 34.751,15.250 34.743,15.250 34.333 C 15.250 33.921,15.235 33.916,13.625 33.869 C 12.148 33.826,12.000 33.792,12.000 33.500 C 12.000 33.206,12.149 33.174,13.708 33.131 L 15.417 33.083 15.469 32.625 L 15.522 32.167 12.673 32.167 L 9.824 32.167 9.870 34.458 M16.573 32.384 C 16.527 32.504,16.510 33.535,16.536 34.676 L 16.583 36.750 17.583 36.750 L 18.583 36.750 18.632 35.375 C 18.691 33.681,18.687 33.681,20.176 35.417 L 21.392 36.833 22.780 36.833 L 24.167 36.833 24.167 34.500 L 24.167 32.167 23.167 32.167 L 22.167 32.167 22.167 33.583 C 22.167 35.318,22.197 35.318,20.666 33.590 L 19.417 32.180 18.036 32.173 C 17.050 32.169,16.632 32.229,16.573 32.384 M26.042 34.405 C 24.214 37.054,24.264 36.833,25.496 36.833 C 26.375 36.833,26.525 36.784,26.765 36.417 C 27.026 36.019,27.114 36.000,28.667 36.000 C 30.220 36.000,30.308 36.019,30.568 36.417 C 30.813 36.791,30.952 36.833,31.938 36.833 C 33.257 36.833,33.292 37.023,31.469 34.263 L 30.084 32.167 28.834 32.168 L 27.583 32.170 26.042 34.405 M196.750 32.294 C 196.842 32.362,197.027 32.567,197.162 32.750 C 197.344 32.998,197.280 32.977,196.912 32.667 C 196.639 32.438,196.385 32.231,196.347 32.208 C 196.309 32.185,196.347 32.168,196.431 32.169 C 196.515 32.171,196.658 32.227,196.750 32.294 M210.434 33.202 C 212.500 38.941,210.880 46.090,206.422 50.902 C 205.371 52.037,205.545 52.028,207.702 50.841 C 213.936 47.410,215.430 41.051,211.550 34.468 C 210.395 32.509,210.040 32.106,210.434 33.202 M198.643 34.730 C 199.213 36.028,199.055 36.023,198.433 34.723 C 198.121 34.072,197.783 33.489,197.683 33.427 C 197.582 33.364,197.500 33.237,197.500 33.144 C 197.500 32.826,198.285 33.915,198.643 34.730 M29.304 34.183 C 29.733 34.900,29.663 35.000,28.732 35.000 C 27.808 35.000,27.728 34.828,28.258 33.987 C 28.723 33.251,28.751 33.256,29.304 34.183 M220.878 33.994 C 218.325 35.153,219.354 37.929,222.607 38.657 C 223.519 38.862,224.333 39.372,224.333 39.740 C 224.333 41.178,221.585 41.245,220.995 39.821 C 220.789 39.323,220.740 39.301,220.047 39.379 C 219.121 39.483,219.092 39.519,219.334 40.253 C 220.358 43.355,226.000 42.942,226.000 39.764 C 226.000 38.345,225.063 37.454,223.083 36.987 C 221.592 36.636,221.167 36.398,221.167 35.917 C 221.167 34.833,223.374 34.784,223.928 35.856 C 224.135 36.256,224.270 36.345,224.554 36.268 C 224.754 36.215,225.124 36.170,225.378 36.169 C 225.797 36.167,225.829 36.124,225.729 35.708 C 225.309 33.972,222.846 33.101,220.878 33.994 M244.699 34.542 L 244.750 35.250 245.500 35.250 L 246.250 35.250 246.301 34.542 L 246.352 33.833 245.500 33.833 L 244.648 33.833 244.699 34.542 M253.865 34.532 C 253.930 35.437,255.217 35.772,255.426 34.939 C 255.631 34.124,255.477 33.921,254.613 33.865 L 253.813 33.814 253.865 34.532 M194.433 35.252 C 195.294 36.112,195.595 37.441,194.958 37.570 C 194.084 37.747,190.500 37.823,190.500 37.665 C 190.500 37.573,190.978 37.500,191.583 37.500 C 192.179 37.500,192.672 37.444,192.678 37.375 C 192.876 35.220,193.566 34.385,194.433 35.252 M97.670 35.698 C 95.473 36.833,95.788 40.526,98.137 41.159 C 100.528 41.802,102.403 38.786,100.944 36.644 C 100.095 35.397,98.914 35.056,97.670 35.698 M115.167 35.512 C 112.990 36.426,112.900 39.913,115.027 40.969 C 118.004 42.447,120.185 37.813,117.467 35.784 C 116.961 35.406,115.757 35.264,115.167 35.512 M76.339 35.822 C 76.244 36.000,76.167 36.473,76.167 36.874 C 76.167 38.309,76.450 38.243,70.014 38.300 C 65.732 38.338,64.334 38.399,64.334 38.550 C 64.335 38.660,64.670 39.444,65.080 40.292 L 65.824 41.833 70.809 41.833 C 76.361 41.833,76.072 41.899,76.208 40.618 C 76.369 39.117,76.174 39.167,81.918 39.167 C 85.076 39.167,87.142 39.100,87.464 38.988 C 88.594 38.594,88.907 36.882,88.013 35.987 L 87.526 35.500 82.019 35.500 C 76.745 35.500,76.504 35.514,76.339 35.822 M91.871 38.292 C 91.915 40.957,91.932 41.083,92.250 41.083 C 92.546 41.083,92.589 40.956,92.633 39.958 L 92.682 38.833 93.821 38.833 C 95.837 38.833,95.924 38.053,93.917 37.967 L 92.750 37.917 92.750 37.167 L 92.750 36.417 94.208 36.369 C 95.634 36.321,95.667 36.311,95.667 35.910 L 95.667 35.500 93.746 35.500 L 91.825 35.500 91.871 38.292 M106.167 37.238 C 106.167 39.379,106.253 39.374,104.358 37.333 C 103.507 36.417,102.740 35.667,102.655 35.667 C 102.566 35.667,102.500 36.836,102.500 38.428 L 102.500 41.190 102.875 41.137 C 103.234 41.086,103.252 41.006,103.297 39.296 L 103.345 37.508 105.036 39.340 C 105.966 40.348,106.791 41.109,106.868 41.032 C 107.237 40.663,106.936 35.586,106.542 35.530 C 106.173 35.478,106.167 35.507,106.167 37.238 M108.247 35.698 C 108.198 35.826,108.178 37.090,108.204 38.507 L 108.250 41.083 109.670 41.080 C 112.808 41.074,114.052 37.756,111.603 35.927 C 111.016 35.489,108.396 35.310,108.247 35.698 M228.408 36.225 C 225.490 37.549,226.556 42.333,229.769 42.333 C 230.897 42.333,232.666 41.100,232.203 40.637 C 231.809 40.242,230.889 40.293,230.450 40.732 C 229.906 41.276,229.435 41.284,228.909 40.758 C 228.012 39.861,228.278 39.667,230.407 39.667 C 232.536 39.667,232.568 39.649,232.407 38.578 C 232.117 36.641,230.103 35.456,228.408 36.225 M235.439 36.345 C 235.075 36.632,235.000 36.646,235.000 36.429 C 235.000 36.229,234.821 36.167,234.250 36.167 L 233.500 36.167 233.500 39.167 L 233.500 42.167 234.225 42.167 L 234.949 42.167 235.053 40.228 C 235.178 37.889,235.360 37.500,236.324 37.500 C 236.923 37.500,236.990 37.453,237.173 36.897 C 237.481 35.964,236.372 35.611,235.439 36.345 M248.583 36.378 C 247.285 37.105,246.765 39.182,247.484 40.766 C 248.396 42.774,251.533 42.881,252.583 40.941 C 253.143 39.908,251.755 39.515,251.026 40.500 C 249.881 42.049,248.077 39.748,249.025 37.947 C 249.433 37.173,250.443 37.079,250.982 37.766 C 251.398 38.293,252.667 38.225,252.667 37.674 C 252.667 36.327,250.120 35.519,248.583 36.378 M257.871 36.353 C 255.740 37.408,255.713 40.892,257.827 41.958 C 260.189 43.149,262.637 41.541,262.469 38.909 C 262.322 36.593,259.996 35.301,257.871 36.353 M238.000 36.393 C 238.000 36.528,238.305 37.376,238.678 38.277 C 239.050 39.179,239.547 40.423,239.780 41.042 L 240.205 42.167 240.916 42.167 C 241.805 42.167,241.741 42.260,242.971 39.153 C 244.216 36.009,244.206 36.135,243.218 36.199 L 242.437 36.250 241.772 38.042 C 241.406 39.027,241.054 39.833,240.989 39.833 C 240.924 39.833,240.575 39.027,240.213 38.042 L 239.555 36.250 238.778 36.199 C 238.182 36.160,238.000 36.206,238.000 36.393 M244.667 39.167 L 244.667 42.167 245.500 42.167 L 246.333 42.167 246.333 39.167 L 246.333 36.167 245.500 36.167 L 244.667 36.167 244.667 39.167 M253.833 39.167 L 253.833 42.167 254.566 42.167 C 255.504 42.167,255.500 42.179,255.500 39.167 C 255.500 36.154,255.504 36.167,254.566 36.167 L 253.833 36.167 253.833 39.167 M99.879 36.730 C 100.338 37.155,100.703 38.181,100.558 38.637 C 100.150 39.916,99.684 40.333,98.662 40.333 C 97.645 40.333,96.777 38.911,97.074 37.730 C 97.391 36.466,98.982 35.899,99.879 36.730 M111.021 36.594 C 112.854 37.542,111.917 40.333,109.766 40.333 L 109.167 40.333 109.167 38.333 L 109.167 36.333 109.842 36.333 C 110.213 36.333,110.744 36.451,111.021 36.594 M117.008 36.547 C 118.484 37.711,117.858 40.333,116.103 40.333 C 114.534 40.333,113.751 38.051,114.906 36.845 C 115.439 36.288,116.490 36.139,117.008 36.547 M230.549 37.708 C 231.098 38.344,230.864 38.578,229.623 38.633 C 228.536 38.680,228.500 38.669,228.500 38.283 C 228.500 37.289,229.858 36.908,230.549 37.708 M260.181 37.547 C 261.430 38.506,260.821 41.000,259.339 41.000 C 258.061 41.000,257.434 38.826,258.409 37.774 C 258.856 37.292,259.707 37.183,260.181 37.547 M0.778 38.111 C 0.717 38.172,0.667 38.726,0.667 39.342 C 0.667 40.756,0.286 40.662,6.008 40.664 C 10.783 40.667,11.000 40.698,11.000 41.375 C 11.000 41.545,9.675 43.978,8.055 46.782 L 5.111 51.880 5.974 52.704 C 6.448 53.156,6.917 53.500,7.014 53.467 C 7.293 53.374,15.869 38.360,15.752 38.170 C 15.634 37.980,0.967 37.922,0.778 38.111 M18.946 38.110 C 18.884 38.172,19.050 38.604,19.315 39.070 C 22.908 45.387,27.408 53.136,27.594 53.327 C 27.826 53.564,29.500 52.215,29.500 51.791 C 29.500 51.716,28.179 49.362,26.564 46.561 C 23.925 41.985,23.646 41.428,23.810 41.068 L 23.993 40.667 28.538 40.641 C 31.038 40.627,33.158 40.598,33.250 40.577 C 33.342 40.556,33.551 40.530,33.716 40.519 C 33.979 40.502,34.009 40.355,33.966 39.292 L 33.917 38.083 26.488 38.040 C 22.402 38.016,19.008 38.047,18.946 38.110 M314.716 40.660 C 313.938 41.135,313.614 41.868,313.705 42.956 C 313.951 45.926,318.168 45.777,318.166 42.798 C 318.165 40.819,316.325 39.679,314.716 40.660 M331.759 40.669 C 331.581 41.401,331.734 62.421,331.917 62.375 C 332.136 62.320,332.232 40.920,332.014 40.531 C 331.881 40.294,331.845 40.313,331.759 40.669 M15.673 43.547 C 14.806 45.034,13.057 48.008,11.786 50.156 C 10.516 52.305,9.367 54.273,9.234 54.531 L 8.992 54.999 10.074 55.533 C 10.669 55.826,11.187 56.033,11.225 55.991 C 11.263 55.950,12.475 53.929,13.919 51.500 C 17.807 44.959,17.062 44.950,21.001 51.583 C 23.951 56.553,23.554 56.146,24.828 55.503 C 26.117 54.852,26.204 55.182,23.631 50.977 C 22.488 49.111,20.632 46.065,19.505 44.208 C 18.378 42.352,17.410 40.836,17.353 40.838 C 17.296 40.841,16.540 42.060,15.673 43.547 M381.000 45.407 C 381.000 48.883,381.102 49.437,381.611 48.741 C 381.827 48.445,381.861 48.444,382.319 48.715 C 384.283 49.875,386.375 47.343,385.251 45.169 C 384.755 44.209,383.247 43.812,382.387 44.414 C 381.925 44.738,381.833 44.516,381.833 43.070 C 381.833 42.040,381.818 42.000,381.417 42.000 L 381.000 42.000 381.000 45.407 M386.372 45.458 C 386.416 48.902,386.418 48.917,386.792 48.970 L 387.167 49.023 387.167 45.512 L 387.167 42.000 386.747 42.000 L 386.327 42.000 386.372 45.458 M362.867 42.367 C 362.603 42.630,362.614 42.915,362.896 43.149 C 363.394 43.563,364.022 42.880,363.564 42.421 C 363.257 42.114,363.129 42.104,362.867 42.367 M378.027 42.821 C 377.786 43.249,377.720 43.514,377.836 43.585 C 378.043 43.713,379.196 42.516,379.067 42.307 C 378.859 41.970,378.370 42.211,378.027 42.821 M388.335 42.415 C 388.089 42.712,388.219 43.133,388.604 43.281 C 388.998 43.432,389.373 42.885,389.154 42.477 C 388.954 42.103,388.615 42.077,388.335 42.415 M339.355 42.698 C 338.277 45.578,337.316 48.716,337.467 48.867 C 337.792 49.192,338.107 48.875,338.481 47.849 L 338.851 46.833 339.905 46.833 C 341.085 46.833,341.181 46.901,341.548 47.997 C 341.828 48.835,342.213 49.187,342.516 48.884 C 342.662 48.738,342.447 47.924,341.638 45.554 L 340.567 42.417 340.034 42.364 C 339.603 42.322,339.472 42.387,339.355 42.698 M371.167 45.679 C 371.167 48.775,371.188 49.020,371.458 48.969 C 371.696 48.924,371.765 48.682,371.833 47.665 L 371.917 46.417 372.837 46.318 C 376.306 45.945,375.932 42.333,372.425 42.333 L 371.167 42.333 371.167 45.679 M78.560 42.787 C 76.108 42.849,76.174 42.810,76.169 44.208 C 76.164 45.464,76.036 45.500,71.583 45.500 C 69.429 45.500,67.667 45.556,67.667 45.625 C 67.667 45.694,68.040 46.519,68.495 47.458 L 69.323 49.167 72.423 49.167 C 75.967 49.167,76.167 49.114,76.167 48.169 C 76.167 46.474,75.897 46.550,82.376 46.410 L 87.669 46.295 88.085 45.801 C 88.693 45.079,88.663 44.021,88.014 43.294 L 87.528 42.750 84.139 42.740 C 82.275 42.735,79.764 42.756,78.560 42.787 M137.500 43.976 L 137.500 45.286 136.486 45.392 C 134.328 45.617,133.524 46.522,133.376 48.889 C 133.147 52.567,135.104 54.126,138.636 53.077 L 139.500 52.820 139.500 47.744 L 139.500 42.667 138.500 42.667 L 137.500 42.667 137.500 43.976 M223.611 43.111 C 223.550 43.172,223.500 43.772,223.500 44.444 C 223.500 45.748,223.476 45.784,222.833 45.417 C 221.375 44.583,219.612 45.641,219.314 47.528 C 218.874 50.309,220.803 52.278,222.877 51.167 C 223.622 50.767,223.667 50.763,223.667 51.083 C 223.667 51.269,223.861 51.333,224.417 51.333 L 225.167 51.333 225.167 47.167 L 225.167 43.000 224.444 43.000 C 224.047 43.000,223.672 43.050,223.611 43.111 M235.908 43.212 C 235.864 43.328,235.847 45.185,235.872 47.337 L 235.917 51.250 239.125 51.295 L 242.333 51.341 242.333 50.675 L 242.333 50.009 240.042 49.963 L 237.750 49.917 237.701 48.792 L 237.651 47.667 239.742 47.667 L 241.833 47.667 241.833 46.917 L 241.833 46.167 239.750 46.167 L 237.667 46.167 237.667 45.250 L 237.667 44.333 239.917 44.333 L 242.167 44.333 242.167 43.667 L 242.167 43.000 239.078 43.000 C 236.734 43.000,235.970 43.051,235.908 43.212 M260.111 43.111 C 260.050 43.172,260.000 45.047,260.000 47.278 L 260.000 51.333 260.833 51.333 L 261.667 51.333 261.667 47.167 L 261.667 43.000 260.944 43.000 C 260.547 43.000,260.172 43.050,260.111 43.111 M373.848 43.312 C 374.354 43.721,374.376 44.698,373.891 45.183 C 373.458 45.616,372.196 45.814,371.986 45.483 C 371.814 45.212,371.781 43.275,371.944 43.111 C 372.185 42.870,373.471 43.006,373.848 43.312 M340.484 44.768 C 340.676 45.420,340.833 46.001,340.833 46.060 C 340.833 46.119,340.458 46.167,340.000 46.167 C 339.014 46.167,339.005 46.134,339.538 44.489 C 339.968 43.165,340.017 43.179,340.484 44.768 M198.761 44.504 C 197.748 46.145,195.910 47.302,193.875 47.579 C 192.148 47.814,192.978 48.193,195.205 48.186 C 196.636 48.182,198.122 47.708,199.212 46.908 C 200.038 46.302,201.553 44.410,201.453 44.110 C 201.408 43.974,199.997 43.543,199.482 43.507 C 199.426 43.503,199.102 43.952,198.761 44.504 M344.102 44.515 C 341.766 46.353,343.637 49.703,346.375 48.584 C 346.892 48.372,346.738 49.288,346.159 49.867 C 345.642 50.383,344.874 50.459,343.958 50.084 C 343.734 49.992,343.667 50.047,343.667 50.320 C 343.667 51.423,346.446 51.144,347.162 49.968 C 347.662 49.149,347.681 44.167,347.184 44.167 C 347.011 44.167,346.824 44.284,346.769 44.427 C 346.679 44.663,346.634 44.663,346.298 44.427 C 345.758 44.049,344.638 44.094,344.102 44.515 M349.352 44.439 C 346.927 46.137,349.397 50.227,352.005 48.831 C 352.575 48.525,352.222 48.201,351.417 48.292 C 350.380 48.409,349.870 48.235,349.508 47.640 C 348.992 46.790,349.171 46.667,350.917 46.667 C 352.657 46.667,352.758 46.596,352.477 45.575 C 352.121 44.289,350.440 43.677,349.352 44.439 M353.459 44.292 C 353.234 44.755,353.552 49.014,353.808 48.966 C 354.033 48.923,354.101 48.619,354.179 47.291 C 354.286 45.471,354.630 44.833,355.503 44.833 C 356.336 44.833,356.569 45.333,356.641 47.272 C 356.702 48.943,356.720 49.016,357.061 48.967 C 357.768 48.867,357.648 45.300,356.913 44.565 C 356.396 44.047,355.240 44.013,354.625 44.497 C 354.205 44.827,354.204 44.827,354.118 44.497 C 354.034 44.178,353.583 44.037,353.459 44.292 M359.383 44.489 C 357.356 45.741,358.240 49.004,360.605 48.997 C 361.658 48.995,362.084 48.835,361.967 48.486 C 361.917 48.335,361.633 48.280,361.053 48.311 C 359.786 48.378,359.250 47.865,359.250 46.583 C 359.250 45.303,359.748 44.833,361.105 44.833 C 361.891 44.833,362.016 44.791,361.969 44.542 C 361.882 44.087,360.094 44.051,359.383 44.489 M362.771 44.421 C 362.614 44.831,362.650 48.550,362.814 48.808 C 362.893 48.932,363.098 49.006,363.270 48.972 C 363.787 48.873,363.748 44.273,363.230 44.200 C 363.021 44.170,362.833 44.261,362.771 44.421 M365.074 44.405 C 364.589 44.763,364.950 45.039,365.643 44.840 C 366.308 44.649,366.907 44.847,367.174 45.347 C 367.405 45.779,367.173 45.993,366.469 45.997 C 364.845 46.007,363.828 47.694,364.865 48.660 C 365.304 49.069,366.422 49.119,366.945 48.753 C 367.256 48.535,367.322 48.535,367.503 48.753 C 368.064 49.430,368.196 49.068,368.139 47.013 C 368.088 45.179,368.052 44.993,367.679 44.596 C 367.205 44.091,365.653 43.978,365.074 44.405 M375.944 44.278 C 375.803 44.419,375.800 46.378,375.939 47.394 C 376.142 48.875,377.596 49.545,378.709 48.669 C 379.129 48.339,379.129 48.339,379.219 48.684 C 379.278 48.907,379.417 49.008,379.613 48.971 C 379.889 48.917,379.917 48.703,379.917 46.581 L 379.917 44.250 379.500 44.250 C 379.086 44.250,379.083 44.260,379.036 45.951 C 378.991 47.557,378.964 47.670,378.555 47.992 C 377.454 48.858,376.833 48.205,376.833 46.180 C 376.833 44.313,376.539 43.683,375.944 44.278 M388.370 46.529 C 388.414 48.790,388.434 48.917,388.750 48.917 C 389.308 48.917,389.263 44.275,388.704 44.196 L 388.324 44.142 388.370 46.529 M391.050 44.493 C 389.634 45.356,389.596 47.894,390.987 48.716 C 391.537 49.041,393.162 49.105,393.454 48.813 C 393.836 48.431,393.508 48.215,392.666 48.296 C 391.926 48.367,391.800 48.326,391.341 47.867 C 390.137 46.663,390.985 44.742,392.668 44.859 C 393.479 44.915,393.818 44.713,393.574 44.318 C 393.394 44.026,391.613 44.150,391.050 44.493 M394.494 44.424 C 394.168 44.816,394.495 45.026,395.143 44.840 C 395.787 44.655,396.405 44.844,396.649 45.300 C 396.868 45.710,396.590 46.000,395.978 46.000 C 394.369 46.000,393.339 47.672,394.333 48.667 C 394.734 49.067,395.918 49.114,396.401 48.749 C 396.681 48.537,396.743 48.541,396.919 48.781 C 397.601 49.715,398.040 46.550,397.431 45.091 C 397.051 44.184,395.068 43.733,394.494 44.424 M351.237 45.019 C 351.524 45.245,351.667 45.500,351.634 45.728 C 351.566 46.202,349.333 46.382,349.333 45.913 C 349.333 45.482,349.660 44.993,350.053 44.834 C 350.603 44.613,350.749 44.636,351.237 45.019 M346.321 45.272 C 346.982 46.113,346.702 47.807,345.842 48.163 C 344.635 48.663,343.629 47.189,344.174 45.719 C 344.541 44.732,345.705 44.489,346.321 45.272 M384.128 45.166 C 384.547 45.556,384.746 46.427,384.585 47.161 C 384.249 48.687,382.394 48.754,381.980 47.256 C 381.509 45.549,382.991 44.107,384.128 45.166 M227.742 45.401 C 227.280 45.602,226.344 46.530,226.326 46.804 C 226.322 46.866,226.253 47.254,226.172 47.667 C 225.544 50.876,229.194 52.913,231.232 50.491 C 232.027 49.546,230.652 49.029,229.749 49.933 C 229.082 50.599,227.833 50.091,227.833 49.153 C 227.833 48.872,228.011 48.840,229.792 48.797 L 231.750 48.750 231.709 47.953 C 231.601 45.844,229.632 44.578,227.742 45.401 M245.677 45.517 C 245.157 45.834,245.085 45.842,244.908 45.600 C 244.791 45.440,244.470 45.333,244.107 45.333 L 243.500 45.333 243.500 48.333 L 243.500 51.333 244.236 51.333 L 244.973 51.333 245.028 49.235 C 245.082 47.173,245.091 47.130,245.551 46.735 C 246.703 45.745,247.070 46.285,247.142 49.078 L 247.200 51.350 247.975 51.300 L 248.750 51.250 248.833 49.110 C 248.911 47.112,248.943 46.948,249.310 46.651 C 250.409 45.763,250.833 46.465,250.833 49.176 L 250.833 51.352 251.625 51.301 L 252.417 51.250 252.417 48.899 C 252.417 46.318,252.283 45.821,251.473 45.402 C 250.620 44.961,249.280 45.201,248.816 45.877 C 248.761 45.958,248.432 45.831,248.085 45.595 C 247.308 45.068,246.459 45.041,245.677 45.517 M256.333 45.276 C 256.196 45.331,255.946 45.497,255.778 45.643 C 255.497 45.888,255.460 45.886,255.311 45.622 C 255.201 45.425,254.943 45.333,254.495 45.333 C 253.636 45.333,253.646 45.277,253.703 49.833 L 253.750 53.583 254.542 53.634 L 255.333 53.685 255.333 52.259 C 255.333 51.475,255.369 50.833,255.413 50.833 C 255.456 50.833,255.738 50.983,256.038 51.166 C 258.706 52.793,261.091 48.360,258.844 45.951 C 258.223 45.285,257.076 44.976,256.333 45.276 M263.837 45.531 C 261.529 47.099,262.177 51.098,264.796 51.449 C 266.540 51.683,268.959 50.007,267.458 49.605 C 266.794 49.427,266.524 49.491,266.083 49.933 C 265.414 50.602,264.167 50.091,264.167 49.148 C 264.167 48.858,264.315 48.833,266.073 48.833 C 268.242 48.833,268.223 48.845,267.997 47.643 C 267.607 45.559,265.425 44.452,263.837 45.531 M270.151 45.554 C 268.084 46.645,268.125 50.138,270.217 51.151 C 272.424 52.219,274.833 50.758,274.833 48.351 C 274.833 45.809,272.411 44.362,270.151 45.554 M93.277 45.554 C 90.832 46.301,90.317 51.277,92.522 52.850 C 93.598 53.617,96.907 53.371,96.743 52.536 C 96.484 51.219,96.611 51.321,95.372 51.434 C 94.087 51.551,93.265 51.144,93.366 50.439 C 93.414 50.105,93.523 50.081,95.208 50.036 L 97.000 49.989 97.030 49.369 C 97.178 46.299,95.714 44.810,93.277 45.554 M99.540 45.510 C 99.150 45.587,98.625 45.748,98.374 45.869 L 97.917 46.088 97.917 49.586 L 97.917 53.083 98.917 53.083 L 99.917 53.083 100.000 50.250 L 100.083 47.417 100.743 47.363 C 101.765 47.280,101.833 47.477,101.833 50.540 L 101.833 53.183 102.875 53.133 L 103.917 53.083 104.000 50.250 L 104.083 47.417 104.743 47.363 C 105.765 47.280,105.833 47.478,105.833 50.532 L 105.833 53.167 106.930 53.167 L 108.027 53.167 107.972 50.208 C 107.890 45.837,106.953 44.771,103.883 45.557 C 103.020 45.779,102.800 45.782,102.235 45.580 C 101.511 45.322,100.611 45.299,99.540 45.510 M110.417 45.519 C 110.050 45.602,109.543 45.754,109.289 45.856 L 108.829 46.042 108.873 51.063 L 108.917 56.083 109.567 56.137 C 110.917 56.247,111.000 56.161,111.000 54.663 L 111.000 53.333 111.923 53.333 C 113.651 53.333,114.465 52.649,114.940 50.795 C 115.868 47.172,113.792 44.750,110.417 45.519 M117.701 45.503 C 117.216 45.574,116.598 45.724,116.326 45.836 L 115.833 46.040 115.833 49.612 L 115.833 53.183 116.875 53.133 L 117.917 53.083 118.000 50.334 L 118.083 47.584 118.792 47.435 L 119.500 47.286 119.500 46.411 C 119.500 45.767,119.430 45.509,119.236 45.434 C 118.944 45.322,118.944 45.322,117.701 45.503 M122.066 45.491 C 120.515 45.861,119.765 47.273,119.861 49.644 C 119.967 52.299,120.948 53.351,123.285 53.317 C 125.234 53.288,125.485 53.108,125.258 51.900 L 125.151 51.332 124.034 51.434 C 122.754 51.551,121.932 51.142,122.033 50.439 C 122.080 50.105,122.190 50.081,123.875 50.036 L 125.667 49.989 125.667 48.653 C 125.667 46.167,124.292 44.959,122.066 45.491 M127.877 45.576 C 127.304 45.706,126.761 45.859,126.668 45.916 C 126.564 45.980,126.500 47.369,126.500 49.593 L 126.500 53.167 127.500 53.167 L 128.500 53.167 128.500 50.514 C 128.500 47.310,128.493 47.333,129.425 47.333 C 130.394 47.333,130.405 47.363,130.500 50.417 L 130.583 53.083 131.639 53.133 L 132.694 53.183 132.639 50.217 C 132.555 45.727,131.547 44.744,127.877 45.576 M142.440 45.571 C 140.912 46.131,140.246 47.470,140.366 49.743 C 140.505 52.401,141.633 53.446,144.203 53.297 C 145.782 53.205,146.019 53.032,145.855 52.083 L 145.740 51.417 144.545 51.474 C 143.440 51.527,143.317 51.499,142.913 51.095 C 142.099 50.281,142.360 50.089,144.359 50.036 L 146.130 49.989 146.243 49.240 C 146.638 46.607,144.703 44.741,142.440 45.571 M148.806 45.504 C 148.378 45.576,147.816 45.737,147.556 45.861 L 147.083 46.088 147.083 49.586 L 147.083 53.083 148.121 53.133 L 149.159 53.182 149.204 50.383 L 149.250 47.585 149.958 47.435 L 150.667 47.286 150.667 46.411 C 150.667 45.278,150.532 45.212,148.806 45.504 M306.718 46.199 C 305.595 46.742,306.197 47.598,307.971 47.981 C 308.790 48.158,308.912 48.237,308.757 48.489 C 308.595 48.751,307.906 48.705,307.667 48.417 C 307.386 48.079,306.167 48.076,306.167 48.413 C 306.167 49.352,309.238 49.611,310.104 48.745 C 310.811 48.037,310.366 47.546,308.688 47.184 C 308.288 47.097,307.875 46.938,307.772 46.829 C 307.580 46.630,307.934 46.649,309.522 46.926 C 310.264 47.056,310.471 46.804,310.006 46.339 C 309.622 45.956,307.416 45.862,306.718 46.199 M311.111 46.111 C 311.050 46.172,311.000 46.885,311.000 47.694 L 311.000 49.167 312.929 49.167 C 314.676 49.167,314.853 49.139,314.802 48.875 C 314.757 48.637,314.536 48.574,313.613 48.534 C 312.072 48.467,312.018 47.946,313.543 47.867 C 315.014 47.790,314.975 47.167,313.500 47.167 C 312.722 47.167,312.500 47.111,312.500 46.917 C 312.500 46.720,312.731 46.667,313.583 46.667 C 314.556 46.667,314.667 46.632,314.667 46.333 C 314.667 45.996,311.428 45.794,311.111 46.111 M315.444 46.111 C 315.383 46.172,315.333 46.885,315.333 47.694 L 315.333 49.167 316.000 49.167 L 316.667 49.167 316.667 48.250 C 316.667 47.746,316.730 47.333,316.808 47.333 C 316.886 47.333,317.279 47.746,317.682 48.250 L 318.413 49.167 320.128 49.167 C 321.499 49.167,321.863 49.116,321.940 48.917 C 322.012 48.728,322.315 48.667,323.167 48.667 C 324.018 48.667,324.321 48.728,324.394 48.917 C 324.460 49.089,324.729 49.167,325.259 49.167 C 325.682 49.167,326.003 49.107,325.972 49.035 C 325.942 48.962,325.504 48.251,325.000 47.455 L 324.083 46.007 323.288 46.003 L 322.493 46.000 321.538 47.493 C 320.362 49.332,320.357 49.332,320.298 47.542 L 320.250 46.083 319.625 46.032 L 319.000 45.980 319.000 46.907 C 319.000 48.058,318.900 48.059,317.924 46.917 C 317.157 46.018,315.934 45.621,315.444 46.111 M222.724 46.518 C 223.267 46.766,223.500 47.332,223.500 48.402 C 223.500 50.602,221.251 50.881,220.906 48.724 C 220.652 47.135,221.588 46.001,222.724 46.518 M229.758 46.742 C 230.543 47.527,230.145 47.909,228.653 47.803 C 227.731 47.737,227.558 47.241,228.263 46.686 C 228.849 46.225,229.256 46.241,229.758 46.742 M257.671 46.960 C 258.140 47.556,258.131 49.122,257.655 49.728 C 256.912 50.672,255.626 50.098,255.406 48.724 C 255.111 46.879,256.659 45.673,257.671 46.960 M266.215 46.868 C 266.765 47.518,266.533 47.750,265.331 47.750 C 264.354 47.750,264.245 47.716,264.199 47.394 C 264.069 46.480,265.558 46.090,266.215 46.868 M272.409 46.604 C 273.269 46.934,273.443 48.916,272.679 49.679 C 271.602 50.757,270.348 50.009,270.339 48.284 C 270.331 46.860,271.212 46.144,272.409 46.604 M367.301 47.115 C 367.366 47.776,366.862 48.333,366.200 48.333 C 365.017 48.333,365.058 46.918,366.250 46.617 C 366.976 46.434,367.248 46.563,367.301 47.115 M396.647 46.651 C 397.285 47.055,396.510 48.333,395.628 48.333 C 394.507 48.333,394.609 46.898,395.750 46.620 C 396.278 46.491,396.402 46.496,396.647 46.651 M323.494 47.322 C 323.773 47.844,323.698 48.000,323.167 48.000 C 322.623 48.000,322.554 47.842,322.873 47.331 C 323.133 46.916,323.276 46.914,323.494 47.322 M94.678 47.339 C 95.430 47.742,95.096 48.500,94.167 48.500 C 93.221 48.500,93.036 48.131,93.667 47.500 C 94.045 47.122,94.220 47.094,94.678 47.339 M123.373 47.375 C 124.073 47.916,123.814 48.417,122.833 48.417 C 122.011 48.417,121.922 48.382,121.968 48.083 C 122.074 47.390,122.871 46.988,123.373 47.375 M143.882 47.375 C 144.563 47.884,144.318 48.413,143.375 48.467 C 142.587 48.512,142.500 48.483,142.500 48.175 C 142.500 47.454,143.338 46.968,143.882 47.375 M112.568 47.649 C 113.601 48.791,112.835 51.619,111.533 51.469 L 111.083 51.417 111.036 49.594 C 111.010 48.592,111.026 47.673,111.072 47.552 C 111.201 47.216,112.237 47.284,112.568 47.649 M137.399 47.597 C 137.590 48.094,137.510 51.090,137.300 51.300 C 136.111 52.489,134.689 48.961,135.812 47.609 C 136.116 47.243,137.260 47.234,137.399 47.597 M76.367 50.200 C 76.132 50.435,76.079 55.000,76.311 55.000 C 76.391 55.000,76.654 54.700,76.897 54.333 L 77.338 53.667 82.261 53.667 C 87.785 53.667,87.990 53.629,88.443 52.545 C 88.764 51.779,88.621 51.000,88.057 50.435 L 87.621 50.000 82.094 50.000 C 78.017 50.000,76.514 50.052,76.367 50.200 M305.234 50.232 C 305.185 50.360,305.168 50.754,305.197 51.107 L 305.250 51.750 308.000 51.783 C 309.512 51.800,310.956 51.819,311.208 51.824 C 311.733 51.835,311.854 52.483,311.444 53.088 C 311.321 53.269,310.900 54.017,310.509 54.750 C 310.117 55.483,309.382 56.819,308.875 57.718 L 307.954 59.353 308.510 59.927 C 309.238 60.678,309.155 60.728,310.114 58.958 C 310.573 58.110,311.826 55.820,312.897 53.869 C 313.969 51.918,314.801 50.249,314.746 50.161 C 314.574 49.881,305.342 49.951,305.234 50.232 M316.907 50.292 C 317.087 50.772,322.524 60.328,322.667 60.417 C 322.740 60.462,323.029 60.238,323.308 59.920 L 323.817 59.340 322.633 57.212 C 319.243 51.117,319.148 51.667,323.595 51.667 L 326.667 51.667 326.667 50.833 L 326.667 50.000 321.732 50.000 C 317.102 50.000,316.804 50.018,316.907 50.292 M206.989 51.464 C 206.021 51.988,205.104 52.494,204.952 52.588 C 204.660 52.768,202.236 61.958,202.430 62.151 C 202.484 62.206,202.680 62.063,202.865 61.833 C 203.050 61.604,203.892 60.667,204.737 59.750 C 207.915 56.299,207.544 56.911,208.323 53.833 C 208.705 52.321,209.057 50.952,209.104 50.792 C 209.240 50.327,208.876 50.443,206.989 51.464 M337.917 51.971 L 337.250 52.083 337.250 56.250 L 337.250 60.417 338.917 60.468 C 342.827 60.589,344.769 59.066,344.722 55.917 C 344.675 52.879,341.939 51.293,337.917 51.971 M371.205 51.944 L 370.661 52.022 370.705 56.219 L 370.750 60.417 371.583 60.417 L 372.417 60.417 372.465 58.958 L 372.513 57.500 372.998 57.500 C 375.161 57.500,376.527 56.489,376.630 54.812 C 376.771 52.530,374.714 51.443,371.205 51.944 M392.172 52.052 C 390.169 52.690,389.038 55.384,389.757 57.805 C 390.857 61.509,396.313 61.478,397.421 57.761 C 398.542 54.004,395.711 50.924,392.172 52.052 M313.167 56.616 C 311.746 59.154,310.559 61.289,310.529 61.361 C 310.467 61.510,311.485 62.165,311.780 62.166 C 311.889 62.166,312.707 60.848,313.598 59.237 C 316.065 54.776,315.711 54.794,318.091 59.014 C 319.986 62.373,319.957 62.344,320.807 61.826 C 321.469 61.423,321.486 61.492,320.173 59.250 C 319.636 58.333,318.487 56.349,317.620 54.840 C 316.752 53.332,315.976 52.076,315.896 52.049 C 315.816 52.023,314.587 54.078,313.167 56.616 M345.667 56.254 L 345.667 60.508 348.292 60.463 L 350.917 60.417 350.917 59.667 L 350.917 58.917 349.250 58.833 L 347.583 58.750 347.583 57.833 L 347.583 56.917 349.125 56.869 L 350.667 56.821 350.667 56.083 L 350.667 55.346 349.125 55.298 L 347.583 55.250 347.583 54.417 L 347.583 53.583 349.208 53.536 L 350.833 53.488 350.833 52.744 L 350.833 52.000 348.250 52.000 L 345.667 52.000 345.667 56.254 M354.039 56.208 L 354.083 60.417 356.417 60.465 C 359.477 60.527,359.532 60.512,359.468 59.619 L 359.417 58.917 357.708 58.869 L 356.000 58.822 356.000 57.834 L 356.000 56.846 357.542 56.798 L 359.083 56.750 359.083 56.083 L 359.083 55.417 357.542 55.369 L 356.000 55.321 356.000 54.416 L 356.000 53.512 357.625 53.464 L 359.250 53.417 359.301 52.708 L 359.352 52.000 356.673 52.000 L 353.994 52.000 354.039 56.208 M360.667 52.301 C 360.667 52.467,360.550 54.276,360.406 56.321 C 360.101 60.678,360.077 60.535,361.123 60.468 L 361.917 60.417 362.063 57.458 C 362.143 55.831,362.255 54.500,362.313 54.500 C 362.370 54.501,362.632 55.382,362.896 56.459 C 363.160 57.536,363.506 58.829,363.666 59.333 L 363.956 60.250 364.686 60.250 L 365.417 60.250 366.307 57.500 C 366.797 55.987,367.242 54.637,367.297 54.500 C 367.352 54.362,367.459 55.563,367.534 57.167 C 367.702 60.728,367.637 60.531,368.623 60.468 L 369.417 60.417 369.402 58.833 C 369.394 57.962,369.330 56.069,369.260 54.625 L 369.132 52.000 367.845 52.000 L 366.559 52.000 365.950 53.958 C 365.616 55.035,365.262 56.235,365.165 56.625 C 364.910 57.642,364.793 57.522,364.351 55.792 C 364.134 54.944,363.805 53.744,363.619 53.125 L 363.282 52.000 361.974 52.000 C 360.824 52.000,360.667 52.036,360.667 52.301 M377.619 52.104 C 377.454 52.269,377.474 60.034,377.640 60.296 C 377.742 60.457,378.385 60.498,380.263 60.463 L 382.750 60.417 382.801 59.625 L 382.852 58.833 381.179 58.833 L 379.507 58.833 379.462 55.458 L 379.417 52.083 378.577 52.034 C 378.115 52.007,377.684 52.038,377.619 52.104 M383.667 56.254 L 383.667 60.508 386.292 60.463 L 388.917 60.417 388.917 59.667 L 388.917 58.917 387.200 58.869 L 385.484 58.821 385.534 57.869 L 385.583 56.917 387.125 56.869 L 388.667 56.821 388.667 56.083 L 388.667 55.346 387.125 55.298 L 385.583 55.250 385.533 54.375 L 385.483 53.500 387.158 53.500 L 388.833 53.500 388.833 52.750 L 388.833 52.000 386.250 52.000 L 383.667 52.000 383.667 56.254 M341.657 53.795 C 343.763 55.337,342.543 59.000,339.923 59.000 L 339.167 59.000 339.167 56.278 C 339.167 54.781,339.223 53.498,339.292 53.427 C 339.509 53.204,341.212 53.469,341.657 53.795 M374.535 53.835 C 375.243 54.710,374.560 55.872,373.320 55.900 L 372.583 55.917 372.533 54.851 C 372.463 53.356,372.515 53.273,373.455 53.379 C 373.987 53.439,374.332 53.584,374.535 53.835 M394.749 53.883 C 395.913 55.047,395.938 57.370,394.798 58.509 C 393.944 59.364,392.475 59.071,391.938 57.938 C 390.640 55.202,392.863 51.996,394.749 53.883 " stroke="none" fill="#f3f3f3" fill-rule="evenodd"></path><path id="path1" d="M0.000 32.000 L 0.000 63.833 200.000 63.833 L 400.000 63.833 400.000 32.000 L 400.000 0.167 200.000 0.167 L 0.000 0.167 0.000 32.000 M330.536 3.393 C 330.661 3.518,331.097 3.768,331.506 3.950 C 332.469 4.378,334.254 6.273,334.493 7.122 C 334.590 7.467,334.716 8.050,334.774 8.417 C 334.831 8.783,334.985 9.207,335.115 9.357 C 335.270 9.536,335.335 9.914,335.302 10.441 C 335.239 11.418,334.785 11.539,332.831 11.094 C 331.400 10.769,328.901 10.762,327.583 11.080 C 326.518 11.337,325.529 11.398,325.097 11.232 C 324.756 11.101,324.729 9.628,325.062 9.351 C 325.188 9.246,325.343 8.771,325.406 8.296 C 325.647 6.477,326.315 5.498,328.054 4.411 C 328.489 4.139,329.087 3.754,329.381 3.556 C 330.023 3.124,330.237 3.094,330.536 3.393 M354.462 4.834 C 355.187 5.276,355.925 6.474,356.355 7.911 C 356.855 9.582,356.847 9.573,357.799 9.670 C 358.747 9.768,358.919 9.869,358.776 10.243 C 358.645 10.582,357.681 10.577,355.750 10.227 C 353.473 9.813,350.978 9.844,348.407 10.318 C 346.207 10.723,345.333 10.705,345.333 10.253 C 345.333 10.027,346.043 9.761,346.978 9.636 C 347.315 9.591,347.426 9.396,347.743 8.296 C 348.356 6.166,349.304 4.929,350.506 4.692 C 351.881 4.420,353.901 4.493,354.462 4.834 M376.539 5.331 C 378.282 5.983,379.682 7.870,380.334 10.444 C 380.706 11.911,381.107 15.480,380.948 15.895 C 380.846 16.161,378.000 16.331,378.000 16.071 C 378.000 16.019,378.185 15.661,378.410 15.276 C 379.374 13.631,379.376 11.406,378.415 10.357 L 377.859 9.750 374.197 9.750 C 370.770 9.750,370.511 9.771,370.167 10.083 C 369.107 11.043,368.953 13.153,369.815 14.904 C 370.100 15.484,370.333 16.005,370.333 16.062 C 370.333 16.120,369.696 16.167,368.917 16.167 L 367.500 16.167 367.501 14.792 C 367.503 7.531,371.431 3.420,376.539 5.331 M364.872 7.320 C 366.016 8.342,365.835 8.834,362.708 13.184 C 358.507 19.030,358.667 18.435,358.667 28.281 L 358.667 35.500 352.170 35.500 L 345.674 35.500 345.629 32.208 L 345.583 28.917 343.958 28.869 L 342.333 28.821 342.333 27.786 C 342.335 19.217,345.030 15.883,350.720 17.414 C 353.915 18.274,355.123 17.443,359.417 11.428 C 362.993 6.419,363.466 6.063,364.872 7.320 M377.590 10.880 C 379.474 12.501,377.120 16.534,374.283 16.547 C 371.158 16.561,368.485 11.702,371.050 10.669 C 371.952 10.306,377.117 10.473,377.590 10.880 M354.248 11.086 C 356.814 11.386,356.899 11.442,356.668 12.662 C 355.682 17.861,348.091 17.679,347.551 12.443 L 347.460 11.561 349.188 11.281 C 350.760 11.027,351.447 10.920,351.918 10.856 C 352.010 10.844,353.059 10.947,354.248 11.086 M332.134 12.078 C 332.748 12.212,333.475 12.343,333.750 12.369 C 335.140 12.501,333.684 15.354,331.818 16.158 C 329.288 17.246,326.168 15.608,325.969 13.087 L 325.917 12.423 326.750 12.310 C 327.208 12.247,327.883 12.122,328.250 12.032 C 329.251 11.784,330.882 11.804,332.134 12.078 M328.855 17.435 C 329.768 17.669,330.046 17.675,330.994 17.483 C 336.579 16.351,338.811 18.691,339.754 26.667 C 340.023 28.945,340.118 28.807,338.249 28.868 L 336.750 28.917 336.705 32.208 L 336.660 35.500 330.080 35.500 L 323.500 35.500 323.500 32.173 L 323.500 28.845 321.875 28.798 L 320.250 28.750 320.303 27.917 C 320.823 19.674,323.723 16.121,328.855 17.435 M372.855 17.435 C 373.767 17.669,374.047 17.675,374.994 17.484 C 378.925 16.690,381.637 17.950,382.645 21.038 C 383.257 22.915,384.000 27.020,384.000 28.529 C 384.000 28.784,383.794 28.827,382.375 28.869 L 380.750 28.917 380.705 32.208 L 380.660 35.500 374.163 35.500 L 367.667 35.500 367.667 32.430 C 367.667 28.535,367.813 28.833,365.899 28.833 C 364.060 28.833,364.190 29.110,364.590 26.059 C 365.543 18.789,368.026 16.198,372.855 17.435 M18.500 23.831 C 19.910 24.223,20.993 25.708,20.993 27.250 C 20.993 30.920,16.121 32.195,14.336 28.993 C 12.791 26.221,15.412 22.972,18.500 23.831 M200.180 24.159 C 211.404 27.099,214.374 42.192,205.510 51.250 L 204.369 52.417 203.344 56.500 C 201.962 62.011,202.013 61.834,201.785 61.827 C 201.674 61.824,200.057 60.516,198.192 58.920 C 194.834 56.049,194.791 56.019,193.858 55.915 C 183.268 54.733,177.897 43.222,183.089 32.833 C 186.388 26.232,193.777 22.482,200.180 24.159 M192.250 29.962 C 185.216 32.363,182.741 42.014,187.833 47.183 C 193.619 53.056,203.513 47.787,203.513 38.833 C 203.513 32.258,198.075 27.974,192.250 29.962 M194.583 31.511 C 194.950 31.605,195.700 31.705,196.250 31.734 C 199.347 31.897,201.516 34.751,201.688 38.891 C 201.762 40.649,201.823 40.618,197.714 40.920 C 195.901 41.053,193.985 41.163,193.458 41.164 C 192.335 41.167,192.290 41.288,192.833 42.833 C 193.244 44.001,193.244 44.000,192.756 44.000 C 191.483 44.000,189.877 41.006,191.031 40.786 C 191.314 40.732,191.268 40.706,190.859 40.689 L 190.302 40.667 190.418 41.542 C 190.792 44.347,193.293 45.077,195.431 43.004 L 196.179 42.279 197.019 42.473 C 197.481 42.579,198.072 42.667,198.332 42.667 C 199.308 42.667,199.350 42.772,198.805 43.837 C 196.287 48.756,188.865 48.650,186.991 43.667 C 186.385 42.056,186.387 38.269,186.994 36.667 C 188.456 32.808,191.516 30.729,194.583 31.511 M8.031 32.445 C 8.985 33.001,8.876 33.501,7.803 33.495 C 7.289 33.492,6.781 33.387,6.593 33.245 C 6.242 32.979,4.910 32.908,4.762 33.148 C 4.595 33.417,5.075 33.641,6.253 33.844 C 8.703 34.266,9.644 35.172,8.625 36.127 C 7.147 37.511,2.333 37.040,2.333 35.511 C 2.333 35.176,4.155 35.300,4.621 35.667 C 5.223 36.140,6.667 36.072,6.667 35.570 C 6.667 35.341,6.220 35.197,4.366 34.827 C 2.039 34.363,1.704 32.816,3.801 32.222 C 4.927 31.904,7.318 32.030,8.031 32.445 M15.469 32.625 L 15.417 33.083 13.708 33.131 C 12.149 33.174,12.000 33.206,12.000 33.500 C 12.000 33.792,12.148 33.826,13.625 33.869 C 15.235 33.916,15.250 33.921,15.250 34.333 C 15.250 34.743,15.222 34.751,13.667 34.833 C 12.111 34.915,12.083 34.924,12.083 35.333 C 12.083 35.746,12.100 35.751,13.833 35.833 L 15.583 35.917 15.636 36.379 L 15.690 36.841 12.803 36.796 L 9.917 36.750 9.870 34.458 L 9.824 32.167 12.673 32.167 L 15.522 32.167 15.469 32.625 M20.666 33.590 C 22.197 35.318,22.167 35.318,22.167 33.583 L 22.167 32.167 23.167 32.167 L 24.167 32.167 24.167 34.500 L 24.167 36.833 22.780 36.833 L 21.392 36.833 20.176 35.417 C 18.687 33.681,18.691 33.681,18.632 35.375 L 18.583 36.750 17.583 36.750 L 16.583 36.750 16.536 34.676 C 16.476 32.005,16.379 32.165,18.036 32.173 L 19.417 32.180 20.666 33.590 M31.469 34.263 C 33.292 37.023,33.257 36.833,31.938 36.833 C 30.952 36.833,30.813 36.791,30.568 36.417 C 30.308 36.019,30.220 36.000,28.667 36.000 C 27.114 36.000,27.026 36.019,26.765 36.417 C 26.525 36.784,26.375 36.833,25.496 36.833 C 24.264 36.833,24.214 37.054,26.042 34.405 L 27.583 32.170 28.834 32.168 L 30.084 32.167 31.469 34.263 M196.347 32.208 C 196.385 32.231,196.639 32.438,196.912 32.667 C 197.280 32.977,197.344 32.998,197.162 32.750 C 196.873 32.357,196.641 32.173,196.431 32.169 C 196.347 32.168,196.309 32.185,196.347 32.208 M211.550 34.468 C 215.430 41.051,213.936 47.410,207.702 50.841 C 205.545 52.028,205.371 52.037,206.422 50.902 C 210.880 46.090,212.500 38.941,210.434 33.202 C 210.040 32.106,210.395 32.509,211.550 34.468 M197.500 33.144 C 197.500 33.237,197.582 33.364,197.683 33.427 C 197.783 33.489,198.121 34.072,198.433 34.723 C 199.055 36.023,199.213 36.028,198.643 34.730 C 198.285 33.915,197.500 32.826,197.500 33.144 M28.258 33.987 C 27.728 34.828,27.808 35.000,28.732 35.000 C 29.663 35.000,29.733 34.900,29.304 34.183 C 28.751 33.256,28.723 33.251,28.258 33.987 M224.266 33.984 C 225.452 34.523,226.288 36.164,225.378 36.169 C 225.124 36.170,224.754 36.215,224.554 36.268 C 224.270 36.345,224.135 36.256,223.928 35.856 C 223.374 34.784,221.167 34.833,221.167 35.917 C 221.167 36.398,221.592 36.636,223.083 36.987 C 225.063 37.454,226.000 38.345,226.000 39.764 C 226.000 42.942,220.358 43.355,219.334 40.253 C 219.092 39.519,219.121 39.483,220.047 39.379 C 220.740 39.301,220.789 39.323,220.995 39.821 C 221.585 41.245,224.333 41.178,224.333 39.740 C 224.333 39.372,223.519 38.862,222.607 38.657 C 220.000 38.074,218.845 36.492,219.837 34.865 C 220.519 33.748,222.763 33.301,224.266 33.984 M246.301 34.542 L 246.250 35.250 245.500 35.250 L 244.750 35.250 244.699 34.542 L 244.648 33.833 245.500 33.833 L 246.352 33.833 246.301 34.542 M255.472 34.222 C 255.624 35.022,255.361 35.355,254.619 35.301 C 253.919 35.250,253.916 35.247,253.865 34.532 L 253.813 33.814 254.613 33.865 C 255.232 33.905,255.427 33.986,255.472 34.222 M193.115 35.567 C 192.861 36.186,192.742 36.677,192.678 37.375 C 192.672 37.444,192.179 37.500,191.583 37.500 C 190.978 37.500,190.500 37.573,190.500 37.665 C 190.500 37.823,194.084 37.747,194.958 37.570 C 195.595 37.441,195.294 36.112,194.433 35.252 C 193.813 34.631,193.466 34.714,193.115 35.567 M100.152 35.795 C 102.699 37.681,101.093 41.955,98.137 41.159 C 95.788 40.526,95.473 36.833,97.670 35.698 C 98.539 35.250,99.465 35.286,100.152 35.795 M117.467 35.784 C 120.185 37.813,118.004 42.447,115.027 40.969 C 112.900 39.913,112.990 36.426,115.167 35.512 C 115.757 35.264,116.961 35.406,117.467 35.784 M88.013 35.987 C 88.907 36.882,88.594 38.594,87.464 38.988 C 87.142 39.100,85.076 39.167,81.918 39.167 C 76.174 39.167,76.369 39.117,76.208 40.618 C 76.072 41.899,76.361 41.833,70.809 41.833 L 65.824 41.833 65.080 40.292 C 64.670 39.444,64.335 38.660,64.334 38.550 C 64.334 38.399,65.732 38.338,70.014 38.300 C 76.450 38.243,76.167 38.309,76.167 36.874 C 76.167 35.411,75.786 35.500,82.019 35.500 L 87.526 35.500 88.013 35.987 M95.667 35.910 C 95.667 36.311,95.634 36.321,94.208 36.369 L 92.750 36.417 92.750 37.167 L 92.750 37.917 93.917 37.967 C 95.924 38.053,95.837 38.833,93.821 38.833 L 92.682 38.833 92.633 39.958 C 92.589 40.956,92.546 41.083,92.250 41.083 C 91.932 41.083,91.915 40.957,91.871 38.292 L 91.825 35.500 93.746 35.500 L 95.667 35.500 95.667 35.910 M106.963 38.237 C 106.988 39.697,106.945 40.955,106.868 41.032 C 106.791 41.109,105.966 40.348,105.036 39.340 L 103.345 37.508 103.297 39.296 C 103.252 41.006,103.234 41.086,102.875 41.137 L 102.500 41.190 102.500 38.428 C 102.500 36.836,102.566 35.667,102.655 35.667 C 102.740 35.667,103.507 36.417,104.358 37.333 C 106.253 39.374,106.167 39.379,106.167 37.238 C 106.167 35.507,106.173 35.478,106.542 35.530 C 106.910 35.582,106.917 35.628,106.963 38.237 M111.603 35.927 C 112.480 36.582,112.725 37.076,112.731 38.204 C 112.743 40.259,111.873 41.076,109.670 41.080 L 108.250 41.083 108.204 38.507 C 108.178 37.090,108.198 35.826,108.247 35.698 C 108.396 35.310,111.016 35.489,111.603 35.927 M231.132 36.446 C 232.026 37.108,232.783 38.907,232.417 39.500 C 232.358 39.596,231.502 39.667,230.407 39.667 C 228.278 39.667,228.012 39.861,228.909 40.758 C 229.435 41.284,229.906 41.276,230.450 40.732 C 230.807 40.375,230.988 40.315,231.469 40.393 C 232.325 40.532,232.412 40.714,231.906 41.315 C 229.823 43.792,226.153 41.693,226.834 38.415 C 227.264 36.341,229.566 35.286,231.132 36.446 M237.144 36.149 C 237.674 36.485,237.058 37.500,236.324 37.500 C 235.360 37.500,235.178 37.889,235.053 40.228 L 234.949 42.167 234.225 42.167 L 233.500 42.167 233.500 39.167 L 233.500 36.167 234.250 36.167 C 234.821 36.167,235.000 36.229,235.000 36.429 C 235.000 36.646,235.075 36.632,235.439 36.345 C 235.890 35.991,236.740 35.893,237.144 36.149 M251.394 36.230 C 252.015 36.489,252.667 37.229,252.667 37.674 C 252.667 38.225,251.398 38.293,250.982 37.766 C 250.443 37.079,249.433 37.173,249.025 37.947 C 248.077 39.748,249.881 42.049,251.026 40.500 C 251.755 39.515,253.143 39.908,252.583 40.941 C 251.533 42.881,248.396 42.774,247.484 40.766 C 246.198 37.933,248.653 35.084,251.394 36.230 M260.830 36.332 C 263.755 37.824,262.663 42.333,259.377 42.333 C 257.547 42.333,256.293 41.062,256.267 39.181 C 256.234 36.773,258.690 35.240,260.830 36.332 M240.213 38.042 C 240.575 39.027,240.924 39.833,240.989 39.833 C 241.054 39.833,241.406 39.027,241.772 38.042 L 242.437 36.250 243.218 36.199 C 244.206 36.135,244.216 36.009,242.971 39.153 C 241.741 42.260,241.805 42.167,240.916 42.167 L 240.205 42.167 239.780 41.042 C 239.547 40.423,239.050 39.179,238.678 38.277 C 237.804 36.164,237.805 36.136,238.778 36.199 L 239.555 36.250 240.213 38.042 M246.333 39.167 L 246.333 42.167 245.500 42.167 L 244.667 42.167 244.667 39.167 L 244.667 36.167 245.500 36.167 L 246.333 36.167 246.333 39.167 M255.399 36.430 C 255.454 36.575,255.500 37.807,255.500 39.167 C 255.500 42.179,255.504 42.167,254.566 42.167 L 253.833 42.167 253.833 39.167 L 253.833 36.167 254.566 36.167 C 255.079 36.167,255.328 36.245,255.399 36.430 M97.662 36.812 C 96.056 38.418,97.688 41.107,99.651 40.091 C 100.070 39.875,100.262 39.567,100.558 38.637 C 101.067 37.038,98.840 35.634,97.662 36.812 M109.167 38.333 L 109.167 40.333 109.766 40.333 C 111.445 40.333,112.398 38.943,111.763 37.422 C 111.478 36.740,110.760 36.333,109.842 36.333 L 109.167 36.333 109.167 38.333 M114.906 36.845 C 114.160 37.624,114.191 39.159,114.967 39.853 C 116.157 40.916,117.833 40.059,117.833 38.387 C 117.833 36.541,116.081 35.618,114.906 36.845 M229.333 37.287 C 228.858 37.458,228.500 37.886,228.500 38.283 C 228.500 38.788,230.701 38.822,230.797 38.319 C 230.904 37.756,229.932 37.070,229.333 37.287 M258.409 37.774 C 257.815 38.415,257.815 39.997,258.409 40.591 C 259.699 41.880,261.550 39.824,260.639 38.114 C 260.160 37.214,259.080 37.050,258.409 37.774 M15.752 38.170 C 15.869 38.360,7.293 53.374,7.014 53.467 C 6.917 53.500,6.448 53.156,5.974 52.704 L 5.111 51.880 8.055 46.782 C 9.675 43.978,11.000 41.545,11.000 41.375 C 11.000 40.698,10.783 40.667,6.008 40.664 C 0.286 40.662,0.667 40.756,0.667 39.342 C 0.667 38.726,0.717 38.172,0.778 38.111 C 0.967 37.922,15.634 37.980,15.752 38.170 M33.966 39.292 C 34.009 40.355,33.979 40.502,33.716 40.519 C 33.551 40.530,33.342 40.556,33.250 40.577 C 33.158 40.598,31.038 40.627,28.538 40.641 L 23.993 40.667 23.810 41.068 C 23.646 41.428,23.925 41.985,26.564 46.561 C 28.179 49.362,29.500 51.716,29.500 51.791 C 29.500 52.215,27.826 53.564,27.594 53.327 C 27.408 53.136,22.908 45.387,19.315 39.070 C 19.050 38.604,18.884 38.172,18.946 38.110 C 19.008 38.047,22.402 38.016,26.488 38.040 L 33.917 38.083 33.966 39.292 M317.016 40.591 C 317.756 40.974,318.165 41.759,318.166 42.798 C 318.168 45.777,313.951 45.926,313.705 42.956 C 313.540 40.967,315.305 39.707,317.016 40.591 M332.126 51.571 C 332.098 58.571,332.025 62.348,331.917 62.375 C 331.734 62.421,331.581 41.401,331.759 40.669 C 332.087 39.318,332.166 41.649,332.126 51.571 M19.505 44.208 C 20.632 46.065,22.488 49.111,23.631 50.977 C 26.204 55.182,26.117 54.852,24.828 55.503 C 23.554 56.146,23.951 56.553,21.001 51.583 C 17.062 44.950,17.807 44.959,13.919 51.500 C 12.475 53.929,11.263 55.950,11.225 55.991 C 11.187 56.033,10.669 55.826,10.074 55.533 L 8.992 54.999 9.234 54.531 C 9.367 54.273,10.516 52.305,11.786 50.156 C 13.057 48.008,14.806 45.034,15.673 43.547 C 16.540 42.060,17.296 40.841,17.353 40.838 C 17.410 40.836,18.378 42.352,19.505 44.208 M381.833 43.070 C 381.833 44.516,381.925 44.738,382.387 44.414 C 383.247 43.812,384.755 44.209,385.251 45.169 C 386.375 47.343,384.283 49.875,382.319 48.715 C 381.861 48.444,381.827 48.445,381.611 48.741 C 381.102 49.437,381.000 48.883,381.000 45.407 L 381.000 42.000 381.417 42.000 C 381.818 42.000,381.833 42.040,381.833 43.070 M387.167 45.512 L 387.167 49.023 386.792 48.970 C 386.418 48.917,386.416 48.902,386.372 45.458 L 386.327 42.000 386.747 42.000 L 387.167 42.000 387.167 45.512 M363.564 42.421 C 364.022 42.880,363.394 43.563,362.896 43.149 C 362.614 42.915,362.603 42.630,362.867 42.367 C 363.129 42.104,363.257 42.114,363.564 42.421 M379.067 42.307 C 379.196 42.516,378.043 43.713,377.836 43.585 C 377.574 43.423,378.328 42.167,378.688 42.167 C 378.849 42.167,379.019 42.230,379.067 42.307 M389.154 42.477 C 389.373 42.885,388.998 43.432,388.604 43.281 C 388.219 43.133,388.089 42.712,388.335 42.415 C 388.615 42.077,388.954 42.103,389.154 42.477 M341.638 45.554 C 342.447 47.924,342.662 48.738,342.516 48.884 C 342.213 49.187,341.828 48.835,341.548 47.997 C 341.181 46.901,341.085 46.833,339.905 46.833 L 338.851 46.833 338.481 47.849 C 338.107 48.875,337.792 49.192,337.467 48.867 C 337.316 48.716,338.277 45.578,339.355 42.698 C 339.472 42.387,339.603 42.322,340.034 42.364 L 340.567 42.417 341.638 45.554 M374.172 42.586 C 376.088 43.577,375.198 46.064,372.837 46.318 L 371.917 46.417 371.833 47.665 C 371.765 48.682,371.696 48.924,371.458 48.969 C 371.188 49.020,371.167 48.775,371.167 45.679 L 371.167 42.333 372.425 42.333 C 373.224 42.333,373.862 42.426,374.172 42.586 M88.014 43.294 C 88.663 44.021,88.693 45.079,88.085 45.801 L 87.669 46.295 82.376 46.410 C 75.897 46.550,76.167 46.474,76.167 48.169 C 76.167 49.114,75.967 49.167,72.423 49.167 L 69.323 49.167 68.495 47.458 C 68.040 46.519,67.667 45.694,67.667 45.625 C 67.667 45.556,69.429 45.500,71.583 45.500 C 76.036 45.500,76.164 45.464,76.169 44.208 C 76.175 42.669,75.917 42.716,84.139 42.740 L 87.528 42.750 88.014 43.294 M139.500 47.744 L 139.500 52.820 138.636 53.077 C 135.104 54.126,133.147 52.567,133.376 48.889 C 133.524 46.522,134.328 45.617,136.486 45.392 L 137.500 45.286 137.500 43.976 L 137.500 42.667 138.500 42.667 L 139.500 42.667 139.500 47.744 M225.167 47.167 L 225.167 51.333 224.417 51.333 C 223.861 51.333,223.667 51.269,223.667 51.083 C 223.667 50.763,223.622 50.767,222.877 51.167 C 220.803 52.278,218.874 50.309,219.314 47.528 C 219.612 45.641,221.375 44.583,222.833 45.417 C 223.476 45.784,223.500 45.748,223.500 44.444 C 223.500 43.011,223.507 43.000,224.444 43.000 L 225.167 43.000 225.167 47.167 M242.167 43.667 L 242.167 44.333 239.917 44.333 L 237.667 44.333 237.667 45.250 L 237.667 46.167 239.750 46.167 L 241.833 46.167 241.833 46.917 L 241.833 47.667 239.742 47.667 L 237.651 47.667 237.701 48.792 L 237.750 49.917 240.042 49.963 L 242.333 50.009 242.333 50.675 L 242.333 51.341 239.125 51.295 L 235.917 51.250 235.872 47.337 C 235.847 45.185,235.864 43.328,235.908 43.212 C 235.970 43.051,236.734 43.000,239.078 43.000 L 242.167 43.000 242.167 43.667 M261.667 47.167 L 261.667 51.333 260.833 51.333 L 260.000 51.333 260.000 47.278 C 260.000 42.772,259.950 43.000,260.944 43.000 L 261.667 43.000 261.667 47.167 M371.944 43.111 C 371.781 43.275,371.814 45.212,371.986 45.483 C 372.464 46.238,374.233 45.253,374.233 44.232 C 374.233 43.295,372.574 42.482,371.944 43.111 M339.538 44.489 C 339.005 46.134,339.014 46.167,340.000 46.167 C 340.458 46.167,340.833 46.119,340.833 46.060 C 340.833 45.832,340.129 43.577,340.023 43.463 C 339.961 43.397,339.743 43.859,339.538 44.489 M200.490 43.726 C 201.648 43.996,201.662 44.077,200.759 45.304 C 199.369 47.192,197.466 48.179,195.205 48.186 C 192.978 48.193,192.148 47.814,193.875 47.579 C 195.910 47.302,197.748 46.145,198.761 44.504 C 199.102 43.952,199.426 43.503,199.482 43.507 C 199.538 43.511,199.991 43.609,200.490 43.726 M346.298 44.427 C 346.634 44.663,346.679 44.663,346.769 44.427 C 346.824 44.284,347.011 44.167,347.184 44.167 C 347.681 44.167,347.662 49.149,347.162 49.968 C 346.446 51.144,343.667 51.423,343.667 50.320 C 343.667 50.047,343.734 49.992,343.958 50.084 C 344.874 50.459,345.642 50.383,346.159 49.867 C 346.738 49.288,346.892 48.372,346.375 48.584 C 344.516 49.344,343.169 48.518,343.167 46.617 C 343.166 44.734,344.952 43.485,346.298 44.427 M351.879 44.563 C 352.330 44.981,352.709 46.028,352.556 46.429 C 352.486 46.611,352.103 46.667,350.917 46.667 C 349.171 46.667,348.992 46.790,349.508 47.640 C 349.870 48.235,350.380 48.409,351.417 48.292 C 352.222 48.201,352.575 48.525,352.005 48.831 C 350.450 49.663,348.341 48.369,348.341 46.583 C 348.341 44.636,350.578 43.358,351.879 44.563 M354.118 44.497 C 354.204 44.827,354.205 44.827,354.625 44.497 C 355.240 44.013,356.396 44.047,356.913 44.565 C 357.648 45.300,357.768 48.867,357.061 48.967 C 356.720 49.016,356.702 48.943,356.641 47.272 C 356.569 45.333,356.336 44.833,355.503 44.833 C 354.630 44.833,354.286 45.471,354.179 47.291 C 354.101 48.619,354.033 48.923,353.808 48.966 C 353.552 49.014,353.234 44.755,353.459 44.292 C 353.583 44.037,354.034 44.178,354.118 44.497 M361.969 44.542 C 362.016 44.791,361.891 44.833,361.105 44.833 C 359.748 44.833,359.250 45.303,359.250 46.583 C 359.250 47.865,359.786 48.378,361.053 48.311 C 361.911 48.265,362.299 48.541,361.812 48.850 C 359.886 50.070,357.492 47.444,358.591 45.318 C 359.140 44.258,361.798 43.647,361.969 44.542 M363.583 46.581 C 363.583 48.730,363.559 48.917,363.270 48.972 C 362.767 49.069,362.672 48.700,362.669 46.639 C 362.666 44.417,362.733 44.129,363.230 44.200 C 363.571 44.248,363.583 44.332,363.583 46.581 M367.679 44.596 C 368.052 44.993,368.088 45.179,368.139 47.013 C 368.196 49.068,368.064 49.430,367.503 48.753 C 367.322 48.535,367.256 48.535,366.945 48.753 C 366.422 49.119,365.304 49.069,364.865 48.660 C 363.828 47.694,364.845 46.007,366.469 45.997 C 367.173 45.993,367.405 45.779,367.174 45.347 C 366.907 44.847,366.308 44.649,365.643 44.840 C 364.950 45.039,364.589 44.763,365.074 44.405 C 365.653 43.978,367.205 44.091,367.679 44.596 M376.732 44.430 C 376.788 44.575,376.833 45.363,376.833 46.180 C 376.833 48.205,377.454 48.858,378.555 47.992 C 378.964 47.670,378.991 47.557,379.036 45.951 C 379.083 44.260,379.086 44.250,379.500 44.250 L 379.917 44.250 379.917 46.581 C 379.917 48.703,379.889 48.917,379.613 48.971 C 379.417 49.008,379.278 48.907,379.219 48.684 C 379.129 48.339,379.129 48.339,378.709 48.669 C 377.596 49.545,376.142 48.875,375.939 47.394 C 375.800 46.378,375.803 44.419,375.944 44.278 C 376.150 44.072,376.630 44.165,376.732 44.430 M389.083 46.583 C 389.083 48.806,389.067 48.917,388.750 48.917 C 388.434 48.917,388.414 48.790,388.370 46.529 L 388.324 44.142 388.704 44.196 C 389.078 44.249,389.083 44.282,389.083 46.583 M393.574 44.318 C 393.818 44.713,393.479 44.915,392.668 44.859 C 390.985 44.742,390.137 46.663,391.341 47.867 C 391.800 48.326,391.926 48.367,392.666 48.296 C 393.508 48.215,393.836 48.431,393.454 48.813 C 393.162 49.105,391.537 49.041,390.987 48.716 C 389.596 47.894,389.634 45.356,391.050 44.493 C 391.613 44.150,393.394 44.026,393.574 44.318 M396.858 44.347 C 397.423 44.649,397.667 45.523,397.667 47.250 C 397.667 48.920,397.408 49.450,396.919 48.781 C 396.743 48.541,396.681 48.537,396.401 48.749 C 395.918 49.114,394.734 49.067,394.333 48.667 C 393.339 47.672,394.369 46.000,395.978 46.000 C 396.590 46.000,396.868 45.710,396.649 45.300 C 396.405 44.844,395.787 44.655,395.143 44.840 C 394.495 45.026,394.168 44.816,394.494 44.424 C 394.747 44.119,396.336 44.067,396.858 44.347 M350.053 44.834 C 349.660 44.993,349.333 45.482,349.333 45.913 C 349.333 46.382,351.566 46.202,351.634 45.728 C 351.729 45.065,350.793 44.536,350.053 44.834 M344.623 45.042 C 343.687 45.752,343.902 47.781,344.955 48.181 C 345.925 48.550,346.667 47.792,346.667 46.431 C 346.667 45.137,345.522 44.359,344.623 45.042 M382.380 45.208 C 381.368 46.311,381.933 48.314,383.260 48.328 C 384.222 48.338,384.825 47.315,384.592 46.070 C 384.375 44.915,383.104 44.420,382.380 45.208 M230.286 45.518 C 231.155 45.938,231.649 46.784,231.709 47.953 L 231.750 48.750 229.792 48.797 C 228.011 48.840,227.833 48.872,227.833 49.153 C 227.833 50.091,229.082 50.599,229.749 49.933 C 230.652 49.029,232.027 49.546,231.232 50.491 C 229.194 52.913,225.544 50.876,226.172 47.667 C 226.253 47.254,226.322 46.866,226.326 46.804 C 226.404 45.599,228.828 44.811,230.286 45.518 M248.085 45.595 C 248.432 45.831,248.761 45.958,248.816 45.877 C 249.280 45.201,250.620 44.961,251.473 45.402 C 252.283 45.821,252.417 46.318,252.417 48.899 L 252.417 51.250 251.625 51.301 L 250.833 51.352 250.833 49.176 C 250.833 46.465,250.409 45.763,249.310 46.651 C 248.943 46.948,248.911 47.112,248.833 49.110 L 248.750 51.250 247.975 51.300 L 247.200 51.350 247.142 49.078 C 247.070 46.285,246.703 45.745,245.551 46.735 C 245.091 47.130,245.082 47.173,245.028 49.235 L 244.973 51.333 244.236 51.333 L 243.500 51.333 243.500 48.333 L 243.500 45.333 244.107 45.333 C 244.470 45.333,244.791 45.440,244.908 45.600 C 245.085 45.842,245.157 45.834,245.677 45.517 C 246.459 45.041,247.308 45.068,248.085 45.595 M258.844 45.951 C 261.091 48.360,258.706 52.793,256.038 51.166 C 255.738 50.983,255.456 50.833,255.413 50.833 C 255.369 50.833,255.333 51.475,255.333 52.259 L 255.333 53.685 254.542 53.634 L 253.750 53.583 253.703 49.833 C 253.646 45.277,253.636 45.333,254.495 45.333 C 254.943 45.333,255.201 45.425,255.311 45.622 C 255.460 45.886,255.497 45.888,255.778 45.643 C 256.627 44.903,257.995 45.040,258.844 45.951 M266.784 45.604 C 267.489 46.131,267.817 46.682,267.997 47.643 C 268.223 48.845,268.242 48.833,266.073 48.833 C 264.315 48.833,264.167 48.858,264.167 49.148 C 264.167 50.091,265.414 50.602,266.083 49.933 C 266.524 49.491,266.794 49.427,267.458 49.605 C 268.959 50.007,266.540 51.683,264.796 51.449 C 262.177 51.098,261.529 47.099,263.837 45.531 C 264.566 45.036,266.072 45.073,266.784 45.604 M273.047 45.396 C 275.505 46.448,275.448 50.203,272.958 51.244 C 270.760 52.162,268.663 50.731,268.669 48.319 C 268.676 45.927,270.867 44.464,273.047 45.396 M95.083 45.516 C 96.564 45.919,97.142 47.062,97.030 49.369 L 97.000 49.989 95.208 50.036 C 93.523 50.081,93.414 50.105,93.366 50.439 C 93.265 51.144,94.087 51.551,95.372 51.434 C 96.611 51.321,96.484 51.219,96.743 52.536 C 96.850 53.079,96.356 53.250,94.683 53.250 C 92.163 53.250,91.172 52.189,91.168 49.488 C 91.164 46.489,92.749 44.882,95.083 45.516 M102.235 45.580 C 102.800 45.782,103.020 45.779,103.883 45.557 C 106.953 44.771,107.890 45.837,107.972 50.208 L 108.027 53.167 106.930 53.167 L 105.833 53.167 105.833 50.532 C 105.833 47.478,105.765 47.280,104.743 47.363 L 104.083 47.417 104.000 50.250 L 103.917 53.083 102.875 53.133 L 101.833 53.183 101.833 50.540 C 101.833 47.477,101.765 47.280,100.743 47.363 L 100.083 47.417 100.000 50.250 L 99.917 53.083 98.917 53.083 L 97.917 53.083 97.917 49.586 L 97.917 46.088 98.374 45.869 C 99.451 45.353,101.224 45.220,102.235 45.580 M112.663 45.515 C 114.649 45.941,115.611 48.174,114.940 50.795 C 114.465 52.649,113.651 53.333,111.923 53.333 L 111.000 53.333 111.000 54.663 C 111.000 56.161,110.917 56.247,109.567 56.137 L 108.917 56.083 108.873 51.063 L 108.829 46.042 109.289 45.856 C 110.511 45.363,111.492 45.264,112.663 45.515 M119.236 45.434 C 119.430 45.509,119.500 45.767,119.500 46.411 L 119.500 47.286 118.792 47.435 L 118.083 47.584 118.000 50.334 L 117.917 53.083 116.875 53.133 L 115.833 53.183 115.833 49.612 L 115.833 46.040 116.326 45.836 C 116.598 45.724,117.216 45.574,117.701 45.503 C 118.944 45.322,118.944 45.322,119.236 45.434 M123.750 45.517 C 125.131 45.893,125.667 46.770,125.667 48.653 L 125.667 49.989 123.875 50.036 C 122.190 50.081,122.080 50.105,122.033 50.439 C 121.932 51.142,122.754 51.551,124.034 51.434 L 125.151 51.332 125.258 51.900 C 125.485 53.108,125.234 53.288,123.285 53.317 C 121.877 53.337,121.020 52.941,120.380 51.975 C 119.339 50.402,119.761 46.904,121.108 45.932 C 121.866 45.386,122.755 45.246,123.750 45.517 M131.368 45.782 C 132.434 46.404,132.577 46.904,132.639 50.217 L 132.694 53.183 131.639 53.133 L 130.583 53.083 130.500 50.417 C 130.405 47.363,130.394 47.333,129.425 47.333 C 128.493 47.333,128.500 47.310,128.500 50.514 L 128.500 53.167 127.500 53.167 L 126.500 53.167 126.500 49.593 C 126.500 47.369,126.564 45.980,126.668 45.916 C 127.602 45.339,130.470 45.257,131.368 45.782 M144.951 45.762 C 145.964 46.413,146.465 47.760,146.243 49.240 L 146.130 49.989 144.359 50.036 C 142.360 50.089,142.099 50.281,142.913 51.095 C 143.317 51.499,143.440 51.527,144.545 51.474 L 145.740 51.417 145.855 52.083 C 146.181 53.972,142.026 53.824,140.902 51.907 C 138.902 48.494,141.965 43.845,144.951 45.762 M150.403 45.434 C 150.597 45.509,150.667 45.767,150.667 46.411 L 150.667 47.286 149.958 47.435 L 149.250 47.585 149.204 50.383 L 149.159 53.182 148.121 53.133 L 147.083 53.083 147.083 49.586 L 147.083 46.088 147.556 45.861 C 148.299 45.505,149.944 45.258,150.403 45.434 M310.006 46.339 C 310.471 46.804,310.264 47.056,309.522 46.926 C 307.934 46.649,307.580 46.630,307.772 46.829 C 307.875 46.938,308.288 47.097,308.688 47.184 C 310.366 47.546,310.811 48.037,310.104 48.745 C 309.238 49.611,306.167 49.352,306.167 48.413 C 306.167 48.076,307.386 48.079,307.667 48.417 C 307.906 48.705,308.595 48.751,308.757 48.489 C 308.912 48.237,308.790 48.158,307.971 47.981 C 306.511 47.666,306.014 47.258,306.271 46.588 C 306.524 45.931,309.405 45.738,310.006 46.339 M314.667 46.333 C 314.667 46.632,314.556 46.667,313.583 46.667 C 312.731 46.667,312.500 46.720,312.500 46.917 C 312.500 47.111,312.722 47.167,313.500 47.167 C 314.975 47.167,315.014 47.790,313.543 47.867 C 312.018 47.946,312.072 48.467,313.613 48.534 C 314.536 48.574,314.757 48.637,314.802 48.875 C 314.853 49.139,314.676 49.167,312.929 49.167 L 311.000 49.167 311.000 47.694 C 311.000 45.887,310.871 46.000,312.944 46.000 C 314.556 46.000,314.667 46.022,314.667 46.333 M317.924 46.917 C 318.900 48.059,319.000 48.058,319.000 46.907 L 319.000 45.980 319.625 46.032 L 320.250 46.083 320.298 47.542 C 320.357 49.332,320.362 49.332,321.538 47.493 L 322.493 46.000 323.288 46.003 L 324.083 46.007 325.000 47.455 C 325.504 48.251,325.942 48.962,325.972 49.035 C 326.003 49.107,325.682 49.167,325.259 49.167 C 324.729 49.167,324.460 49.089,324.394 48.917 C 324.321 48.728,324.018 48.667,323.167 48.667 C 322.315 48.667,322.012 48.728,321.940 48.917 C 321.863 49.116,321.499 49.167,320.128 49.167 L 318.413 49.167 317.682 48.250 C 317.279 47.746,316.886 47.333,316.808 47.333 C 316.730 47.333,316.667 47.746,316.667 48.250 L 316.667 49.167 316.000 49.167 L 315.333 49.167 315.333 47.694 C 315.333 45.977,315.319 46.000,316.348 46.000 C 317.103 46.000,317.178 46.044,317.924 46.917 M221.550 46.584 C 221.060 46.927,220.772 47.884,220.906 48.724 C 221.251 50.881,223.500 50.602,223.500 48.402 C 223.500 46.734,222.572 45.868,221.550 46.584 M228.263 46.686 C 227.558 47.241,227.731 47.737,228.653 47.803 C 230.145 47.909,230.543 47.527,229.758 46.742 C 229.256 46.241,228.849 46.225,228.263 46.686 M256.208 46.589 C 254.783 47.189,255.248 50.167,256.767 50.167 C 257.580 50.167,258.000 49.542,258.000 48.333 C 258.000 46.842,257.278 46.140,256.208 46.589 M264.609 46.676 C 263.770 47.337,264.048 47.750,265.331 47.750 C 266.533 47.750,266.765 47.518,266.215 46.868 C 265.756 46.324,265.148 46.252,264.609 46.676 M270.742 46.909 C 270.281 47.370,270.159 49.009,270.547 49.514 C 271.853 51.215,273.946 49.157,272.923 47.179 C 272.504 46.369,271.417 46.235,270.742 46.909 M366.250 46.617 C 365.058 46.918,365.017 48.333,366.200 48.333 C 366.862 48.333,367.366 47.776,367.301 47.115 C 367.248 46.563,366.976 46.434,366.250 46.617 M395.750 46.620 C 394.609 46.898,394.507 48.333,395.628 48.333 C 396.278 48.333,396.646 48.031,396.765 47.396 C 396.913 46.606,396.645 46.402,395.750 46.620 M322.873 47.331 C 322.554 47.842,322.623 48.000,323.167 48.000 C 323.698 48.000,323.773 47.844,323.494 47.322 C 323.276 46.914,323.133 46.916,322.873 47.331 M93.667 47.500 C 93.036 48.131,93.221 48.500,94.167 48.500 C 94.979 48.500,95.000 48.488,95.000 48.006 C 95.000 47.211,94.243 46.923,93.667 47.500 M122.361 47.458 C 121.644 48.069,121.816 48.417,122.833 48.417 C 123.714 48.417,123.748 48.400,123.696 48.000 C 123.596 47.227,122.944 46.962,122.361 47.458 M142.833 47.500 C 142.177 48.156,142.384 48.524,143.375 48.467 C 144.198 48.420,144.247 48.392,144.205 48.000 C 144.120 47.209,143.390 46.943,142.833 47.500 M111.072 47.552 C 111.026 47.673,111.010 48.592,111.036 49.594 L 111.083 51.417 111.533 51.469 C 112.835 51.619,113.601 48.791,112.568 47.649 C 112.237 47.284,111.201 47.216,111.072 47.552 M135.812 47.609 C 134.689 48.961,136.111 52.489,137.300 51.300 C 137.510 51.090,137.590 48.094,137.399 47.597 C 137.260 47.234,136.116 47.243,135.812 47.609 M88.057 50.435 C 88.621 51.000,88.764 51.779,88.443 52.545 C 87.990 53.629,87.785 53.667,82.261 53.667 L 77.338 53.667 76.897 54.333 C 76.654 54.700,76.391 55.000,76.311 55.000 C 76.079 55.000,76.132 50.435,76.367 50.200 C 76.514 50.052,78.017 50.000,82.094 50.000 L 87.621 50.000 88.057 50.435 M314.746 50.161 C 314.801 50.249,313.969 51.918,312.897 53.869 C 311.826 55.820,310.573 58.110,310.114 58.958 C 309.155 60.728,309.238 60.678,308.510 59.927 L 307.954 59.353 308.875 57.718 C 309.382 56.819,310.117 55.483,310.509 54.750 C 310.900 54.017,311.321 53.269,311.444 53.088 C 311.854 52.483,311.733 51.835,311.208 51.824 C 310.956 51.819,309.512 51.800,308.000 51.783 L 305.250 51.750 305.197 51.107 C 305.101 49.938,304.835 50.000,309.985 50.000 C 312.799 50.000,314.686 50.064,314.746 50.161 M326.667 50.833 L 326.667 51.667 323.595 51.667 C 319.148 51.667,319.243 51.117,322.633 57.212 L 323.817 59.340 323.308 59.920 C 323.029 60.238,322.740 60.462,322.667 60.417 C 322.524 60.328,317.087 50.772,316.907 50.292 C 316.804 50.018,317.102 50.000,321.732 50.000 L 326.667 50.000 326.667 50.833 M209.104 50.792 C 209.057 50.952,208.705 52.321,208.323 53.833 C 207.544 56.911,207.915 56.299,204.737 59.750 C 203.892 60.667,203.050 61.604,202.865 61.833 C 202.680 62.063,202.484 62.206,202.430 62.151 C 202.236 61.958,204.660 52.768,204.952 52.588 C 207.301 51.137,209.249 50.295,209.104 50.792 M342.457 52.331 C 343.966 52.980,344.694 54.133,344.722 55.917 C 344.769 59.066,342.827 60.589,338.917 60.468 L 337.250 60.417 337.250 56.250 L 337.250 52.083 337.917 51.971 C 339.190 51.756,341.558 51.944,342.457 52.331 M375.272 52.270 C 378.189 53.699,376.536 57.500,372.998 57.500 L 372.513 57.500 372.465 58.958 L 372.417 60.417 371.583 60.417 L 370.750 60.417 370.705 56.219 L 370.661 52.022 371.205 51.944 C 372.395 51.774,374.625 51.953,375.272 52.270 M395.064 52.038 C 397.060 52.635,398.157 55.297,397.421 57.761 C 396.313 61.478,390.857 61.509,389.757 57.805 C 388.652 54.082,391.510 50.976,395.064 52.038 M317.620 54.840 C 318.487 56.349,319.636 58.333,320.173 59.250 C 321.486 61.492,321.469 61.423,320.807 61.826 C 319.957 62.344,319.986 62.373,318.091 59.014 C 315.711 54.794,316.065 54.776,313.598 59.237 C 312.707 60.848,311.889 62.166,311.780 62.166 C 311.485 62.165,310.467 61.510,310.529 61.361 C 310.865 60.556,315.788 52.014,315.896 52.049 C 315.976 52.076,316.752 53.332,317.620 54.840 M350.833 52.744 L 350.833 53.488 349.208 53.536 L 347.583 53.583 347.583 54.417 L 347.583 55.250 349.125 55.298 L 350.667 55.346 350.667 56.083 L 350.667 56.821 349.125 56.869 L 347.583 56.917 347.583 57.833 L 347.583 58.750 349.250 58.833 L 350.917 58.917 350.917 59.667 L 350.917 60.417 348.292 60.463 L 345.667 60.508 345.667 56.254 L 345.667 52.000 348.250 52.000 L 350.833 52.000 350.833 52.744 M359.301 52.708 L 359.250 53.417 357.625 53.464 L 356.000 53.512 356.000 54.416 L 356.000 55.321 357.542 55.369 L 359.083 55.417 359.083 56.083 L 359.083 56.750 357.542 56.798 L 356.000 56.846 356.000 57.834 L 356.000 58.822 357.708 58.869 L 359.417 58.917 359.468 59.619 C 359.532 60.512,359.477 60.527,356.417 60.465 L 354.083 60.417 354.039 56.208 L 353.994 52.000 356.673 52.000 L 359.352 52.000 359.301 52.708 M363.619 53.125 C 363.805 53.744,364.134 54.944,364.351 55.792 C 364.793 57.522,364.910 57.642,365.165 56.625 C 365.262 56.235,365.616 55.035,365.950 53.958 L 366.559 52.000 367.845 52.000 L 369.132 52.000 369.260 54.625 C 369.330 56.069,369.394 57.962,369.402 58.833 L 369.417 60.417 368.623 60.468 C 367.637 60.531,367.702 60.728,367.534 57.167 C 367.459 55.563,367.352 54.362,367.297 54.500 C 367.242 54.637,366.797 55.987,366.307 57.500 L 365.417 60.250 364.686 60.250 L 363.956 60.250 363.666 59.333 C 363.506 58.829,363.160 57.536,362.896 56.459 C 362.632 55.382,362.370 54.501,362.313 54.500 C 362.255 54.500,362.143 55.831,362.063 57.458 L 361.917 60.417 361.123 60.468 C 360.077 60.535,360.101 60.678,360.406 56.321 C 360.550 54.276,360.667 52.467,360.667 52.301 C 360.667 52.036,360.824 52.000,361.974 52.000 L 363.282 52.000 363.619 53.125 M379.462 55.458 L 379.507 58.833 381.179 58.833 L 382.852 58.833 382.801 59.625 L 382.750 60.417 380.263 60.463 C 378.385 60.498,377.742 60.457,377.640 60.296 C 377.474 60.034,377.454 52.269,377.619 52.104 C 377.684 52.038,378.115 52.007,378.577 52.034 L 379.417 52.083 379.462 55.458 M388.833 52.750 L 388.833 53.500 387.158 53.500 L 385.483 53.500 385.533 54.375 L 385.583 55.250 387.125 55.298 L 388.667 55.346 388.667 56.083 L 388.667 56.821 387.125 56.869 L 385.583 56.917 385.534 57.869 L 385.484 58.821 387.200 58.869 L 388.917 58.917 388.917 59.667 L 388.917 60.417 386.292 60.463 L 383.667 60.508 383.667 56.254 L 383.667 52.000 386.250 52.000 L 388.833 52.000 388.833 52.750 M339.292 53.427 C 339.223 53.498,339.167 54.781,339.167 56.278 L 339.167 59.000 339.923 59.000 C 343.384 59.000,343.759 53.739,340.324 53.391 C 339.825 53.340,339.360 53.357,339.292 53.427 M372.578 53.538 C 372.526 53.674,372.505 54.265,372.533 54.851 L 372.583 55.917 373.320 55.900 C 374.560 55.872,375.243 54.710,374.535 53.835 C 374.156 53.367,372.727 53.150,372.578 53.538 M392.415 53.885 C 391.152 55.148,391.311 58.049,392.681 58.757 C 393.896 59.386,395.107 58.741,395.478 57.269 C 396.173 54.507,394.092 52.208,392.415 53.885 " stroke="none" fill="#040404" fill-rule="evenodd"></path></g></svg>