<?xml version="1.0" encoding="utf-8"?>
<!-- Generator: Adobe Illustrator 25.2.1, SVG Export Plug-In . SVG Version: 6.00 Build 0)  -->
<svg version="1.1" id="Capa_1" xmlns="http://www.w3.org/2000/svg" xmlns:xlink="http://www.w3.org/1999/xlink" x="0px" y="0px"
	 viewBox="0 0 300 300" style="enable-background:new 0 0 300 300;" xml:space="preserve">
<style type="text/css">
	.st0{fill-rule:evenodd;clip-rule:evenodd;fill:#FFFFFF;}
	.st1{fill:#FFFFFF;}
</style>
<g id="Logo_APE" transform="translate(-267.412 -166.229)">
	<g id="Grupo_16334" transform="translate(295.081 166.229)">
		<g id="Grupo_16328" transform="translate(0)">
			<path id="Trazado_30704" class="st0" d="M65.95,106.4L65.95,106.4c-6.49-0.01-11.74-5.27-11.75-11.76
				c4.48,0.77,5.28-1.28,11.75-1.28s9.57,2.54,11.74,1.28C77.69,101.13,72.44,106.39,65.95,106.4"/>
			<path id="Trazado_30705" class="st0" d="M80.23,86.82c-0.03-0.22-1.11-0.45-1.15-0.68c-0.33-5.61-2.26-9.87-5.82-11.89
				c-1.37-1.9-3.47-3.15-5.8-3.44c0.03-0.33-0.04-0.67-0.2-0.96c-0.48-0.38-2.1-0.53-2.54,0c-0.15,0.3-0.22,0.64-0.2,0.97
				c-2.09,0.38-4,1.43-5.43,3c-4.52,2.23-5.97,6.91-6.37,12.32c-0.04,0.23-0.94,0.47-0.97,0.68c-0.23,1.51-0.29,3.05-0.17,4.57
				c4.12,1.95,6.26-1.03,14.38-1.03s11.29,2.99,14.58,1.03C80.59,89.86,80.49,88.33,80.23,86.82"/>
			<g id="Grupo_16327" transform="translate(0 25.685)">
				<path id="Trazado_30706" class="st1" d="M88.4,90.48c-0.09-0.21-0.19-0.41-0.3-0.6c-2.68-4.65-7.64-7.51-13.01-7.49h-3.07
					c-3.8,1.65-8.11,1.65-11.9,0h-3.18c-5.4-0.02-10.41,2.85-13.11,7.53c-0.11,0.18-0.2,0.37-0.29,0.56
					c-2.99,7.58-4.09,16.14-4.73,24.13H48v18.38h35.94v-18.37h9.19C92.49,106.62,91.39,98.06,88.4,90.48z"/>
			</g>
		</g>
		<g id="Grupo_16329" transform="translate(40.29 2.25)">
			<path id="Trazado_30707" class="st0" d="M86.16,104.06L86.16,104.06c-7.05-0.01-12.75-5.72-12.77-12.77c0-0.33,0-0.65,0.03-0.97
				c4.85-0.71,9.14-1.8,12.52-1.8c4.35,0.14,8.68,0.67,12.93,1.58c0.03,0.4,0.05,0.79,0.05,1.19
				C98.91,98.34,93.2,104.04,86.16,104.06"/>
			<path id="Trazado_30708" class="st0" d="M102.81,85.04c1.45,0.3,1.99,0.65,2.16,1.25c0.41,1.33-1.95,1.47-6.27,0.81
				c-4.11-0.82-8.28-1.32-12.47-1.5c-4.09,0.21-8.16,0.78-12.15,1.72c-4.41,0.77-6.7,0.69-6.62-0.63c0.03-0.54,0.68-1.05,1.98-1.24
				c1.77-0.27,3.54,0.09,3.89-0.21c1.12-8.9,5.67-16.37,12.92-13.59c6.64-4.16,11.68,5.47,12.78,13.25c1.45,0.27,2.48-0.1,3.78,0.16
				"/>
			<path id="Trazado_30709" class="st0" d="M120.92,78.17L120.92,78.17c-2.28-1.63-5.45-1.1-7.08,1.17l-13.17,18.41
				c-1.29,2.01-2.78,3.89-4.46,5.59c-2.78,2.31-6.27,3.62-9.88,3.71c-1.91,0.02-3.81-0.31-5.6-0.98
				c-6.91-2.75-14.76,0.38-17.87,7.13c-0.1,0.23-0.2,0.47-0.3,0.7c-3.05,7.58-2.91,16.14-3.54,24.13h9.36v18.38h35.65v-35.6
				c-0.28-5.72,1.22-11.39,4.3-16.22c0.17-0.25,0.35-0.54,0.53-0.85l13.23-18.5C123.73,82.97,123.2,79.8,120.92,78.17z"/>
		</g>
		<g id="Grupo_16333" transform="translate(80.622 3.199)">
			<g id="Grupo_16330" transform="translate(5.792)">
				<path id="Trazado_30710" class="st1" d="M110.38,101.99h8.94c0-27.85-11.17-30.89-18.57-30.89c-7.4,0-18.56,3.04-18.56,30.89
					h8.93c-4.79-3.19-6.64-17.92,2.23-17.92h14.79C117.02,84.08,115.16,98.8,110.38,101.99z"/>
			</g>
			<g id="Grupo_16331" transform="translate(10.86 10.282)">
				<path id="Trazado_30711" class="st1" d="M84.72,81.2c0,6.47,4.47,11.75,10.95,11.75s10.96-5.28,10.96-11.75
					c0-0.45-0.03-0.9-0.08-1.35c-0.18-1.9-1.67-3.4-3.57-3.59H88.34c-1.88,0.19-3.36,1.68-3.53,3.56
					C84.75,80.28,84.72,80.74,84.72,81.2z"/>
			</g>
			<g id="Grupo_16332" transform="translate(0 22.486)">
				<path id="Trazado_30712" class="st1" d="M128.86,90.48c-0.09-0.21-0.19-0.41-0.3-0.6c-2.68-4.65-7.64-7.51-13.01-7.49h-3.07
					c-3.8,1.65-8.11,1.65-11.9,0h-3.18C92,82.37,87,85.24,84.29,89.92c-0.11,0.18-0.2,0.37-0.29,0.56
					c-2.99,7.58-4.09,16.14-4.73,24.13h9.19v18.38h35.94v-18.37h9.19C132.95,106.62,131.85,98.06,128.86,90.48z"/>
			</g>
		</g>
	</g>
	<g id="Grupo_16340" transform="translate(267.412 234.239)">
		<g id="Grupo_16337" transform="translate(58.761 3.092)">
			<g id="Grupo_16335">
				<path id="Trazado_30713" class="st1" d="M58.76,118.71l-1.9,5.76h-2.44l6.21-18.31h2.85l6.25,18.31h-2.53l-1.95-5.76H58.76z
					 M64.77,116.86l-1.82-5.27c-0.38-1.2-0.65-2.28-0.93-3.33h-0.08c-0.24,1.05-0.54,2.19-0.88,3.3l-1.8,5.29L64.77,116.86z"/>
				<path id="Trazado_30714" class="st1" d="M82.82,122.54c0,3.04-0.62,4.85-1.87,6.02c-1.36,1.09-3.07,1.65-4.81,1.58
					c-1.53,0.04-3.04-0.34-4.38-1.09l0.6-1.85c1.16,0.71,2.5,1.07,3.86,1.05c2.45,0,4.24-1.27,4.24-4.61v-1.44h-0.06
					c-0.89,1.44-2.5,2.29-4.19,2.2c-3.26,0-5.59-2.77-5.59-6.44c0-4.45,2.91-6.95,5.95-6.95c1.69-0.1,3.28,0.77,4.1,2.25h0.06
					l0.09-1.95h2.11c-0.07,0.92-0.1,1.98-0.1,3.58L82.82,122.54z M80.44,116.47c0.01-0.36-0.03-0.71-0.14-1.05
					c-0.4-1.52-1.77-2.57-3.34-2.55c-2.28,0-3.91,1.93-3.91,5c0,2.55,1.34,4.73,3.88,4.73c1.54,0,2.89-1.01,3.32-2.48
					c0.13-0.41,0.2-0.84,0.19-1.27V116.47z"/>
				<path id="Trazado_30715" class="st1" d="M87.38,118.29c-0.21,2.31,1.48,4.35,3.79,4.56c0.23,0.02,0.46,0.02,0.69,0.01
					c1.25,0.04,2.49-0.19,3.65-0.66l0.43,1.69c-1.39,0.59-2.89,0.88-4.4,0.85c-3.39,0.19-6.29-2.41-6.48-5.8
					c-0.02-0.28-0.01-0.56,0.01-0.85c0-3.98,2.37-7.1,6.19-7.1c4.29,0,5.41,3.77,5.41,6.19c0.01,0.38-0.02,0.76-0.09,1.14
					L87.38,118.29z M94.36,116.59c0.26-1.86-1.03-3.58-2.89-3.85c-0.13-0.02-0.26-0.03-0.39-0.03c-2.04,0.15-3.63,1.83-3.66,3.88
					H94.36z"/>
				<path id="Trazado_30716" class="st1" d="M98.9,114.88c0-1.38-0.03-2.48-0.11-3.55h2.12l0.14,2.14h0.06
					c0.88-1.55,2.55-2.49,4.34-2.45c1.82,0,4.66,1.09,4.66,5.59v7.85h-2.39v-7.58c0-2.12-0.79-3.92-3.04-3.92
					c-1.48,0.04-2.77,1.03-3.2,2.45c-0.12,0.36-0.18,0.74-0.17,1.12v7.93h-2.4L98.9,114.88z"/>
				<path id="Trazado_30717" class="st1" d="M122.59,124.01c-1.19,0.51-2.48,0.77-3.78,0.75c-3.45,0.17-6.38-2.48-6.55-5.93
					c-0.01-0.27-0.01-0.54,0.01-0.81c-0.18-3.7,2.68-6.83,6.37-7.01c0.23-0.01,0.46-0.01,0.69,0c1.15-0.02,2.28,0.23,3.32,0.71
					l-0.55,1.82c-0.86-0.43-1.81-0.65-2.77-0.63c-2.53-0.05-4.61,1.95-4.66,4.48c0,0.17,0,0.35,0.02,0.52
					c-0.23,2.48,1.59,4.67,4.07,4.9c0.17,0.02,0.33,0.02,0.5,0.02c1.01,0.01,2.01-0.2,2.93-0.63L122.59,124.01z"/>
				<path id="Trazado_30718" class="st1" d="M125.78,108.9c-0.85-0.02-1.52-0.73-1.5-1.58c0.02-0.85,0.73-1.52,1.58-1.5
					c0.83,0.02,1.49,0.69,1.5,1.52c0.03,0.83-0.62,1.52-1.45,1.55c-0.03,0-0.06,0-0.1,0H125.78z M124.65,111.32h2.39v13.14h-2.39
					L124.65,111.32z"/>
				<path id="Trazado_30719" class="st1" d="M139.5,121.31c-0.01,1.05,0.05,2.11,0.19,3.15h-2.15l-0.21-1.65h-0.09
					c-0.94,1.27-2.44,2-4.02,1.95c-2.06,0.15-3.86-1.4-4.01-3.46c-0.01-0.1-0.01-0.21-0.01-0.31c0-3.18,2.82-4.91,7.9-4.88v-0.27
					c0.2-1.48-0.84-2.84-2.32-3.04c-0.22-0.03-0.44-0.03-0.67-0.01c-1.22-0.01-2.42,0.33-3.45,0.98l-0.54-1.61
					c1.32-0.76,2.83-1.16,4.36-1.14c4.04,0,5.02,2.75,5.02,5.38L139.5,121.31z M137.16,117.76c-2.61-0.06-5.56,0.39-5.56,2.96
					c-0.1,1.15,0.75,2.17,1.9,2.27c0.11,0.01,0.22,0.01,0.33,0c1.44,0.05,2.74-0.84,3.22-2.2c0.08-0.24,0.12-0.5,0.11-0.75
					L137.16,117.76z"/>
				<path id="Trazado_30720" class="st1" d="M147.41,106.4c1.5-0.27,3.01-0.4,4.53-0.38c1.84-0.14,3.67,0.4,5.13,1.53
					c1.09,0.97,1.68,2.37,1.63,3.83c0.07,1.44-0.45,2.86-1.44,3.9c-1.51,1.4-3.53,2.13-5.59,2.01c-0.64,0.02-1.28-0.03-1.9-0.16
					v7.33h-2.36V106.4z M149.77,115.21c0.64,0.14,1.3,0.21,1.95,0.19c2.88,0,4.59-1.41,4.59-3.89c0-2.44-1.71-3.6-4.31-3.6
					c-0.75-0.01-1.49,0.05-2.23,0.18L149.77,115.21z"/>
				<path id="Trazado_30721" class="st1" d="M171.86,120.87c0,1.37,0.02,2.56,0.1,3.59h-2.12l-0.14-2.14h-0.06
					c-0.89,1.54-2.56,2.48-4.34,2.44c-2.07,0-4.54-1.17-4.54-5.75v-7.69h2.39v7.25c0,2.5,0.79,4.21,2.93,4.21
					c1.4-0.02,2.65-0.89,3.15-2.2c0.15-0.39,0.22-0.81,0.22-1.22v-8.03h2.4L171.86,120.87z M170.22,105.83l-3.3,3.89h-1.69l2.4-3.89
					H170.22z"/>
				<path id="Trazado_30722" class="st1" d="M174.83,105.19h2.4v8.22h0.06c0.93-1.57,2.66-2.49,4.48-2.39
					c3.26,0,5.53,2.72,5.53,6.68c0,4.72-2.99,7.06-5.91,7.06c-1.82,0.1-3.54-0.86-4.4-2.47h-0.05l-0.14,2.17h-2.07
					c0.09-0.9,0.11-2.22,0.11-3.39L174.83,105.19z M177.23,119.2c0,0.29,0.03,0.58,0.08,0.87c0.42,1.64,1.89,2.79,3.58,2.8
					c2.53,0,3.99-2.04,3.99-5.06c0-2.66-1.35-4.91-3.9-4.91c-1.74,0.03-3.23,1.24-3.62,2.93c-0.09,0.33-0.13,0.67-0.13,1V119.2z"/>
				<rect id="Rectángulo_5504" x="189.39" y="105.18" class="st1" width="2.39" height="19.28"/>
				<path id="Trazado_30723" class="st1" d="M195.93,108.9c-0.85-0.04-1.51-0.76-1.47-1.6c0.04-0.82,0.71-1.47,1.53-1.47
					c0.81-0.03,1.49,0.6,1.52,1.41c0,0.04,0,0.07,0,0.11c0.03,0.83-0.62,1.52-1.45,1.55c-0.03,0-0.06,0-0.09,0H195.93z
					 M194.8,111.32h2.39v13.14h-2.39V111.32z"/>
				<path id="Trazado_30724" class="st1" d="M209.58,124.01c-1.19,0.51-2.48,0.77-3.78,0.75c-3.45,0.17-6.38-2.48-6.56-5.92
					c-0.01-0.27-0.01-0.54,0.01-0.82c-0.17-3.7,2.68-6.83,6.38-7.01c0.23-0.01,0.46-0.01,0.68,0c1.14-0.01,2.28,0.23,3.31,0.71
					l-0.55,1.82c-0.86-0.43-1.81-0.65-2.77-0.63c-2.53-0.05-4.62,1.95-4.67,4.48c0,0.17,0,0.35,0.02,0.52
					c-0.23,2.48,1.6,4.68,4.09,4.91c0.16,0.01,0.32,0.02,0.48,0.02c1.01,0.01,2.01-0.21,2.93-0.63L209.58,124.01z"/>
				<path id="Trazado_30725" class="st1" d="M220.55,121.31c-0.01,1.05,0.05,2.11,0.19,3.15h-2.15l-0.22-1.65h-0.07
					c-0.94,1.27-2.45,1.99-4.03,1.95c-2.06,0.15-3.86-1.4-4.01-3.46c-0.01-0.11-0.01-0.21-0.01-0.32c0-3.18,2.83-4.91,7.9-4.88
					v-0.27c0.2-1.48-0.84-2.84-2.32-3.04c-0.22-0.03-0.45-0.03-0.67-0.01c-1.22-0.01-2.41,0.33-3.44,0.98l-0.55-1.61
					c1.32-0.76,2.82-1.16,4.34-1.14c4.06,0,5.03,2.75,5.03,5.38L220.55,121.31z M218.21,117.76c-2.61-0.06-5.57,0.39-5.57,2.96
					c-0.1,1.15,0.74,2.16,1.89,2.27c0.11,0.01,0.22,0.01,0.34,0c1.44,0.05,2.75-0.84,3.23-2.2c0.07-0.24,0.11-0.5,0.11-0.75
					L218.21,117.76z"/>
			</g>
			<g id="Grupo_16336" transform="translate(0 18.043)">
				<path id="Trazado_30726" class="st1" d="M54.42,114.98c2.36-0.38,4.75-0.55,7.14-0.53c4.49,0,7.4,0.73,9.63,2.44
					c2.71,2.13,4.19,5.46,3.97,8.9c0.2,3.58-1.22,7.07-3.86,9.5c-2.47,2.05-6.26,3.02-10.86,3.02c-2.01,0.02-4.02-0.1-6.02-0.34
					V114.98z M59.71,134.07c0.61,0.09,1.23,0.12,1.85,0.1c4.84,0.04,8-2.61,8-8.2c0-5.05-2.85-7.45-7.44-7.45
					c-0.81-0.01-1.61,0.06-2.4,0.21L59.71,134.07z"/>
				<path id="Trazado_30727" class="st1" d="M91.37,128.16h-8.63v5.57h9.63v4.35H77.46v-23.44h14.43v4.34h-9.15v4.87h8.63
					L91.37,128.16z"/>
				<path id="Trazado_30728" class="st1" d="M114.54,128.16h-8.63v5.57h9.63v4.35h-14.92v-23.44h14.42v4.34h-9.14v4.87h8.63
					L114.54,128.16z"/>
				<path id="Trazado_30729" class="st1" d="M137.81,129.1c-0.11-2.82-0.21-6.19-0.21-9.63h-0.07c-0.77,2.99-1.74,6.33-2.65,9.08
					l-2.85,9.14h-4.14l-2.51-9.04c-0.77-2.79-1.53-6.09-2.12-9.18h-0.07c-0.11,3.17-0.24,6.78-0.38,9.71l-0.45,8.9h-4.91l1.5-23.44
					h7.06l2.29,7.86c0.77,2.67,1.47,5.6,1.98,8.35h0.14c0.63-2.72,1.43-5.78,2.22-8.42l2.48-7.79h6.95l1.26,23.44h-5.15
					L137.81,129.1z"/>
				<path id="Trazado_30730" class="st1" d="M146.23,114.94c2.37-0.36,4.77-0.52,7.16-0.49c2.55-0.21,5.1,0.47,7.21,1.91
					c1.62,1.32,2.53,3.31,2.47,5.39c0.11,2.07-0.66,4.09-2.12,5.57c-2.16,1.75-4.89,2.63-7.66,2.47c-0.61,0.01-1.21-0.03-1.81-0.14
					v8.41h-5.26L146.23,114.94z M151.49,125.58c0.58,0.12,1.18,0.17,1.77,0.15c2.83,0,4.56-1.43,4.56-3.79
					c0-2.16-1.46-3.45-4.14-3.45c-0.74-0.02-1.47,0.04-2.2,0.18L151.49,125.58z"/>
				<path id="Trazado_30731" class="st1" d="M165.26,114.63h5.29v18.99h9.32v4.45h-14.61V114.63z"/>
				<path id="Trazado_30732" class="st1" d="M195.81,128.16h-8.63v5.57h9.63v4.35h-14.92v-23.44h14.44v4.34h-9.14v4.87h8.63V128.16z
					"/>
				<path id="Trazado_30733" class="st1" d="M209.16,138.46c-6.92,0-11.02-5.26-11.02-11.94c0-7.03,4.52-12.29,11.41-12.29
					c7.2,0,11.13,5.4,11.13,11.86c0,7.72-4.63,12.35-11.47,12.35L209.16,138.46z M209.4,134.24c3.58,0,5.64-3.37,5.64-7.96
					c0-4.21-1.99-7.83-5.64-7.83s-5.7,3.54-5.7,7.93c0,4.42,2.12,7.86,5.67,7.86L209.4,134.24z"/>
			</g>
		</g>
		<g id="Grupo_16338" transform="translate(0 0)">
			<path id="Trazado_30734" class="st0" d="M24.93,130.53h27.18l-15.95,29.15l-3.4-3.36l10.18-18.5l0.24-0.51l0.13-0.51l-0.07-0.57
				l-0.16-0.33l-0.23-0.24l-0.55-0.29l-0.7-0.13H24.93L24.93,130.53z"/>
			<path id="Trazado_30735" class="st0" d="M54.67,103.63c3.71-0.2,6.88,2.65,7.08,6.36c0.2,3.71-2.65,6.88-6.36,7.08
				c-3.71,0.2-6.88-2.65-7.08-6.36c-0.01-0.12-0.01-0.24-0.01-0.36C48.21,106.74,51.06,103.74,54.67,103.63"/>
			<path id="Trazado_30736" class="st0" d="M54.53,135.43l-14.99,26.73l3.99,2.08l9.8-17.4l0.31-0.41l0.41-0.22l0.56-0.12l0.62,0.12
				l0.38,0.26l0.28,0.37l9.89,17.4l4.07-2.23L54.53,135.43z"/>
			<path id="Trazado_30737" class="st0" d="M56.82,130.49h27.5v4.62h-16.8l-0.53,0.19l-0.48,0.24l-0.41,0.45l-0.17,0.54v0.49
				l0.12,0.51l10.39,18.76l-3.25,3.24L56.82,130.49z"/>
			<path id="Trazado_30738" class="st0" d="M31.49,125.33v0.03c-0.01,0.1-0.02,0.19-0.02,0.24c0,0.35,0.23,0.66,0.56,0.77
				c0.56,0.2,1.16,0.29,1.75,0.26c0.48,0.02,0.95-0.05,1.4-0.22c0.35-0.13,0.52-0.34,0.52-0.58c0-0.36-0.68-0.67-2.03-0.89
				c-0.15-0.03-0.27-0.05-0.35-0.06s-0.21-0.03-0.38-0.06c-1.44-0.14-2.83-0.55-4.12-1.2c-0.28-0.19-0.52-0.44-0.68-0.74
				c-0.15-0.3-0.22-0.63-0.21-0.97c0.02-0.91,0.6-1.71,1.47-2.01c1.38-0.53,2.85-0.76,4.33-0.69c1.42-0.08,2.83,0.14,4.16,0.65
				c0.83,0.31,1.37,1.11,1.35,2v0.09h-3.54v-0.03c-0.01-0.33-0.23-0.61-0.55-0.7c-0.51-0.17-1.04-0.25-1.57-0.23
				c-0.42-0.02-0.84,0.04-1.25,0.17c-0.28,0.11-0.44,0.27-0.44,0.48c0,0.37,0.79,0.69,2.33,0.95c0.3,0.05,0.53,0.09,0.7,0.12
				c0.79,0.12,1.58,0.28,2.35,0.49c0.42,0.12,0.83,0.28,1.21,0.5c0.35,0.2,0.65,0.48,0.87,0.81c0.2,0.33,0.31,0.71,0.3,1.09
				c-0.04,0.97-0.68,1.8-1.6,2.09c-1.47,0.56-3.05,0.81-4.62,0.73c-1.47,0.1-2.95-0.15-4.31-0.71c-0.86-0.41-1.39-1.3-1.34-2.25
				v-0.13L31.49,125.33z M41.21,128.26v-8.9h10.1v1.91H45v1.43h5.85v1.9H45v1.73h6.54v1.93L41.21,128.26z M53.13,128.26v-8.9h4.8
				l5.15,5.98v-5.98h3.65v8.9h-4.98l-4.97-5.99v5.99H53.13z M76.51,124.72l-1.8-3.24l-1.93,3.24H76.51z M70.73,128.26h-3.8l5.87-8.9
				h4.21l5.61,8.9h-4.23l-0.85-1.61h-5.88L70.73,128.26z"/>
		</g>
		<g id="Grupo_16339" transform="translate(48.703 0.138)">
			<path id="Trazado_30739" class="st1" d="M49.91,164.96c-0.29,0-0.53-0.23-0.53-0.53v-60.21c0-0.29,0.24-0.53,0.53-0.53
				s0.53,0.24,0.53,0.53v60.21C50.44,164.73,50.2,164.97,49.91,164.96L49.91,164.96z"/>
		</g>
	</g>
</g>
</svg>
