<?xml version="1.0" encoding="utf-8"?>
<!-- Generator: Adobe Illustrator 25.2.1, SVG Export Plug-In . SVG Version: 6.00 Build 0)  -->
<svg version="1.1" id="Capa_1" xmlns="http://www.w3.org/2000/svg" xmlns:xlink="http://www.w3.org/1999/xlink" x="0px" y="0px"
	 viewBox="0 0 1064.76 300" style="enable-background:new 0 0 1064.76 300;" xml:space="preserve">
<style type="text/css">
	.st0{fill:#FFFFFF;}
	.st1{fill:#369BB2;}
	.st2{clip-path:url(#SVGID_2_);}
	.st3{clip-path:url(#SVGID_4_);}
	.st4{fill:#DADBDF;}
	.st5{clip-path:url(#SVGID_6_);}
	.st6{clip-path:url(#SVGID_8_);}
	.st7{fill:none;stroke:#FFFFFF;stroke-width:4;stroke-miterlimit:10;}
</style>
<g>
	<path id="Trazado_404" class="st0" d="M179.48,38.01c12.61-0.07,22.9,10.1,22.97,22.71s-10.1,22.89-22.71,22.97
		c-12.61,0.07-22.9-10.1-22.97-22.71c0-0.04,0-0.09,0-0.13C156.76,48.28,166.91,38.07,179.48,38.01"/>
	<path id="Trazado_405" class="st0" d="M236.79,121.73h-13.57l20.95-30.28h15.02l19.98,30.28H264.1l-3.06-5.46h-21L236.79,121.73z
		 M257.42,109.66l-6.48-11.01l-6.85,11.01H257.42z M173.97,121.73V91.45h17.13l18.33,20.31V91.45h13v30.28h-17.76l-17.73-20.39
		v20.39C186.94,121.73,173.97,121.73,173.97,121.73z M131.41,121.73V91.45h36.03v6.53h-22.52v4.82h20.82v6.45h-20.79v5.89h23.37
		v6.61L131.41,121.73z M96.78,111.73v0.09c-0.06,0.27-0.1,0.56-0.11,0.84c0.02,1.22,0.84,2.28,2,2.64c2,0.67,4.12,0.96,6.23,0.86
		c1.71,0.06,3.41-0.17,5.04-0.7c1.22-0.47,1.84-1.12,1.84-1.94c0-1.24-2.43-2.26-7.22-3.04c-0.56-0.1-0.99-0.16-1.26-0.2
		c-0.27-0.04-0.76-0.13-1.35-0.23c-5.11-0.49-10.09-1.88-14.72-4.08c-0.99-0.64-1.83-1.5-2.43-2.52c-0.53-1.01-0.81-2.13-0.8-3.27
		c0.12-3.16,2.23-5.9,5.26-6.82c4.93-1.79,10.16-2.59,15.4-2.34c5.04-0.27,10.09,0.48,14.84,2.18c2.89,0.99,4.82,3.71,4.83,6.76
		v0.35H111.7v-0.15c0-1.04-0.64-1.84-1.92-2.37c-1.8-0.62-3.71-0.9-5.63-0.82c-1.5-0.06-3,0.14-4.43,0.57
		c-1.04,0.39-1.56,0.93-1.56,1.64c0,1.27,2.77,2.34,8.27,3.23l2.5,0.39c3.93,0.65,6.73,1.22,8.39,1.7c1.5,0.4,2.93,0.96,4.31,1.67
		c1.26,0.65,2.33,1.62,3.12,2.79c0.72,1.1,1.11,2.38,1.09,3.69c0,3.08-1.91,5.44-5.73,7.1c-5.29,1.9-10.89,2.74-16.5,2.49
		c-5.25,0.32-10.5-0.49-15.41-2.39c-3.01-1.33-4.9-4.38-4.75-7.67v-0.45L96.78,111.73z"/>
	<path id="Trazado_406" class="st0" d="M113.42,228.47l-12.09-11.37l36.81-63.89c1.44-2.5,0.58-5.7-1.92-7.14
		c-0.79-0.46-1.7-0.7-2.61-0.7H73.35V129.4h97L113.42,228.47z"/>
	<path id="Trazado_407" class="st0" d="M244.51,228.47l12.09-11.37l-36.81-63.89c-1.44-2.5-0.58-5.7,1.92-7.14
		c0.79-0.46,1.7-0.7,2.61-0.7h60.26V129.4h-97L244.51,228.47z"/>
	<path id="Trazado_408" class="st0" d="M178.83,146.29c0.09-0.15,0.13-0.23,0.13-0.23l54.65,90.34l-14.52,7.55l-35.21-58.99
		c-1.5-2.53-4.79-3.37-7.32-1.86c-0.77,0.45-1.41,1.09-1.86,1.86l-34.99,58.98l-14.2-7.03L178.83,146.29"/>
</g>
<g>
	<path id="Trazado_3739" class="st1" d="M541.82,121.91"/>
	<path id="Trazado_3740" class="st0" d="M553.25,109.17c0.35-6.68-4.73-12.43-11.39-12.92l-72.16,0.14c-2.35,0-3.89,2.24-3.89,4.91
		v31.83c0-8.29,4.63-10.55,7.61-10.9c0.12,0,68.2-0.33,68.2-0.33h0.28C548.52,121.51,553.6,115.81,553.25,109.17"/>
	<path id="Trazado_3741" class="st0" d="M457.24,115.95H380.7l12.2,25.5h67.81c2.58,0.12,4.82-1.79,5.08-4.38v-29.71
		C465.77,116.02,461.18,115.97,457.24,115.95"/>
	<g id="Grupo_1871" transform="translate(22.029 0.154)">
		<g id="Grupo_1870">
			<g>
				<g>
					<defs>
						<rect id="SVGID_1_" x="443.55" y="95.85" width="23.94" height="37.79"/>
					</defs>
					<clipPath id="SVGID_2_">
						<use xlink:href="#SVGID_1_"  style="overflow:visible;"/>
					</clipPath>
					<g id="Grupo_1869" class="st2">
						<g id="Grupo_1868" transform="translate(0.052 0.115)">
							<g>
								<g>
									<defs>
										<rect id="SVGID_3_" x="443.71" y="96.19" width="23.45" height="36.67"/>
									</defs>
									<clipPath id="SVGID_4_">
										<use xlink:href="#SVGID_3_"  style="overflow:visible;"/>
									</clipPath>
									<g id="Grupo_1867" class="st3">
										<path id="Trazado_3742" class="st4" d="M447.53,96.19c-2.38,0-3.82,2.17-3.82,4.84v31.83c0-8.31,4.66-10.22,7.61-10.57
											c0.12,0,3.56,0,3.56,0l12.25-26.1H447.53z"/>
									</g>
								</g>
							</g>
						</g>
					</g>
				</g>
			</g>
		</g>
	</g>
	<path id="Trazado_3743" class="st1" d="M541.82,172.9"/>
	<path id="Trazado_3744" class="st0" d="M553.25,160.45c0.35-6.71-4.7-12.48-11.39-13.04l-72.16,0.07c-2.35,0-3.89,2.19-3.89,4.84
		v31.83c0-8.29,4.63-10.29,7.61-10.64c0.12,0,68.2-0.07,68.2-0.07h0.28C548.57,172.9,553.6,167.15,553.25,160.45"/>
	<path id="Trazado_3745" class="st0" d="M457.24,166.92h-52.25l12.2,25.8l43.66,0.12c2.63-0.05,4.77-2.1,4.94-4.73V158.4
		C465.79,167.06,461.2,166.92,457.24,166.92"/>
	<g id="Grupo_1876" transform="translate(22.029 13.366)">
		<g id="Grupo_1875">
			<g>
				<g>
					<defs>
						<rect id="SVGID_5_" x="443.55" y="133.54" width="76.63" height="37.79"/>
					</defs>
					<clipPath id="SVGID_6_">
						<use xlink:href="#SVGID_5_"  style="overflow:visible;"/>
					</clipPath>
					<g id="Grupo_1874" class="st5">
						<g id="Grupo_1873" transform="translate(0.052 0.19)">
							<g>
								<g>
									<defs>
										<rect id="SVGID_7_" x="443.71" y="134.1" width="76.12" height="36.65"/>
									</defs>
									<clipPath id="SVGID_8_">
										<use xlink:href="#SVGID_7_"  style="overflow:visible;"/>
									</clipPath>
									<g id="Grupo_1872" class="st6">
										<path id="Trazado_3746" class="st4" d="M519.74,159.78L519.74,159.78"/>
										<path id="Trazado_3747" class="st4" d="M447.53,134.1c-2.38,0-3.82,2.17-3.82,4.84v31.83c0-8.29,4.66-10.5,7.61-10.85
											c0.12,0-0.12,0,0,0h3.52l12.2-25.8L447.53,134.1z"/>
									</g>
								</g>
							</g>
						</g>
					</g>
				</g>
			</g>
		</g>
	</g>
	<path id="Trazado_3748" class="st0" d="M542.28,198.38h-0.19l0,0l-72.35-0.02c-2.4,0.21-4.19,2.31-3.98,4.7
		c0,0.05,0,0.09,0.02,0.14v33.41l8.59-12.2h67.92c7.2-1,12.2-7.61,11.22-14.81C552.69,203.78,548.1,199.19,542.28,198.38"/>
	<path id="Trazado_3749" class="st0" d="M613.3,188.97c0-12.62-5.45-22.8-20.24-22.8c-15.39,0-22.05,12.22-22.05,28.27
		c0,19.58,8.99,28.38,24.12,28.38c5.38,0,10.71-0.98,15.72-2.93l-1.82-12.43c-4.01,1.28-8.17,1.98-12.36,2.05
		c-5.26,0.63-10.06-3.12-10.69-8.38c-0.07-0.65-0.09-1.33-0.02-1.98h26.29C612.95,195.79,613.3,192.39,613.3,188.97 M585.99,188.67
		c0.26-5.29,1.72-9.59,7.01-9.59c5.77,0,6.31,4.7,6.31,9.59H585.99z"/>
	<path id="Trazado_3750" class="st0" d="M646.67,187.2c0-6.54-3.19-7.64-7.01-7.64c-2.14,0-4.26,0.33-6.31,0.98v41.01h-14.97v-50.69
		c6.99-3.12,14.55-4.73,22.21-4.7c4.7-0.26,9.41,0.86,13.48,3.24c4.89-2.19,10.2-3.28,15.55-3.24c12.46,0,20.3,5.59,20.3,22.91
		v32.48h-14.95V187.2c0-6.47-3.47-7.64-6.92-7.64c-2.49,0.02-4.91,0.65-7.08,1.86c0.4,2.51,0.61,5.08,0.61,7.64v32.48h-14.95
		L646.67,187.2z"/>
	<path id="Trazado_3751" class="st0" d="M717.83,222.83c-2.24-0.02-4.47-0.28-6.66-0.77v19.86h-14.95v-71.04
		c6.36-3.07,13.34-4.68,20.4-4.7c17.79,0,23.68,11.15,23.68,28.38S733.92,222.83,717.83,222.83 M716.71,179.56
		c-1.89-0.09-3.75,0.19-5.54,0.77v28.18c1.77,0.63,3.66,0.93,5.54,0.88c7.27,0,8.64-6.66,8.64-14.88
		C725.35,186.29,724.23,179.56,716.71,179.56"/>
	<path id="Trazado_3752" class="st0" d="M770.92,180.54c-0.84-0.09-1.68-0.14-2.51-0.09c-2.68-0.05-5.33,0.4-7.87,1.28v39.82h-14.95
		v-50.6c6.31-3.12,13.27-4.73,20.33-4.7c1.93-0.02,3.87,0.12,5.77,0.4L770.92,180.54z"/>
	<path id="Trazado_3753" class="st0" d="M788.04,199.15c-0.47,5.29,3.45,9.94,8.73,10.41c0.65,0.05,1.33,0.05,1.98-0.02
		c4.19-0.07,8.36-0.77,12.36-2.05l1.82,12.43c-5.03,1.93-10.36,2.93-15.74,2.93c-15.11,0-24.12-8.8-24.12-28.38
		c0-16.04,6.66-28.29,22.05-28.29c14.79,0,20.23,10.18,20.23,22.8c-0.02,3.42-0.35,6.82-1.05,10.18L788.04,199.15z M795.02,179.07
		c-5.26,0-6.75,4.31-7.01,9.59h13.32C801.33,183.78,800.82,179.07,795.02,179.07"/>
	<path id="Trazado_3754" class="st0" d="M848.97,187.2c0-6.54-3.47-7.64-7.27-7.64c-2.14,0-4.26,0.33-6.31,0.98v41.01h-14.95v-50.69
		c6.96-3.1,14.51-4.7,22.12-4.7c13.58,0,21.35,5.19,21.35,22.91v32.48h-14.95V187.2z"/>
	<path id="Trazado_3755" class="st0" d="M891.07,166.17c2.24,0.02,4.47,0.28,6.66,0.77v-19.77h14.95v70.95
		c-6.33,3.07-13.27,4.68-20.3,4.7c-17.88,0-23.77-11.15-23.77-28.38C868.6,177.21,874.98,166.15,891.07,166.17 M892.19,209.39
		c1.89,0.09,3.75-0.19,5.54-0.77v-28.18c-1.77-0.63-3.66-0.93-5.54-0.88c-7.27,0-8.64,6.66-8.64,14.88
		C883.55,202.66,884.67,209.41,892.19,209.39"/>
	<path id="Trazado_3756" class="st0" d="M932.92,199.15c-0.47,5.29,3.45,9.94,8.73,10.41c0.65,0.05,1.33,0.05,1.98-0.02
		c4.19-0.07,8.36-0.77,12.36-2.05l1.82,12.43c-5.01,1.93-10.34,2.93-15.72,2.93c-15.14,0-24.12-8.8-24.12-28.38
		c0-16.04,6.66-28.29,22.05-28.29c14.79,0,20.24,10.18,20.24,22.8c-0.02,3.42-0.37,6.82-1.05,10.18L932.92,199.15z M939.9,179.07
		c-5.26,0-6.75,4.31-7.01,9.59h13.32C946.24,183.78,945.7,179.07,939.9,179.07"/>
	<path id="Trazado_3757" class="st0" d="M990.67,180.54c-0.84-0.09-1.68-0.14-2.51-0.09c-2.68-0.05-5.33,0.4-7.87,1.28v39.82h-14.95
		v-50.6c6.31-3.12,13.27-4.73,20.3-4.7c1.93-0.02,3.87,0.12,5.77,0.4L990.67,180.54z"/>
	<path id="Trazado_3758" class="st0" d="M576.12,96.29h26.92v5.87h-21.05v11.53h18.26v5.61h-18.28v17.02h-5.87V96.29H576.12z"/>
	<path id="Trazado_3759" class="st0" d="M606.64,116.37c0-11.67,7.15-20.96,18.58-20.96c11.41,0,18.63,9.27,18.63,20.96
		c0,11.55-7.17,20.89-18.63,20.89C613.74,137.25,606.64,127.89,606.64,116.37 M637.82,116.37c0-8.27-5.01-14.6-12.6-14.6
		c-7.52,0-12.53,6.33-12.53,14.6c0,8.2,5.01,14.48,12.53,14.48C632.79,130.85,637.82,124.56,637.82,116.37"/>
	<path id="Trazado_3760" class="st0" d="M682.65,136.32h-1.54l-24.54-26.82v26.82h-5.87V96.29h1.54l24.54,26.41V96.29h5.87V136.32z"
		/>
	<path id="Trazado_3761" class="st0" d="M705.14,136.32h-13.25V96.29h13.25c11.48,0,18.88,8.08,18.88,20
		S716.62,136.32,705.14,136.32 M697.73,102.16v28.29h6.99c7.8-0.49,13.76-7.2,13.27-15.02c-0.44-7.15-6.12-12.83-13.27-13.27
		C704.72,102.16,697.73,102.16,697.73,102.16z"/>
	<path id="Trazado_3762" class="st0" d="M728.61,116.37c0-11.67,7.15-20.96,18.58-20.96c11.48,0,18.63,9.27,18.63,20.96
		c0,11.55-7.15,20.89-18.63,20.89C735.78,137.25,728.61,127.89,728.61,116.37 M759.79,116.37c0-8.27-5.03-14.6-12.6-14.6
		s-12.53,6.33-12.53,14.6c0,8.2,5.01,14.48,12.53,14.48C754.74,130.85,759.79,124.56,759.79,116.37"/>
</g>
<line class="st7" x1="330.38" y1="38.01" x2="330.38" y2="243.96"/>
</svg>
