<?xml version="1.0" encoding="utf-8"?>
<!-- Generator: Adobe Illustrator 25.2.1, SVG Export Plug-In . SVG Version: 6.00 Build 0)  -->
<svg version="1.1" id="Capa_1" xmlns="http://www.w3.org/2000/svg" xmlns:xlink="http://www.w3.org/1999/xlink" x="0px" y="0px"
	 viewBox="0 0 603.7 300" style="enable-background:new 0 0 603.7 300;" xml:space="preserve">
<style type="text/css">
	.st0{fill:#FFFFFF;}
	.st1{clip-path:url(#SVGID_2_);}
	.st2{clip-path:url(#SVGID_4_);}
</style>
<g id="Logo_Servicio_de_Empleo" transform="translate(-90.854 -291.841)">
	<g id="Grupo_16319" transform="translate(311.02 349.167)">
		<path id="Trazado_30667" class="st0" d="M33.65,71.2l9.59-0.94c0.58,3.23,1.75,5.59,3.51,7.09c2.03,1.6,4.57,2.41,7.15,2.27
			c3.18,0,5.57-0.67,7.18-2.01c1.49-1.11,2.38-2.85,2.41-4.71c0.03-1.07-0.33-2.12-1.02-2.95c-0.98-1-2.2-1.73-3.55-2.11
			c-1.16-0.41-3.79-1.12-7.89-2.13c-5.28-1.32-8.99-2.93-11.12-4.84c-2.88-2.44-4.53-6.04-4.49-9.82c0-2.48,0.73-4.91,2.11-6.97
			c1.49-2.23,3.61-3.95,6.1-4.95c3.06-1.21,6.33-1.78,9.61-1.7c6.12,0,10.73,1.34,13.83,4.03c3.11,2.71,4.89,6.64,4.88,10.76
			l-9.85,0.43c-0.2-2.08-1.17-4.01-2.72-5.41c-1.39-1.09-3.47-1.64-6.24-1.65c-2.37-0.14-4.73,0.48-6.73,1.76
			c-1,0.68-1.59,1.82-1.57,3.03c0,1.16,0.54,2.26,1.47,2.96c1.25,1.05,4.26,2.14,9.06,3.26c3.67,0.75,7.24,1.93,10.64,3.52
			c2.22,1.13,4.08,2.84,5.4,4.96c2.73,4.89,2.58,10.88-0.38,15.64c-1.58,2.46-3.89,4.36-6.6,5.44c-3.39,1.28-7,1.89-10.62,1.78
			c-6.17,0-10.91-1.43-14.22-4.28S34.3,76.66,33.65,71.2"/>
		<path id="Trazado_30668" class="st0" d="M100.76,75.83l9.32,1.57c-1,3.15-2.99,5.89-5.68,7.81c-2.88,1.87-6.27,2.8-9.7,2.67
			c-6.15,0-10.71-2.01-13.65-6.02c-2.33-3.22-3.5-7.28-3.5-12.19c0-5.86,1.53-10.45,4.6-13.77c2.96-3.27,7.2-5.09,11.61-4.98
			c5.27,0,9.42,1.74,12.46,5.21c3.04,3.47,4.49,8.8,4.36,15.97H87.14c-0.08,2.37,0.73,4.68,2.26,6.48c1.38,1.51,3.35,2.36,5.4,2.31
			c1.33,0.05,2.64-0.38,3.69-1.2C99.63,78.67,100.42,77.32,100.76,75.83 M101.29,66.38c0.1-2.25-0.65-4.45-2.1-6.17
			c-2.55-2.71-6.81-2.84-9.52-0.29c-0.14,0.13-0.27,0.27-0.4,0.41c-1.41,1.69-2.11,3.86-1.97,6.06H101.29z"/>
		<path id="Trazado_30669" class="st0" d="M125.73,87.08h-9.36V51.72h8.69v5.03c1-1.82,2.37-3.42,4.01-4.7
			c1.21-0.76,2.62-1.15,4.05-1.13c2.18,0.01,4.31,0.62,6.16,1.77l-2.9,8.16c-1.28-0.93-2.81-1.46-4.39-1.54
			c-1.2-0.03-2.38,0.35-3.33,1.08c-1.1,1.05-1.85,2.42-2.15,3.91c-0.52,1.89-0.79,5.85-0.78,11.86L125.73,87.08z"/>
		<path id="Trazado_30670" class="st0" d="M155.75,87.08L141.5,51.71h9.82l6.66,18.05l1.93,6.02c0.51-1.53,0.84-2.54,0.97-3.03
			c0.3-0.99,0.63-2,0.99-3l6.72-18.05h9.62l-14.06,35.37H155.75z"/>
		<path id="Trazado_30671" class="st0" d="M181.22,38.26h9.36v8.66h-9.36V38.26z M181.22,51.72h9.36v35.37h-9.36V51.72z"/>
		<path id="Trazado_30672" class="st0" d="M228.29,62.18l-9.23,1.66c-0.18-1.6-0.93-3.07-2.11-4.16c-1.21-0.97-2.73-1.47-4.28-1.4
			c-2.13-0.09-4.19,0.81-5.58,2.42c-1.39,1.61-2.08,4.3-2.08,8.08c0,4.19,0.71,7.16,2.11,8.89c1.37,1.72,3.48,2.68,5.68,2.6
			c1.59,0.07,3.15-0.48,4.36-1.52c1.13-1.01,1.93-2.75,2.4-5.21l9.18,1.57c-0.95,4.21-2.78,7.39-5.49,9.55
			c-2.71,2.16-6.34,3.23-10.89,3.23c-5.17,0-9.29-1.63-12.36-4.89c-3.08-3.26-4.61-7.78-4.61-13.55c0-5.85,1.54-10.39,4.63-13.64
			c3.08-3.25,7.26-4.88,12.52-4.88c4.3,0,7.73,0.93,10.28,2.79C225.53,55.84,227.46,58.82,228.29,62.18"/>
		<path id="Trazado_30673" class="st0" d="M234.01,38.26h9.35v8.66h-9.35V38.26z M234.01,51.72h9.35v35.37h-9.35V51.72z"/>
		<path id="Trazado_30674" class="st0" d="M248.08,68.9c0.01-3.15,0.8-6.25,2.29-9.02c1.45-2.83,3.72-5.15,6.51-6.67
			c2.89-1.55,6.13-2.35,9.42-2.3c4.92-0.17,9.68,1.72,13.15,5.21c3.43,3.51,5.28,8.26,5.12,13.17c0.16,4.96-1.71,9.76-5.18,13.31
			c-3.42,3.5-8.15,5.41-13.04,5.27c-3.22,0.01-6.39-0.75-9.27-2.2c-2.86-1.38-5.22-3.64-6.72-6.44
			C248.75,76.03,247.96,72.48,248.08,68.9 M257.67,69.39c0,3.51,0.83,6.2,2.49,8.07c2.97,3.4,8.13,3.74,11.53,0.77
			c0.27-0.24,0.53-0.5,0.77-0.77c1.65-1.87,2.48-4.58,2.48-8.13c0-3.47-0.83-6.13-2.48-7.99c-2.96-3.4-8.11-3.75-11.51-0.79
			c-0.28,0.24-0.54,0.51-0.79,0.79C258.5,63.2,257.67,65.89,257.67,69.39"/>
		<path id="Trazado_30675" class="st0" d="M68.53,140.08h-8.69v-5.2c-1.31,1.9-3.06,3.46-5.11,4.51c-1.84,0.96-3.87,1.47-5.94,1.49
			c-4.04,0.01-7.87-1.79-10.44-4.91c-2.9-3.27-4.35-7.83-4.35-13.7c0-5.99,1.41-10.55,4.23-13.67c2.69-3.06,6.61-4.78,10.68-4.68
			c3.99,0.01,7.76,1.83,10.26,4.93V91.26h9.36L68.53,140.08z M43.55,121.63c0,3.77,0.52,6.5,1.56,8.19c1.27,2.3,3.71,3.71,6.33,3.66
			c2.16,0,4.19-1.02,5.49-2.75c1.51-1.83,2.27-4.56,2.26-8.21c0-4.07-0.73-6.99-2.2-8.77c-2.51-3.1-7.05-3.59-10.16-1.08
			c-0.38,0.31-0.74,0.66-1.05,1.04C44.29,115.49,43.54,118.13,43.55,121.63"/>
		<path id="Trazado_30676" class="st0" d="M96.93,128.83l9.32,1.56c-1,3.15-2.99,5.89-5.67,7.81c-2.88,1.88-6.27,2.82-9.71,2.68
			c-6.15,0-10.7-2.01-13.65-6.03c-2.33-3.21-3.5-7.27-3.49-12.18c0-5.86,1.53-10.45,4.59-13.77c2.96-3.27,7.21-5.09,11.62-4.98
			c5.26,0,9.41,1.74,12.45,5.21s4.5,8.8,4.36,15.97H83.31c-0.08,2.37,0.73,4.68,2.26,6.48c1.38,1.51,3.35,2.35,5.4,2.31
			c1.34,0.04,2.64-0.38,3.7-1.2C95.8,131.66,96.59,130.31,96.93,128.83 M97.47,119.36c0.09-2.25-0.66-4.45-2.1-6.18
			c-1.24-1.37-3.01-2.14-4.86-2.11c-1.94-0.05-3.8,0.77-5.07,2.23c-1.4,1.69-2.11,3.86-1.97,6.06L97.47,119.36z"/>
		<path id="Trazado_30677" class="st0" d="M130.62,140.08V91.26h36.2v8.27h-26.35v10.82h24.52v8.22h-24.52v13.29h27.27v8.22
			L130.62,140.08z"/>
		<path id="Trazado_30678" class="st0" d="M174.04,104.71h8.63v4.83c3.08-3.75,6.76-5.63,11.02-5.63c2.05-0.05,4.08,0.43,5.89,1.4
			c1.73,1,3.15,2.47,4.09,4.23c1.37-1.74,3.08-3.18,5.03-4.23c1.78-0.93,3.75-1.41,5.76-1.4c2.3-0.07,4.58,0.47,6.6,1.58
			c1.81,1.07,3.22,2.7,4.03,4.64c0.76,2.36,1.09,4.85,0.96,7.33v22.62h-9.36v-20.22c0-3.5-0.33-5.77-0.97-6.79
			c-0.87-1.34-2.4-2.11-4-2c-1.33,0.01-2.62,0.42-3.7,1.19c-1.19,0.87-2.07,2.11-2.49,3.52c-0.6,2.39-0.86,4.85-0.76,7.31v16.98
			h-9.35V120.7c0.11-2.23-0.06-4.47-0.51-6.66c-0.26-0.89-0.8-1.68-1.55-2.23c-0.85-0.53-1.85-0.79-2.85-0.73
			c-1.38-0.02-2.74,0.39-3.89,1.17c-1.18,0.81-2.06,1.99-2.48,3.36c-0.61,2.38-0.87,4.84-0.76,7.3v17.18h-9.35L174.04,104.71z"/>
		<path id="Trazado_30679" class="st0" d="M233.67,104.71h8.72v5.19c1.16-1.8,2.74-3.28,4.6-4.33c1.96-1.11,4.18-1.69,6.43-1.66
			c4.03-0.03,7.87,1.74,10.46,4.83c2.86,3.22,4.29,7.71,4.3,13.46c0,5.91-1.44,10.5-4.33,13.77c-2.58,3.14-6.43,4.94-10.49,4.92
			c-1.84,0.02-3.66-0.37-5.32-1.16c-1.89-1.02-3.59-2.38-5.01-4v17.82h-9.36L233.67,104.71z M242.93,121.8
			c0,3.97,0.79,6.91,2.36,8.81c1.37,1.79,3.5,2.85,5.76,2.84c2.12,0.03,4.13-0.94,5.43-2.61c1.44-1.75,2.16-4.61,2.17-8.58
			c0-3.71-0.74-6.46-2.23-8.25c-1.32-1.72-3.37-2.71-5.54-2.7c-2.2-0.04-4.3,0.94-5.69,2.65
			C243.69,115.72,242.93,118.34,242.93,121.8"/>
		<rect id="Rectángulo_5503" x="270.16" y="91.26" class="st0" width="9.35" height="48.82"/>
		<path id="Trazado_30680" class="st0" d="M306.87,128.83l9.32,1.56c-1,3.15-2.99,5.89-5.68,7.81c-2.88,1.88-6.27,2.82-9.7,2.68
			c-6.15,0-10.7-2.01-13.66-6.03c-2.33-3.21-3.49-7.27-3.5-12.18c0-5.86,1.53-10.45,4.6-13.77c2.96-3.28,7.21-5.09,11.62-4.98
			c5.26,0,9.41,1.74,12.45,5.21c3.04,3.47,4.49,8.8,4.35,15.97h-23.43c-0.09,2.37,0.72,4.68,2.26,6.48c1.38,1.51,3.35,2.36,5.4,2.31
			c1.33,0.04,2.63-0.38,3.69-1.2C305.74,131.66,306.53,130.31,306.87,128.83 M307.4,119.36c0.09-2.25-0.65-4.45-2.09-6.18
			c-2.57-2.71-6.85-2.83-9.56-0.26c-0.13,0.12-0.25,0.25-0.37,0.38c-1.4,1.7-2.1,3.86-1.96,6.06H307.4z"/>
		<path id="Trazado_30681" class="st0" d="M319.41,121.9c0.01-3.15,0.8-6.25,2.3-9.03c1.45-2.82,3.72-5.14,6.51-6.66
			c2.89-1.55,6.12-2.34,9.4-2.3c4.92-0.17,9.69,1.72,13.16,5.21c3.44,3.51,5.29,8.27,5.13,13.17c0.16,4.95-1.72,9.76-5.18,13.3
			c-3.41,3.51-8.14,5.42-13.03,5.28c-3.22,0.01-6.4-0.75-9.27-2.2c-2.86-1.39-5.21-3.64-6.72-6.45
			C320.09,129.03,319.3,125.48,319.41,121.9 M329,122.4c0,3.5,0.83,6.19,2.5,8.06c2.97,3.4,8.14,3.74,11.54,0.77
			c0.27-0.24,0.53-0.5,0.77-0.77c1.65-1.87,2.48-4.57,2.48-8.12c0-3.47-0.83-6.13-2.48-8c-2.97-3.4-8.14-3.74-11.54-0.77
			c-0.27,0.24-0.53,0.5-0.77,0.77C329.84,116.2,329,118.89,329,122.4"/>
	</g>
	<g id="Grupo_16325" transform="translate(90.854 291.841)">
		<path id="Trazado_30682" class="st0" d="M170.26,205.2l-14.38,56.58l31.08-33.72l9.48-36.92L170.26,205.2z"/>
		<path id="Trazado_30683" class="st0" d="M202.55,89.73c1.89,4.96,3.33,10.08,4.31,15.3c1.05,5.46,1.64,11,1.74,16.56
			c0.01,0.62,0.01,1.23,0.01,1.85c0,5.19-0.39,10.38-1.18,15.51c-0.99,6.44-2.56,12.77-4.7,18.93c-2.08,5.96-4.7,11.71-7.83,17.19
			c-3.01,5.3-6.49,10.33-10.4,15c-3.77,4.51-7.94,8.67-12.45,12.44l26.18-14.07c6.09-5.05,11.24-11.13,15.24-17.95
			c2.04-3.52,3.75-7.22,5.09-11.06c1.4-3.94,2.42-8.01,3.06-12.15c0.47-3.25,0.71-6.54,0.71-9.82v-1.4
			c-0.09-3.61-0.5-7.21-1.2-10.76c-0.69-3.43-1.67-6.8-2.93-10.07c-1.23-3.19-2.73-6.27-4.48-9.22
			c-5.9-10.01-11.83-19.97-17.74-29.97C198.57,80.39,200.77,84.98,202.55,89.73"/>
		<path id="Trazado_30684" class="st0" d="M95.01,186.28c-6.72-1.66-12.99-4.78-18.37-9.14c-5.1-4.14-9.34-9.22-12.5-14.98
			c-3.19-5.82-5.37-12.15-6.43-18.7c-1.1-6.91-1.07-13.95,0.11-20.84c1.15-6.98,3.42-13.72,6.72-19.98
			c3.18-6.07,7.3-11.59,12.21-16.36c4.88-4.74,10.54-8.6,16.74-11.41c6.4-2.9,13.34-4.44,20.37-4.53c7.15-0.11,14.23,1.42,20.7,4.46
			c6.56,3.13,12.34,7.68,16.91,13.33c4.92,6.1,8.48,13.19,10.44,20.78c2.18,8.4,2.59,17.16,1.19,25.72
			c-1.35,8.75-4.45,17.14-9.1,24.67c-4.32,7.03-9.98,13.15-16.65,18c-6.19,4.48-13.24,7.63-20.7,9.27
			C109.5,188.12,102.1,188.01,95.01,186.28 M119.16,37.71c-10.99,0.89-21.69,3.94-31.49,8.99c-9.27,4.77-17.69,11.03-24.92,18.54
			c-7.14,7.4-13.14,15.82-17.79,24.99c-4.75,9.39-8.07,19.44-9.83,29.81c-1.78,10.27-1.95,20.75-0.49,31.07
			c1.38,9.93,4.37,19.57,8.85,28.54c4.53,9.06,10.67,17.22,18.13,24.08c8.04,7.35,17.56,12.89,27.92,16.25
			c1.86,0.61,3.71,1.11,5.58,1.58c1.9,0.45,3.78,0.85,5.71,1.16c1.91,0.3,3.84,0.57,5.76,0.72c1.97,0.19,3.91,0.27,5.87,0.29
			l41.71,35.68l14.38-56.58c4.51-3.77,8.68-7.93,12.45-12.44c3.91-4.68,7.39-9.7,10.4-15c3.13-5.48,5.75-11.23,7.83-17.19
			c2.14-6.15,3.71-12.49,4.7-18.93c2.28-14.48,1.29-29.28-2.89-43.33c-3.71-12.53-10.23-24.05-19.05-33.69
			c-8.05-8.76-18.01-15.55-29.11-19.83c-8.71-3.32-17.97-5.02-27.29-5C123.48,37.43,121.33,37.5,119.16,37.71"/>
		<g id="Grupo_16324" transform="translate(30.93 44.007)">
			<path id="Trazado_30685" class="st0" d="M111.04,88.29l12.69,2.81l-52.42,3.69l-12.69-2.8L111.04,88.29z"/>
			<g id="Grupo_16321" transform="translate(48.952)">
				<path id="Trazado_30686" class="st0" d="M45.24,43.07c5.82,4.72,10.04,11.12,12.11,18.32c2.3,8.26,3.39,16.82,3.24,25.39
					l12.68,2.81c0.18-8.57-0.91-17.12-3.23-25.38C67.99,57,63.76,50.59,57.93,45.87c-3.35-2.77-7.32-4.7-11.57-5.63l-12.71-2.8
					C37.91,38.37,41.89,40.3,45.24,43.07"/>
				<g>
					<defs>
						<path id="SVGID_1_" d="M45.24,43.07c5.82,4.72,10.04,11.12,12.11,18.32c2.3,8.26,3.39,16.82,3.24,25.39l12.68,2.81
							c0.18-8.57-0.91-17.12-3.23-25.38C67.99,57,63.76,50.59,57.93,45.87c-3.35-2.77-7.32-4.7-11.57-5.63l-12.71-2.8
							C37.91,38.37,41.89,40.3,45.24,43.07"/>
					</defs>
					<clipPath id="SVGID_2_">
						<use xlink:href="#SVGID_1_"  style="overflow:visible;"/>
					</clipPath>
					<g id="Grupo_16320" class="st1">
						<path id="Trazado_30687" class="st0" d="M70.04,64.21c-1.26-4.38-3.32-8.49-6.07-12.13c-1.74-2.31-3.76-4.4-6.02-6.22
							c-0.15-0.13-0.32-0.23-0.47-0.37c-3.27-2.56-7.07-4.35-11.12-5.26l-12.71-2.8c4.06,0.89,7.86,2.69,11.12,5.27
							c0.16,0.12,0.3,0.25,0.47,0.37c2.25,1.81,4.27,3.89,6.02,6.18c2.74,3.64,4.8,7.76,6.07,12.14c2.32,8.26,3.41,16.81,3.26,25.39
							l12.69,2.81C73.44,81.02,72.35,72.47,70.04,64.21"/>
					</g>
				</g>
			</g>
			<g id="Grupo_16323" transform="translate(27.916 70.491)">
				<path id="Trazado_30689" class="st0" d="M46.16,61.62c-0.35,0.02-0.65,0.02-0.98,0.06c-3.86,0.24-7.74-0.04-11.53-0.83
					l12.69,2.79c3.78,0.8,7.66,1.08,11.52,0.83c0.33,0,0.66-0.03,0.99-0.03c15.57-1.11,27.06-9.18,34.47-24.2l-12.69-2.81
					C73.2,52.47,61.71,60.53,46.16,61.62"/>
				<g>
					<defs>
						<path id="SVGID_3_" d="M46.16,61.62c-0.35,0.02-0.65,0.02-0.98,0.06c-3.86,0.24-7.74-0.04-11.53-0.83l12.69,2.79
							c3.78,0.8,7.66,1.08,11.52,0.83c0.33,0,0.66-0.03,0.99-0.03c15.57-1.11,27.06-9.18,34.47-24.2l-12.69-2.81
							C73.2,52.47,61.71,60.53,46.16,61.62"/>
					</defs>
					<clipPath id="SVGID_4_">
						<use xlink:href="#SVGID_3_"  style="overflow:visible;"/>
					</clipPath>
					<g id="Grupo_16322" class="st2">
						<path id="Trazado_30690" class="st0" d="M77.75,42.6c1.05-1.66,2.01-3.38,2.88-5.14"/>
						<path id="Trazado_30691" class="st0" d="M80.63,37.45l12.69,2.79c-0.87,1.77-1.84,3.5-2.89,5.17"/>
						<path id="Trazado_30692" class="st0" d="M77.75,42.6"/>
						<path id="Trazado_30693" class="st0" d="M56.69,59.63c4.44-1.44,8.57-3.72,12.15-6.71"/>
						<path id="Trazado_30694" class="st0" d="M81.52,55.74c-3.59,2.98-7.71,5.25-12.15,6.7"/>
						<path id="Trazado_30695" class="st0" d="M68.84,52.92"/>
						<path id="Trazado_30696" class="st0" d="M69.36,62.45c-3.41,1.07-6.94,1.74-10.51,1.99c-0.32,0-0.66,0.03-0.99,0.03
							c-2.87,0.18-5.74,0.08-8.59-0.3l-12.69-2.8c2.85,0.38,5.72,0.48,8.59,0.32c0.33,0,0.64-0.04,0.98-0.06
							c3.58-0.22,7.12-0.89,10.53-1.98"/>
						<path id="Trazado_30697" class="st0" d="M56.69,59.63"/>
						<path id="Trazado_30698" class="st0" d="M36.59,61.36l12.71,2.8c-1.01-0.14-2-0.3-2.96-0.53l-12.69-2.79
							C34.62,61.04,35.59,61.23,36.59,61.36"/>
					</g>
				</g>
			</g>
			<path id="Trazado_30700" class="st0" d="M91.13,99.82l12.71,2.79l17.39,5.86l-12.69-2.79L91.13,99.82z"/>
			<path id="Trazado_30701" class="st0" d="M73.54,112.27c5.36-0.38,10.81-4.27,16.33-11.64l17.4,5.86
				c-7.41,15.02-18.9,23.07-34.45,24.16c-0.35,0.02-0.65,0.02-0.98,0.06c-11.94,0.64-21.26-2.85-27.99-10.42
				c-6.91-7.76-10.31-18.38-10.2-31.85c0.1-13.74,3.75-25.44,10.97-35.12c7.24-9.7,16.4-14.93,27.49-15.7
				c0.24-0.02,0.47-0.02,0.7-0.05c7.27-0.55,14.47,1.7,20.12,6.3c5.82,4.72,10.04,11.12,12.08,18.32c2.31,8.26,3.41,16.82,3.26,25.4
				L55.86,91.3c0.3,8.06,2.28,13.64,5.94,16.75c3.63,3.01,7.42,4.45,11.48,4.22L73.54,112.27 M70.84,56.53
				c-8.23,0.59-13.07,6.9-14.51,18.94l29.43-2.06c-0.31-4.47-1.87-8.77-4.51-12.39c-2.34-3.19-6.2-4.89-10.13-4.49H70.84"/>
			<path id="Trazado_30702" class="st0" d="M70.7,72.79l-13.33,0.81c0,0,3.03-19.16,17.59-15.6C74.96,58.01,68.23,65.59,70.7,72.79z
				"/>
			<path id="Trazado_30703" class="st0" d="M69.17,95.4l-12.06-2.66c0,0,2.28,19.51,16.96,17.87
				C74.08,110.61,68.01,102.34,69.17,95.4z"/>
		</g>
	</g>
</g>
</svg>
