<?xml version="1.0" encoding="utf-8"?>
<!-- Generator: Adobe Illustrator 25.1.0, SVG Export Plug-In . SVG Version: 6.00 Build 0)  -->
<svg version="1.1" id="Capa_1" xmlns="http://www.w3.org/2000/svg" xmlns:xlink="http://www.w3.org/1999/xlink" x="0px" y="0px"
	 viewBox="0 0 750 500" style="enable-background:new 0 0 750 500;" xml:space="preserve">
<style type="text/css">
	.st0{fill:#E0E0E0;}
	.st1{fill:#FFFFFF;}
	.st2{fill:#F5F5F5;}
	.st3{fill:#EBEBEB;}
	.st4{fill:#FAFAFA;}
	.st5{fill:#455A64;}
	.st6{fill:#263238;}
	.st7{fill:#FF671D;}
	.st8{opacity:0.8;}
	.st9{opacity:0.4;}
	.st10{opacity:0.6;}
	.st11{opacity:0.3;}
	.st12{fill:#FFBF9D;}
	.st13{fill:#7C5142;}
	.st14{opacity:0.3;enable-background:new    ;}
	.st15{opacity:0.5;}
	.st16{fill:#FF725E;}
	.st17{fill:none;}
	.st18{opacity:0.2;}
</style>
<path class="st0" d="M660.5,152.6c-0.5-0.3-0.9-0.7-1.3-1.1c-0.8-0.7-1.8-1.8-2.9-2.9s-2.1-2.2-2.8-3c-0.4-0.4-0.8-0.8-1.1-1.3
	c0.5,0.3,0.9,0.7,1.3,1.1c0.8,0.7,1.8,1.8,2.9,2.9s2.1,2.2,2.9,3C659.8,151.6,660.2,152.1,660.5,152.6z"/>
<polygon class="st0" points="596.3,44.5 596.3,120.1 487.8,120.1 483.9,45 "/>
<rect x="483.9" y="45" class="st1" width="108.5" height="74.9"/>
<path class="st0" d="M592.9,120.4H483.4V44.5h109.5V120.4z M484.4,119.4h107.5V45.6H484.4V119.4z"/>
<rect x="495.6" y="54.3" class="st1" width="85" height="56.3"/>
<path class="st0" d="M580.7,54.3h-0.4H579h-4.7l-17.5,0.1l-61.2,0.1l0.2-0.2c0,17.2,0,36.2,0,56.2l0,0l-0.3-0.3h85l-0.2,0.2
	c0-17.1,0.1-31.2,0.1-40.9c0-4.9,0-8.7,0-11.3c0-1.3,0-2.3,0-3s0-1,0-1s0,0.3,0,1s0,1.7,0,2.9c0,2.6,0,6.4,0.1,11.3
	c0,9.8,0.1,23.9,0.1,41.1v0.2h-0.2l-85,0.1h-0.3v-0.3l0,0c0-20,0-39.1,0-56.2V54h0.2l61.4,0.1l17.5,0.1h4.6h1.2L580.7,54.3z"/>
<path class="st0" d="M483.9,44.8c0.7,0.3,1.3,0.7,1.9,1.2c1.1,0.8,2.6,1.9,4.3,3.2s3.1,2.5,4.1,3.5c0.6,0.5,1.1,1,1.5,1.6
	c-2.1-1.4-4.1-3-6-4.6C487.6,48.2,485.7,46.6,483.9,44.8z"/>
<path class="st0" d="M592.4,45c-1.8,1.8-3.7,3.4-5.7,4.9c-1.9,1.6-3.9,3.1-6,4.4c1.8-1.8,3.7-3.4,5.7-4.9
	C588.3,47.9,590.3,46.4,592.4,45z"/>
<path class="st1" d="M592.3,119.9l-12.1-9.8"/>
<path class="st0" d="M580.2,110.1c2.2,1.4,4.2,3,6.2,4.7c2.1,1.6,4,3.3,5.9,5.1c-2.2-1.4-4.2-3-6.2-4.7
	C584,113.7,582.1,112,580.2,110.1z"/>
<path class="st0" d="M483.9,119.9c1.8-1.7,3.7-3.3,5.6-4.8c1.9-1.6,3.9-3.1,6-4.4c-1.8,1.7-3.7,3.3-5.6,4.8
	C488,117.1,486,118.6,483.9,119.9z"/>
<rect x="512.9" y="71.9" class="st0" width="53.5" height="18.8"/>
<path class="st2" d="M141.3,50.9l-34.1-12.3L73.5,50.7c-4.3,2-8.1,3.3-8.1,7.3v20.1c-0.1,14.1,3.8,27.9,11.1,40
	c7.3,12.1,18.1,21.8,31,27.6c13.8-4.5,24.1-16.5,30.4-26.8c7.3-12.1,11.2-25.9,11.1-40V60.8C149.1,55.1,146,52.3,141.3,50.9z"/>
<path class="st3" d="M107.6,134.1c-10.2-4.7-18.8-12.3-24.6-22c-5.8-9.5-8.8-20.5-8.8-31.7V66.3c0-3.2,1.9-6.2,5.7-8L107.3,48v-9.4
	L73.5,50.7C70,52.3,65.4,54,65.4,58v20.1c-0.1,14.1,3.8,27.9,11.1,40c7.3,12.1,18.1,21.8,31,27.6L107.6,134.1z"/>
<path class="st0" d="M107.6,145.8c2.3-0.8,4.6-1.7,6.7-2.9c5.3-3,10-6.8,14.2-11.2c3.8-4.1,7.1-8.5,9.9-13.3
	c7.4-12.1,11.2-26.2,10.8-40.4V61.3c0-8.3-4.2-8.9-7.8-10.4l-34-12.3v9.5L135,58.5c3.8,1.8,5.7,4.8,5.7,8v14.1
	c0.1,11.2-3,22.1-8.8,31.7c-5,8.1-12.3,16.5-24.2,21.8L107.6,145.8z"/>
<path class="st0" d="M116.3,79.5v-2.7c0-4.9-4-8.8-8.8-8.8c-4.9,0-8.8,4-8.8,8.8v2.8c-2.4,0.4-4.2,2.5-4.2,4.9v16c0,2.8,2.2,5,5,5
	H116c2.8,0,5-2.2,5-5v-16C120.9,81.9,118.9,79.7,116.3,79.5z M109.9,96.5h-4.3l0.7-3.1c-1.2-0.8-1.6-2.4-0.8-3.6
	c0.8-1.2,2.4-1.6,3.6-0.8s1.6,2.4,0.8,3.6c-0.2,0.3-0.5,0.6-0.8,0.8L109.9,96.5z M114.4,79.5h-13.9v-2.7c0-3.8,3.1-6.9,6.9-6.9
	s6.9,3.1,6.9,6.9l0,0L114.4,79.5z"/>
<path class="st1" d="M79.8,79.3c-0.3-0.9-0.5-1.8-0.5-2.8C79,74.3,78.9,72,79,69.7c0-1.3,0.1-2.6,0.2-3.8c0.1-1,0.3-2.1,0.8-3
	c0.3-0.6,0.8-1.2,1.5-1.5c0.5-0.2,0.8-0.2,0.8-0.2c-0.8,0.4-1.5,1-1.9,1.9c-0.4,1-0.6,1.9-0.6,2.9c-0.1,1.1-0.2,2.4-0.2,3.7
	c-0.1,2.6,0,5,0.1,6.8C79.8,77.5,79.8,78.4,79.8,79.3z"/>
<path class="st1" d="M80.3,88.1c-0.2,0-0.3-0.8-0.3-1.8s0.1-1.8,0.3-1.8s0.3,0.8,0.3,1.8S80.4,88.1,80.3,88.1z"/>
<path class="st0" d="M638.2,374.7c-4.4-2.8-9.4-4.5-14.6-5c-2.4-0.2-5-0.2-6.9,1.3c-0.5,0.3-0.7,0.7-0.7,1.3
	c0.1,0.4,0.4,0.7,0.7,0.9C622.5,377.6,631.5,378.2,638.2,374.7"/>
<path class="st0" d="M637.8,374.2c-3.4-2.5-6.5-5.3-9.4-8.3c-2.9-3.1-4.9-6.8-5.9-10.9c-0.4-1.2-0.2-2.6,0.5-3.7
	C630.4,357.2,636.3,364.8,637.8,374.2"/>
<path class="st0" d="M638.1,374.6c-0.7-4.1-0.6-8.3,0.2-12.4s3.2-7.8,6.6-10.2c1.3,3,0.7,6.5-0.2,9.7c-1.4,4.9-3.6,9.6-6.5,13.8"/>
<path class="st0" d="M645.5,387.8c-4.5,0.5-8.4,2.9-11.7,5.9c-3.4,3.1-5.7,7.1-6.7,11.5c4.4-0.3,8.1-3.4,10.8-6.8
	S642.4,391.1,645.5,387.8"/>
<path class="st0" d="M647,389.9c-3.6-9.1-2.3-19.4,3.3-27.4C653,371.7,652,381.9,647,389.9"/>
<path class="st0" d="M656.8,401.5c-8.4-0.5-16.2,4-20,11.5c-0.3,0.5-0.4,1.1-0.1,1.6c0.4,0.3,0.9,0.5,1.3,0.4
	c3.9-0.3,7.4-2.6,10.3-5.3S653.7,403.9,656.8,401.5"/>
<path class="st0" d="M656.5,400.9c-2.1-6.8-2.2-14-0.4-20.8c0.7-2.7,2-5.5,4.4-6.8c0.2-0.1,0.4-0.2,0.7-0.1c0.2,0.1,0.4,0.3,0.4,0.5
	c0.8,1.9,1.2,3.9,1,6c-0.1,2-0.5,4.1-0.9,6c-0.8,3.7-1.2,7.7-3.2,10.8c-0.5,0.8-0.9,1.6-1.3,2.4c-0.4,0.8-0.4,1.1-0.7,1.7"/>
<path class="st0" d="M682.3,404.8c-1.9-7.3,0.1-16.1,4.7-22c0.3-0.4,0.8-0.9,1.3-0.9c0.8,0.1,1.1,1.2,1,2
	C689,391.3,686.5,398.6,682.3,404.8"/>
<path class="st0" d="M684.6,406.4c9.1,2.2,18.8,0.2,26.4-5.4c-4.4-2.2-9.4-2.8-14.2-1.8C692,400.3,687.6,402.5,684.6,406.4"/>
<path class="st0" d="M686.6,401.5c5-8.1,14.4-13.3,23.9-13.8c-1.1,3.9-4.2,6.8-7.8,8.6s-7.5,2.6-11.5,3.4
	C689.7,400,687.6,400.3,686.6,401.5"/>
<path class="st0" d="M682.8,378c1.5-4.5,2.5-9.2,3-14c0.4-4.8-0.3-9.7-2.8-13.8c-4.6,9-5.1,19.4-0.4,28.3"/>
<path class="st0" d="M698.4,370.1c5.4-9.8,16.4-17.7,27.6-18.8C721.6,362.1,709.9,370.4,698.4,370.1"/>
<path class="st0" d="M695,372.1c8.1,1.2,14.9,6.4,22.5,9.5c1.6,0.8,3.3,1.1,5.1,1c2.2-0.1,3.9-1.9,3.8-4.1c0-1.1-0.5-2.1-1.4-2.9
	c-1.1-1-2.3-1.7-3.7-2.2c-8.2-3.4-17-3.5-25.7-1.4"/>
<path class="st0" d="M690.3,377.7c1.8,0.5,2.5,1.5,3.9,2.7c4.9,4.2,10.7,7.2,17,8.8c0.7,0.2,1.5,0.2,1.8-0.4s-0.1-1.1-0.4-1.6
	c-2.7-3.2-6.3-5.6-10.3-7c-3.9-1.5-7.3-3.2-12-2.9"/>
<path class="st0" d="M685,343.6c6.7,6.2,15.7,9.2,24.8,8.4c0.4,0,0.8-0.1,1.1-0.4c0.6-0.7-0.1-1.7-0.8-2.3
	C702.8,343.6,693.9,341.3,685,343.6"/>
<path class="st0" d="M691.3,341.3c8.9-6.5,20.3-8.4,30.8-5.1c-4,3.7-9.2,6-14.7,6.5C702,343.1,696.5,342.7,691.3,341.3"/>
<path class="st0" d="M688.8,325.6c-0.7-7.2-0.2-13-0.8-20.3c0-0.6-0.2-1.3-0.7-1.5c-0.8-0.3-1.4,0.6-1.6,1.4
	c-2.1,6.8-1,14.3,3.1,20.2"/>
<path class="st0" d="M688.3,326.4c4.7-3.1,8.8-7,12-11.7c2.4-3.2,4.4-7.1,3.8-11.1c-3.4,0.1-6.6,1.7-8.7,4.3
	c-2.1,2.6-3.6,5.7-4.4,8.9C690,320,689.4,323.3,688.3,326.4"/>
<path class="st0" d="M700.1,323.1c10.8-4,20.8-9.9,29.6-17.4c-3.5-1.4-7.6-0.6-11.1,0.9C710.6,309.6,704,315.5,700.1,323.1"/>
<path class="st0" d="M691.6,330.4c5.5,0.6,11,1,16.4,0.1s10.3-3,15.3-5.1c0.4-0.1,0.8-0.4,1-0.8c0.2-0.5,0-1-0.4-1.3
	s-0.8-0.5-1.3-0.6c-5.4-1.5-11.2-0.8-16.6,1C701,325.4,696.1,327.6,691.6,330.4"/>
<path class="st0" d="M660.4,343.8c-3.7-7.5-3.5-16.3-0.3-24c2.3,3.5,2.5,7.9,2.1,12s-1.7,8.3-1.8,12.5"/>
<path class="st0" d="M645.5,336.3c-9.4-0.1-18.5,3.7-24.9,10.6c4.7,0.6,9.5-0.3,13.6-2.5c4.2-2.2,8.1-4.8,11.7-7.8"/>
<path class="st0" d="M635.5,333c-4.5-0.4-8.9-0.9-13.3,0.4c-4.5,1.3-8.2,4.4-10.1,8.6c4.3,0.3,8.6-0.5,12.5-2.4
	C628.4,337.8,632.1,335.5,635.5,333"/>
<path class="st0" d="M650.3,333.1c-4.1-2.7-8.3-5.4-13.1-6.5s-10.3-0.3-13.6,3.3c3.9,2.3,8.5,2.5,13,2.5s10,0,14.2,1.4"/>
<path class="st0" d="M650.4,333.3c-7-6.9-9.7-19.2-6.8-28.6C649.1,313.2,651.5,323.3,650.4,333.3"/>
<path class="st0" d="M669.6,313.9c1.3-3.1,2.2-6.3,3.4-9.4c1.1-3.2,2.7-6.1,4.9-8.7s5.3-4.2,8.7-4.5c-2.2,9.6-8.3,17.8-16.8,22.6"/>
<path class="st0" d="M666.1,317.9c-2.2-3-4.7-7.1-7.7-9.3s-6.8-3.6-10.4-2.7C651.8,312.5,658.5,317,666.1,317.9"/>
<path class="st0" d="M666.8,314.1c-1.6-3.6-2.7-7.3-3.5-11.2c-0.7-3.9-0.1-7.9,1.8-11.4c3.8,7.3,5.1,15.1,1.9,22.6"/>
<path class="st0" d="M669.6,291.6c2.2-7.2,8.8-12.5,15.9-14.9c0.9-0.4,1.8-0.5,2.8-0.4s1.8,0.8,2,1.7c0.3,1.2-0.8,2.3-1.7,3.1
	C683.1,285.8,676.6,289.4,669.6,291.6"/>
<path class="st0" d="M669.7,285.7c0.3-4.6,0.6-9.4,2.1-13.8s4.4-8.5,8.7-10.4c0.7,4.7-1.3,9.4-3.8,13.4s-5.5,7.8-7,12.3"/>
<path class="st0" d="M669.6,288.9c-1.8-5.2-2-11.9-5.1-16.5c-2.2-3.2-5.7-5.4-7.6-8.8c-1.1,3.2-1,6.8,0.4,9.9s3.4,5.9,5.8,8.3
	C665.5,284.4,667.5,286.3,669.6,288.9"/>
<path class="st0" d="M669.6,443.3c-0.1,0-0.3-35-0.3-78.1s0.1-78.1,0.2-78.1s0.3,35,0.3,78.1S669.8,443.3,669.6,443.3z"/>
<path class="st0" d="M700.2,338.5c-0.4,0.2-0.9,0.4-1.3,0.5l-3.6,1.2c-3,1-7.2,2.5-11.8,4.4s-8.8,3.5-11.2,5.6c-1,0.8-1.7,1.8-2.2,3
	c-0.3,0.8-0.4,1.3-0.5,1.3s0-0.1,0-0.4c0.1-0.3,0.1-0.7,0.3-1c0.5-1.2,1.2-2.3,2.2-3.2c1.5-1.2,3.1-2.2,4.8-3
	c1.9-0.9,4.1-1.9,6.4-2.8c4.6-1.9,8.8-3.3,11.9-4.3c1.5-0.5,2.8-0.8,3.7-1.1C699.3,338.7,699.7,338.6,700.2,338.5z"/>
<path class="st0" d="M710.2,313.9c0,0-0.1,0.1-0.4,0.4l-1.1,1l-4.2,3.8l-14,12.4c-5.5,4.9-10.2,9.5-13.4,13
	c-1.6,1.7-2.9,3.2-3.8,4.2l-1,1.2c-0.1,0.1-0.2,0.3-0.4,0.4c0.1-0.2,0.2-0.3,0.3-0.5c0.2-0.3,0.5-0.7,1-1.2c0.8-1,2.1-2.5,3.7-4.3
	c4.2-4.6,8.7-9,13.3-13.1c5.5-4.8,10.4-9.2,14-12.3l4.3-3.7l1.2-1C710,314.1,710.1,314,710.2,313.9z"/>
<path class="st0" d="M684.7,336.5c-0.1-0.1,1-2.7,2.1-6s1.7-6.1,1.8-6.1c-0.1,2.1-0.6,4.3-1.3,6.3c-0.5,1.4-1.1,2.8-1.7,4.2
	C685.4,335.5,685.1,336,684.7,336.5z"/>
<path class="st0" d="M669.7,357.7c-0.3-0.3-0.6-0.6-0.8-1l-2.1-2.7c-1.8-2.3-4.3-5.6-7.1-9.1s-5.4-6.7-7.2-9l-2.2-2.7
	c-0.3-0.3-0.5-0.6-0.8-1c0.3,0.3,0.6,0.6,0.9,0.9c0.6,0.6,1.4,1.5,2.3,2.6c1.9,2.2,4.6,5.4,7.4,8.9s5.3,6.8,7,9.2
	c0.9,1.2,1.6,2.2,2,2.9C669.2,357,669.5,357.3,669.7,357.7z"/>
<path class="st0" d="M663,349.1c-1.4-1.5-2.3-3.3-2.8-5.3c-0.5-1.7-0.7-3.5-0.6-5.3h0.2c-0.1,0.4-0.2,0.6-0.2,0.6c0-0.2,0-0.4,0-0.6
	h0.2c0.1,1.7,0.4,3.5,0.9,5.2C661.3,345.5,662.1,347.3,663,349.1z"/>
<path class="st0" d="M654.3,338.2c-0.6-0.5-1.3-0.8-2-1.1c-1.8-0.5-3.6-0.7-5.4-0.4c-1.8,0.1-3.7,0.4-5.5,0.9
	c-0.7,0.2-1.5,0.4-2.3,0.5c0.7-0.4,1.4-0.7,2.2-0.9c1.8-0.5,3.7-0.9,5.5-1c1.9-0.3,3.8,0,5.6,0.6C653.2,337,653.9,337.5,654.3,338.2
	z"/>
<path class="st0" d="M652.3,335.6c0,0.1-1.1-0.5-3-1.1c-4.9-1.7-10.1-2.1-15.1-1.1c-1.9,0.3-3.1,0.7-3.1,0.6
	c0.3-0.1,0.5-0.3,0.8-0.3c0.7-0.3,1.5-0.5,2.3-0.6c5.1-1.1,10.4-0.7,15.3,1.2c0.7,0.3,1.5,0.6,2.2,1
	C652,335.4,652.3,335.5,652.3,335.6z"/>
<path class="st0" d="M669.6,324.4c-0.9-2.5-1.6-5-2.2-7.6c-0.7-2.5-1.3-5.1-1.7-7.7c0.9,2.5,1.6,5,2.2,7.6
	C668.6,319.2,669.2,321.8,669.6,324.4z"/>
<path class="st0" d="M669.8,324.4c-0.7-1.6-1.5-3.1-2.4-4.6c-1-1.4-2.2-2.6-3.6-3.7c0.5,0.1,1,0.4,1.4,0.7c1,0.7,1.9,1.7,2.6,2.7
	C668.8,321,669.5,322.6,669.8,324.4z"/>
<path class="st0" d="M669.6,424.7c0,0-0.2-0.8-0.5-2.3c-0.6-2.1-1.4-4.1-2.3-6c-2.4-4.9-6.8-11.2-12.4-17.5c-2.8-3.2-5.5-6.1-7.7-9
	c-2-2.5-3.9-5.2-5.5-8c-1.1-1.9-2-3.9-2.8-5.9c-0.2-0.7-0.4-1.3-0.5-1.7c-0.1-0.2-0.1-0.4-0.2-0.6c0,0,0.3,0.8,0.9,2.2
	c0.8,2,1.8,4,2.9,5.8c1.7,2.8,3.5,5.4,5.6,7.9c2.3,2.8,5,5.8,7.8,9c5.6,6.3,10,12.6,12.3,17.6c1,2,1.7,4,2.2,6.2
	c0.1,0.6,0.2,1.2,0.3,1.8C669.6,424.3,669.6,424.5,669.6,424.7z"/>
<path class="st0" d="M697.3,393.5c-0.5,0.3-0.9,0.6-1.5,0.8c-1.3,0.7-2.6,1.6-3.8,2.5c-1.8,1.4-3.4,2.9-4.9,4.5
	c-1.7,1.8-3.5,4-5.3,6.2c-3.6,4.6-7,8.6-9.1,11.8c-1,1.6-1.8,3-2.3,3.9c-0.2,0.5-0.5,1-0.8,1.5c0-0.1,0.1-0.3,0.1-0.4
	c0.1-0.3,0.2-0.6,0.5-1.1c0.6-1.4,1.4-2.7,2.2-4c2-3.3,5.3-7.4,9-12c1.8-2.3,3.6-4.4,5.4-6.2c1.6-1.6,3.2-3.1,5-4.5
	c1.2-0.9,2.5-1.7,3.9-2.4c0.5-0.2,0.9-0.4,1.1-0.5C697,393.5,697.1,393.5,697.3,393.5z"/>
<path class="st0" d="M697.8,403.6c-1,0.2-2,0.4-3.1,0.4c-2.5,0.3-4.9,0.7-7.3,1.4c-2.3,0.8-4.5,1.9-6.5,3.4
	c-1.5,1.2-2.2,2.1-2.3,2.1c0.1-0.3,0.3-0.5,0.5-0.7c0.5-0.6,1-1.1,1.6-1.6c1.9-1.6,4.2-2.8,6.6-3.6c2.4-0.7,4.9-1.2,7.4-1.3
	C695.7,403.6,696.8,403.5,697.8,403.6z"/>
<path class="st0" d="M679.6,409.8c-0.2-0.1,1.2-2.2,2.3-5s1.2-5.4,1.4-5.3c0.1,0.5,0.1,1.1,0,1.6c-0.1,1.3-0.4,2.6-0.9,3.9
	c-0.5,1.2-1.1,2.4-1.8,3.5C680.3,409,680,409.5,679.6,409.8z"/>
<path class="st0" d="M706.2,366.3c-0.1,0.1-0.3,0.2-0.5,0.3l-1.4,0.7c-0.6,0.3-1.4,0.6-2.2,1.1s-1.9,0.9-2.9,1.5l-1.7,1
	c-0.6,0.3-1.2,0.7-1.8,1.1c-1.2,0.8-2.5,1.7-3.8,2.6c-5.6,4.2-10.6,9.3-14.6,15.1c-0.9,1.4-1.8,2.6-2.5,3.9c-0.4,0.6-0.7,1.2-1,1.8
	s-0.6,1.2-0.9,1.7c-0.6,1.1-1,2.1-1.4,3s-0.7,1.6-1,2.3l-0.6,1.5c-0.1,0.2-0.1,0.3-0.2,0.5c0-0.2,0.1-0.4,0.2-0.5l0.5-1.5
	c0.2-0.6,0.5-1.4,0.9-2.3s0.8-1.9,1.4-3c0.3-0.6,0.6-1.1,0.9-1.7s0.7-1.2,1-1.8c0.7-1.3,1.6-2.5,2.5-3.9c4-5.8,9-11,14.7-15.2
	c1.3-0.9,2.6-1.9,3.8-2.6c0.6-0.4,1.2-0.8,1.8-1.1l1.7-0.9c1.1-0.6,2.1-1.1,3-1.5s1.7-0.8,2.3-1l1.5-0.6
	C705.9,366.4,706,366.4,706.2,366.3z"/>
<path class="st0" d="M684.3,381c0.2-0.7,0.6-1.3,1.2-1.8c1.3-1.2,3.1-1.8,4.8-1.9c1.7,0,3.5,0.3,5.1,1c0.7,0.2,1.3,0.5,1.9,0.9
	c-0.7-0.1-1.4-0.3-2-0.6c-1.6-0.5-3.3-0.8-5-0.8s-3.3,0.6-4.6,1.6C685.3,380,684.8,380.5,684.3,381z"/>
<path class="st0" d="M681.1,384.3c0.6-1.4,1.1-2.9,1.4-4.5c0.1-1.6,0-3.1-0.3-4.7c0.1,0,0.3,0.5,0.6,1.3c0.3,1.1,0.4,2.3,0.2,3.4
	c-0.1,1.1-0.5,2.3-1,3.3C681.8,383.6,681.5,384,681.1,384.3z"/>
<path class="st0" d="M645.5,429.7c0.8,13.4,4.8,27,11,40.7h27c5.9-13.6,9.7-27.2,10.3-40.7H645.5z"/>
<path class="st4" d="M689.4,451.3c0,0.1-8.9,0.2-19.8,0.2s-19.8-0.1-19.8-0.2s8.9-0.2,19.8-0.2S689.4,451.2,689.4,451.3z"/>
<path class="st4" d="M688.8,456.2c0,0.1-8.3,0.2-18.6,0.2s-18.6-0.1-18.6-0.2s8.3-0.3,18.6-0.3S688.8,456,688.8,456.2z"/>
<path class="st4" d="M656.9,438.5c0.3,4.1,0.3,8.3,0,12.4C656.6,446.8,656.6,442.6,656.9,438.5z"/>
<path class="st4" d="M671.3,438.5c0.3,4.3,0.3,8.6,0,12.9C671,447.1,671,442.8,671.3,438.5z"/>
<path class="st4" d="M684.9,438.4c0.3,4.4,0.3,8.8,0,13.1C684.6,447.1,684.6,442.7,684.9,438.4z"/>
<path class="st4" d="M692.9,438.5c0,0.1-10.4,0.3-23.2,0.3s-23.2-0.1-23.2-0.3s10.4-0.2,23.2-0.2S692.9,438.3,692.9,438.5z"/>
<path class="st5" d="M543.3,92.2H115.2c-7.4,0-13.4,6-13.4,13.4V408c0,7.4,6,13.4,13.4,13.4h164.3c0,0,10.5,32.3-22,49h153.7
	c0,0-36.6-12.5-27.2-49h159.3c7.4,0,13.4-6,13.4-13.4V105.5C556.6,98.1,550.7,92.2,543.3,92.2z"/>
<path class="st0" d="M118.9,97.7h420.7c5.4,0,9.7,4.3,9.7,9.7l0,0V366l0,0H109.2l0,0V107.4C109.2,102,113.5,97.7,118.9,97.7
	L118.9,97.7z"/>
<rect x="157.1" y="106.4" class="st1" width="340.4" height="250.9"/>
<path class="st6" d="M498,357.8H156.6V105.9H498V357.8z M157.6,356.8H497V106.9H157.6V356.8z"/>
<path class="st7" d="M347.8,134l-18.6-6.8l-18.4,6.8c-2.4,1.1-4.4,1.8-4.4,4.1v11.2c0,7.8,2.1,15.5,6.1,22.2
	c3.9,6.7,9.8,12.1,16.9,15.3c7.5-2.5,13.1-9.2,16.5-14.9c4-6.7,6.1-14.4,6.1-22.2v-10C352.1,136.3,350.4,134.8,347.8,134z"/>
<g class="st8">
	<path class="st1" d="M347.8,134l-18.6-6.8l-18.4,6.8c-2.4,1.1-4.4,1.8-4.4,4.1v11.2c0,7.8,2.1,15.5,6.1,22.2
		c3.9,6.7,9.8,12.1,16.9,15.3c7.5-2.5,13.1-9.2,16.5-14.9c4-6.7,6.1-14.4,6.1-22.2v-10C352.1,136.3,350.4,134.8,347.8,134z"/>
</g>
<g class="st9">
	<path d="M343,163.1h-4.1v-22.5c0-5.3-4.3-9.6-9.6-9.6c-5.3,0-9.6,4.3-9.6,9.6v22.5h-4.1v-22.5c0-7.6,6.1-13.7,13.7-13.7
		S343,133,343,140.6V163.1z"/>
</g>
<g id="freepik--Floor--inject-54">
	<path class="st6" d="M705,470.3c0,0.1-147.2,0.3-328.7,0.3s-328.8-0.1-328.8-0.3s147.2-0.3,328.8-0.3S705,470.2,705,470.3z"/>
</g>
<path class="st7" d="M653.1,437l11.2,20l13.4,13.3c0.9,0.9,0.9,2.4,0,3.3l-0.1,0.1l0,0c-0.6,0.5-1.3,0.7-2.1,0.5
	c-4.7-1.1-22.1-5.3-22.8-6.8c-0.8-1.8-13.2-20.3-13.2-20.3L653.1,437z"/>
<g class="st10">
	<path class="st1" d="M677.6,473.7l-25.6-7.6l0.5,0.8c0.4,0.7,1.1,1.3,1.9,1.5c2.1,0.7,8,2.6,21.1,5.8
		C676.3,474.4,677.1,474.2,677.6,473.7L677.6,473.7z"/>
</g>
<g class="st10">
	<path class="st1" d="M652.3,457.3c0.7,0.1,1.3,0.7,1.3,1.4c0,0.7-0.7,1.3-1.4,1.3c-0.8-0.1-1.3-0.7-1.3-1.5
		c0.1-0.8,0.8-1.3,1.6-1.2"/>
</g>
<path class="st6" d="M668,467.7c0.1-0.9,0.4-1.8,0.8-2.6c0.5-0.7,1.2-1.3,2-1.8c0-0.1-0.3-0.1-0.8,0.1c-0.7,0.3-1.2,0.8-1.6,1.4
	c-0.4,0.6-0.6,1.3-0.6,2C667.8,467.4,668,467.7,668,467.7z"/>
<path class="st6" d="M671,469.5c0.1,0,0.4-1,1.2-1.9s1.8-1.2,1.8-1.4s-1.2,0-2.2,1S670.9,469.5,671,469.5z"/>
<path class="st6" d="M663.4,465.9c0.5-1,1.1-2,1.7-3c0.8-0.9,1.6-1.7,2.5-2.4c-1.2,0.3-2.2,1.1-2.9,2.1
	C663.9,463.5,663.4,464.6,663.4,465.9z"/>
<path class="st6" d="M659.5,460.1c0.1,0.1,0.9-1,2.3-1.9s2.7-1.2,2.7-1.4c-1.1-0.1-2.1,0.3-3,0.9
	C660.6,458.3,659.9,459.1,659.5,460.1z"/>
<path class="st6" d="M656.1,454.3c0.7-0.8,1.5-1.5,2.4-2c1-0.4,2-0.7,3-0.9c0-0.1-0.3-0.2-1-0.2c-0.8,0-1.6,0.2-2.3,0.6
	s-1.3,0.9-1.8,1.6C656.1,453.9,656,454.3,656.1,454.3z"/>
<path class="st6" d="M657.8,451.2c-0.1-0.3-0.2-0.5-0.4-0.8c-0.5-0.6-1.1-1.2-1.7-1.6c-0.5-0.3-1.1-0.5-1.6-0.5
	c-0.4,0.1-0.7,0.3-0.8,0.7c-0.1,0.4,0,0.8,0.2,1.1c0.9,1.3,2.6,1.8,4.1,1.2c1.4-0.7,2.3-2.1,2.2-3.7c0-0.4-0.2-0.8-0.5-1
	s-0.8-0.2-1.1,0.1c-0.4,0.4-0.7,0.9-0.9,1.5c-0.3,0.7-0.4,1.5-0.4,2.3c0,0.3,0,0.6,0.1,0.9c0.1-1,0.3-2.1,0.7-3.1
	c0.2-0.5,0.4-0.9,0.8-1.2c0.2-0.1,0.4-0.1,0.6,0c0.2,0.2,0.3,0.4,0.3,0.7c0,1.4-0.8,2.6-2,3.1s-2.7,0.1-3.5-0.9
	c-0.1-0.2-0.2-0.5-0.2-0.8c0-0.2,0.2-0.4,0.4-0.4c0.5,0,1,0.1,1.4,0.4C656.3,449.7,657.1,450.4,657.8,451.2z"/>
<path class="st7" d="M627.8,443.3l-4.6,16.4c0,0,15.1,10.1,14.6,13.3l-32.1-7.7l6-25.8L627.8,443.3z"/>
<g class="st10">
	<path class="st1" d="M613.7,455.9c-0.7,0-1.2,0.6-1.3,1.3c0,0.7,0.6,1.2,1.3,1.3c0.7,0,1.3-0.6,1.3-1.4c-0.1-0.7-0.7-1.2-1.5-1.2"
		/>
</g>
<g class="st10">
	<path class="st1" d="M605.8,465.3l0.7-2.6L637,471c0,0,1.3,1,0.9,1.9L605.8,465.3z"/>
</g>
<path class="st6" d="M623.8,459.7c0,0.2-0.8,0-1.7,0.4s-1.5,0.9-1.6,0.8s0.3-1,1.4-1.3S623.9,459.5,623.8,459.7z"/>
<path class="st6" d="M626.9,461.9c0,0.2-0.8,0.3-1.4,0.8s-1,1.2-1.2,1.2s0-1,0.8-1.6S626.9,461.7,626.9,461.9z"/>
<path class="st6" d="M627.8,466.4c-0.2,0-0.2-0.8,0.4-1.6s1.4-0.9,1.5-0.8s-0.5,0.5-1,1.1S628,466.4,627.8,466.4z"/>
<path class="st6" d="M624.5,455.8c-0.1,0.1-0.8-0.3-1.7-0.4s-1.7,0-1.7-0.2s0.8-0.6,1.8-0.4S624.5,455.7,624.5,455.8z"/>
<g class="st11">
	<polygon points="626.9,446.6 626.1,449.5 610.4,445.6 611.2,442.2 	"/>
</g>
<path class="st6" d="M625.3,452.5c-0.6,0-1.1-0.1-1.6-0.4c-0.6-0.2-1.1-0.5-1.6-0.9c-0.3-0.2-0.6-0.5-0.8-0.7
	c-0.2-0.1-0.3-0.3-0.4-0.5c-0.2-0.3-0.1-0.6,0.1-0.9c0.2-0.2,0.5-0.3,0.8-0.2c0.2,0,0.4,0.1,0.6,0.2c0.3,0.2,0.6,0.4,0.9,0.6
	c0.5,0.4,0.9,0.8,1.2,1.3C625,451.5,625.2,452,625.3,452.5c-0.2,0.1-0.4-0.4-1.1-1.2c-0.4-0.4-0.8-0.8-1.2-1.1
	c-0.3-0.2-0.6-0.4-0.8-0.5c-0.3-0.2-0.6-0.2-0.7-0.1s-0.1,0.1,0,0.2s0.2,0.3,0.3,0.4c0.2,0.2,0.5,0.5,0.7,0.7c0.4,0.4,0.9,0.7,1.4,1
	C624.7,452.2,625.3,452.4,625.3,452.5z"/>
<path class="st6" d="M625,452.7c-0.2-0.5-0.2-1.1,0-1.7c0.1-0.6,0.3-1.2,0.6-1.7c0.2-0.3,0.4-0.6,0.7-0.9c0.3-0.4,0.7-0.6,1.2-0.6
	c0.3,0.1,0.5,0.3,0.6,0.6c0,0.2,0,0.4,0,0.6c0,0.4-0.1,0.7-0.3,1.1c-0.2,0.6-0.6,1.1-1.1,1.5c-0.8,0.7-1.5,0.7-1.5,0.7
	s0.6-0.3,1.2-1c0.4-0.4,0.7-0.9,0.9-1.4c0.1-0.3,0.2-0.6,0.2-0.9c0-0.4,0-0.7-0.2-0.7s-0.5,0.1-0.7,0.4c-0.2,0.2-0.4,0.5-0.6,0.8
	c-0.3,0.5-0.5,1-0.7,1.5C625.1,452,625.1,452.7,625,452.7z"/>
<path class="st6" d="M633.9,262.9c0,0,10.9,19.1,11.5,40.3s-14.9,152.5-14.9,152.5l-24.5-6c-0.5,4.2,7.7-43.2,10.6-66
	c2.8-22.5-11.4-103.5-11.4-103.5l26.8-17.3"/>
<path class="st6" d="M577.8,278.9c0,0-2.7,22.7,4,38s60,141.2,60,141.2l21.9-11.1l-53.5-168L577.8,278.9z"/>
<path class="st5" d="M643.8,384.5c-0.1,0-6.9-20.2-15-45.3s-14.7-45.4-14.5-45.5s6.9,20.2,15,45.3S644,384.4,643.8,384.5z"/>
<path class="st5" d="M641.9,458.1c-0.1,0.1-10.8-24.8-23.8-55.4s-23.4-55.6-23.3-55.7s10.8,24.8,23.8,55.4S642,458,641.9,458.1z"/>
<path class="st6" d="M602.7,139.7c-3.2-6.7-13.3-10.5-21.7-8.5c-7,1.7-14.7,8.5-15.4,15.7c-1,10.5,4.5,21.3,0.8,31.2
	c-4.3,11.5-10.2,7.7-9.7,24.4c0.1,5,2.1,17.3,4.5,21.7c1.2,2.3,3.2,4.4,5.8,4.9c3.2,0.6,7.7,1.2,10.3-0.7c7.1-5.3,13.6-6,15.4-14.6
	c2.6-12.6-5.8-28.1-5.5-38.4s-1.2-20.5-2.8-30.7"/>
<path class="st6" d="M639.5,198.2c-2-4.5-6-7.9-10.1-10.6s-8.5-5.3-12-8.8s-5.9-11.6-6-17.6l0,0c-0.1-1.6-0.2-3.2-0.4-4.8
	c-0.8-5.8-2-11.8-5.2-16.8s-11.6-9.6-19-6.7l-3.7,4.8c4.1,15.7,5.4,32,3.8,48.2c-0.5,4.7-1,9.9,2,13.6c1.9,2.4,5,3.6,8.1,4.2
	c3.4,0.7,7.2,0.6,9.9-1.6c0.2-0.1,0.3-0.2,0.5-0.3c0.6,1.8,1.5,3.4,2.7,4.9c3,3.5,7.6,5.2,12,6.5c5.1,1.4,11.2,2.2,15.2-1.2
	C641.2,208.7,641.6,202.7,639.5,198.2z"/>
<path class="st7" d="M576.1,185.6c0,0-11.9,5.1-14.7,7.1s11.6,41.9,11.6,41.9s6.8,16.4,5.1,23.8c-1,4.1-2.7,8.6-3.5,12.4
	c-0.8,3.9,1.8,7.8,5.7,8.6c7,1.5,20.5,3.2,32-1.2c6.9-2.5,13.5-6,19.5-10.2c3-2.2,3.9-6.4,1.9-9.7c-0.8-1.4-1.8-2.7-3-3.8
	c-3.9-3.9-7.4-19.1-8.3-23.3c-0.1-0.7-0.2-1.4-0.1-2.1c0.3-4,1.2-18.6-1.2-25.6c-2-5.6-6-12.3-8.3-16c-1.1-1.7-2.9-2.9-4.8-3.3
	l-9.5-1.7c-0.8-0.1-1.7-0.1-2.5,0L576.1,185.6L576.1,185.6z"/>
<g class="st11">
	<path d="M578.6,256.9l-2.1,7c0,0,14.6-4.9,19.3-10.4s9.3-9.7,11.5-9.9s11.6-0.2,13.2,1.1s7.2,4.9,7.2,4.9l-2.6-7.4l-6.2-4.9
		l-18.6-1.9L578.6,256.9z"/>
</g>
<path class="st7" d="M561.3,192.7c0,0-4.7,3.4-4.7,11.9c0,0,0.4,38.9,1.8,46.4c1.8,10,9.8,11.2,14,11.2s26.7-18.3,26.7-18.3
	l-6.9-10.4l-16.5,4.3c0,0-0.7-16-0.7-21.5S561.3,192.7,561.3,192.7z"/>
<path class="st7" d="M609.1,184.5c0,0,10.5,2.5,14.7,11.6c3.7,8,26.7,43.9,14.8,50.5c-8.6,4.8-19.6-6.2-19.6-6.2L609.1,184.5z"/>
<path class="st12" d="M625.2,229.6c-0.6-1.6-1-3.4-1-5.2c0.1-1.1-0.1-2.1-0.4-3.2c-0.3-1.1-1.4-1.8-2.5-1.7l-0.4,7.8L625.2,229.6z"
	/>
<path class="st6" d="M621.7,212l-1.3,27.6l-13.3,1.3l-0.3-27.1c0-0.7,0.5-1.3,1.2-1.4l12-1.9c0.8-0.1,1.5,0.4,1.6,1.2
	C621.7,211.8,621.7,211.9,621.7,212z"/>
<path class="st5" d="M608,221.3c0-0.3,0.1-0.5,0.1-0.8c0-0.6,0.1-1.3,0.1-2.2s0.1-2.1,0.1-3.3c0-0.1,0-0.3,0-0.4
	c0-0.1,0.1-0.3,0.2-0.4c0.1-0.1,0.2-0.2,0.3-0.2c0.2-0.1,0.3-0.1,0.5-0.1l2.1-0.3c2.8-0.5,5.4-0.9,7.3-1.2l2.2-0.4
	c0.3,0,0.5-0.1,0.8-0.2c-0.3,0-0.5,0-0.8,0.1l-2.2,0.3c-1.9,0.3-4.4,0.7-7.3,1.1l-2.1,0.3c-0.2,0-0.4,0.1-0.5,0.1
	c-0.2,0.1-0.3,0.2-0.4,0.3c-0.1,0.1-0.2,0.3-0.2,0.5s0,0.3,0,0.5c0,1.2,0,2.4,0,3.3s0,1.6,0,2.2C608,220.7,608,221,608,221.3z"/>
<path class="st4" d="M614.1,214.4c0.1-0.4,0.4-0.6,0.8-0.5c0.2,0,0.4,0.2,0.5,0.4c0.1,0.3,0,0.6-0.2,0.7c-0.2,0.2-0.5,0.2-0.8,0
	C614.1,214.9,614,214.6,614.1,214.4z"/>
<path class="st12" d="M615.7,222.4c0.3,0,7.8,2.5,7.8,2.5l4.2,3.2c1.1,1.7,1.5,3.7,1.2,5.6c-0.5,3.6-2.1,5.1-5.9,6.7h-7.7L611,238
	c-0.9-0.5-1.3-1.5-1.2-2.4v-0.2l-0.5-0.7c-0.3-0.4-0.4-1-0.2-1.5l0,0c0.3-0.7,1.1-0.9,1.8-0.6l4.8,2.5l3-0.1l0.3-1l-4.7-1.6
	l-6.2-3.4c-0.8-0.4-1.1-1.4-0.7-2.2v-0.1l0,0c0.4-0.7,1.3-1,2-0.7l5.6,2.2l5.7,1.5l-1.2-2l-7-3.7C612.7,224.2,611.8,222,615.7,222.4
	z"/>
<path class="st12" d="M614.5,218.8c-1.3-0.3-2.7,0-3.8,0.8c-2.2,1.4-5.1,3.4-5.1,3.4l-4.4,2.1l0.4-1.2c0,0,4.6-0.3,3.9-3.5l-2.7,0.6
	l-2.5-0.8l-3.9,5.2l-1,5.8l-2.5,2.8l5.5,8.4l7.3-2.8l6.6-0.6l2.9-3.2l-0.2-3.4l2.7-3.8c0,0,0.1-1.7-1.4-1.6s-4.5,4.2-4.5,4.2
	l-3.6,0.7c0,0-0.7-0.5-0.2-0.9s10.2-7.3,10.5-8.5s0.7-2.1-0.5-2.2c-1,0-1.9,0.3-2.8,0.7C615.2,220.7,615.3,218.9,614.5,218.8z"/>
<path class="st13" d="M606.8,226.7c1.5-0.9,3-1.9,4.4-3c1.5-1,2.9-2,4.2-3.2c-1.5,0.9-3,1.9-4.4,3
	C609.5,224.5,608.1,225.6,606.8,226.7z"/>
<path class="st13" d="M606,235.5c0.2,0.1,0.4,0.1,0.6,0.1c0.4,0,0.9,0.1,1.6,0.1c0.8,0,1.6,0,2.3-0.2c0.9-0.2,1.8-0.6,2.6-1.2
	c1.4-1.1,2.5-2.4,3.3-4c0.3-0.6,0.5-1.1,0.7-1.4c0.1-0.2,0.2-0.3,0.2-0.5c0,0-0.4,0.7-1.1,1.8c-0.8,1.5-1.9,2.8-3.3,3.9
	c-0.8,0.6-1.6,0.9-2.5,1.2c-0.7,0.2-1.5,0.2-2.3,0.3C606.8,235.5,606,235.5,606,235.5z"/>
<path class="st13" d="M592.7,233.9l0.2-0.2l0.5-0.5l1.9-2.1l0,0l0,0l1.1-5.8l0,0l3.9-5.2h-0.1l2.5,0.9l0,0l2.7-0.6l-0.1-0.1
	c0.1,0.5,0.1,0.9,0,1.4c-0.2,0.4-0.5,0.8-0.9,1.1c-0.9,0.5-1.8,0.9-2.9,0.9h-0.1v0.1c-0.1,0.4-0.2,0.8-0.4,1.2l-0.1,0.3l0.2-0.1
	l4.4-2.1l0,0c1.3-0.9,2.7-1.8,4.1-2.8c0.7-0.5,1.4-0.9,2.2-1.2s1.7-0.4,2.5-0.2l0,0c0.3,0,0.4,0.3,0.5,0.7c0.1,0.3,0.1,0.7,0,1.1
	v0.2l0.2-0.1c0.5-0.2,1-0.4,1.5-0.6c0.5-0.2,1-0.2,1.5,0c0.2,0.1,0.3,0.4,0.3,0.6c0,0.3-0.1,0.6-0.2,0.8c0,0.3-0.1,0.5-0.2,0.8
	c-0.2,0.2-0.4,0.4-0.6,0.6c-1.7,1.5-3.5,3-5.3,4.3l-2.7,2l-1.3,1l-0.3,0.2c-0.1,0.1-0.2,0.2-0.3,0.4c0,0.2,0,0.4,0.1,0.5
	s0.2,0.2,0.3,0.3l0,0l0,0l3.6-0.7l0,0l0,0c0.9-1.2,1.9-2.3,3-3.3c0.5-0.4,1.2-0.9,1.8-0.8c0.3,0,0.6,0.2,0.7,0.5
	c0.1,0.3,0.2,0.7,0.2,1v-0.1c-1,1.3-1.8,2.6-2.7,3.8l0,0l0,0c0.1,1.2,0.1,2.4,0.2,3.5v-0.1l-2.9,3.2h0.1l-6.6,0.7l0,0l-5.4,2.1
	l-1.4,0.6l-0.4,0.1c-0.1,0-0.1,0-0.1,0.1h0.1l0.4-0.1l1.4-0.5l5.5-2.1l0,0l6.6-0.6l0,0l0,0l2.9-3.2l0,0l0,0c0-1.1-0.1-2.3-0.2-3.5
	v0.1l2.7-3.8l0,0l0,0c0-0.4,0-0.7-0.2-1.1c-0.1-0.2-0.2-0.3-0.4-0.4c-0.2-0.1-0.3-0.2-0.5-0.2c-0.4-0.1-0.8,0-1.1,0.2
	s-0.6,0.4-0.9,0.6c-1.1,1-2.1,2.1-3,3.4l0.1-0.1l-3.6,0.7h0.1c-0.2-0.1-0.4-0.4-0.3-0.5s0.3-0.3,0.5-0.5l1.3-1l2.7-2
	c1.9-1.4,3.7-2.8,5.4-4.4c0.2-0.2,0.4-0.4,0.6-0.7c0.1-0.1,0.2-0.3,0.2-0.4l0.1-0.4c0.1-0.3,0.1-0.6,0.2-0.9c0-0.2,0-0.3-0.1-0.5
	s-0.2-0.3-0.3-0.4c-0.6-0.2-1.2-0.2-1.8,0c-0.5,0.2-1.1,0.4-1.6,0.6l0.2,0.1c0.1-0.4,0.1-0.8,0-1.1c0-0.2-0.1-0.4-0.2-0.5
	c-0.1-0.2-0.3-0.3-0.5-0.4l0,0c-0.9-0.2-1.8-0.2-2.7,0.2c-0.8,0.3-1.6,0.7-2.3,1.2c-1.4,0.9-2.8,1.8-4.1,2.8l0,0l-4.4,2l0.2,0.1
	c0.1-0.4,0.2-0.9,0.4-1.2l-0.1,0.1c1.1-0.1,2.1-0.4,3-1c0.4-0.3,0.8-0.7,0.9-1.2c0.2-0.5,0.2-1,0.1-1.5v-0.1h-0.1l-2.7,0.6h0.1
	l-2.5-0.8h0v0.1c-1.5,1.9-2.8,3.7-3.9,5.3l0,0l0,0c-0.4,2.3-0.8,4.3-1,5.8l0,0c-0.8,0.9-1.4,1.6-1.8,2.1L592.7,233.9
	C592.8,233.8,592.7,233.8,592.7,233.9z"/>
<path class="st12" d="M573.1,151.7c-0.8-8.6,5.5-16.2,14-17c0.2,0,0.4,0,0.6,0c8.4-0.5,15.7,5.6,16.8,14c0.9,7.2,1.7,14.5,1.6,17.1
	c-0.3,7.9-5.1,10.9-7.1,11.8c-0.7,0.2-1.4,0.4-2.1,0.5l0,0c0,0,0,0,0,0.1l1.6,9.2c0.7,6-2.9,11.2-9,11.9s-10.8-4-11.5-10
	L573.1,151.7z"/>
<path class="st6" d="M602,153.9c0.1,0.7-0.4,1.3-1.1,1.4c-0.7,0.1-1.3-0.3-1.5-1l0,0c-0.1-0.7,0.4-1.3,1.1-1.4
	C601.2,152.7,601.9,153.2,602,153.9C602,153.8,602,153.9,602,153.9z"/>
<path class="st6" d="M602.6,150.9c-0.1,0.2-1.2-0.4-2.6-0.2s-2.3,1-2.5,0.8s0-0.4,0.5-0.8c0.6-0.5,1.3-0.8,2-0.8
	c0.7-0.1,1.4,0.1,2.1,0.4C602.5,150.5,602.7,150.8,602.6,150.9z"/>
<path class="st6" d="M589.2,155.6c0.1,0.7-0.4,1.3-1.1,1.4c-0.7,0.1-1.3-0.3-1.5-1l0,0c-0.1-0.7,0.4-1.3,1.1-1.4
	C588.4,154.4,589,154.9,589.2,155.6C589.1,155.6,589.1,155.6,589.2,155.6z"/>
<path class="st6" d="M589.1,152.7c-0.1,0.2-1.2-0.4-2.6-0.2s-2.3,1-2.5,0.8s0-0.4,0.4-0.7c0.6-0.5,1.3-0.8,2-0.9
	c0.7-0.1,1.4,0.1,2.1,0.4C589,152.3,589.2,152.6,589.1,152.7z"/>
<path class="st6" d="M595.3,162.1c0.7-0.3,1.4-0.5,2.2-0.6c0.3-0.1,0.7-0.2,0.7-0.4c0-0.4-0.1-0.7-0.3-1c-0.4-0.8-0.9-1.6-1.4-2.5
	c-1.2-2.1-2.3-4.3-3.2-6.6c0.2-0.1,1.8,2.8,3.7,6.3l1.3,2.5c0.3,0.4,0.4,0.9,0.3,1.3c-0.1,0.3-0.3,0.5-0.5,0.6s-0.4,0.1-0.6,0.1
	C596.9,162,596.1,162.1,595.3,162.1z"/>
<path class="st14" d="M596.8,178.1c0,0-5.2,1-12.4-2.1c0,0,2.9,6.6,12.8,4.6L596.8,178.1z"/>
<path class="st6" d="M591.4,163.5c0.2,0,0.4,1.4,1.8,2.3s3,0.6,3,0.8s-0.3,0.3-1,0.4c-0.9,0.1-1.8-0.1-2.5-0.6s-1.2-1.2-1.4-2
	C591.2,163.9,591.3,163.5,591.4,163.5z"/>
<path class="st6" d="M589.5,150.2c-0.1,0.4-1.5,0.4-3.1,0.8s-2.8,1-3.1,0.7s0.1-0.5,0.6-0.9c0.6-0.5,1.4-0.9,2.2-1.1
	c0.8-0.2,1.7-0.2,2.5,0C589.2,149.8,589.5,150.1,589.5,150.2z"/>
<path class="st6" d="M601.8,148.2c-0.2,0.3-1.2,0.1-2.3,0.2s-2.1,0.4-2.3,0.2s0-0.5,0.4-0.8c1.1-0.9,2.6-1,3.8-0.3
	C601.7,147.7,601.8,148,601.8,148.2z"/>
<path class="st6" d="M597.9,135.1c-1.2,6.2-5.8,11.2-11.9,12.9c0.2-0.7,0.3-1.5,0.5-2.2c-2.9,5.1-7.5,9-13.1,10.8
	c-3.6-6.7-2-14.9,3.7-19.9c5.7-4.7,14.9-5.8,20.7-1.2"/>
<path class="st6" d="M579.5,152.8c-1.4,2.6-0.8,5.8,0,8.6s2,5.7,1.7,8.6c-0.3,2.7-1.8,5.2-2.2,7.9c-0.6,4.6,2.3,8.8,3.4,13.3
	c1.4,5.9-0.3,12.1-4.5,16.5c-0.4,0.5-0.9,0.8-1.6,0.9c-0.7-0.1-1.3-0.7-1.4-1.4c-0.1-0.7,0-1.4,0.1-2.1c0.7-6.6-5.6-12-6.3-18.5
	c-0.5-4.3,1.4-8.4,1.8-12.7c0.5-5.4-1.5-10.7-2-16c-0.3-1.8-0.1-3.7,0.5-5.5s2-3.2,3.9-3.7s3.8,0.5,4.5,2.3"/>
<path class="st6" d="M577.9,237.3c-0.6,0.1-1.1,0.1-1.7,0.1c-1.4,0.1-2.7,0.5-3.8,1.2c-1.2,0.7-2.2,1.6-3,2.7
	c-0.3,0.5-0.6,1-0.9,1.4c0.1-0.6,0.3-1.2,0.6-1.6c1.5-2.5,4.2-4.1,7.1-4.1C576.7,237,577.3,237,577.9,237.3z"/>
<path class="st6" d="M575.5,215.8c0.1,0,0.3,4.8,0.4,10.7s0,10.7-0.1,10.7c-0.3-3.5-0.5-7.1-0.4-10.7
	C575.3,220.6,575.4,215.8,575.5,215.8z"/>
<path class="st6" d="M621,222.9c-0.1,0-0.2-1.3-0.5-3.3c-0.9-5.3-3.1-10.2-6.3-14.5c-1.2-1.6-2.1-2.6-2-2.6c0.3,0.2,0.5,0.4,0.7,0.6
	c0.6,0.6,1.1,1.2,1.7,1.8c1.7,2.1,3.1,4.4,4.2,6.9c1.1,2.5,1.8,5.1,2.2,7.8c0.1,0.8,0.2,1.6,0.2,2.4
	C621.1,222.3,621.1,222.6,621,222.9z"/>
<path class="st6" d="M556.5,206.8c0,0.1,0,0.2,0,0.3c0,0.2,0,0.6,0,0.9c0,0.9,0,2.1,0.1,3.6c0.1,3.2,0.2,7.7,0.3,13.3
	s0.4,12.3,0.9,19.7c0.1,0.9,0.1,1.9,0.2,2.8l0.1,1.4c0.1,0.5,0.1,0.9,0.2,1.4c0.1,1,0.3,1.9,0.6,2.8c0.3,0.9,0.7,1.8,1.2,2.7
	c1,1.7,2.5,3.2,4.2,4.2c1.8,1,3.8,1.7,5.9,1.8h0.4l0,0c1.5,0.1,3.1-0.2,4.5-0.9c1.4-0.6,2.7-1.4,4-2.2c2.6-1.6,5.1-3.3,7.4-5
	c4.4-3.1,8.5-6.5,12.5-10.1v0.3l-6.9-10.4l0.2,0.1c-4.5,1.1-8.1,2.1-10.6,2.7l-2.8,0.7l-0.7,0.2c-0.1,0-0.2,0-0.3,0l0.2-0.1l0.7-0.2
	l2.8-0.8c2.5-0.7,6-1.7,10.5-2.9h0.1l0.1,0.1l7,10.4l0.1,0.1l-0.1,0.1c-3.9,3.7-8,7.1-12.3,10.3c-2.3,1.7-4.8,3.4-7.4,5
	c-1.3,0.8-2.7,1.6-4.1,2.2c-1.5,0.7-3.1,1-4.8,0.9l0,0h-0.4c-2.2-0.2-4.3-0.8-6.1-1.9s-3.3-2.6-4.4-4.4c-0.5-0.9-0.9-1.8-1.3-2.8
	c-0.3-1-0.5-1.9-0.6-2.9c-0.1-0.5-0.1-1-0.2-1.5l-0.1-1.4c-0.1-0.9-0.1-1.9-0.2-2.8c-0.5-7.4-0.6-14.1-0.8-19.7s-0.2-10.2-0.2-13.3
	c0-1.5,0-2.8,0-3.6V207C556.5,207.1,556.5,206.9,556.5,206.8z"/>
<path class="st6" d="M634.8,247.7c-0.2,0.1-0.5,0.1-0.7,0.1c-0.6,0-1.3,0-1.9-0.1c-1-0.1-1.9-0.3-2.8-0.6c-1.1-0.3-2.2-0.8-3.2-1.3
	c-1.9-1-3.6-2.2-5.2-3.6c-0.7-0.5-1.3-1.2-1.9-1.9c0.7,0.5,1.4,1,2.1,1.6c1.6,1.3,3.4,2.5,5.2,3.5c1,0.5,2.1,1,3.2,1.3
	c0.9,0.3,1.8,0.5,2.7,0.7C633.8,247.6,634.8,247.6,634.8,247.7z"/>
<path class="st6" d="M637.3,230.4c-1.5-0.8-3.1-1.5-4.8-2c-1.7-0.3-3.4-0.5-5.2-0.5c1.7-0.5,3.6-0.5,5.3,0
	C634.4,228.2,636.1,229.1,637.3,230.4z"/>
<path class="st6" d="M633,225.9c0,0.2-1.4,0.1-3,0.6s-2.8,1.2-2.9,1.1C628.7,226.1,630.9,225.5,633,225.9z"/>
<path class="st6" d="M581.5,279.3c0,0-0.5-0.1-1-0.6c-0.7-0.7-1.1-1.6-1.3-2.5s-0.1-1.9,0.3-2.8c0.3-0.7,0.6-1,0.7-1
	s-0.2,0.4-0.3,1.1c-0.2,0.8-0.3,1.7-0.1,2.6c0.1,0.9,0.5,1.7,1,2.4C581.2,278.9,581.5,279.2,581.5,279.3z"/>
<path class="st6" d="M591.6,280.8c0,0.1-0.5-0.1-1.1-0.6c-0.8-0.7-1.4-1.5-1.8-2.5c-0.4-1-0.5-2-0.4-3.1c0.1-0.8,0.3-1.2,0.4-1.2
	s0,0.5,0,1.2c0,1,0.2,1.9,0.5,2.9c0.4,0.9,0.9,1.7,1.6,2.4C591.2,280.4,591.6,280.7,591.6,280.8z"/>
<path class="st6" d="M600.9,281.4c0,0-0.5-0.1-1-0.6c-1.4-1.3-2.1-3.3-1.7-5.2c0.2-0.7,0.4-1.1,0.5-1.1
	C598.2,277.1,599,279.7,600.9,281.4L600.9,281.4z"/>
<path class="st6" d="M610.3,278.9c-0.2,0-0.3-1.4-0.8-3s-1.2-2.9-1-2.9c0.8,0.8,1.3,1.7,1.5,2.8
	C610.4,276.8,610.5,277.9,610.3,278.9z"/>
<path class="st6" d="M620.1,275.3c-0.2-1.3-0.4-2.5-0.7-3.8c-0.5-1.2-1-2.3-1.7-3.4c1.1,0.8,1.8,2,2.2,3.3
	C620.4,272.6,620.5,274,620.1,275.3z"/>
<path class="st6" d="M627,271.2c-0.2-1.2-0.5-2.4-0.8-3.5c-0.7-1.9-1.7-3.1-1.6-3.2C626.6,266,627.5,268.6,627,271.2z"/>
<path class="st6" d="M633,267c-0.3-1.2-0.6-2.3-1.1-3.4c-0.6-1-1.3-2-2.1-2.9C632,261.9,633.3,264.4,633,267z"/>
<g class="st11">
	<path d="M575.7,236.9c-2.9-2-6.8-1.3-8.8,1.6c-0.4,0.5-0.6,1.1-0.7,1.8c0,0.7,0.4,1.3,1,1.5c0.9,0.2,1.9-0.2,2.4-1
		c1.7-1.8,3.9-3.1,6.3-3.6"/>
</g>
<g class="st11">
	<path d="M627.4,227.9c2.7-0.4,5.3,0.8,8,1.2c0.5,0.1,1,0,1.4-0.2c0.3-0.2,0.4-0.6,0.4-1s-0.2-0.7-0.5-1c-0.9-0.8-2.1-1.3-3.3-1.2
		c-1.2,0-2.5,0.1-3.7,0.4c-1,0.2-1.9,0.8-2.5,1.6"/>
</g>
<path class="st1" d="M556.5,215c0.1,0.8,0.5,1.5,1.1,2.1c0.5,0.6,1.4,0.7,2,0.2c0.3-0.3,0.5-0.8,1-1s1.1,0.4,1.7,0.3
	c0.9-0.1,1.1-1.6,2-1.7s1.5,1.1,2.3,0.9s0.7-1.5,1.4-1.9s1.4,0.1,1.9,0.6s1.1,1.1,1.8,0.9c1.2-0.3,1.2-2.4,2.4-2.5
	c0.8-0.1,1.7,0.9,2.4,0.5c0.4-0.2,0.5-0.6,0.8-0.9c0.6-0.5,1.5-0.3,2.2-0.2s1.7,0.2,2.1-0.5c-1.8-0.7-3.8-1.1-5.7-1
	c-0.7,0.1-1.4,0-2-0.3c-0.4-0.3-0.7-0.8-1.2-0.7s-0.7,0.4-1.1,0.6c-0.6,0.2-1.3-0.3-1.6-0.9c-0.2-0.6-0.6-1.2-1.1-1.7
	c-0.9-0.4-2-0.1-2.6,0.7c-0.5,0.8-0.8,1.8-0.8,2.8c-1-0.3-1-2.2-2.1-2.4c-0.7-0.1-1.2,0.6-1.5,1.2s-0.5,1.4-1.2,1.6
	c-0.5-0.8-1-1.6-1.5-2.4c-0.2,1.5-1.5,2.6-3,2.5"/>
<path class="st1" d="M599.1,201.1c0.3-0.6,0.6-1.1,0.9-1.7c0.8,0.7,2.1,0.7,2.8-0.1c0.1-0.1,0.2-0.3,0.3-0.4
	c0.3-0.7,0.1-1.6,0.6-2.1c0.5-0.4,1.3-0.5,1.8-0.1s1,0.9,1.3,1.5c0.2-0.7,0.5-1.4,1-1.9c0.5-0.6,1.3-0.7,2-0.4
	c0.4,0.3,0.7,0.8,1.2,0.7c0.9-0.1,0.6-1.8,1.4-2.1s1.6,0.8,2.3,0.4s0.6-1.3,1.2-1.6c0.9-0.4,1.8,1.2,2.8,0.9
	c0.5-0.1,0.8-0.6,1.2-0.9c0.7-0.4,1.5-0.2,2.1,0.3s1,1.2,1.3,1.9c0.3,0.5,0.5,1,0.5,1.6s-0.3,1.1-0.8,1.4c-1.1,0.3-2.1-1.2-3.2-0.9
	c-0.8,0.3-1.1,1.5-1.9,1.6s-1.4-1.1-2.3-1.2c-1-0.1-1.5,1.2-2.3,1.9c-1,0.8-2.5,0.7-3.3-0.4c-0.1-0.1-0.1-0.2-0.2-0.3l-1.6,1
	c-0.9-0.6-2.2-0.3-2.8,0.6c-0.1,0.2-0.2,0.4-0.2,0.5c0.1-0.5-0.5-0.9-1-0.8c-0.5,0.2-0.9,0.5-1.2,1s-0.7,0.8-1.2,1
	c-0.8,0.2-1.6-0.4-2.4-0.2s-1.3,1.5-2.2,1.3s-0.8-1.2-0.3-1.8c0.6-0.4,1.3-0.7,2-0.6"/>
<path class="st1" d="M596,223.5c0-0.7-0.6-1.4-1.3-1.4c-0.4,0-0.8,0.2-1.1,0.5c-0.3,0.4-0.4,1-0.9,1.1c-0.8,0.3-1.5-0.9-2.3-0.6
	s-0.7,1.4-1.4,1.7c-0.5,0.2-1-0.3-1.3-0.8s-0.6-1.1-1.1-1.2s-1.2,0.6-1.5,1.3s-0.5,1.5-1.2,1.7c-0.9,0.3-1.7-0.7-2.2-1.5
	s-1.3-1.8-2.2-1.5c-0.5,0.2-0.9,0.6-1.1,1.1l-2.7,4.7l0.1,5.2c1.2,0,1.4-1.2,1.5-2.4c0.6,0.9,1.7,1.3,2.7,0.9c1-0.4,1.9-0.9,2.6-1.6
	c0.8-0.7,1.8-1.1,2.8-1.2c0.7,0,1.5,0.3,2.2,0s0.9-1.3,1.4-2c0.7-0.7,1.7-1.2,2.7-1.1c1,0,2-0.1,2.9-0.4
	C595.7,225.5,596.2,224.5,596,223.5z"/>
<path class="st1" d="M626.8,221.3c0-0.6,0-1.2-0.2-1.8c-0.1-0.6,0.2-1.3,0.8-1.5c0.5,0,1,0.2,1.3,0.6c0.3,0.4,0.7,0.7,1.1,0.9
	c0.4-0.5,0-1.3,0.3-1.9c0.4-0.6,1.1-0.8,1.7-0.4c0.6,0.3,1,0.8,1.3,1.4c0.2-0.7,1.2-0.8,1.7-0.4c0.5,0.5,0.9,1.1,1.1,1.8
	c0.1,0.3,0.1,0.6,0,0.9c-0.1,0.2-0.4,0.4-0.6,0.4c-0.8,0.2-1.7,0.2-2.5-0.1c-0.3-0.2-0.6-0.2-0.9-0.2c-0.6,0.1-0.7,1.1-1.2,1.3
	c-0.4,0.1-0.8-0.1-1.2,0.1s-0.6,0.6-0.9,0.8c-0.4,0.2-0.9,0.1-1.2-0.3c-0.3-0.3-0.5-0.8-0.6-1.2l0.1-0.1"/>
<path class="st1" d="M626.8,242.3c-0.1,0.5,0.6,0.9,1.1,0.8c0.5-0.2,1-0.3,1.6-0.3c0.4,0.1,0.8,0.3,1.2,0.5c1,0.4,2.2,0.2,3-0.5
	c0,0.5,0.1,1.1,0.3,1.6c0.3,0.5,0.9,0.7,1.4,0.4c0.3-0.2,0.5-0.5,0.6-0.9c0.2-0.3,0.5-0.6,0.8-0.6s0.5,0.4,0.7,0.6
	c0.7,0.9,2.2,0.6,3-0.3c0.6-0.9,1-2.1,1-3.2c0.1-0.5,0.1-1.1-0.3-1.4c-0.4-0.2-0.9-0.1-1.2,0.2s-0.4,0.7-0.5,1.1
	c0.3-1.2-0.4-2.4-1.6-2.7c-0.1,0-0.2,0-0.3,0c-1.1,0-2,0.9-2,2c0,0.2,0,0.4,0.1,0.6c-0.1-0.5-0.3-0.9-0.5-1.3
	c-0.3-0.4-0.7-0.7-1.2-0.6c-0.7,0.1-1.1,1-1.3,1.7s-0.5,1.6-1.2,1.8c-0.9,0.2-1.6-0.8-2.5-1.2c-0.7-0.3-1.5-0.3-2.2,0.2L626.8,242.3
	z"/>
<path class="st1" d="M576.4,264.2l-1.3,4.5c0,0,1.3-0.8,1.9-0.6s1.1,0.6,1.7,0.5c0.9-0.2,1.1-1.7,2-1.8c0.4,0,0.8,0.1,1.1,0.4
	s0.7,0.4,1.1,0.5c0.4,0,0.9-0.4,0.8-0.7c0.3,1.1,1.3,1.8,2.4,1.6c1.1-0.2,2-0.7,2.9-1.3c0.9-0.6,1.9-0.9,3-0.8
	c0.6,0.2,1.3,0.5,1.9,0.8c0.6,0.3,1.4,0.3,1.9-0.2c0.3-0.3,0.4-0.7,0.7-0.9c0.5-0.2,1-0.1,1.4,0.2c0.4,0.3,0.8,0.6,1.3,0.7
	c0.8,0,1.5-0.5,1.8-1.2s0.5-1.5,0.8-2.1c0.3-0.7,1-1.2,1.8-1.2c0.4,0.1,0.8,0.3,1.1,0.1c0.7-0.3,0.3-1.6,1-2c0.4-0.2,0.8-0.2,1.1,0
	c1.6,0.5,3.4,0.3,4.9-0.5c-0.6-0.8-1.5-1.4-2.5-1.5s-2,0-3,0.2c-0.9,0.1-1.7,0.4-2.5,0.9c-0.3,0.3-0.6,0.6-1,0.6
	c-0.7,0-1.2-1.1-1.8-1s-0.5,1.2-1,1.6s-1.2-0.1-1.8-0.5s-1.3-0.9-1.8-0.4s-0.4,1.5-1,1.5s-0.7-0.9-1.2-1.4c-0.5-0.4-1.3-0.3-1.7,0.3
	l-0.1,0.1c-0.3,0.6-0.4,1.4-0.3,2.1c-0.4-0.8-1-1.5-1.8-2s-1.9-0.2-2.4,0.6l0,0c-0.1,0.2-0.1,0.5-0.3,0.7c-0.3,0.2-0.8,0.1-1-0.2
	c-0.2-0.3-0.4-0.7-0.6-1c-0.5-0.5-1.3-0.7-1.9-0.3c-0.6,0.4-0.8,1.2-0.5,1.8c-1.4-1.6-3.8-1.8-5.4-0.5c-0.7,0.6-1.1,1.3-1.3,2.2
	L576.4,264.2z"/>
<path class="st1" d="M560.5,255.9c1.9,0.9,3.7,1.8,4.9,0.1c0.7,1.4,2.4,1.9,3.8,1.2c0.6-0.3,1-0.7,1.3-1.3c0.4-0.9,0.5-2.2,1.3-2.7
	c1-0.6,2.3,0.4,3.5,0.6c1.5,0.3,2.9-0.6,3.9-1.7c0.9-1.1,2-2.1,3.3-2.9c1.2-0.6,2.9-1.1,2.9-2.4s-1.6-1.8-2.7-1.3
	c-1,0.6-2,1.3-2.8,2.2c-1,0.7-2.4,1.1-3.3,0.3c-0.5-0.5-0.8-1.3-1.5-1.3s-1,1-1,1.7s-0.3,1.7-1.1,1.7s-0.9-1.2-1.4-1.8
	c-0.8-0.9-2.4-0.1-2.8,1c-0.2,1.2,0,2.4,0.6,3.4l-3.9-5.1l-1.1,3.8c-0.7-1.1-1.7-2-2.9-2.6c-1.2-0.5-2.7-0.3-3.2,0.9
	C558,250.1,559.3,255.4,560.5,255.9z"/>
<path class="st1" d="M630.9,254.8c-0.3,0.3,0,0.7,0.1,1.1s0.2,0.8,0.1,1.2c-0.1,0.4-0.5,0.8-0.9,0.7c-0.2-0.1-0.4-0.2-0.6-0.3
	c-0.5-0.2-1.1,0.2-1.6,0.4c-1.8,0.6-3.7-1.4-5.4-0.7c-1,0.4-1.7,1.6-2.7,1.4c-0.7-0.2-1.2-1-1-1.7s0.6-1.3,1.2-1.8
	c0.6-0.4,1.1-0.9,1.6-1.5c0.3-0.4,0.7-1,1.3-1c0.8,0,1.2,1.2,1.9,1c0.4-0.1,0.5-0.6,0.5-1c-0.1-0.4-0.1-0.8,0-1.2
	c0.4-0.7,1.2-0.9,1.9-0.6c0,0,0.1,0,0.1,0.1c0.7,0.4,1.3,1,1.6,1.7L630.9,254.8z"/>
<path class="st6" d="M332.8,389.5c5.8,8.3-3.3,17.4-11.6,11.6c-0.3-0.2-0.5-0.4-0.7-0.7c-5.8-8.3,3.3-17.4,11.6-11.6
	C332.3,389,332.6,389.2,332.8,389.5z"/>
<path class="st6" d="M466.7,421.3c0,0.1-60.9,0.3-136.1,0.3s-136.1-0.1-136.1-0.3s60.9-0.2,136.1-0.2S466.7,421.2,466.7,421.3z"/>
<path class="st6" d="M173.2,117.7c0,1.3-1.1,2.4-2.4,2.4s-2.4-1.1-2.4-2.4s1.1-2.4,2.4-2.4l0,0C172.1,115.3,173.2,116.4,173.2,117.7
	z"/>
<circle class="st6" cx="177.9" cy="117.7" r="2.4"/>
<circle class="st6" cx="184.7" cy="117.7" r="2.4"/>
<path class="st7" d="M343,163.1h-4.1v-22.5c0-5.3-4.3-9.6-9.6-9.6c-5.3,0-9.6,4.3-9.6,9.6v22.5h-4.1v-22.5c0-7.6,6.1-13.7,13.7-13.7
	S343,133,343,140.6V163.1z"/>
<path class="st7" d="M316.6,153.1H342c3.2,0,5.8,2.6,5.8,5.8V171c0,3.2-2.6,5.8-5.8,5.8h-25.4c-3.2,0-5.8-2.6-5.8-5.8v-12.1
	C310.8,155.7,313.4,153.1,316.6,153.1z"/>
<g class="st15">
	<path d="M332.4,161.9c0-1.7-1.4-3.1-3.1-3.1s-3.1,1.4-3.1,3.1c0,1.4,0.9,2.6,2.2,2.9v4.6h1.7v-4.6
		C331.5,164.5,332.4,163.3,332.4,161.9z"/>
</g>
<path class="st4" d="M312.8,174.6c-0.1,0-0.2-3.9-0.2-8.8s0.1-8.8,0.2-8.8s0.1,4,0.1,8.8S312.8,174.6,312.8,174.6z"/>
<path class="st4" d="M326.9,165.8c0,0-0.1-0.1-0.4-0.2c-0.3-0.2-0.6-0.5-0.8-0.8c-1.4-1.9-1.1-4.6,0.8-6.1c0.2-0.2,0.5-0.3,0.7-0.4
	c0.3-0.2,0.7-0.3,1.1-0.4c0.3,0,0.4,0,0.4,0c-0.5,0.2-0.9,0.3-1.4,0.6c-2.1,1.1-2.8,3.7-1.7,5.8c0.1,0.1,0.2,0.3,0.2,0.4
	C326.2,165.1,326.5,165.5,326.9,165.8z"/>
<path class="st6" d="M458.6,218.2c0,0.1-58.8,0.3-131.3,0.3S196,218.4,196,218.2s58.8-0.2,131.3-0.2S458.6,218.1,458.6,218.2z"/>
<path class="st6" d="M401.5,231.7c-0.1,0-0.3,0-0.4,0H400l-4.3,0.1l-15.9,0.1l-52.5,0.1l-52.5-0.1l-15.9-0.1l-4.3-0.1h-1.1
	c-0.1,0-0.3,0-0.4,0c0.1,0,0.3,0,0.4,0h1.1l4.3-0.1l15.9-0.1l52.5-0.1l52.5,0.1l15.9,0.1l4.3,0.1h1.1
	C401.3,231.8,401.4,231.7,401.5,231.7z"/>
<path class="st0" d="M247.7,243.6h14.2c3.5,0,6.3,2.8,6.3,6.3v23.6c0,3.5-2.8,6.3-6.3,6.3h-14.2c-3.5,0-6.3-2.8-6.3-6.3v-23.6
	C241.4,246.4,244.2,243.6,247.7,243.6z"/>
<path class="st0" d="M283.9,243.6h14.2c3.5,0,6.3,2.8,6.3,6.3v23.6c0,3.5-2.8,6.3-6.3,6.3h-14.2c-3.5,0-6.3-2.8-6.3-6.3v-23.6
	C277.6,246.4,280.4,243.6,283.9,243.6z"/>
<path class="st0" d="M320.2,243.6h14.2c3.5,0,6.3,2.8,6.3,6.3v23.6c0,3.5-2.8,6.3-6.3,6.3h-14.2c-3.5,0-6.3-2.8-6.3-6.3v-23.6
	C313.8,246.4,316.7,243.6,320.2,243.6z"/>
<path class="st0" d="M356.4,243.6h14.2c3.5,0,6.3,2.8,6.3,6.3v23.6c0,3.5-2.8,6.3-6.3,6.3h-14.2c-3.5,0-6.3-2.8-6.3-6.3v-23.6
	C350.1,246.4,352.9,243.6,356.4,243.6z"/>
<path class="st0" d="M392.6,243.6h14.2c3.5,0,6.3,2.8,6.3,6.3v23.6c0,3.5-2.8,6.3-6.3,6.3h-14.2c-3.5,0-6.3-2.8-6.3-6.3v-23.6
	C386.3,246.4,389.1,243.6,392.6,243.6z"/>
<path d="M261,267v1h-10.7v-0.8l6.6-6.6c1.9-1.9,2.2-3,2.2-4.1c0-2-1.4-3.2-4-3.2c-1.7-0.1-3.3,0.6-4.5,1.8l-0.8-0.7
	c1.4-1.5,3.4-2.3,5.4-2.1c3.1,0,5,1.6,5,4.1c0,1.5-0.5,2.8-2.5,4.9L252,267H261z"/>
<path d="M284.5,260.2c0-4.9,2.5-7.9,6.1-7.9s6.1,3,6.1,7.9s-2.5,7.9-6.1,7.9S284.5,265.1,284.5,260.2z M295.6,260.2
	c0-4.4-2-6.9-5-6.9s-5,2.5-5,6.9s2,6.9,5,6.9S295.6,264.6,295.6,260.2z"/>
<path d="M333.5,252.4v0.8l-6.7,14.8h-1.2l6.7-14.6h-8.8v3h-1.1v-4H333.5z"/>
<path d="M369.7,263.7h-3.3v4.3h-1.1v-4.3h-8.9v-0.8l8.5-10.5h1.3l-8.3,10.3h7.5v-3.8h1.1v3.8h3.3v1H369.7z"/>
<path class="st16" d="M408.9,272.4c-2.9,0.3-5.8,0.3-8.8,0.3c-2.9,0.1-5.8,0-8.8-0.3c2.9-0.3,5.8-0.4,8.8-0.3
	C403.1,272,406,272.1,408.9,272.4z"/>
<path class="st7" d="M291,299.3h71.2c8.9,0,16.1,7.2,16.1,16.1v1c0,8.9-7.2,16.1-16.1,16.1H291c-8.9,0-16.1-7.2-16.1-16.1v-1
	C274.9,306.5,282.1,299.3,291,299.3z"/>
<path class="st1" d="M307.2,319.2l0.5-1.1c0.7,0.5,1.6,0.8,2.4,0.8c1.1,0,1.6-0.4,1.6-1c0-1.6-4.4-0.5-4.4-3.3c0-1.2,1-2.2,3-2.2
	c0.9,0,1.7,0.2,2.5,0.7l-0.4,1.1c-0.6-0.4-1.3-0.6-2-0.6c-1.1,0-1.6,0.4-1.6,1c0,1.6,4.4,0.5,4.4,3.2c0,1.2-1,2.2-3,2.2
	C309.1,320.1,308.1,319.8,307.2,319.2z"/>
<path class="st1" d="M319.8,314.3v5.6h-1.2v-0.7c-0.5,0.5-1.1,0.8-1.8,0.8c-1.2,0.1-2.3-0.8-2.4-2c0-0.2,0-0.3,0-0.5v-3.2h1.3v3
	c0,1,0.5,1.5,1.3,1.5s1.5-0.6,1.6-1.4c0-0.1,0-0.2,0-0.3v-2.8H319.8z"/>
<path class="st1" d="M327.4,317.1c0.1,1.5-1.1,2.8-2.6,2.9c-0.1,0-0.2,0-0.3,0c-0.7,0-1.4-0.3-1.9-0.8v0.7h-1.2v-7.8h1.3v2.9
	c0.5-0.5,1.1-0.8,1.8-0.8c1.5-0.1,2.8,1.1,2.9,2.6C327.4,316.9,327.4,317,327.4,317.1z M326.1,317.1c0-0.9-0.8-1.6-1.8-1.6
	s-1.6,0.8-1.6,1.8c0,0.9,0.8,1.6,1.7,1.6c0.9,0,1.6-0.7,1.7-1.6C326.1,317.2,326.1,317.2,326.1,317.1L326.1,317.1z"/>
<path class="st1" d="M338.1,316.7v3.2h-1.3v-3c0-1-0.5-1.5-1.3-1.5s-1.5,0.6-1.5,1.7v2.9h-1.3v-3c0-1-0.5-1.5-1.3-1.5
	s-1.4,0.6-1.4,1.7v2.9h-1.3v-5.6h1.2v0.7c0.5-0.5,1.1-0.8,1.8-0.8c0.8,0,1.5,0.3,1.9,0.9c0.5-0.6,1.3-1,2.1-0.9
	c1.2-0.1,2.2,0.8,2.3,2C338.1,316.4,338.1,316.5,338.1,316.7z"/>
<path class="st1" d="M339.6,312.6c0-0.4,0.4-0.8,0.8-0.8l0,0c0.4,0,0.8,0.3,0.8,0.7l0,0c0,0.4-0.4,0.8-0.8,0.8l0,0
	C340,313.4,339.6,313.1,339.6,312.6L339.6,312.6z M339.8,314.3h1.3v5.6h-1.3V314.3z"/>
<path class="st1" d="M346.2,319.6c-0.4,0.3-0.8,0.4-1.3,0.4c-0.9,0.1-1.8-0.5-1.9-1.5c0-0.1,0-0.3,0-0.4v-2.7h-1v-1h1v-1.3h1.3v1.3
	h1.5v1h-1.5v2.7c-0.1,0.4,0.2,0.8,0.6,0.8c0.1,0,0.1,0,0.2,0c0.3,0,0.5-0.1,0.7-0.2L346.2,319.6z"/>
<rect x="56.2" y="407.4" class="st6" width="74.6" height="10.2"/>
<path class="st6" d="M130.9,417.8H56v-10.5h74.9V417.8z M56.3,417.5h74.3v-10H56.3V417.5z"/>
<polygon class="st6" points="63.1,414.2 73.8,467.2 113.5,467.2 123.9,417.7 "/>
<polygon class="st5" points="63.1,462.2 68.8,470.1 117.1,470.1 123.9,462.2 "/>
<path class="st6" d="M90.7,415.8c-0.1,0-0.3-24.5-0.4-54.8s0-54.8,0.1-54.8s0.3,24.5,0.4,54.8S90.8,415.8,90.7,415.8z"/>
<path class="st6" d="M107.3,354.4c0,0.2-0.1,0.4-0.2,0.6l-0.7,1.6l-0.5,1.1c-0.2,0.4-0.3,0.9-0.5,1.4s-0.4,1-0.6,1.6
	s-0.3,1.2-0.6,1.8c-0.9,3-1.6,6.1-2.1,9.1c-0.6,3.8-1,7.6-1.2,11.4c-0.3,7-0.1,13.9,0.6,20.9c0.2,2.7,0.5,4.8,0.7,6.3
	c0.1,0.7,0.1,1.3,0.2,1.7c0,0.2,0,0.4,0,0.6c-0.1-0.2-0.1-0.4-0.1-0.6c-0.1-0.4-0.2-1-0.3-1.7c-0.2-1.5-0.5-3.6-0.8-6.3
	c-0.8-6.9-1-13.9-0.8-20.9c0.2-3.8,0.6-7.7,1.2-11.5c0.5-3.1,1.3-6.2,2.2-9.2c0.2-0.6,0.4-1.2,0.6-1.8s0.4-1.1,0.6-1.6l0.5-1.4
	l0.5-1.1l0.8-1.5C107,354.7,107.1,354.5,107.3,354.4z"/>
<path class="st6" d="M105.4,334.5c-0.1,0.3-0.1,0.5-0.2,0.8l-0.8,2.3c-0.2,0.5-0.4,1.1-0.6,1.6c-0.2,0.6-0.4,1.3-0.6,2
	c-0.4,1.4-1,3-1.4,4.9L101,349c-0.2,1-0.5,2-0.7,3.1c-0.5,2.1-0.9,4.5-1.4,6.9c-0.8,4.9-1.6,10.3-2,15.9S96.3,386,96.2,391
	s0,9.4,0.2,13.1c0.1,1.9,0.2,3.5,0.3,5s0.2,2.8,0.3,3.8s0.1,1.8,0.2,2.4c0,0.3,0,0.6,0,0.9c-0.1-0.3-0.1-0.6-0.1-0.8
	c-0.1-0.6-0.2-1.4-0.3-2.4s-0.2-2.3-0.4-3.8s-0.3-3.2-0.4-5c-0.2-3.7-0.3-8.2-0.4-13.2s0.2-10.4,0.7-16.1s1.2-11.1,2.1-16
	c0.5-2.4,0.9-4.8,1.4-6.9c0.2-1.1,0.5-2.1,0.7-3.1l0.8-2.8c0.5-1.8,1-3.4,1.5-4.8l0.7-2c0.2-0.6,0.4-1.1,0.6-1.6
	c0.4-0.9,0.7-1.7,0.9-2.2C105.1,335,105.2,334.8,105.4,334.5z"/>
<path class="st6" d="M85.9,420.1c0-0.1,0-0.2,0-0.3c0-0.2,0-0.5-0.1-0.8c0-0.8-0.1-1.9-0.2-3.2c-0.2-2.9-0.4-6.9-0.8-12
	c-0.6-10.1-1.6-24-3.3-39.4c-0.9-7.7-1.9-14.9-2.9-21.5c-0.6-3.3-1.1-6.4-1.6-9.4s-1.1-5.6-1.6-8.1s-1-4.7-1.5-6.6s-0.8-3.6-1.2-5
	s-0.6-2.4-0.8-3.2c-0.1-0.3-0.1-0.6-0.2-0.8c0-0.1,0-0.2,0-0.3c0,0.1,0.1,0.2,0.1,0.3c0.1,0.2,0.1,0.5,0.2,0.8l0.9,3.1
	c0.4,1.4,0.8,3,1.3,5s1,4.2,1.6,6.6s1.1,5.2,1.7,8.1s1.1,6,1.7,9.4c1.1,6.6,2.1,13.9,3,21.6c1.7,15.4,2.6,29.3,3.1,39.4
	c0.3,5,0.5,9.1,0.6,12c0,1.4,0.1,2.5,0.1,3.2c0,0.4,0,0.6,0,0.9C86,420,86,420.1,85.9,420.1z"/>
<path class="st7" d="M90,318c-0.3-3.5-3.8-6.1-7.3-6.1s-6.7,2-8.9,4.8c-2,2.9-3.5,6.1-4.3,9.5c-2.3,8.2-3.6,16.8-2.6,25.2
	s4.4,16.8,10.5,22.8c1,1,2.3,1.9,3.6,1.6c0.8-0.2,1.4-0.6,2-1.2c12-11,18.7-26.7,18.3-43c-0.1-3.2-0.5-6.6-2.3-9.2
	S93.1,316.9,90,318"/>
<path class="st7" d="M64,290.1l-5,8.9c-0.1,0.2-0.3,0.4-0.5,0.5s-0.5-0.2-0.6-0.4c-4.3-6.7-8.7-13.3-13-20l3-1.7L64,290.1z"/>
<path class="st7" d="M90.3,306.2L46,280c-0.8-0.2-1.3-1.1-1.1-1.9c0.1-0.4,0.4-0.8,0.8-1c6.2-6.4,14.8-9.8,23.7-9.3
	c8.9,0.6,16.9,5.6,21.4,13.3C95.1,288.8,95.3,298.9,90.3,306.2"/>
<path class="st6" d="M52.4,271.7c0.2,0,0.4-0.1,0.6-0.1c0.4,0,0.9-0.1,1.7-0.1c2.1,0,4.1,0.1,6.2,0.5c13.8,2.3,25,12.5,28.7,26
	c0.6,2,0.9,4,1.1,6c0.1,0.7,0.1,0.9,0.1,1.3s-0.1,0.7-0.3,1c0.1-0.7,0.2-1.5,0.1-2.2c-0.3-2-0.7-4-1.3-6
	c-3.8-13.3-14.8-23.3-28.4-25.7c-2-0.4-4-0.6-6.1-0.6C53.2,271.7,52.4,271.7,52.4,271.7z"/>
<path class="st6" d="M84.3,288.1c-0.7,0.4-1.5,0.8-2.2,1c-1.4,0.6-3.4,1.3-5.6,2s-4.2,1.3-5.7,1.6c-0.8,0.2-1.6,0.4-2.4,0.5
	c0.7-0.4,1.5-0.6,2.3-0.8l5.7-1.8l5.7-1.8C82.8,288.5,83.5,288.3,84.3,288.1z"/>
<path class="st6" d="M77.4,269.4c0.6,3.3,0.7,6.6,0.2,9.9c-0.2-1.7-0.3-3.3-0.3-5C77.2,272.6,77.2,271,77.4,269.4z"/>
<path class="st6" d="M45.6,279.5c1-0.5,2.1-0.9,3.2-1.1c2-0.6,4.8-1.4,8-2.2s6-1.3,8.1-1.7c1.1-0.3,2.2-0.4,3.4-0.5
	c-1.1,0.4-2.2,0.6-3.3,0.8c-2,0.5-4.9,1.1-8,1.9s-5.9,1.5-8,2C47.9,279.1,46.7,279.3,45.6,279.5z"/>
<path class="st7" d="M71.6,310.4c-3.8-2.9-7.8-3.5-12.6-3.3c-4.8,0.3-9.5,1.5-13.8,3.6c-7.5,3.3-14.5,8.1-19,14.9s-6,15.9-2.7,23.3
	c0.3,0.8,0.8,1.4,1.5,1.8c0.8,0.2,1.7,0.2,2.5-0.2c8.5-2.8,17.1-5.6,24.9-9.9s14.9-10.4,19.1-18.3c1.1-1.9,1.8-3.9,2-6.1
	s-0.5-4.3-2-5.9"/>
<path class="st6" d="M71.7,309.5c-0.2,0.1-0.4,0.2-0.6,0.2l-1.8,0.6l-1.3,0.4c-0.5,0.2-1,0.4-1.5,0.6c-1.1,0.4-2.3,0.9-3.6,1.5
	l-2.1,1c-0.7,0.3-1.4,0.7-2.2,1.1c-1.5,0.8-3.1,1.7-4.8,2.7c-3.5,2.2-6.9,4.7-10.1,7.5c-3.1,2.8-6,5.8-8.7,9c-1.2,1.5-2.3,3-3.3,4.4
	c-0.5,0.7-1,1.4-1.4,2l-1.2,2c-0.8,1.2-1.4,2.4-2,3.4c-0.3,0.5-0.5,1-0.8,1.4s-0.4,0.9-0.6,1.2c-0.4,0.7-0.6,1.3-0.8,1.7
	c-0.1,0.2-0.2,0.4-0.3,0.6c0-0.2,0.1-0.4,0.2-0.6c0.2-0.5,0.4-1,0.8-1.7l0.5-1.2c0.2-0.5,0.5-0.9,0.7-1.5c0.5-1,1.1-2.2,1.9-3.5
	l1.2-2c0.4-0.7,0.9-1.4,1.4-2.1c0.9-1.5,2.1-2.9,3.3-4.4c2.7-3.3,5.6-6.3,8.7-9.1c3.2-2.8,6.6-5.3,10.2-7.5c1.7-1,3.3-1.9,4.8-2.7
	c0.8-0.4,1.5-0.8,2.2-1.1l2.1-0.9c1.3-0.6,2.6-1,3.7-1.4c0.5-0.2,1-0.4,1.5-0.5l1.3-0.4l1.8-0.5C71.3,309.6,71.5,309.5,71.7,309.5z"
	/>
<path class="st6" d="M41.9,325.7c-3,1.2-6.1,2.2-9.3,3c-3.1,1-6.2,1.8-9.4,2.5c3-1.2,6.1-2.2,9.3-3
	C35.6,327.2,38.7,326.3,41.9,325.7z"/>
<path class="st6" d="M41.5,346.1c-0.2-1-0.2-1.9-0.2-2.9c0-1.8-0.1-4.3,0-7s0.2-5.2,0.4-7c0-1,0.2-1.9,0.4-2.9c0.1,1,0.1,1.9,0,2.9
	c-0.1,2-0.1,4.3-0.2,7s-0.1,5-0.2,7C41.7,344.2,41.7,345.2,41.5,346.1z"/>
<path class="st6" d="M59.1,337.2c-0.2,0-0.6-5-1-11.2s-0.7-11.2-0.5-11.2s0.6,5,1,11.2S59.2,337.2,59.1,337.2z"/>
<path class="st6" d="M37.2,314.3c1-0.1,2-0.2,3-0.1c1.8,0,4.4,0.1,7.2,0.1s5.3,0.2,7.2,0.3c1,0,2,0.1,3,0.3c-1,0.1-2,0.2-3,0.1
	c-1.8,0-4.4-0.1-7.2-0.1s-5.3-0.2-7.2-0.3C39.2,314.5,38.2,314.5,37.2,314.3z"/>
<path class="st6" d="M79.3,375.4c0-0.2-0.1-0.4-0.1-0.6c0-0.5,0-1-0.1-1.7c-0.1-1.5-0.1-3.6,0-6.3s0.2-5.8,0.6-9.3s0.8-7.3,1.6-11.3
	s1.6-7.8,2.5-11.2s1.9-6.4,2.8-8.9s1.7-4.5,2.2-5.9c0.3-0.6,0.5-1.2,0.7-1.6c0.1-0.2,0.2-0.4,0.3-0.5c0,0.2-0.1,0.4-0.2,0.6
	l-0.6,1.6c-0.5,1.4-1.2,3.4-2.1,5.9s-1.8,5.5-2.7,8.9s-1.7,7.1-2.5,11.1s-1.2,7.8-1.6,11.3s-0.6,6.6-0.7,9.3s-0.2,4.8-0.2,6.3
	c0,0.7,0,1.3,0,1.7C79.4,375,79.4,375.2,79.3,375.4z"/>
<path class="st6" d="M81.7,346.3c-0.5,0.7-1.1,1.4-1.8,1.9c-1.2,1.1-2.8,2.7-4.6,4.3s-3.6,3-4.9,4c-0.7,0.6-1.4,1.1-2.2,1.5
	c0.6-0.7,1.2-1.3,1.9-1.8l4.8-4.1l4.7-4.1C80.3,347.4,80.9,346.8,81.7,346.3z"/>
<path class="st6" d="M95.7,357.6c-0.7-0.8-1.3-1.7-1.9-2.6l-4.4-6.4l-4.5-6.3c-0.7-0.8-1.3-1.7-1.8-2.7c0.8,0.8,1.5,1.6,2.1,2.5
	c1.2,1.6,2.9,3.8,4.6,6.2s3.2,4.8,4.3,6.5C94.8,355.7,95.3,356.6,95.7,357.6z"/>
<path class="st6" d="M88.4,322.1c0.1,0.1-4.6,3.3-10.4,7s-10.6,6.7-10.7,6.6s4.6-3.3,10.4-7S88.3,321.9,88.4,322.1z"/>
<path class="st6" d="M101.5,336.2c-2.5-2-4.8-4.2-7.1-6.5c-2.4-2.2-4.6-4.5-6.7-6.9c2.5,2,4.8,4.2,7.1,6.5
	C97.2,331.5,99.4,333.8,101.5,336.2z"/>
<path class="st7" d="M104.8,336l4-0.3c2.8-0.2,5.6-1.1,8.1-2.5c1.2-0.7,2.5-1.3,3.8-1.9c5-2,10.5-1.6,15.8-1.9
	c8.7-0.4,17.3-2.6,25.1-6.4c0.5-0.2,0.8-0.6,1.1-1c0.8-1.5-0.7-2.8-2-3.6c-6.7-4.2-13.6-8.4-21.2-10.4s-16.3-1.7-22.9,2.8
	C108.9,315.9,106.1,326.8,104.8,336"/>
<path class="st6" d="M162.8,321.5c-0.2-0.1-0.5-0.2-0.7-0.3l-1.9-1c-1.6-0.9-4-2.1-7-3.6c-3.5-1.7-7.1-3.1-10.9-4.2
	c-4.6-1.3-9.3-1.7-14.1-1.1c-4.7,0.5-9.2,2.4-12.8,5.5c-2.8,2.6-5.1,5.8-6.7,9.4c-1.4,3-2.3,5.5-2.9,7.3c-0.3,0.8-0.5,1.5-0.7,2
	c-0.1,0.2-0.2,0.5-0.3,0.7c0-0.2,0.1-0.5,0.2-0.7c0.2-0.5,0.4-1.2,0.6-2c0.8-2.5,1.7-5,2.8-7.4c1.5-3.6,3.8-6.9,6.7-9.6
	c3.7-3.2,8.2-5.1,13.1-5.7c4.8-0.6,9.6-0.2,14.3,1.2c3.8,1.1,7.4,2.5,10.9,4.3c3,1.5,5.3,2.8,6.9,3.7l1.9,1.1
	C162.4,321.1,162.6,321.3,162.8,321.5z"/>
<path class="st6" d="M153.2,326.6c-0.1,0.1-5.3-3.3-11.7-7.6s-11.5-7.9-11.4-8s5.3,3.3,11.7,7.6S153.2,326.5,153.2,326.6z"/>
<path class="st6" d="M147.6,310.8c-1.2,0.4-2.5,0.7-3.8,0.7c-1.3,0.2-2.6,0.2-3.9-0.1c1.3-0.2,2.6-0.4,3.8-0.4
	C145,310.8,146.3,310.8,147.6,310.8z"/>
<path class="st6" d="M124.7,307.8c-0.4,1-1,1.9-1.7,2.7c-0.6,0.9-1.3,1.8-2.2,2.5c0.4-1,1-1.9,1.7-2.7
	C123.1,309.3,123.8,308.5,124.7,307.8z"/>
<path class="st6" d="M129.4,329.7c-0.9-0.4-1.7-0.8-2.5-1.4c-1.5-0.9-3.6-2.3-5.7-3.9s-4.1-3.1-5.5-4.2c-0.8-0.6-1.5-1.2-2.2-1.9
	c0.8,0.4,1.7,1,2.4,1.6l5.6,4c2.2,1.6,4.2,3,5.6,4C127.9,328.5,128.6,329.1,129.4,329.7z"/>
<path class="st7" d="M110.7,353c-3.8-1-8.4,2.7-9.2,6.6s0.7,7.8,2.4,11.4c3.6,8,9,15.1,15.8,20.7c6.8,5.5,15.4,8.9,24.1,8.9
	c-1.6-7.5,0.4-15.3-0.5-23c-1.6-13.8-12.6-24.7-26.4-26.2C114.5,351.1,111.7,350.8,110.7,353"/>
<path class="st6" d="M143.9,400.5c-0.2-0.1-0.4-0.1-0.5-0.2c-0.5-0.3-1-0.6-1.4-1c-1.6-1.4-2.9-3.1-3.8-5c-0.6-1.2-1.3-2.5-2-3.9
	s-1.3-3-2.1-4.5c-0.7-1.7-1.6-3.3-2.5-4.9c-1-1.7-2.2-3.2-3.5-4.7c-2.6-3.1-5.4-5.7-7.8-8.3c-2.2-2.2-4.2-4.6-6-7.2
	c-1.2-1.7-2.2-3.6-2.9-5.6c-0.2-0.7-0.4-1.3-0.5-1.6c-0.1-0.2-0.1-0.4-0.1-0.6c0.1,0,0.3,0.8,0.8,2.1c0.8,1.9,1.8,3.7,3,5.5
	c1.8,2.5,3.8,4.9,6,7.1c2.4,2.5,5.3,5.1,7.9,8.3c1.3,1.5,2.5,3.1,3.5,4.8c0.9,1.6,1.8,3.2,2.5,4.9l2,4.5c0.6,1.4,1.3,2.7,1.9,3.9
	c0.8,1.9,2.1,3.6,3.6,5.1C143.1,400.1,143.9,400.4,143.9,400.5z"/>
<path class="st6" d="M124.1,394.3c0-0.9,0.1-1.7,0.3-2.6c0.3-1.6,0.8-3.7,1.4-6.1s1.4-4.5,1.9-6c0.2-0.8,0.6-1.6,1-2.4
	c-0.2,0.9-0.4,1.7-0.7,2.5c-0.5,1.5-1.1,3.6-1.8,6s-1.2,4.5-1.6,6C124.6,392.6,124.4,393.5,124.1,394.3z"/>
<path class="st6" d="M143.1,375.9c-0.9-0.1-1.8-0.3-2.7-0.6c-1.6-0.4-3.9-1-6.4-1.6s-4.8-1-6.5-1.3c-0.9-0.1-1.8-0.3-2.7-0.6
	c0.9,0,1.9,0,2.8,0.2c1.7,0.2,4,0.6,6.6,1.2s4.8,1.2,6.4,1.8C141.4,375.1,142.3,375.4,143.1,375.9z"/>
<path class="st6" d="M109.9,381.2c0-1,0.2-2,0.4-3c0.3-1.8,0.9-4.3,1.6-7.1s1.5-5.2,2.1-6.9c0.3-1,0.6-1.9,1.1-2.8
	c-0.2,1-0.4,2-0.7,2.9c-0.5,1.8-1.2,4.2-1.9,7s-1.3,5.2-1.7,7C110.5,379.3,110.3,380.3,109.9,381.2z"/>
<path class="st6" d="M134.4,359.8c0,0.1-4.8-0.2-10.7-0.9s-10.6-1.2-10.6-1.4c3.6,0.1,7.1,0.4,10.7,0.9
	C127.3,358.7,130.9,359.2,134.4,359.8z"/>
<path class="st5" d="M130.9,417.6c0,0.1-16.8,0.3-37.4,0.3S56,417.8,56,417.6s16.8-0.3,37.4-0.3S130.9,417.5,130.9,417.6z"/>
<path class="st5" d="M119.2,439.2c0,0.1-11.3,0.3-25.2,0.3s-25.2-0.1-25.2-0.3s11.3-0.3,25.2-0.3S119.2,439,119.2,439.2z"/>
<path class="st5" d="M118.8,442.3c0,0.1-11.1,0.3-24.8,0.3s-24.8-0.1-24.8-0.3S80.3,442,94,442S118.8,442.1,118.8,442.3z"/>
<path class="st5" d="M119.7,436.6c0,0.1-11.7,0.3-26.1,0.3s-26.1-0.1-26.1-0.3s11.7-0.3,26.1-0.3S119.7,436.5,119.7,436.6z"/>
<path class="st1" d="M616.9,159l5.8-12.7c-10.7-14.5-7.7-34.9,6.8-45.6s34.9-7.7,45.6,6.8s7.7,34.9-6.8,45.6
	c-10.9,8.1-25.7,8.5-37.1,1.2l0,0L616.9,159z"/>
<path class="st6" d="M616.9,159l14.3-4.8v0.2l0,0l-0.7-0.7l0.8,0.5c4.8,3.1,10.3,4.8,16,5.1c1.7,0.1,3.4,0,5.1-0.2
	c0.9-0.1,1.8-0.2,2.6-0.4l2.7-0.6c7.9-2.3,14.7-7.5,18.9-14.6c2.3-3.9,3.8-8.3,4.3-12.8c0.5-4.8,0-9.6-1.6-14.2
	c-1.6-4.8-4.4-9.1-8-12.6c-3.7-3.6-8.1-6.3-13-7.8c-4.7-1.4-9.7-1.8-14.5-1c-4.6,0.7-9,2.4-12.9,5c-7,4.7-11.9,11.8-13.7,20
	c-0.7,3.5-0.9,7-0.5,10.6c0.6,5.6,2.7,11,6.1,15.6v0.1v0.1C619.1,154.3,617.2,158.1,616.9,159c0.3-0.9,2-4.7,5.7-12.8v0.1
	c-3.4-4.6-5.6-10-6.2-15.7c-0.4-3.6-0.2-7.2,0.5-10.7c1.8-8.3,6.8-15.6,13.8-20.3c3.9-2.6,8.3-4.4,13-5.1c4.9-0.8,10-0.4,14.8,1
	c5,1.5,9.6,4.2,13.3,7.9c3.7,3.6,6.5,7.9,8.1,12.8c1.6,4.6,2.1,9.6,1.6,14.4c-0.5,4.6-2,9-4.4,13c-4.3,7.2-11.2,12.5-19.2,14.8
	l-2.7,0.6c-0.9,0.1-1.8,0.2-2.7,0.4c-1.7,0.2-3.4,0.3-5.2,0.2c-5.8-0.3-11.3-2.1-16.2-5.3l0.2-0.2l0,0l0.1,0.1l-0.2,0.1L616.9,159z"
	/>
<path class="st6" d="M659.3,128c3.5-3.3,3.7-8.7,0.4-12.2s-8.7-3.7-12.2-0.4c-2.9,2.7-3.6,7.1-1.6,10.6l-1.8,1.6l0.4,2.9l-2.7-0.8
	l-2.2,2.1l0.4,2.9l-2.7-0.8l-1.9,1.8l0.2,1.8L634,137l-1.1,1l-0.2,2.7l4,1l13.1-12.2C653,131,656.7,130.4,659.3,128z M658,117.4
	c0.9,1,0.9,2.6-0.1,3.5s-2.6,0.9-3.5-0.1s-0.9-2.6,0.1-3.5l0,0C655.5,116.3,657.1,116.4,658,117.4z"/>
<path class="st17" d="M659.3,128c3.5-3.3,3.7-8.7,0.4-12.2s-8.7-3.7-12.2-0.4c-2.9,2.7-3.6,7.1-1.6,10.6l-1.8,1.6l0.4,2.9l-2.7-0.8
	l-2.2,2.1l0.4,2.9l-2.7-0.8l-1.9,1.8l0.2,1.8L634,137l-1.1,1l-0.2,2.7l4,1l13.1-12.2C653,131,656.7,130.4,659.3,128z M658,117.4
	c0.9,1,0.9,2.6-0.1,3.5s-2.6,0.9-3.5-0.1s-0.9-2.6,0.1-3.5l0,0C655.5,116.3,657.1,116.4,658,117.4z"/>
<path class="st6" d="M658,117.4c0,0-0.2-0.2-0.5-0.3c-0.5-0.3-1-0.4-1.6-0.3c-1.3,0.2-2.2,1.3-2,2.6s1.3,2.2,2.6,2s2.2-1.3,2-2.6
	c0-0.3-0.1-0.6-0.3-0.8C658.1,117.5,658,117.4,658,117.4S658,117.4,658,117.4c0.2,0.2,0.3,0.3,0.4,0.5c0.3,0.5,0.4,1.1,0.3,1.6
	c-0.1,0.9-0.7,1.6-1.5,1.9c-1,0.4-2.2,0.2-2.9-0.6c-0.4-0.4-0.6-0.9-0.7-1.5c-0.1-0.5,0-1,0.3-1.5c0.4-0.8,1.1-1.3,2-1.4
	c0.6-0.1,1.1,0.1,1.6,0.4c0.1,0.1,0.2,0.2,0.3,0.3C658,117.3,658,117.4,658,117.4z"/>
<path class="st6" d="M659.3,128l-0.1,0.1l-0.4,0.3c-0.5,0.4-1.1,0.8-1.7,1.1c-1,0.5-2,0.7-3.1,0.8c-1.4,0.1-2.9-0.1-4.2-0.7h0.1
	l-13,12.2l0,0l0,0l-4-1h-0.1v-0.1c0-0.9,0.1-1.8,0.2-2.7l0,0l0,0l1.1-1l0,0h0.1l1.7,0.5l-0.1,0.1l-0.3-1.8v-0.1l0,0l1.9-1.8l0,0l0,0
	l2.7,0.8l-0.1,0.1c-0.1-0.9-0.3-1.9-0.4-2.9v-0.1l0,0l0.6-0.5l1.6-1.5l0,0h0.1l2.7,0.8l-0.1,0.1c-0.1-1-0.3-2-0.4-2.9l0,0l0,0
	l1.8-1.6v0.1c-0.7-1.2-1.1-2.6-1.1-3.9c0-0.7,0-1.3,0.1-2c0.1-0.6,0.3-1.3,0.6-1.9c1.9-4.4,7.1-6.4,11.5-4.5
	c1.9,0.8,3.4,2.3,4.3,4.1c0.7,1.4,1,3,0.8,4.5c-0.1,1.2-0.4,2.3-1,3.3l-0.2,0.3l-0.2,0.3c-0.1,0.2-0.2,0.3-0.3,0.5
	c-0.2,0.3-0.4,0.5-0.6,0.7s-0.3,0.3-0.4,0.4l-0.1,0.1l0.1-0.1l0.4-0.4c0.2-0.2,0.3-0.4,0.6-0.7s0.2-0.3,0.3-0.5l0.2-0.3l0.2-0.3
	c0.5-1,0.8-2.1,0.9-3.3c0.1-1.5-0.2-3.1-0.9-4.5c-2.1-4.2-7.2-6-11.5-3.9c-1.8,0.9-3.2,2.4-4,4.2c-0.3,0.6-0.4,1.2-0.6,1.8
	c-0.1,0.7-0.2,1.3-0.1,2c0.1,1.3,0.4,2.7,1.1,3.8v0.1l0.2-0.3l-1.8,1.6v-0.1c0.1,1,0.3,1.9,0.4,2.9v0.2h-0.2l-2.7-0.8h0.1l-1.6,1.5
	l-0.6,0.5v-0.1c0.1,1,0.3,2,0.4,2.9v0.2H640l-2.6-0.9h0.1l-1.9,1.8v-0.1c0.1,0.6,0.2,1.2,0.3,1.8v0.2l-0.2-0.1l-1.6-0.5h0.1l-1.1,1
	v0.2c0,0.9-0.1,1.9-0.2,2.7l-0.1-0.1l4,1h-0.1l13.1-12.2l0,0l0,0c1.3,0.6,2.7,0.8,4.2,0.7c1-0.1,2.1-0.3,3-0.8
	c0.6-0.3,1.2-0.6,1.7-1l0.4-0.3L659.3,128z"/>
<path class="st7" d="M659,127c3.5-3.3,3.7-8.7,0.4-12.2s-8.7-3.7-12.2-0.4c-2.9,2.7-3.6,7.1-1.6,10.6l0,0l-1.8,1.6l0.4,2.9l-2.7-0.8
	l-2.2,2l0.4,2.9l-2.7-0.8l-1.9,1.8l0.2,1.8l-1.7-0.5l-1.1,1l-0.2,2.7l4,1l13.1-12.2C652.7,130,656.4,129.4,659,127z M657.7,116.4
	c0.9,1,0.9,2.6-0.1,3.5s-2.6,0.9-3.5-0.1s-0.9-2.6,0.1-3.5l0,0C655.2,115.3,656.8,115.4,657.7,116.4z"/>
<path class="st17" d="M659,127c3.5-3.3,3.7-8.7,0.4-12.2s-8.7-3.7-12.2-0.4c-2.9,2.7-3.6,7.1-1.6,10.6l0,0l-1.8,1.6l0.4,2.9
	l-2.7-0.8l-2.2,2l0.4,2.9l-2.7-0.8l-1.9,1.8l0.2,1.8l-1.7-0.5l-1.1,1l-0.2,2.7l4,1l13.1-12.2C652.7,130,656.4,129.4,659,127z
	 M657.7,116.4c0.9,1,0.9,2.6-0.1,3.5s-2.6,0.9-3.5-0.1s-0.9-2.6,0.1-3.5l0,0C655.2,115.3,656.8,115.4,657.7,116.4z"/>
<path class="st6" d="M657.7,116.4c0,0-0.2-0.2-0.5-0.3c-0.5-0.3-1-0.4-1.6-0.3c-1.3,0.2-2.2,1.3-2.1,2.6c0.2,1.3,1.3,2.2,2.6,2.1
	c0.2,0,0.4-0.1,0.6-0.2c1.2-0.5,1.8-2,1.3-3.2c0-0.1,0-0.1-0.1-0.2C657.9,116.5,657.7,116.4,657.7,116.4S657.7,116.4,657.7,116.4
	c0.2,0.2,0.3,0.3,0.4,0.5c0.3,0.5,0.4,1.1,0.3,1.6c-0.1,0.9-0.7,1.6-1.5,1.9c-1,0.4-2.2,0.2-2.9-0.6c-0.4-0.4-0.6-0.9-0.7-1.5
	c-0.1-0.5,0-1,0.3-1.5c0.4-0.8,1.1-1.3,2-1.4c0.6-0.1,1.1,0.1,1.6,0.4c0.1,0.1,0.2,0.2,0.3,0.3C657.7,116.3,657.7,116.4,657.7,116.4
	z"/>
<path class="st6" d="M659,127L659,127l-0.5,0.4c-0.5,0.4-1.1,0.8-1.7,1.1c-1,0.5-2,0.7-3.1,0.8c-1.4,0.1-2.9-0.1-4.2-0.7h0.1
	l-13,12.2l0,0l0,0l-4-1h-0.1v-0.1c0-0.9,0.1-1.8,0.2-2.7l0,0l0,0l1.1-1l0,0h0.1l1.7,0.5l-0.1,0.1l-0.3-1.8v-0.1l0,0l1.9-1.8l0,0l0,0
	l2.7,0.8l-0.1,0.1c-0.1-0.9-0.3-1.9-0.4-2.9v-0.1l0,0l0.6-0.5l1.6-1.5l0,0h0.1l2.7,0.8l-0.1,0.1c-0.1-1-0.3-2-0.4-2.9l0,0l0,0
	l1.8-1.6v0.1c-0.7-1.2-1.1-2.6-1.1-3.9c0-0.7,0-1.3,0.1-2c0.1-0.6,0.3-1.3,0.6-1.9c1.9-4.4,7-6.4,11.4-4.5c3.4,1.5,5.5,5,5.2,8.7
	c-0.1,1.2-0.4,2.3-1,3.3l-0.2,0.3l-0.2,0.3c-0.1,0.2-0.2,0.3-0.3,0.5c-0.2,0.3-0.4,0.5-0.6,0.7l-0.4,0.4L659,127l0.1-0.2l0.4-0.4
	c0.2-0.2,0.3-0.4,0.6-0.7s0.2-0.3,0.3-0.5l0.2-0.3l0.2-0.3c0.5-1,0.8-2.1,0.9-3.3c0.4-4.7-3.2-8.8-7.9-9.2c-3.6-0.3-7,1.8-8.5,5.1
	c-0.3,0.6-0.4,1.2-0.6,1.8c-0.1,0.7-0.2,1.3-0.1,2c0.1,1.3,0.4,2.7,1.1,3.8v0.1l-0.1,0.1l-1.8,1.6v-0.1c0.1,1,0.3,1.9,0.4,2.9v0.2
	H644l-2.7-0.8h0.1l-1.5,1.4l-0.6,0.5v-0.1c0.1,1,0.3,2,0.4,2.9v0.2h-0.2L637,133h0.1l-1.9,1.8v-0.1c0.1,0.6,0.2,1.2,0.3,1.8v0.2
	h-0.2l-1.7-0.5h0.1l-1.1,1v-0.1c0,0.9-0.1,1.9-0.2,2.7l-0.1-0.1l4,1h-0.1l13.1-12.2l0,0l0,0c1.3,0.6,2.7,0.8,4.2,0.7
	c1-0.1,2.1-0.3,3-0.8c0.6-0.3,1.2-0.6,1.7-1l0.4-0.3L659,127z"/>
<path class="st6" d="M658.2,126.3c0.4-0.4,0.8-0.9,1.2-1.5s0.7-1.3,0.9-2c0.6-2.1,0.3-4.3-0.9-6.1c-0.7-1.1-1.7-2-2.9-2.7
	c-0.6-0.3-1.3-0.6-2-0.7c-0.4-0.1-0.7-0.1-1.1-0.1c-0.4,0-0.8,0-1.1,0c-3.2,0.4-5.9,2.8-6.5,6c-0.1,0.4-0.1,0.8-0.1,1.1
	c0,0.4,0,0.7,0,1.1c0.1,0.7,0.3,1.4,0.5,2.1c0.5,1.2,1.4,2.3,2.4,3.1c0.9,0.7,2,1.2,3.2,1.4c1,0.2,1.9,0.1,2.9-0.1
	c0.7-0.1,1.4-0.4,2-0.8c0.5-0.3,1.1-0.7,1.5-1.1C658.2,126.2,658.2,126.2,658.2,126.3l-0.4,0.2c-0.1,0.1-0.3,0.3-0.5,0.4
	c-0.2,0.2-0.4,0.3-0.7,0.4c-0.6,0.4-1.3,0.6-2.1,0.8c-3.6,0.8-7.3-1.1-8.7-4.5c-0.3-0.7-0.5-1.4-0.6-2.1c0-0.4-0.1-0.8-0.1-1.1
	c0-0.4,0.1-0.8,0.1-1.2c0.3-1.6,1.1-3.1,2.3-4.2s2.7-1.8,4.4-2c0.4,0,0.8-0.1,1.2-0.1s0.8,0.1,1.1,0.1c0.7,0.1,1.4,0.4,2.1,0.7
	c2.3,1.2,3.9,3.5,4.1,6.1c0.2,1.7-0.3,3.5-1.2,4.9c-0.1,0.2-0.3,0.4-0.5,0.6c-0.1,0.2-0.2,0.3-0.4,0.4l-0.3,0.2
	C658.2,126.3,658.2,126.3,658.2,126.3z"/>
<path class="st6" d="M657.8,120.2c0,0,0.2-0.2,0.4-0.6c0.3-0.6,0.5-1.2,0.4-1.8c0-0.4-0.2-0.9-0.4-1.2c-0.3-0.4-0.7-0.8-1.1-1
	c-1.4-0.7-3.1-0.1-3.8,1.3c-0.1,0.2-0.2,0.5-0.2,0.7c-0.2,1.1,0.2,2.1,1.1,2.8c0.3,0.3,0.8,0.4,1.2,0.5c0.6,0.1,1.3,0,1.8-0.3
	C657.5,120.5,657.7,120.3,657.8,120.2C657.8,120.2,657.8,120.2,657.8,120.2c-0.2,0.2-0.4,0.3-0.5,0.4c-0.6,0.3-1.3,0.5-1.9,0.4
	c-1-0.2-1.9-0.8-2.3-1.8c-0.2-0.5-0.3-1.1-0.2-1.7s0.4-1.2,0.9-1.7c0.9-0.9,2.3-1.1,3.4-0.5c0.5,0.3,0.9,0.6,1.2,1.1
	c0.8,1.1,0.6,2.7-0.4,3.6L657.8,120.2z"/>
<path class="st6" d="M635.5,140.3c0-0.1,2.9-2.9,6.6-6.3s6.7-6.2,6.7-6.1s-2.9,2.9-6.6,6.3S635.5,140.3,635.5,140.3z"/>
<g class="st18">
	<path d="M64,290.1l-5,8.9c-0.1,0.2-0.3,0.4-0.5,0.5s-0.5-0.2-0.6-0.4c-4.3-6.7-8.7-13.3-13-20l3-1.7L64,290.1z"/>
</g>
<g>
	<path d="M251.5,201.2h-4.7l-1.3,3.2h-1.6l5.4-12.8h0.1l5.4,12.8h-1.9L251.5,201.2z M250.9,199.8l-1.8-4.5l-1.8,4.5H250.9z"/>
	<path d="M264,197.4v7h-1.4l-0.1-1.3c-0.2,0.5-0.6,0.9-1.1,1.2c-0.5,0.3-1.1,0.5-1.7,0.5c-0.6,0-1.2-0.2-1.6-0.6
		c-0.4-0.4-0.6-0.9-0.7-1.5v-5.2h1.6v4.6c0,0.4,0.1,0.7,0.3,0.9c0.2,0.2,0.5,0.4,0.9,0.4c0.4,0,0.7-0.1,1.1-0.3
		c0.3-0.2,0.6-0.6,0.8-1s0.3-0.9,0.3-1.4v-3.3H264z"/>
	<path d="M269.9,194.3v3.1h1.9v1.3h-1.9v5.8h-1.6v-5.8H267v-1.3h1.3v-3.1H269.9z"/>
	<path d="M279.6,202.7l0.7,1.2c-0.4,0.2-0.8,0.4-1.2,0.6c-0.4,0.1-0.9,0.2-1.3,0.2c-0.8,0-1.5-0.2-2-0.5c-0.6-0.3-1-0.8-1.4-1.3
		c-0.3-0.6-0.5-1.2-0.5-1.9c0-0.7,0.2-1.3,0.5-1.9c0.3-0.6,0.8-1,1.4-1.4c0.6-0.3,1.3-0.5,2-0.5c0.9,0,1.7,0.3,2.3,0.8
		c0.6,0.5,1,1.3,1.3,2.3l-5.6,2c0.2,0.4,0.5,0.6,0.8,0.8c0.3,0.2,0.7,0.3,1.2,0.3C278.4,203.3,279,203.1,279.6,202.7z M276.1,199.1
		c-0.4,0.5-0.6,1-0.6,1.7c0,0.2,0,0.3,0,0.4l4.1-1.5c-0.2-0.4-0.4-0.7-0.7-0.9c-0.3-0.2-0.7-0.4-1.2-0.4
		C277.1,198.4,276.6,198.6,276.1,199.1z"/>
	<path d="M290.2,197.8c0.4,0.4,0.7,0.9,0.7,1.5v5.2h-1.6v-4.7c0-0.4-0.1-0.7-0.4-0.9s-0.5-0.3-1-0.4c-0.6,0-1.1,0.2-1.5,0.7
		c-0.4,0.5-0.6,1.1-0.6,1.9v3.3h-1.6v-7h1.4l0.1,1.4c0.2-0.5,0.6-0.9,1.1-1.2s1.1-0.4,1.7-0.4C289.3,197.2,289.8,197.4,290.2,197.8z
		"/>
	<path d="M296.8,194.3v3.1h1.9v1.3h-1.9v5.8h-1.6v-5.8h-1.3v-1.3h1.3v-3.1H296.8z"/>
	<path d="M301.6,194.3c0.2-0.2,0.4-0.3,0.7-0.3c0.2,0,0.5,0.1,0.7,0.3c0.2,0.2,0.3,0.4,0.3,0.6c0,0.2-0.1,0.5-0.3,0.6
		c-0.2,0.2-0.4,0.3-0.7,0.3c-0.2,0-0.5-0.1-0.7-0.3s-0.3-0.4-0.3-0.6C301.3,194.7,301.4,194.4,301.6,194.3z M303,197.4v7h-1.6v-7
		H303z"/>
	<path d="M311.2,204.4c-0.4,0.1-0.9,0.2-1.3,0.2c-0.8,0-1.4-0.2-2-0.5s-1-0.7-1.4-1.3c-0.3-0.6-0.5-1.2-0.5-1.9
		c0-0.7,0.2-1.4,0.5-1.9c0.3-0.6,0.8-1,1.4-1.3c0.6-0.3,1.2-0.5,1.8-0.5c1.1,0,2,0.3,2.7,0.9l-0.8,1c-0.2-0.2-0.5-0.3-0.8-0.4
		c-0.3-0.1-0.6-0.2-1-0.2c-0.4,0-0.8,0.1-1.1,0.3c-0.3,0.2-0.6,0.5-0.8,0.9c-0.2,0.4-0.3,0.8-0.3,1.2s0.1,0.8,0.3,1.2
		c0.2,0.4,0.5,0.7,0.9,0.9c0.4,0.2,0.8,0.3,1.2,0.3c0.6,0,1.1-0.2,1.5-0.5l0.8,1C312,204.1,311.7,204.3,311.2,204.4z"/>
	<path d="M322.5,197.4v7h-1.6v-1.2c-0.2,0.3-0.6,0.6-1.1,0.9c-0.5,0.3-1,0.4-1.6,0.4c-0.7,0-1.3-0.1-1.8-0.4c-0.5-0.3-1-0.7-1.3-1.3
		s-0.5-1.2-0.5-2c0-0.8,0.2-1.4,0.5-2c0.3-0.6,0.8-1,1.3-1.3c0.5-0.3,1.2-0.5,1.8-0.5c0.6,0,1.1,0.1,1.6,0.4c0.4,0.3,0.8,0.6,1.1,1
		l0.1-1.1H322.5z M320.1,202.9c0.4-0.3,0.7-0.8,0.8-1.3v-1.4c-0.1-0.5-0.4-0.9-0.9-1.2c-0.4-0.3-0.9-0.5-1.5-0.5
		c-0.4,0-0.8,0.1-1.2,0.3s-0.6,0.5-0.8,0.9c-0.2,0.4-0.3,0.8-0.3,1.2c0,0.5,0.1,0.9,0.3,1.2s0.5,0.7,0.9,0.9
		c0.4,0.2,0.8,0.3,1.2,0.3C319.2,203.3,319.7,203.2,320.1,202.9z"/>
	<path d="M334.6,194.3v3.1h1.9v1.3h-1.9v5.8H333v-5.8h-1.3v-1.3h1.3v-3.1H334.6z"/>
	<path d="M345.8,197.4v7h-1.4l-0.1-1.3c-0.2,0.5-0.6,0.9-1.1,1.2c-0.5,0.3-1.1,0.5-1.7,0.5c-0.6,0-1.2-0.2-1.6-0.6
		c-0.4-0.4-0.6-0.9-0.7-1.5v-5.2h1.6v4.6c0,0.4,0.1,0.7,0.3,0.9c0.2,0.2,0.5,0.4,0.9,0.4c0.4,0,0.7-0.1,1.1-0.3
		c0.3-0.2,0.6-0.6,0.8-1s0.3-0.9,0.3-1.4v-3.3H345.8z"/>
	<path d="M360.2,204.4c-0.4,0.1-0.9,0.2-1.3,0.2c-0.8,0-1.4-0.2-2-0.5s-1-0.7-1.4-1.3c-0.3-0.6-0.5-1.2-0.5-1.9
		c0-0.7,0.2-1.4,0.5-1.9c0.3-0.6,0.8-1,1.4-1.3c0.6-0.3,1.2-0.5,1.8-0.5c1.1,0,2,0.3,2.7,0.9l-0.8,1c-0.2-0.2-0.5-0.3-0.8-0.4
		c-0.3-0.1-0.6-0.2-1-0.2c-0.4,0-0.8,0.1-1.1,0.3c-0.3,0.2-0.6,0.5-0.8,0.9c-0.2,0.4-0.3,0.8-0.3,1.2s0.1,0.8,0.3,1.2
		c0.2,0.4,0.5,0.7,0.9,0.9c0.4,0.2,0.8,0.3,1.2,0.3c0.6,0,1.1-0.2,1.5-0.5l0.8,1C361,204.1,360.7,204.3,360.2,204.4z"/>
	<path d="M370.8,197.4v7h-1.4l-0.1-1.3c-0.2,0.5-0.6,0.9-1.1,1.2c-0.5,0.3-1.1,0.5-1.7,0.5c-0.6,0-1.2-0.2-1.6-0.6
		c-0.4-0.4-0.6-0.9-0.7-1.5v-5.2h1.6v4.6c0,0.4,0.1,0.7,0.3,0.9c0.2,0.2,0.5,0.4,0.9,0.4c0.4,0,0.7-0.1,1.1-0.3
		c0.3-0.2,0.6-0.6,0.8-1s0.3-0.9,0.3-1.4v-3.3H370.8z"/>
	<path d="M379.4,202.7l0.7,1.2c-0.4,0.2-0.8,0.4-1.2,0.6c-0.4,0.1-0.9,0.2-1.3,0.2c-0.8,0-1.5-0.2-2-0.5c-0.6-0.3-1-0.8-1.4-1.3
		c-0.3-0.6-0.5-1.2-0.5-1.9c0-0.7,0.2-1.3,0.5-1.9c0.3-0.6,0.8-1,1.4-1.4c0.6-0.3,1.3-0.5,2-0.5c0.9,0,1.7,0.3,2.3,0.8
		c0.6,0.5,1,1.3,1.3,2.3l-5.6,2c0.2,0.4,0.5,0.6,0.8,0.8c0.3,0.2,0.7,0.3,1.2,0.3C378.3,203.3,378.9,203.1,379.4,202.7z M376,199.1
		c-0.4,0.5-0.6,1-0.6,1.7c0,0.2,0,0.3,0,0.4l4.1-1.5c-0.2-0.4-0.4-0.7-0.7-0.9c-0.3-0.2-0.7-0.4-1.2-0.4
		C376.9,198.4,376.4,198.6,376,199.1z"/>
	<path d="M390.1,197.8c0.4,0.4,0.7,0.9,0.7,1.5v5.2h-1.6v-4.7c0-0.4-0.1-0.7-0.4-0.9c-0.2-0.2-0.5-0.3-1-0.4c-0.6,0-1.1,0.2-1.5,0.7
		c-0.4,0.5-0.6,1.1-0.6,1.9v3.3h-1.6v-7h1.4l0.1,1.4c0.2-0.5,0.6-0.9,1.1-1.2c0.5-0.3,1.1-0.4,1.7-0.4
		C389.1,197.2,389.7,197.4,390.1,197.8z"/>
	<path d="M396.6,194.3v3.1h1.9v1.3h-1.9v5.8H395v-5.8h-1.3v-1.3h1.3v-3.1H396.6z"/>
	<path d="M408.5,197.4v7h-1.6v-1.2c-0.3,0.3-0.6,0.6-1.1,0.9c-0.5,0.3-1,0.4-1.6,0.4c-0.7,0-1.3-0.1-1.8-0.4s-1-0.7-1.3-1.3
		s-0.5-1.2-0.5-2c0-0.8,0.2-1.4,0.5-2c0.3-0.6,0.8-1,1.3-1.3s1.2-0.5,1.8-0.5c0.6,0,1.1,0.1,1.6,0.4s0.8,0.6,1.1,1l0.1-1.1H408.5z
		 M406.2,202.9c0.4-0.3,0.7-0.8,0.8-1.3v-1.4c-0.1-0.5-0.4-0.9-0.9-1.2c-0.4-0.3-0.9-0.5-1.5-0.5c-0.4,0-0.8,0.1-1.2,0.3
		c-0.4,0.2-0.6,0.5-0.8,0.9c-0.2,0.4-0.3,0.8-0.3,1.2c0,0.5,0.1,0.9,0.3,1.2c0.2,0.4,0.5,0.7,0.9,0.9c0.4,0.2,0.8,0.3,1.2,0.3
		C405.2,203.3,405.7,203.2,406.2,202.9z"/>
</g>
</svg>
