<?xml version="1.0" encoding="utf-8"?>
<!-- Generator: Adobe Illustrator 25.1.0, SVG Export Plug-In . SVG Version: 6.00 Build 0)  -->
<svg version="1.1" id="Capa_1" xmlns="http://www.w3.org/2000/svg" xmlns:xlink="http://www.w3.org/1999/xlink" x="0px" y="0px"
	 viewBox="0 0 500 500" style="enable-background:new 0 0 500 500;" xml:space="preserve">
<style type="text/css">
	.st0{fill:#F5F5F5;}
	.st1{fill:#E0E0E0;}
	.st2{fill:#FF671D;}
	.st3{opacity:0.15;enable-background:new    ;}
	.st4{fill:#FFFFFF;}
	.st5{fill:#37474F;}
	.st6{fill:#263238;}
	.st7{fill:#455A64;}
	.st8{fill:#FFBE9D;}
	.st9{opacity:0.3;fill:#1D1D1B;enable-background:new    ;}
	.st10{opacity:0.45;enable-background:new    ;}
	.st11{opacity:0.2;enable-background:new    ;}
	.st12{fill:#874C4C;}
	.st13{fill:#F28F8F;}
	.st14{opacity:0.29;fill:#1D1D1B;enable-background:new    ;}
</style>
<g id="freepik--Floor--inject-2">
	<path id="freepik--floor--inject-2" class="st0" d="M86.3,447.6c-90.4-52.2-90.4-136.8,0-189s237-52.2,327.4,0s90.4,136.8,0,189
		S176.7,499.8,86.3,447.6z"/>
</g>
<g id="freepik--Shadow--inject-2">
	<ellipse id="freepik--shadow--inject-2" class="st1" cx="158.6" cy="409.1" rx="71" ry="41"/>
	
		<ellipse id="freepik--shadow--inject-2_1_" transform="matrix(0.8801 -0.4747 0.4747 0.8801 -128.2247 183.3181)" class="st1" cx="298.9" cy="345.6" rx="101.3" ry="50.4"/>
</g>
<g id="freepik--Plants--inject-2">
	<g id="freepik--plants--inject-2">
		<path class="st2" d="M371.9,331.7c9.9-11.7,25.3-19.4,42.6-23.9c17.1-4.5,20.2-15,8.9-18.4c-12.9-3.9-28.9,3.2-39.3,13.1
			c-18,17.3-20.3,30.5-20.3,30.5L371.9,331.7z"/>
		<path class="st3" d="M371.9,331.7c9.9-11.7,25.3-19.4,42.6-23.9c17.1-4.5,20.2-15,8.9-18.4c-12.9-3.9-28.9,3.2-39.3,13.1
			c-18,17.3-20.3,30.5-20.3,30.5L371.9,331.7z"/>
		<path class="st4" d="M366.8,331c-0.1,0-0.1,0-0.2,0c-0.2-0.1-0.4-0.4-0.2-0.7l0,0c14.6-30,47-37.4,54.8-36.8
			c0.3,0,0.5,0.3,0.5,0.5c0,0.3-0.3,0.5-0.5,0.5c-7.7-0.6-39.5,6.7-53.9,36.3C367.1,330.9,367,331,366.8,331z"/>
		<path class="st2" d="M363.7,334.8c0,1.5,1.2,2.7,2.7,2.7c0.5,0,1-0.1,1.4-0.4c9.2-5.3,22.5-8.3,44.1-2.1
			c11.5,3.3,17.2,1.1,19.6-3.6c2.7-5.2-3-10.2-9.5-12.6c-22.1-8.1-42.1-2.6-58.4,13.6L363.7,334.8z"/>
		<path class="st4" d="M365,335.3c-0.1,0-0.3-0.1-0.4-0.2c-0.2-0.2-0.2-0.5,0-0.7c19.1-17.1,48.7-13.8,59.9-7.1
			c0.2,0.1,0.3,0.4,0.2,0.7c-0.1,0.2-0.4,0.3-0.7,0.2c-11-6.5-40-9.8-58.7,7C365.2,335.2,365.1,335.3,365,335.3z"/>
	</g>
	<g id="freepik--plants--inject-2_1_">
		<path class="st2" d="M149.9,374.6c-8.4-12.8-22.8-22.2-39.5-28.8c-16.5-6.4-18.3-17.3-6.6-19.3c13.2-2.3,28.4,6.6,37.5,17.7
			c15.9,19.3,16.6,32.7,16.6,32.7L149.9,374.6z"/>
		<path class="st3" d="M149.9,374.6c-8.4-12.8-22.8-22.2-39.5-28.8c-16.5-6.4-18.3-17.3-6.6-19.3c13.2-2.3,28.4,6.6,37.5,17.7
			c15.9,19.3,16.6,32.7,16.6,32.7L149.9,374.6z"/>
		<path class="st4" d="M155,374.6c0.1,0,0.1,0,0.2,0c0.3-0.1,0.4-0.4,0.3-0.6c-11-31.5-42.2-42.7-50.1-43c-0.3,0-0.5,0.2-0.5,0.5
			s0.2,0.5,0.5,0.5c7.7,0.3,38.4,11.3,49.2,42.4C154.7,374.5,154.8,374.6,155,374.6z"/>
		<path class="st2" d="M157.9,376.3c-0.3,2.3-2.3,3.9-4.6,3.7c-0.7-0.1-1.3-0.3-1.9-0.7c-8.5-5.7-21.1-9.4-41.8-6
			c-11.8,1.9-17.2-1-19-5.9c-2.1-5.5,4.2-9.8,10.9-11.4C124.5,350.6,143.7,358.5,157.9,376.3L157.9,376.3z"/>
		<path class="st4" d="M156.3,379c0.1,0,0.3,0,0.4-0.1c0.2-0.2,0.2-0.5,0-0.7c-17-19.2-46.8-19.4-58.7-14.1
			c-0.3,0.1-0.4,0.4-0.3,0.7s0.4,0.4,0.7,0.3c11.7-5.2,40.9-5,57.5,13.9C156,378.9,156.2,379,156.3,379z"/>
	</g>
</g>
<g id="freepik--check-mark--inject-2_1_">
	<g id="freepik--check-mark--inject-2">
		<g id="freepik--Circle--inject-2">
			<path class="st5" d="M380.8,146.2L380.8,146.2l-0.2-0.1l0,0l-38.1-21.9l0,0l-0.2-0.1l0,0c-17.8-9-41.6-6.3-67.1,10.2
				c-51.3,33.2-90.5,109.6-87.4,170.7c1.5,30.4,13.3,51.3,31,60.5l0,0l0.1,0.1l0,0l38.1,22l0,0l0.2,0.1l0,0
				c17.8,9,41.6,6.3,67.2-10.2c51.3-33.2,90.5-109.6,87.4-170.7C410.3,176.2,398.6,155.4,380.8,146.2z"/>
			<path class="st6" d="M255.8,386.8L219,365.5l0,0l-0.2-0.1c-17.7-9.2-29.5-30.1-31-60.5c-1.4-27.2,5.7-57.5,18.4-85.6l0.2-0.6
				l37.9,22.6c-12.8,28.1-19.8,58.4-18.4,85.6C227.4,356.7,238.7,377.3,255.8,386.8z"/>
			<path class="st7" d="M324.5,377.3c51.3-33.2,90.5-109.6,87.4-170.7s-47.2-83.7-98.5-50.4S222.9,265.8,226,326.9
				S273.1,410.5,324.5,377.3z"/>
		</g>
		<path id="freepik--shadow--inject-2_2_" class="st5" d="M367.9,141.4L303.6,274l-13.9-15c-8.7-9.1-23.1-9.4-32.2-0.6
			c-8.8,8.5-9.4,22.4-1.3,31.5l36.5,39.5c4,4.4,9.6,7,15.5,7.3c0.4,0,0.8,0,1.3,0c1.1,0,2.2-0.1,3.3-0.2c7.5-1.1,13.9-5.8,17.2-12.6
			l73.8-152C396.2,155,383.6,144.5,367.9,141.4z"/>
		<path class="st2" d="M420.2,97.8c-0.4-0.2-0.8-0.4-1.2-0.7c-9.8-4.8-21.6-0.7-26.4,9.1l-81.9,168.7l-4.7-5
			c-1.3-1.5-2.9-2.7-4.6-3.7c-2.4-1.4-12.8-7.4-14.5-8.4c-9.5-5.5-21.5-2.2-27,7.2c-4.3,7.5-3.3,17,2.6,23.3l36.5,39.5
			c1.4,1.5,3,2.7,4.7,3.8c2.4,1.4,12.7,7.4,14.4,8.3c9.4,5.5,21.5,2.2,27-7.2c0.2-0.4,0.5-0.8,0.7-1.3L442.6,132
			c4.5-9.3,1.1-20.6-7.9-25.8L420.2,97.8z"/>
		<path class="st3" d="M420.2,97.8c-0.4-0.2-0.8-0.4-1.2-0.7c-9.8-4.8-21.6-0.7-26.4,9.1l-81.9,168.7l-4.7-5
			c-1.3-1.5-2.9-2.7-4.6-3.7c-2.4-1.4-12.8-7.4-14.5-8.4c-9.5-5.5-21.5-2.2-27,7.2c-4.3,7.5-3.3,17,2.6,23.3l36.5,39.5
			c1.4,1.5,3,2.7,4.7,3.8c2.4,1.4,12.7,7.4,14.4,8.3c9.4,5.5,21.5,2.2,27-7.2c0.2-0.4,0.5-0.8,0.7-1.3L442.6,132
			c4.5-9.3,1.1-20.6-7.9-25.8L420.2,97.8z"/>
		<path class="st3" d="M318,339.9c-1.7-1-12-7-14.4-8.3c-1.8-1-3.3-2.3-4.7-3.8l-36.5-39.5c-1.6-1.8-2.9-3.8-3.8-6l14.5,8.4
			c0.9,2.2,2.2,4.3,3.8,6l36.5,39.5C314.7,337.7,316.3,338.9,318,339.9z"/>
		<path class="st3" d="M411.6,108.6c-1.9,1.7-3.5,3.8-4.6,6.1l-84.2,173.5L310.6,275l81.9-168.7c1.1-2.3,2.7-4.4,4.6-6.1
			L411.6,108.6z"/>
		<path id="freepik--Check--inject-2" class="st2" d="M433.5,105.5c-9.8-4.7-21.6-0.7-26.4,9.1l-84.2,173.5L306,269.9
			c-7.7-7.8-20.2-7.9-27.9-0.2c-7.4,7.3-7.9,19.2-1.1,27l36.5,39.5c7.4,8,19.9,8.5,27.9,1.1c1.8-1.7,3.3-3.7,4.4-5.9l96.9-199.5
			C447.4,122.1,443.3,110.3,433.5,105.5z"/>
	</g>
</g>
<path class="st8" d="M157.2,125c-7.6,0-12.9,2-18.3,9.7c-5,7.1-18.6,30.7-18.6,30.7s-10-20.5-11-24.6s-0.9-5.9,0-7.7
	c1.4-2.1,2.2-4.5,2.5-7c0.4-4.9,1.6-9.1,0.5-9.3c-3.1-0.2-3.2,3.8-4.8,6.1c-0.7,0.8-1.9,0.8-2.7,0.1c-0.1-0.1-0.3-0.3-0.4-0.5
	c-0.7-1.4-0.3-3.6-0.6-5.2c0.1-0.9,0.2-1.8,0.4-2.7c1.2,0.2,2.3,0.2,3.5,0.1c1.3,2.1,2.2,2.9,4.1,2.1c0.2-0.4-0.8-3-2-5
	c-0.2-0.3-0.5-0.5-0.8-0.6c-2.2-0.6-4.5-0.6-6.8-0.2c-0.3,0-0.7,0.2-0.9,0.5c-0.8,1.2-1.5,2.6-2,4c-0.1,0.4-0.5,0.4-0.6,0.1
	c-1-4.8-1-11.7-1-14.9c0-2.5-3.7-2.9-3.8,0.7c-0.2,4.9-0.1,9.7,0.2,14.6c0,0.4-0.4,0.7-0.6,0.2c-0.6-1.7-2.2-6.9-2.9-15.8
	c-0.2-2.4-4.1-2.8-4,0.6c0.2,6,0.9,11.9,2.3,17.7c0.1,0.4-0.3,0.8-0.6,0.3c-1.8-3.5-3.3-7.2-4.3-11c-0.8-2.9-4.7-2.2-4,1.4
	c1.2,6.5,3.1,14.7,6,20.5c3.1,6.2,5.7,9.4,7.2,14.3s7.8,32.7,14.5,43.6c5.3,8.5,11.3,7.7,17.8,3.2s29.7-36.8,29.7-36.8L157.2,125z"
	/>
<path class="st9" d="M120.3,165.4c0,0,3.2,5.5,3.8,9.9c0.8-4.3,0-8.7-2.3-12.4L120.3,165.4z"/>
<path class="st7" d="M158.9,125c-3.9-0.4-8.7-0.5-14.1,2.9c-5.4,3.4-7.3,8.1-9.9,12.2s-11.6,18.8-11.6,18.8s3.3,13.9,16.5,16.8
	l19.7-26.7L158.9,125z"/>
<path class="st6" d="M176.5,369.2c1-0.1,2.3,3.3,2.4,4.4s-1.1,3.5-2.6,5.7c-2,2.7-3.6,5.6-4.9,8.6c-1.1,3.1-2.2,5.1-5.3,9.1
	c-3.5,4.5-11.7,12-24.2,8.7c-3.1-0.8-4.6-1.8-5.7-2.9c-1-1-1.3-2.5-0.9-3.8L176.5,369.2z"/>
<path class="st5" d="M152,365.3v0.1c-0.1,0.9-0.1,1.9,0.1,2.8c0.7,5.6-1,11.2-4.7,15.4c-1.7,1.8-3.7,3.4-5.8,4.7
	c-6.3,4-7,6.7-6.1,10.8c2.1,4.8,16.4,7.6,24.7,0.6c3.6-2.8,6.3-6.5,7.9-10.7c1.2-3,2.6-6,4.2-8.8c1.6-3,4.6-6.4,4.7-9.5
	c0.1-1.7-1.6-4.9-3.3-7.5c-1.5-2.4-3.1-4.7-4.4-4.4l0.4,1.4c-1.1,1.2-2.8,1.6-3.7,3c-1.2,1.7-1.2,4-1.9,5.9c0,0.2-0.2,0.4-0.4,0.5
	c-0.2,0-0.4-0.1-0.5-0.3c-0.1-0.2-0.1-0.4-0.1-0.6l-0.1-2.9c0-0.6-0.1-1.1-0.4-1.6c-0.8-0.9-2.7-0.8-3.8-0.8c-1.4,0-2.9,0.1-4.3,0.3
	c-0.5,0-1,0.1-1.4,0.4C152.4,364.4,152.1,364.8,152,365.3z"/>
<path class="st8" d="M130.8,307.2c3.3,11,18.9,48.9,19.8,51.1l3.1,7.5c2,0.7,4.2,0.8,6.3,0.3c0.3,3.6,0.9,9.3,1.1,12.2
	c0.1,3.3,0.4,7.5-0.4,10.7c-0.6,2.8-1.3,5.7-1.9,8.5c-0.2,1.2-0.5,2.5-0.6,3.7c-0.3,1.3-0.2,2.7,0.3,3.9c0.3,0.5,0.7,1,1.2,1.4
	c2.2,1.7,5,2.6,7.8,2.3c1.5-0.1,2.9-0.5,4.2-1.4c2.4-1.7,3.3-4.7,4.5-7.3c1.3-2.8,0.9-3.1,1-6c0.1-2.1,0.7-7.4,1.5-12.9
	s4.4-24.9,6.1-44.2c0.7-8.6,0.7-17.2,0-25.8c13.7-37.1,19.7-59.2,21.5-71.5c1.8-12.5,0.9-17,0.7-24.2l-66.4,1.6
	C135.5,251.6,126.3,292.5,130.8,307.2z"/>
<path class="st2" d="M129.8,279.8c1.4-12.6,10.8-61.1,10.8-61.1h66.9c0,0,0.4,9.3,0.3,13.6s-1.5,12.1-3.9,22s-11.2,37.9-13,42
	s-5,16.1-5,16.1c1.6,22.4-2.6,42.6-5.8,69.4c0,0-0.9,3.6-10.4,2.9c-9.2-0.7-11.1-4.1-11.1-4.1l-0.6-23.1c0,0-5,1.5-8,0.8
	c0,0-19.8-48.9-20.8-51.9S128.4,292.4,129.8,279.8z"/>
<path class="st10" d="M129.8,279.8c1.4-12.6,10.8-61.1,10.8-61.1h66.9c0,0,0.4,9.3,0.3,13.6s-1.5,12.1-3.9,22s-11.2,37.9-13,42
	s-5,16.1-5,16.1c1.6,22.4-2.6,42.6-5.8,69.4c0,0-0.9,3.6-10.4,2.9c-9.2-0.7-11.1-4.1-11.1-4.1l-0.6-23.1c0,0-5,1.5-8,0.8
	c0,0-19.8-48.9-20.8-51.9S128.4,292.4,129.8,279.8z"/>
<path class="st11" d="M158.2,250.3c-9.5-8.5-11.6-15.3-11.6-15.3c4.8,5.4,10.4,9.9,16.7,13.4c0,0-9,47.5-8.3,57.3s3.1,51.8,3.1,51.8
	c0,0.4-6.4-44.4-6.6-48C151,299.9,158.2,250.3,158.2,250.3z"/>
<path class="st6" d="M179,405.5c0.9,0.3,0.8,3,0.4,4.1c-1,1.8-2.5,3.3-4.3,4.5c-2.6,1.8-4.8,4.1-6.4,6.8c-2.6,3.9-6,7.2-9.9,9.7
	c-5.3,3-11.6,3.9-17.5,2.5c-6.3-1.8-6.9-3.3-6.8-5.7L179,405.5z"/>
<path class="st7" d="M159.6,390.9c-1.6,8-4.5,13.9-11.2,18.8c-5.3,3.9-9.1,5.9-13.4,9.5c-1.8,1.5-1.9,4.7-0.6,8.1
	c2.9,2.3,6.9,3.6,12.4,3.6c6.1,0,8.4-1.1,11.9-3.5c1.7-1.2,3.3-2.5,4.8-4c2.9-2.9,5-6.6,7.1-8.9s6.7-4.7,8-7.5
	c0.7-1.5,0.4-5.1-0.1-8.1c-0.4-2.8,0.4-7.7-0.9-8l-0.2,2c-0.1,0.5-0.4,0.7-1.3,1c-0.8,0.2-1.7,0.2-2.6,0.1c-0.6-0.2-1.3,0-1.7,0.5
	c-0.9,1.1-1.1,2.6-2.3,3.4c-0.1,0.1-0.2,0.1-0.3,0.1c-0.1,0.1-0.2,0-0.3,0c-0.1-0.1-0.1-0.2-0.1-0.3l0.3-3c0-0.3,0-0.6,0-0.9
	c-0.1-0.6-0.5-1-1-1.3c-0.8-0.5-1.7-0.9-2.7-1.1c-1-0.3-2-0.4-3-0.5C161.6,390.7,160.6,390.7,159.6,390.9z"/>
<path class="st2" d="M201.5,127.9c0,0,2.8,3.8,5,11.6c2.7,12.8,4.1,25.8,4.2,38.9c0,17.7-2.4,46.3-2.4,46.3
	c-20.5,10.3-53.6,4.2-68.2-5.8c0.6-3.2,1.1-19.9,2.2-30.9c0.8-18.9,1.4-28.8,1.5-37.2c0.3-16.8,8.6-25.5,15-25.6l16.1,0.2
	L201.5,127.9z"/>
<path class="st12" d="M206.5,219.5c-3.1,2.5-9,7.3-10.1,9.8c-1.3,2.8-2,7-2.9,8.6s0.4,2.4,2.2,1.8s2.8-2.1,4.2-5.7s5.1-6.5,5.1-6.5
	L206.5,219.5z"/>
<path class="st8" d="M195.4,252.2c0.7,1.4,2.4,1.4,4,1.5c1.9,0.2,3.9,0,5.7-0.6c2.2-0.6,4.1-2,5.4-3.8c1.5-2.2,1.9-5,2.8-7.6
	c1.8-5.4,7.3-9.2,8.2-14.9c0.4-2.3,0.4-5.1,1-6.6c0.4-0.9,9.4-16.4,12.6-23.1c3.1-6.5,5.4-9.5,2.6-17.3s-12.3-35.1-19.1-44.6
	c-3.8-5.4-9.9-6.9-17.2-7.6c-5.6,14.6,0.9,29.7,0.9,29.7l14.9,28.6c0,0-5.8,19.7-9.4,30.6c-1,3-3,4.9-5.3,8.3c-1,1.5-3.3,4-4.1,5.6
	c-1,2-1,3.3-1.5,6.1C196.2,241.3,195,251.5,195.4,252.2z"/>
<path class="st7" d="M200.7,127.8c3.9,0.2,9.4,0.8,12.8,2.5s5.6,3.8,9.4,11.4s9.4,22.5,9.4,22.5s-1.9,11.2-19.6,14.1l-12-22.1
	C200.7,156.2,195.3,142.4,200.7,127.8z"/>
<path class="st5" d="M154.5,92c0.5,0.9,1,1.9,1.4,2.9c0.6,1.3,1.3,2.6,2.2,3.7c2.3,2.7,5.5,4.6,8.5,6.5c1.8,1.1,3.8,2.2,6,1.9
	s4.6,0.2,6.9,0.4l7.9,0.7l-0.4,8.3c0,0,1-2.2,2.3-4.8c1.1-2.2,5.9-13.7,5.9-13.7c2.4-5.7,5.2-13.2,2.4-19.1
	c-0.6-1.5-1.7-2.7-3.1-3.5c0.3-0.9,0.4-1.9,0.3-2.8c-0.3-2.7-1.9-5.2-4.2-6.6c-2.2-1.5-4.8-2.6-7.4-3.1c-3.5-0.8-7.1-1.2-10.7-1.2
	c-3.5,0.1-7.1,0.5-10.5,1.2c-1.9,0.4-3.9,0.6-5.9,0.6c-0.8,0.1-1.7,0-2.5-0.1c-1-0.3-2.1-0.7-3.1-1.1c-0.2-0.1-0.4-0.1-0.6,0
	c-0.2,0.1-0.3,0.3-0.3,0.5c-0.5,2.5,0.1,5.2,1.6,7.2c-0.4-0.1-0.9-0.2-1.3-0.4c-0.5-0.2-0.9-0.5-1.4-0.8c-0.7-0.5-1.4-1.1-1.9-1.8
	c-0.1-0.1-0.2-0.2-0.3-0.2c-0.2,0-0.4,0.1-0.5,0.3c-1.1,1.6-1.5,3.6-1,5.5c0.4,1.9,1.3,3.6,2.6,5.1c-1.3,2-1.4,4.6-0.4,6.7
	c0.4,0.9,1,1.8,1.8,2.5c0.9,0.9,2,1.7,2.9,2.5C152.8,90.1,153.7,91,154.5,92z"/>
<path class="st8" d="M178.5,78.3c0,1.5,0.2,3,0.6,4.4c0.5,1.3,1.2,2.4,2.2,3.3c1.1,1,2.2,2,3.1,3.1c1,1.8,1.6,3.7,1.7,5.8
	c0,1.2,0.6,2.3,1.5,3.1c2.1,1.3,3.4-1.2,4.6-2.5c1.5-1.4,5.8-3,7.9,1.6c2.1,4.8-1.8,11.2-5.3,12.1c-6.1,1.7-7.4-2.4-7.4-2.4
	l-1.2,21.6c-3.4,6.5-11.4,8.5-16.7,7.5c-4.6-0.9-7.1-4.1-2.8-8.7l0.2-6.6c0,0-5.5,0.7-8.1,0.2c-4.4-0.8-6.6-4.6-7.8-9.4
	c-1.9-7.7-2.8-15.9-0.4-33.3c1.1-0.6,5.4,2.8,12,3.2C168.2,81.8,173.6,80.7,178.5,78.3z"/>
<path class="st9" d="M167,120.6c0,0,9.9-1.7,13.4-3.4c2.1-1,3.8-2.6,4.9-4.6c-0.6,2-1.6,3.9-2.9,5.5c-2.6,3.1-15.5,5.1-15.5,5.1
	L167,120.6z"/>
<path class="st6" d="M172.1,86l4.6,1.4c0.4-1.3-0.4-2.7-1.7-3.1C173.8,84,172.5,84.7,172.1,86C172.2,85.9,172.2,86,172.1,86z"/>
<path class="st12" d="M170.6,107.8l-6.8,2.3c0.5,1.9,2.5,2.9,4.4,2.4h0.1C170.1,111.8,171.2,109.8,170.6,107.8z"/>
<path class="st13" d="M170,109.5c-1.8,0-3.4,1.2-3.9,3c0.7,0.2,1.4,0.2,2.1,0c1.3-0.5,2.2-1.6,2.4-2.9
	C170.4,109.5,170.2,109.5,170,109.5z"/>
<path class="st6" d="M151.6,86.7l4.7-0.6c-0.1-1.3-1.3-2.2-2.5-2c0,0,0,0-0.1,0C152.4,84.3,151.5,85.4,151.6,86.7z"/>
<path class="st6" d="M180.4,88.7l15.5,5.3c-1.8,0-3.4,0.9-4.5,2.3l-10.9-4.2L180.4,88.7z"/>
<path class="st6" d="M153.9,94.8c-0.1,1,0.7,1.9,1.7,2l0,0c1,0,1.9-0.8,1.9-1.9l0,0c0.1-1-0.7-1.9-1.7-2l0,0
	C154.7,92.9,153.9,93.7,153.9,94.8L153.9,94.8z"/>
<path class="st6" d="M171.6,94.8c0,1,0.8,1.8,1.9,1.8c1,0,1.8-0.8,1.8-1.9c0-1-0.8-1.8-1.8-1.8C172.4,92.9,171.6,93.7,171.6,94.8z"
	/>
<path class="st6" d="M144.8,89.8c0.1,0.8,0.5,1.6,1,2.2c0.2,0.2,0.3,0.5,0.4,0.8c0.4,1.5,0.7,4.3,1.4,5.9c1,2.6,3.5,4.3,6.3,4.2
	c0.7,0,1.4,0,2.2-0.2h0.2c0.6-0.1,1.2-0.4,1.8-0.7l0.1-0.1l0.1-0.1l0.2-0.1l0.2-0.1l0.2-0.2c0.1,0,0.1-0.1,0.2-0.2
	c0.1-0.1,0.2-0.2,0.3-0.3c0.6-0.7,1.1-1.4,1.4-2.2c0.9-2.1,0.7-4.9,2.2-5.3h0.2h0.2c2,0,1.8,3.2,3,5.4s3,4.4,7.5,4.5h0.6
	c0.2,0,0.3,0,0.5,0c0.4,0,0.7-0.1,1.1-0.2l0.3-0.1c0.1,0,0.2-0.1,0.3-0.1l0.2-0.1c0.4-0.1,0.8-0.3,1.2-0.6c0.1-0.1,0.3-0.2,0.4-0.3
	c0.2-0.2,0.5-0.4,0.7-0.6c0.6-0.6,1-1.3,1.4-2.1c0.7-1.6,0.9-4.4,1.2-5.8c0.1-0.3,0.2-0.6,0.3-0.8c0.5-0.6,0.9-1.3,1-2.1
	c0-0.8-0.5-1.6-1.2-1.8l-1.1-0.1c-3.5-0.4-8.1-0.6-10.8,0.1c-3.4,0.9-4.6,2-6.5,2s-2.9-1.2-6.2-2.2c-2.6-0.8-6.9-0.8-10.1-0.5
	l-1,0.1C145.2,88.4,144.7,89.1,144.8,89.8z M167.3,92c0.3-0.3,0.6-0.6,1-0.8c0.1,0,0.1-0.1,0.2-0.1h0.1c0.1-0.1,0.3-0.2,0.5-0.2
	l0.4-0.2c0.5-0.2,1-0.3,1.5-0.5l0.6-0.1c0.5-0.1,1-0.2,1.5-0.2c0.1,0,0.2,0,0.4,0c3.3-0.3,5.4,0.5,6.1,1.2s0.4,3.8,0.1,5.3v0.1v0.1
	c0,0.2-0.1,0.4-0.1,0.6s-0.1,0.2-0.1,0.4l0,0c-0.1,0.2-0.1,0.4-0.2,0.6l0,0c0,0.1-0.1,0.1-0.1,0.2c0,0,0,0.1-0.1,0.1l-0.1,0.2
	l-0.1,0.2l-0.1,0.2c0,0.1-0.1,0.1-0.1,0.2s-0.1,0.2-0.1,0.2c-1,1.5-2.8,2.3-4.6,2.2c-1.8,0.1-3.6-0.6-4.9-1.9l0,0
	c-0.8-0.9-1.3-2-1.6-3.1C166.9,95,166.6,92.9,167.3,92z M147.9,90.4c0.2-0.2,0.5-0.4,0.8-0.5h0.1l0.4-0.1l0.2-0.1h0.2h0.1h0.1h0.2
	c0.2,0,0.5-0.1,0.8-0.1h0.4h1.3c0.5,0,1,0.1,1.5,0.1c2.4,0.3,4.8,1.4,5.4,2.4s0.5,3,0.2,4.7c-0.1,0.4-0.2,0.8-0.3,1.2v0.1v0.1v0.1
	l-0.1,0.1l-0.1,0.3c0,0.1-0.1,0.2-0.1,0.2V99l-0.1,0.2l-0.1,0.1l0,0c-1.1,1.6-3,2.5-4.9,2.2c-0.9,0-1.7-0.2-2.5-0.6
	c-2.3-1.2-2.9-3.8-3.2-5C147.6,94.1,147.2,91,147.9,90.4L147.9,90.4z"/>
<path class="st14" d="M163.8,93.5l-0.4,12.9l-7.2-2.1l6.7-10.9C163.2,93.3,163.5,93.4,163.8,93.5z"/>
<g id="freepik--Icons--inject-2">
	<g id="freepik--like-icon--inject-2">
		<polygon class="st1" points="359.6,93.3 354,95 350,81.5 355.5,79.8 		"/>
		<path class="st1" d="M377.1,81.3c0.1,1.1-0.5,2.2-1.6,2.6c0.4,0.4,0.6,0.9,0.8,1.4c0.3,1-0.5,2.4-2.2,3l-12.8,3.9l-3.8-12.6l0,0
			c0,0,2.2-5.6,2.3-6.4s-1.2-3.9-1.4-4.5s1.9-1.3,3.5-0.7c0.4,0.2,0.7,0.4,1,0.7c0.6,0.6,1.1,1.3,1.5,2.1c0.5,1.1,0.8,2.3,0.8,3.5
			l7.8-2.4c0.5-0.2,1.1-0.2,1.7,0c1.1,0.4,1.7,1.7,1.2,2.8c-0.1,0.3-0.3,0.6-0.6,0.9c1-0.1,1.8,0.5,2.1,1.4c0.2,1.1-0.3,2.1-1.3,2.6
			C376.6,80.2,377,80.7,377.1,81.3z"/>
	</g>
	<g id="freepik--like-icon--inject-2_1_">
		<polygon class="st1" points="440,233.6 432.8,231.9 437,214.5 444.2,216.3 		"/>
		<path class="st1" d="M466.8,231.7c-0.6,1.3-2,2-3.4,1.9c0.1,0.7,0.1,1.4,0,2.1c-0.3,1.4-2.1,2.3-4.3,1.8l-16.5-4l3.9-16.1l0,0
			c0,0,5.9-4.7,6.6-5.5s1.2-5,1.4-5.8s2.9-0.2,4.3,1.5c0.3,0.4,0.6,0.9,0.7,1.5c0.2,1.1,0.3,2.1,0.3,3.2c-0.1,1.5-0.6,3-1.4,4.4
			l9.9,2.4c0.7,0.1,1.3,0.5,1.8,1.1c0.5,0.7,0.7,1.5,0.5,2.3c-0.3,1.1-1.1,1.9-2.2,2.1c1.1,0.5,1.7,1.7,1.4,2.9
			c-0.4,1.3-1.7,2.1-3,2C467,230.1,467,230.9,466.8,231.7z"/>
	</g>
	<g id="freepik--like-icon--inject-2_2_">
		<polygon class="st1" points="76.8,223.2 84.7,225.6 90.3,206.7 82.5,204.3 		"/>
		<path class="st1" d="M52.3,206.4c-0.1,1.6,0.8,3.1,2.2,3.7c-0.5,0.6-0.9,1.3-1.1,2c-0.5,1.5,0.8,3.4,3.1,4.1l18,5.4l5.3-17.6l0,0
			c0,0-3.1-7.8-3.2-9s1.7-5.5,1.9-6.3c0.2-0.7-2.7-1.9-5-0.9c-0.6,0.2-1.1,0.6-1.5,1c-0.8,0.9-1.5,1.9-2.1,3c-0.8,1.6-1.1,3.3-1.1,5
			L58,193.5c-0.8-0.3-1.6-0.2-2.3,0.1c-1.6,0.6-2.3,2.4-1.7,4c0.2,0.5,0.5,0.9,0.9,1.2c-1.3-0.1-2.6,0.7-3,2c-0.3,1.5,0.4,3,1.8,3.6
			C53,204.9,52.5,205.6,52.3,206.4z"/>
	</g>
</g>
</svg>
