<?xml version="1.0" encoding="utf-8"?>
<!-- Generator: Adobe Illustrator 25.2.1, SVG Export Plug-In . SVG Version: 6.00 Build 0)  -->
<svg version="1.1" id="Capa_1" xmlns="http://www.w3.org/2000/svg" xmlns:xlink="http://www.w3.org/1999/xlink" x="0px" y="0px"
	 viewBox="0 0 300 300" style="enable-background:new 0 0 300 300;" xml:space="preserve">
<style type="text/css">
	.st0{fill:#FFFFFF;}
</style>
<path id="Trazado_30650" class="st0" d="M112.09,151.08v132.07c0.05,1.95,1.68,3.49,3.64,3.44c0.02,0,0.03,0,0.05,0h52.38
	c1.96,0.07,3.61-1.47,3.68-3.43c0,0,0,0,0-0.01V148.93h37.97c1.85,0.05,3.43-1.31,3.67-3.14l3.65-40.46
	c0.11-1.95-1.38-3.62-3.33-3.73c-0.11-0.01-0.22-0.01-0.33,0h-41.64v-28.7c0-6.71,5.83-12.16,13-12.16h29.29
	c1.95,0.07,3.58-1.46,3.65-3.41c0-0.01,0-0.02,0-0.03V16.86c-0.04-1.95-1.66-3.5-3.61-3.46c-0.01,0-0.03,0-0.04,0h-49.48
	c-29.05,0-52.56,22.02-52.56,49.19v39h-26.2c-1.96-0.06-3.61,1.48-3.67,3.44c0,0,0,0.01,0,0.01v40.45c0.06,1.96,1.71,3.5,3.67,3.44
	c0,0,0,0,0,0h26.2V151.08z"/>
</svg>
