<?xml version="1.0" encoding="utf-8"?>
<!-- Generator: Adobe Illustrator 25.2.1, SVG Export Plug-In . SVG Version: 6.00 Build 0)  -->
<svg version="1.1" id="Capa_1" xmlns="http://www.w3.org/2000/svg" xmlns:xlink="http://www.w3.org/1999/xlink" x="0px" y="0px"
	 viewBox="0 0 300 300" style="enable-background:new 0 0 300 300;" xml:space="preserve">
<style type="text/css">
	.st0{fill:#FFFFFF;}
</style>
<path id="Trazado_30652" class="st0" d="M219.47,71.08c-8.61,0-15.59,6.57-15.59,14.62c0,8.09,6.98,14.61,15.59,14.61
	s15.6-6.52,15.6-14.61C235.07,77.65,228.09,71.08,219.47,71.08 M150.09,89.82c-36.16,0-65.56,27.55-65.56,61.39
	s29.4,61.36,65.56,61.36s65.58-27.53,65.58-61.36S186.27,89.82,150.09,89.82 M150.09,190.49c-23.15,0-41.99-17.6-41.99-39.28
	s18.84-39.32,41.99-39.32c23.18,0,42.01,17.63,42.01,39.32S173.27,190.49,150.09,190.49 M282.38,100.19
	c0-41.32-35.79-74.84-79.96-74.84H96.87c-44.14,0-79.96,33.52-79.96,74.84V199c0,41.33,35.82,74.84,79.96,74.84h105.55
	c44.17,0,79.96-33.5,79.96-74.84L282.38,100.19z M257.33,199c0,28.4-24.58,51.42-54.91,51.42H96.87
	c-30.33,0-54.91-23.02-54.91-51.42v-98.81c0-28.38,24.58-51.38,54.91-51.38h105.55c30.33,0,54.91,22.99,54.91,51.38L257.33,199z"/>
</svg>
