<svg id="svg" version="1.1" xmlns="http://www.w3.org/2000/svg" xmlns:xlink="http://www.w3.org/1999/xlink" width="400" height="71.35922330097087" viewBox="0, 0, 400,71.35922330097087"><g id="svgg"><path id="path0" d="M17.333 12.579 C 10.922 13.763,6.110 18.062,4.271 24.250 C 3.724 26.090,3.638 48.560,4.168 51.193 C 5.385 57.245,10.421 62.054,17.000 63.450 C 18.296 63.724,19.529 63.750,31.500 63.750 L 44.583 63.750 46.167 63.366 C 52.540 61.822,57.342 57.085,58.569 51.132 C 58.950 49.283,58.966 27.053,58.587 25.076 C 57.385 18.795,52.198 13.886,45.384 12.582 C 43.676 12.255,19.100 12.252,17.333 12.579 M142.583 13.670 C 139.105 14.083,136.183 16.425,134.979 19.763 C 134.662 20.643,134.614 21.205,134.542 24.944 C 134.447 29.856,134.784 29.328,131.734 29.331 C 128.981 29.334,129.167 29.024,129.167 33.612 C 129.167 38.164,128.921 37.807,132.091 37.870 L 134.417 37.917 134.500 49.933 C 134.569 59.833,134.624 61.998,134.814 62.227 C 135.022 62.477,135.542 62.500,139.976 62.461 L 144.907 62.417 145.118 62.000 C 145.282 61.676,145.329 58.984,145.331 49.908 C 145.333 41.053,145.382 38.185,145.533 38.033 C 145.675 37.892,146.669 37.833,148.944 37.833 C 152.589 37.833,152.834 37.750,152.833 36.510 C 152.832 36.184,152.957 34.587,153.111 32.961 C 153.483 29.017,153.804 29.334,149.433 29.331 C 144.852 29.328,145.333 29.674,145.333 26.381 C 145.333 22.172,145.519 22.000,150.052 22.000 C 152.488 22.000,153.020 21.956,153.238 21.738 C 153.718 21.258,153.621 14.103,153.130 13.759 C 152.730 13.480,144.752 13.412,142.583 13.670 M44.940 17.494 C 49.050 18.480,52.120 21.273,53.279 25.083 C 53.687 26.424,53.752 49.310,53.352 50.750 C 52.285 54.591,49.020 57.664,45.050 58.562 C 43.000 59.026,19.237 58.966,17.429 58.493 C 13.467 57.455,10.360 54.512,9.421 50.908 C 9.043 49.456,9.040 26.722,9.418 25.272 C 10.408 21.470,13.833 18.314,17.917 17.443 C 19.940 17.011,43.108 17.055,44.940 17.494 M260.583 18.405 C 260.492 18.439,259.869 18.592,259.200 18.746 C 254.264 19.881,251.005 23.681,250.997 28.309 C 250.994 30.359,250.963 30.407,249.727 30.261 C 248.236 30.084,245.131 29.365,243.241 28.758 C 238.534 27.249,234.451 24.863,231.116 21.675 C 229.456 20.088,229.030 20.208,228.330 22.461 C 227.377 25.523,228.343 29.389,230.660 31.786 C 232.016 33.189,231.779 33.435,229.719 32.764 C 227.809 32.142,227.671 32.252,228.075 34.068 C 228.751 37.107,230.946 39.901,233.667 41.185 C 235.038 41.832,234.936 42.166,233.365 42.169 C 231.589 42.173,231.513 42.375,232.605 44.193 C 233.771 46.132,236.210 47.838,239.000 48.665 C 239.688 48.869,240.349 49.065,240.471 49.100 C 241.324 49.353,239.726 50.468,237.165 51.409 C 234.020 52.564,232.526 52.871,229.502 52.982 C 225.713 53.122,225.690 53.391,229.333 54.947 C 239.573 59.320,252.095 58.315,260.652 52.432 C 267.648 47.622,271.359 40.466,271.976 30.589 L 272.111 28.428 272.847 27.839 C 274.031 26.892,276.615 24.215,276.715 23.831 C 276.856 23.295,276.527 23.279,274.926 23.743 C 272.549 24.431,272.364 24.317,273.639 22.948 C 276.081 20.329,276.305 18.941,274.133 19.902 C 270.897 21.333,269.417 21.531,268.285 20.685 C 266.261 19.172,261.955 17.898,260.583 18.405 M350.083 21.411 C 345.049 22.533,341.800 26.111,341.301 31.083 C 340.993 34.153,341.226 45.893,341.619 47.083 C 342.946 51.108,346.029 53.821,350.257 54.685 C 352.770 55.198,382.787 55.087,384.583 54.558 C 388.486 53.408,391.212 50.922,392.346 47.478 L 392.750 46.250 392.750 38.083 C 392.750 29.991,392.746 29.906,392.364 28.750 C 391.222 25.301,388.389 22.622,384.750 21.550 C 383.408 21.155,351.803 21.028,350.083 21.411 M44.335 22.143 C 41.494 23.666,42.623 27.823,45.880 27.832 C 48.366 27.838,49.886 24.995,48.423 23.077 C 47.541 21.920,45.584 21.473,44.335 22.143 M28.667 25.905 C 20.031 27.732,15.376 36.666,19.267 43.948 C 25.675 55.943,44.914 51.794,44.914 38.417 C 44.914 30.315,36.920 24.159,28.667 25.905 M34.548 30.824 C 40.264 33.024,41.902 39.728,37.741 43.889 C 32.388 49.242,22.865 45.676,22.837 38.309 C 22.817 32.787,29.142 28.744,34.548 30.824 M363.954 31.769 C 364.575 32.100,365.458 32.578,365.917 32.831 C 366.375 33.084,367.500 33.686,368.417 34.170 C 376.180 38.267,375.982 37.936,371.903 40.000 C 370.544 40.688,367.939 42.019,366.113 42.958 C 361.410 45.379,361.833 45.877,361.833 37.917 C 361.833 30.447,361.778 30.608,363.954 31.769 " stroke="none" fill="#f5f5f5" fill-rule="evenodd"></path><path id="path1" d="M0.000 35.667 L 0.000 71.333 200.000 71.333 L 400.000 71.333 400.000 35.667 L 400.000 0.000 200.000 0.000 L 0.000 0.000 0.000 35.667 M45.384 12.582 C 52.198 13.886,57.385 18.795,58.587 25.076 C 58.966 27.053,58.950 49.283,58.569 51.132 C 57.342 57.085,52.540 61.822,46.167 63.366 L 44.583 63.750 31.500 63.750 C 19.529 63.750,18.296 63.724,17.000 63.450 C 10.421 62.054,5.385 57.245,4.168 51.193 C 3.638 48.560,3.724 26.090,4.271 24.250 C 6.110 18.062,10.922 13.763,17.333 12.579 C 19.100 12.252,43.676 12.255,45.384 12.582 M153.130 13.759 C 153.621 14.103,153.718 21.258,153.238 21.738 C 153.020 21.956,152.488 22.000,150.052 22.000 C 145.519 22.000,145.333 22.172,145.333 26.381 C 145.333 29.674,144.852 29.328,149.433 29.331 C 153.804 29.334,153.483 29.017,153.111 32.961 C 152.957 34.587,152.832 36.184,152.833 36.510 C 152.834 37.750,152.589 37.833,148.944 37.833 C 146.669 37.833,145.675 37.892,145.533 38.033 C 145.382 38.185,145.333 41.053,145.331 49.908 C 145.329 58.984,145.282 61.676,145.118 62.000 L 144.907 62.417 139.976 62.461 C 135.542 62.500,135.022 62.477,134.814 62.227 C 134.624 61.998,134.569 59.833,134.500 49.933 L 134.417 37.917 132.091 37.870 C 128.921 37.807,129.167 38.164,129.167 33.612 C 129.167 29.024,128.981 29.334,131.734 29.331 C 134.784 29.328,134.447 29.856,134.542 24.944 C 134.670 18.334,136.393 15.374,140.917 13.992 C 142.648 13.463,152.440 13.277,153.130 13.759 M17.917 17.443 C 13.833 18.314,10.408 21.470,9.418 25.272 C 9.040 26.722,9.043 49.456,9.421 50.908 C 10.360 54.512,13.467 57.455,17.429 58.493 C 19.237 58.966,43.000 59.026,45.050 58.562 C 49.020 57.664,52.285 54.591,53.352 50.750 C 53.752 49.310,53.687 26.424,53.279 25.083 C 52.120 21.273,49.050 18.480,44.940 17.494 C 43.108 17.055,19.940 17.011,17.917 17.443 M264.333 18.782 C 265.636 19.096,267.106 19.804,268.285 20.685 C 269.417 21.531,270.897 21.333,274.133 19.902 C 276.305 18.941,276.081 20.329,273.639 22.948 C 272.364 24.317,272.549 24.431,274.926 23.743 C 276.527 23.279,276.856 23.295,276.715 23.831 C 276.615 24.215,274.031 26.892,272.847 27.839 L 272.111 28.428 271.976 30.589 C 271.359 40.466,267.648 47.622,260.652 52.432 C 252.095 58.315,239.573 59.320,229.333 54.947 C 225.690 53.391,225.713 53.122,229.502 52.982 C 232.526 52.871,234.020 52.564,237.165 51.409 C 239.726 50.468,241.324 49.353,240.471 49.100 C 240.349 49.065,239.688 48.869,239.000 48.665 C 236.210 47.838,233.771 46.132,232.605 44.193 C 231.513 42.375,231.589 42.173,233.365 42.169 C 234.936 42.166,235.038 41.832,233.667 41.185 C 230.946 39.901,228.751 37.107,228.075 34.068 C 227.671 32.252,227.809 32.142,229.719 32.764 C 231.779 33.435,232.016 33.189,230.660 31.786 C 228.343 29.389,227.377 25.523,228.330 22.461 C 229.030 20.208,229.456 20.088,231.116 21.675 C 234.451 24.863,238.534 27.249,243.241 28.758 C 245.131 29.365,248.236 30.084,249.727 30.261 C 250.963 30.407,250.994 30.359,250.997 28.309 C 251.005 23.681,254.264 19.881,259.200 18.746 C 259.869 18.592,260.492 18.439,260.583 18.405 C 260.904 18.286,263.260 18.523,264.333 18.782 M384.750 21.550 C 388.389 22.622,391.222 25.301,392.364 28.750 C 392.746 29.906,392.750 29.991,392.750 38.083 L 392.750 46.250 392.346 47.478 C 391.212 50.922,388.486 53.408,384.583 54.558 C 382.787 55.087,352.770 55.198,350.257 54.685 C 346.029 53.821,342.946 51.108,341.619 47.083 C 341.226 45.893,340.993 34.153,341.301 31.083 C 341.800 26.111,345.049 22.533,350.083 21.411 C 351.803 21.028,383.408 21.155,384.750 21.550 M47.269 22.152 C 50.180 23.474,49.113 27.840,45.880 27.832 C 42.623 27.823,41.494 23.666,44.335 22.143 C 45.079 21.744,46.379 21.748,47.269 22.152 M35.230 26.149 C 45.099 29.072,48.285 40.508,41.119 47.285 C 32.551 55.389,17.880 49.666,17.955 38.250 C 18.010 29.898,26.889 23.679,35.230 26.149 M28.917 30.634 C 22.804 32.452,20.808 39.476,25.164 43.838 C 31.550 50.232,42.623 43.939,39.564 35.654 C 38.119 31.739,33.122 29.384,28.917 30.634 M362.093 31.537 C 361.870 31.856,361.833 32.748,361.833 37.917 C 361.833 45.877,361.410 45.379,366.113 42.958 C 367.939 42.019,370.544 40.688,371.903 40.000 C 375.982 37.936,376.180 38.267,368.417 34.170 C 367.500 33.686,366.375 33.084,365.917 32.831 C 362.574 30.988,362.496 30.962,362.093 31.537 " stroke="none" fill="#040404" fill-rule="evenodd"></path></g></svg>