<?xml version="1.0" encoding="utf-8"?>
<!-- Generator: Adobe Illustrator 25.2.1, SVG Export Plug-In . SVG Version: 6.00 Build 0)  -->
<svg version="1.1" id="Capa_1" xmlns="http://www.w3.org/2000/svg" xmlns:xlink="http://www.w3.org/1999/xlink" x="0px" y="0px"
	 viewBox="0 0 300 300" style="enable-background:new 0 0 300 300;" xml:space="preserve">
<style type="text/css">
	.st0{fill:#FFFFFF;}
</style>
<path id="Trazado_30645" class="st0" d="M281.04,72.64c-8.38,3.55-17.63,5.7-26.68,7.12c4.31-0.67,10.64-7.94,13.16-10.88
	c3.92-4.41,6.94-9.55,8.88-15.13c0.23-0.43,0.39-0.99-0.06-1.31c-0.46-0.18-0.98-0.14-1.4,0.11c-10.08,5.03-20.73,8.83-31.71,11.34
	c-0.76,0.23-1.59,0.03-2.16-0.53c-0.86-0.95-1.78-1.84-2.77-2.65c-10.97-8.81-24.84-13.21-38.88-12.33
	c-7.76,0.47-15.35,2.47-22.34,5.88c-6.88,3.32-13.01,8.02-18.01,13.79c-5.08,5.8-8.76,12.69-10.74,20.14
	c-1.87,7.1-1.72,14.12-0.59,21.29c0.18,1.19,0.05,1.34-1.1,1.19c-43.5-6.06-79.58-20.61-108.87-51.84c-1.26-1.36-1.96-1.36-3,0.09
	c-12.81,17.98-6.6,46.84,9.42,61.04c2.13,1.89,4.3,3.78,6.67,5.5c-0.85,0.17-11.5-0.9-21-5.5c-1.26-0.76-1.9-0.32-2.03,1.02
	c-0.07,1.96,0.04,3.92,0.34,5.85c2.48,18.19,15.97,35.06,34.42,41.63c2.25,0.91,4.6,1.58,6.99,2c-4.21,0.87-8.55,1.48-20.62,0.61
	c-1.51-0.29-2.07,0.41-1.51,1.75c9.05,23.13,28.63,30,43.29,33.95c1.96,0.29,3.93,0.29,5.89,0.75c-0.11,0.15-0.23,0.15-0.33,0.34
	c-4.88,6.92-21.73,12.08-29.57,14.64c-14.28,4.65-29.82,6.76-44.9,5.39c-2.41-0.35-2.91-0.32-3.57,0c-0.67,0.36-0.09,0.92,0.67,1.49
	c3.06,1.89,6.19,3.57,9.37,5.18c9.59,4.78,19.65,8.55,30.02,11.26c53.94,13.91,114.7,3.67,155.19-33.98
	c31.8-29.54,42.98-70.33,42.98-111.17c0-1.58,1.98-2.47,3.22-3.31c8.26-5.82,14.83-12.8,21.01-20.57c0.91-1.1,1.37-2.5,1.29-3.93
	v-0.21C282.02,71.99,282.1,72.18,281.04,72.64"/>
</svg>
